G04 EAGLE Gerber RS-274X export*
G75*
%MOMM*%
%FSLAX34Y34*%
%LPD*%
%INTop Copper*%
%IPPOS*%
%AMOC8*
5,1,8,0,0,1.08239X$1,22.5*%
G01*
%ADD10R,0.800000X0.800000*%
%ADD11P,1.649562X8X112.500000*%
%ADD12R,1.000000X1.100000*%
%ADD13R,1.100000X1.000000*%
%ADD14R,1.981200X0.558800*%
%ADD15R,1.300000X1.500000*%
%ADD16R,0.572000X1.554000*%
%ADD17C,0.572000*%
%ADD18C,1.524000*%
%ADD19R,0.500000X0.800000*%
%ADD20C,1.000000*%
%ADD21R,1.800000X1.800000*%
%ADD22C,1.800000*%
%ADD23C,0.750000*%
%ADD24C,0.406400*%
%ADD25C,0.604800*%
%ADD26C,0.304800*%
%ADD27C,0.812800*%
%ADD28C,0.609600*%

G36*
X28592Y98745D02*
X28592Y98745D01*
X28609Y98744D01*
X28750Y98765D01*
X28891Y98783D01*
X28906Y98789D01*
X28923Y98792D01*
X29054Y98848D01*
X29186Y98900D01*
X29200Y98910D01*
X29215Y98917D01*
X29349Y99006D01*
X35781Y103954D01*
X35811Y103984D01*
X35846Y104008D01*
X35923Y104095D01*
X36007Y104178D01*
X36028Y104214D01*
X36056Y104246D01*
X36109Y104350D01*
X36170Y104451D01*
X36182Y104492D01*
X36201Y104529D01*
X36227Y104643D01*
X36260Y104756D01*
X36261Y104798D01*
X36271Y104839D01*
X36267Y104957D01*
X36271Y105074D01*
X36262Y105115D01*
X36261Y105157D01*
X36228Y105270D01*
X36203Y105385D01*
X36184Y105422D01*
X36172Y105463D01*
X36113Y105564D01*
X36060Y105669D01*
X36032Y105700D01*
X36011Y105737D01*
X35905Y105858D01*
X25215Y116548D01*
X25136Y116608D01*
X25064Y116676D01*
X25011Y116705D01*
X24963Y116742D01*
X24872Y116782D01*
X24786Y116830D01*
X24727Y116845D01*
X24671Y116869D01*
X24574Y116884D01*
X24478Y116909D01*
X24378Y116915D01*
X24357Y116919D01*
X24345Y116917D01*
X24317Y116919D01*
X16498Y116919D01*
X15185Y118232D01*
X15091Y118305D01*
X15002Y118384D01*
X14966Y118403D01*
X14934Y118427D01*
X14824Y118475D01*
X14718Y118529D01*
X14679Y118538D01*
X14642Y118554D01*
X14524Y118572D01*
X14408Y118598D01*
X14368Y118597D01*
X14328Y118604D01*
X14209Y118592D01*
X14090Y118589D01*
X14051Y118577D01*
X14011Y118574D01*
X13899Y118533D01*
X13785Y118500D01*
X13750Y118480D01*
X13712Y118466D01*
X13613Y118399D01*
X13511Y118339D01*
X13466Y118299D01*
X13449Y118288D01*
X13435Y118272D01*
X13390Y118232D01*
X11940Y116783D01*
X11889Y116762D01*
X11849Y116733D01*
X11804Y116711D01*
X11721Y116640D01*
X11632Y116576D01*
X11600Y116537D01*
X11562Y116505D01*
X11499Y116415D01*
X11429Y116331D01*
X11408Y116285D01*
X11379Y116245D01*
X11340Y116142D01*
X11294Y116043D01*
X11284Y115994D01*
X11267Y115947D01*
X11254Y115838D01*
X11234Y115731D01*
X11237Y115681D01*
X11231Y115631D01*
X11247Y115522D01*
X11254Y115413D01*
X11269Y115366D01*
X11276Y115316D01*
X11280Y115305D01*
X11280Y113319D01*
X10529Y111508D01*
X9142Y110121D01*
X7331Y109370D01*
X5369Y109370D01*
X3558Y110121D01*
X2171Y111508D01*
X1420Y113319D01*
X1420Y115330D01*
X1427Y115365D01*
X1456Y115471D01*
X1457Y115521D01*
X1466Y115570D01*
X1459Y115679D01*
X1461Y115789D01*
X1450Y115837D01*
X1446Y115887D01*
X1413Y115991D01*
X1387Y116098D01*
X1364Y116142D01*
X1348Y116189D01*
X1290Y116282D01*
X1238Y116379D01*
X1205Y116416D01*
X1178Y116458D01*
X1098Y116533D01*
X1025Y116615D01*
X983Y116642D01*
X947Y116676D01*
X851Y116729D01*
X759Y116789D01*
X712Y116806D01*
X668Y116830D01*
X562Y116857D01*
X458Y116893D01*
X408Y116897D01*
X360Y116909D01*
X199Y116919D01*
X-502Y116919D01*
X-1618Y118036D01*
X-1618Y129614D01*
X-502Y130731D01*
X1210Y130731D01*
X1348Y130748D01*
X1486Y130761D01*
X1505Y130768D01*
X1525Y130771D01*
X1655Y130822D01*
X1786Y130869D01*
X1802Y130880D01*
X1821Y130888D01*
X1933Y130969D01*
X2049Y131047D01*
X2062Y131063D01*
X2078Y131074D01*
X2167Y131182D01*
X2259Y131286D01*
X2268Y131304D01*
X2281Y131319D01*
X2341Y131445D01*
X2404Y131569D01*
X2408Y131589D01*
X2417Y131607D01*
X2443Y131744D01*
X2473Y131879D01*
X2473Y131900D01*
X2477Y131919D01*
X2468Y132058D01*
X2464Y132197D01*
X2458Y132217D01*
X2457Y132237D01*
X2414Y132369D01*
X2375Y132503D01*
X2365Y132520D01*
X2359Y132539D01*
X2285Y132657D01*
X2214Y132777D01*
X2195Y132798D01*
X2189Y132808D01*
X2174Y132822D01*
X2107Y132897D01*
X1594Y133411D01*
X1594Y145989D01*
X2612Y147007D01*
X2673Y147085D01*
X2741Y147157D01*
X2770Y147211D01*
X2807Y147258D01*
X2846Y147349D01*
X2894Y147436D01*
X2909Y147495D01*
X2933Y147550D01*
X2949Y147648D01*
X2974Y147744D01*
X2980Y147844D01*
X2983Y147864D01*
X2982Y147877D01*
X2984Y147905D01*
X2984Y166085D01*
X3738Y167906D01*
X8435Y172604D01*
X8508Y172698D01*
X8587Y172787D01*
X8605Y172823D01*
X8630Y172855D01*
X8678Y172964D01*
X8732Y173070D01*
X8741Y173109D01*
X8757Y173147D01*
X8775Y173264D01*
X8801Y173380D01*
X8800Y173421D01*
X8806Y173461D01*
X8795Y173579D01*
X8792Y173698D01*
X8780Y173737D01*
X8777Y173777D01*
X8736Y173889D01*
X8703Y174004D01*
X8683Y174039D01*
X8669Y174077D01*
X8602Y174175D01*
X8542Y174278D01*
X8502Y174323D01*
X8490Y174340D01*
X8475Y174353D01*
X8435Y174399D01*
X7937Y174897D01*
X7937Y188640D01*
X9229Y189933D01*
X9302Y190027D01*
X9381Y190116D01*
X9399Y190152D01*
X9424Y190184D01*
X9471Y190293D01*
X9525Y190399D01*
X9534Y190439D01*
X9550Y190476D01*
X9569Y190594D01*
X9595Y190710D01*
X9594Y190750D01*
X9600Y190790D01*
X9589Y190909D01*
X9585Y191027D01*
X9574Y191066D01*
X9570Y191107D01*
X9530Y191219D01*
X9497Y191333D01*
X9477Y191368D01*
X9463Y191406D01*
X9396Y191504D01*
X9336Y191607D01*
X9296Y191652D01*
X9284Y191669D01*
X9269Y191682D01*
X9229Y191728D01*
X2150Y198806D01*
X1396Y200627D01*
X1396Y204520D01*
X1384Y204619D01*
X1381Y204718D01*
X1364Y204776D01*
X1356Y204836D01*
X1320Y204928D01*
X1292Y205023D01*
X1262Y205075D01*
X1239Y205132D01*
X1181Y205212D01*
X1131Y205297D01*
X1065Y205372D01*
X1053Y205389D01*
X1043Y205397D01*
X1025Y205418D01*
X7Y206436D01*
X7Y219014D01*
X1266Y220274D01*
X1301Y220288D01*
X1397Y220357D01*
X1498Y220421D01*
X1525Y220451D01*
X1558Y220474D01*
X1634Y220566D01*
X1716Y220653D01*
X1735Y220688D01*
X1761Y220719D01*
X1812Y220827D01*
X1869Y220931D01*
X1879Y220971D01*
X1896Y221007D01*
X1919Y221124D01*
X1949Y221239D01*
X1952Y221299D01*
X1956Y221319D01*
X1955Y221340D01*
X1959Y221400D01*
X1959Y224823D01*
X2713Y226644D01*
X4285Y228216D01*
X24968Y248899D01*
X24986Y248922D01*
X25009Y248941D01*
X25083Y249047D01*
X25085Y249049D01*
X25130Y249103D01*
X25134Y249113D01*
X25163Y249150D01*
X25175Y249177D01*
X25192Y249201D01*
X25238Y249323D01*
X25289Y249442D01*
X25294Y249471D01*
X25305Y249499D01*
X25319Y249628D01*
X25339Y249756D01*
X25337Y249785D01*
X25340Y249815D01*
X25322Y249943D01*
X25310Y250073D01*
X25300Y250100D01*
X25295Y250130D01*
X25243Y250282D01*
X23944Y253418D01*
X23944Y257757D01*
X25605Y261765D01*
X28672Y264833D01*
X32681Y266493D01*
X37019Y266493D01*
X41028Y264833D01*
X44095Y261765D01*
X45756Y257757D01*
X45756Y253418D01*
X44095Y249410D01*
X41028Y246342D01*
X37019Y244682D01*
X35288Y244682D01*
X35190Y244669D01*
X35091Y244666D01*
X35033Y244650D01*
X34973Y244642D01*
X34881Y244605D01*
X34785Y244578D01*
X34733Y244547D01*
X34677Y244525D01*
X34597Y244467D01*
X34511Y244416D01*
X34436Y244350D01*
X34420Y244338D01*
X34412Y244329D01*
X34391Y244310D01*
X12354Y222273D01*
X12281Y222179D01*
X12202Y222090D01*
X12184Y222054D01*
X12159Y222022D01*
X12112Y221913D01*
X12058Y221807D01*
X12049Y221768D01*
X12033Y221730D01*
X12014Y221613D01*
X11988Y221497D01*
X11989Y221456D01*
X11983Y221416D01*
X11994Y221298D01*
X11998Y221179D01*
X12009Y221140D01*
X12013Y221100D01*
X12053Y220988D01*
X12086Y220873D01*
X12107Y220838D01*
X12120Y220800D01*
X12187Y220702D01*
X12248Y220599D01*
X12288Y220554D01*
X12299Y220537D01*
X12314Y220524D01*
X12354Y220478D01*
X13818Y219014D01*
X13818Y206436D01*
X12700Y205318D01*
X12576Y205302D01*
X12437Y205289D01*
X12418Y205282D01*
X12398Y205279D01*
X12269Y205228D01*
X12137Y205181D01*
X12121Y205170D01*
X12102Y205162D01*
X11989Y205081D01*
X11874Y205003D01*
X11861Y204987D01*
X11845Y204976D01*
X11756Y204868D01*
X11664Y204764D01*
X11655Y204746D01*
X11642Y204731D01*
X11582Y204605D01*
X11519Y204481D01*
X11515Y204461D01*
X11506Y204443D01*
X11480Y204307D01*
X11450Y204171D01*
X11450Y204150D01*
X11446Y204131D01*
X11455Y203992D01*
X11459Y203853D01*
X11465Y203833D01*
X11466Y203813D01*
X11509Y203681D01*
X11548Y203547D01*
X11558Y203530D01*
X11564Y203511D01*
X11639Y203393D01*
X11709Y203273D01*
X11728Y203252D01*
X11734Y203242D01*
X11749Y203228D01*
X11816Y203153D01*
X15968Y199000D01*
X16046Y198940D01*
X16118Y198872D01*
X16171Y198843D01*
X16219Y198806D01*
X16310Y198766D01*
X16397Y198718D01*
X16455Y198703D01*
X16511Y198679D01*
X16609Y198664D01*
X16704Y198639D01*
X16805Y198633D01*
X16825Y198629D01*
X16837Y198631D01*
X16865Y198629D01*
X24036Y198629D01*
X24416Y198471D01*
X24425Y198469D01*
X24433Y198464D01*
X24578Y198427D01*
X24723Y198387D01*
X24732Y198387D01*
X24741Y198385D01*
X24902Y198375D01*
X30480Y198375D01*
X30598Y198390D01*
X30717Y198397D01*
X30755Y198410D01*
X30796Y198415D01*
X30906Y198458D01*
X31019Y198495D01*
X31054Y198517D01*
X31091Y198532D01*
X31187Y198601D01*
X31288Y198665D01*
X31316Y198695D01*
X31349Y198718D01*
X31425Y198810D01*
X31506Y198897D01*
X31526Y198932D01*
X31551Y198963D01*
X31602Y199071D01*
X31660Y199175D01*
X31670Y199215D01*
X31687Y199251D01*
X31709Y199368D01*
X31739Y199483D01*
X31743Y199543D01*
X31747Y199563D01*
X31745Y199584D01*
X31749Y199644D01*
X31749Y221978D01*
X33610Y223838D01*
X52115Y223838D01*
X53976Y221978D01*
X53976Y174897D01*
X52227Y173149D01*
X52167Y173071D01*
X52099Y172998D01*
X52070Y172945D01*
X52033Y172898D01*
X51993Y172807D01*
X51945Y172720D01*
X51930Y172661D01*
X51906Y172606D01*
X51891Y172508D01*
X51866Y172412D01*
X51860Y172312D01*
X51856Y172292D01*
X51858Y172279D01*
X51856Y172251D01*
X51856Y161461D01*
X50739Y160344D01*
X44426Y160344D01*
X44288Y160327D01*
X44149Y160314D01*
X44130Y160307D01*
X44110Y160304D01*
X43980Y160253D01*
X43850Y160206D01*
X43833Y160195D01*
X43814Y160187D01*
X43702Y160106D01*
X43587Y160028D01*
X43573Y160012D01*
X43557Y160001D01*
X43468Y159893D01*
X43376Y159789D01*
X43367Y159771D01*
X43354Y159756D01*
X43295Y159630D01*
X43232Y159506D01*
X43227Y159486D01*
X43219Y159468D01*
X43193Y159331D01*
X43162Y159196D01*
X43163Y159175D01*
X43159Y159156D01*
X43168Y159017D01*
X43172Y158878D01*
X43177Y158858D01*
X43179Y158838D01*
X43222Y158706D01*
X43260Y158572D01*
X43270Y158555D01*
X43277Y158536D01*
X43351Y158418D01*
X43422Y158298D01*
X43440Y158277D01*
X43447Y158267D01*
X43462Y158253D01*
X43528Y158177D01*
X44178Y157527D01*
X44256Y157467D01*
X44329Y157399D01*
X44382Y157370D01*
X44429Y157333D01*
X44520Y157293D01*
X44607Y157245D01*
X44666Y157230D01*
X44721Y157206D01*
X44819Y157191D01*
X44915Y157166D01*
X45015Y157160D01*
X45035Y157156D01*
X45048Y157158D01*
X45076Y157156D01*
X50739Y157156D01*
X50830Y157065D01*
X50908Y157004D01*
X50981Y156936D01*
X51034Y156907D01*
X51081Y156870D01*
X51172Y156831D01*
X51259Y156783D01*
X51318Y156768D01*
X51373Y156744D01*
X51471Y156728D01*
X51567Y156703D01*
X51667Y156697D01*
X51687Y156694D01*
X51700Y156695D01*
X51728Y156693D01*
X61852Y156693D01*
X62968Y155577D01*
X62968Y143998D01*
X61852Y142882D01*
X49273Y142882D01*
X49182Y142973D01*
X49104Y143033D01*
X49032Y143101D01*
X48979Y143130D01*
X48931Y143167D01*
X48840Y143207D01*
X48753Y143255D01*
X48695Y143270D01*
X48639Y143294D01*
X48541Y143309D01*
X48446Y143334D01*
X48346Y143340D01*
X48325Y143344D01*
X48313Y143342D01*
X48285Y143344D01*
X38161Y143344D01*
X37044Y144461D01*
X37044Y149352D01*
X37029Y149470D01*
X37022Y149589D01*
X37009Y149627D01*
X37004Y149668D01*
X36961Y149778D01*
X36924Y149891D01*
X36902Y149926D01*
X36887Y149963D01*
X36818Y150059D01*
X36754Y150160D01*
X36724Y150188D01*
X36701Y150221D01*
X36609Y150297D01*
X36522Y150378D01*
X36487Y150398D01*
X36456Y150423D01*
X36348Y150474D01*
X36244Y150532D01*
X36204Y150542D01*
X36168Y150559D01*
X36051Y150581D01*
X35936Y150611D01*
X35876Y150615D01*
X35856Y150619D01*
X35835Y150617D01*
X35775Y150621D01*
X29946Y150621D01*
X29896Y150615D01*
X29847Y150617D01*
X29739Y150595D01*
X29630Y150581D01*
X29584Y150563D01*
X29535Y150553D01*
X29437Y150505D01*
X29334Y150464D01*
X29294Y150435D01*
X29250Y150413D01*
X29166Y150342D01*
X29077Y150278D01*
X29045Y150239D01*
X29008Y150207D01*
X28944Y150117D01*
X28874Y150033D01*
X28853Y149988D01*
X28825Y149947D01*
X28786Y149844D01*
X28739Y149745D01*
X28729Y149696D01*
X28712Y149650D01*
X28700Y149540D01*
X28679Y149433D01*
X28682Y149383D01*
X28677Y149334D01*
X28692Y149225D01*
X28699Y149115D01*
X28714Y149068D01*
X28721Y149019D01*
X28773Y148866D01*
X29206Y147821D01*
X29206Y145859D01*
X28456Y144048D01*
X27069Y142661D01*
X26917Y142598D01*
X26889Y142582D01*
X26858Y142572D01*
X26751Y142503D01*
X26641Y142440D01*
X26618Y142418D01*
X26590Y142400D01*
X26504Y142307D01*
X26413Y142219D01*
X26395Y142191D01*
X26373Y142168D01*
X26313Y142056D01*
X26246Y141948D01*
X26237Y141917D01*
X26221Y141888D01*
X26190Y141766D01*
X26153Y141644D01*
X26151Y141612D01*
X26143Y141580D01*
X26134Y141419D01*
X26178Y131994D01*
X26194Y131879D01*
X26201Y131763D01*
X26214Y131722D01*
X26220Y131679D01*
X26263Y131571D01*
X26299Y131461D01*
X26322Y131424D01*
X26338Y131383D01*
X26407Y131290D01*
X26469Y131192D01*
X26501Y131162D01*
X26526Y131127D01*
X26616Y131053D01*
X26701Y130974D01*
X26739Y130953D01*
X26772Y130925D01*
X26878Y130876D01*
X26979Y130820D01*
X27021Y130810D01*
X27061Y130791D01*
X27175Y130770D01*
X27287Y130741D01*
X27352Y130737D01*
X27373Y130733D01*
X27393Y130734D01*
X27448Y130731D01*
X29077Y130731D01*
X30193Y129614D01*
X30193Y121795D01*
X30206Y121697D01*
X30209Y121598D01*
X30225Y121540D01*
X30233Y121480D01*
X30270Y121388D01*
X30297Y121293D01*
X30328Y121240D01*
X30350Y121184D01*
X30408Y121104D01*
X30459Y121019D01*
X30525Y120943D01*
X30537Y120927D01*
X30546Y120919D01*
X30565Y120898D01*
X41622Y109841D01*
X41651Y109819D01*
X41675Y109791D01*
X41776Y109721D01*
X41873Y109646D01*
X41907Y109632D01*
X41937Y109611D01*
X42052Y109569D01*
X42165Y109520D01*
X42201Y109514D01*
X42236Y109501D01*
X42358Y109489D01*
X42479Y109470D01*
X42516Y109474D01*
X42553Y109470D01*
X42673Y109488D01*
X42795Y109500D01*
X42830Y109512D01*
X42867Y109518D01*
X42980Y109566D01*
X43095Y109607D01*
X43125Y109628D01*
X43159Y109643D01*
X43293Y109733D01*
X47245Y112773D01*
X47353Y112880D01*
X47464Y112987D01*
X47467Y112993D01*
X47471Y112997D01*
X47550Y113129D01*
X47629Y113259D01*
X47631Y113265D01*
X47634Y113270D01*
X47678Y113417D01*
X47722Y113563D01*
X47723Y113569D01*
X47724Y113575D01*
X47730Y113727D01*
X47737Y113881D01*
X47736Y113889D01*
X47736Y113893D01*
X47734Y113902D01*
X47714Y114040D01*
X47632Y114429D01*
X47620Y114465D01*
X47614Y114502D01*
X47562Y114654D01*
X47458Y114907D01*
X47458Y115127D01*
X47451Y115177D01*
X47454Y115228D01*
X47431Y115388D01*
X47337Y115834D01*
X47436Y116360D01*
X47438Y116398D01*
X47448Y116434D01*
X47458Y116595D01*
X47458Y116868D01*
X47542Y117071D01*
X47555Y117120D01*
X47577Y117167D01*
X47617Y117323D01*
X49109Y125264D01*
X49112Y125322D01*
X49125Y125378D01*
X49122Y125480D01*
X49128Y125582D01*
X49117Y125638D01*
X49115Y125696D01*
X49087Y125794D01*
X49067Y125894D01*
X49043Y125946D01*
X49027Y126001D01*
X48975Y126089D01*
X48931Y126181D01*
X48894Y126226D01*
X48865Y126275D01*
X48759Y126396D01*
X48157Y126998D01*
X48157Y138577D01*
X49273Y139693D01*
X61852Y139693D01*
X62603Y138943D01*
X62697Y138870D01*
X62786Y138791D01*
X62822Y138773D01*
X62854Y138748D01*
X62963Y138700D01*
X63069Y138646D01*
X63108Y138637D01*
X63146Y138621D01*
X63263Y138603D01*
X63379Y138577D01*
X63420Y138578D01*
X63460Y138571D01*
X63578Y138583D01*
X63697Y138586D01*
X63736Y138598D01*
X63776Y138601D01*
X63888Y138642D01*
X64003Y138675D01*
X64038Y138695D01*
X64076Y138709D01*
X64174Y138776D01*
X64277Y138836D01*
X64322Y138876D01*
X64339Y138887D01*
X64352Y138903D01*
X64398Y138943D01*
X65648Y140193D01*
X77227Y140193D01*
X78371Y139049D01*
X78383Y138957D01*
X78404Y138904D01*
X78416Y138848D01*
X78462Y138756D01*
X78500Y138661D01*
X78534Y138615D01*
X78559Y138564D01*
X78627Y138487D01*
X78687Y138404D01*
X78731Y138367D01*
X78769Y138324D01*
X78853Y138266D01*
X78932Y138201D01*
X78984Y138177D01*
X79031Y138144D01*
X79127Y138109D01*
X79220Y138065D01*
X79276Y138055D01*
X79329Y138035D01*
X79431Y138025D01*
X79532Y138006D01*
X79589Y138009D01*
X79646Y138003D01*
X79747Y138019D01*
X79849Y138025D01*
X79904Y138043D01*
X79960Y138052D01*
X80055Y138092D01*
X80152Y138123D01*
X80200Y138154D01*
X80253Y138176D01*
X80386Y138266D01*
X95330Y149761D01*
X95345Y149777D01*
X95364Y149788D01*
X95458Y149888D01*
X95555Y149985D01*
X95567Y150004D01*
X95582Y150020D01*
X95627Y150102D01*
X95628Y150103D01*
X95648Y150140D01*
X95718Y150258D01*
X95725Y150279D01*
X95735Y150298D01*
X95754Y150372D01*
X95763Y150390D01*
X95772Y150441D01*
X95808Y150563D01*
X95809Y150585D01*
X95815Y150606D01*
X95820Y150690D01*
X95822Y150702D01*
X95822Y150715D01*
X95825Y150767D01*
X95825Y158374D01*
X97795Y158374D01*
X97893Y158386D01*
X97992Y158389D01*
X98050Y158406D01*
X98110Y158414D01*
X98202Y158450D01*
X98297Y158478D01*
X98349Y158509D01*
X98406Y158531D01*
X98486Y158589D01*
X98571Y158639D01*
X98647Y158706D01*
X98663Y158718D01*
X98671Y158727D01*
X98692Y158746D01*
X98697Y158751D01*
X136253Y158751D01*
X136258Y158746D01*
X136336Y158685D01*
X136408Y158617D01*
X136461Y158588D01*
X136509Y158551D01*
X136600Y158511D01*
X136687Y158464D01*
X136745Y158449D01*
X136801Y158424D01*
X136899Y158409D01*
X136995Y158384D01*
X137095Y158378D01*
X137115Y158375D01*
X137127Y158376D01*
X137155Y158374D01*
X152263Y158374D01*
X152393Y158390D01*
X152524Y158401D01*
X152551Y158410D01*
X152579Y158414D01*
X152701Y158462D01*
X152824Y158505D01*
X152848Y158520D01*
X152874Y158531D01*
X152980Y158608D01*
X153090Y158680D01*
X153109Y158701D01*
X153132Y158718D01*
X153215Y158819D01*
X153303Y158916D01*
X153324Y158950D01*
X153335Y158963D01*
X153344Y158982D01*
X153344Y158983D01*
X153347Y158987D01*
X153350Y158992D01*
X153387Y159053D01*
X153430Y159136D01*
X153438Y159156D01*
X153450Y159175D01*
X153510Y159324D01*
X153744Y160024D01*
X153822Y160075D01*
X153824Y160078D01*
X153827Y160079D01*
X153932Y160197D01*
X154036Y160311D01*
X154038Y160315D01*
X154039Y160316D01*
X154042Y160321D01*
X154119Y160448D01*
X154442Y161063D01*
X154496Y161208D01*
X154552Y161355D01*
X154552Y161358D01*
X154553Y161361D01*
X154570Y161514D01*
X154581Y161617D01*
X155022Y162204D01*
X155033Y162222D01*
X155047Y162239D01*
X155131Y162376D01*
X155474Y163030D01*
X155559Y163068D01*
X155562Y163070D01*
X155565Y163071D01*
X155686Y163169D01*
X155808Y163266D01*
X155810Y163270D01*
X155812Y163271D01*
X155816Y163276D01*
X155912Y163389D01*
X156330Y163944D01*
X156408Y164081D01*
X156485Y164214D01*
X156486Y164217D01*
X156487Y164220D01*
X156528Y164370D01*
X156556Y164468D01*
X157085Y164976D01*
X157098Y164993D01*
X157115Y165007D01*
X157220Y165129D01*
X157664Y165719D01*
X157754Y165743D01*
X157757Y165745D01*
X157760Y165746D01*
X157895Y165822D01*
X158031Y165899D01*
X158034Y165902D01*
X158036Y165903D01*
X158040Y165907D01*
X158154Y166003D01*
X158655Y166484D01*
X158751Y166603D01*
X158851Y166726D01*
X158853Y166729D01*
X158855Y166732D01*
X158919Y166873D01*
X158962Y166965D01*
X159566Y167382D01*
X159582Y167397D01*
X159601Y167407D01*
X159724Y167511D01*
X160256Y168022D01*
X160349Y168032D01*
X160352Y168033D01*
X160356Y168033D01*
X160503Y168088D01*
X160648Y168141D01*
X160652Y168144D01*
X160654Y168144D01*
X160658Y168148D01*
X160786Y168224D01*
X160888Y168295D01*
X160939Y168340D01*
X160995Y168378D01*
X161057Y168446D01*
X161125Y168507D01*
X161163Y168563D01*
X161208Y168614D01*
X161251Y168695D01*
X161302Y168771D01*
X161325Y168835D01*
X161356Y168896D01*
X161377Y168985D01*
X161407Y169071D01*
X161413Y169139D01*
X161429Y169205D01*
X161427Y169297D01*
X161435Y169388D01*
X161424Y169455D01*
X161423Y169523D01*
X161398Y169611D01*
X161383Y169702D01*
X161356Y169764D01*
X161338Y169830D01*
X161266Y169974D01*
X144520Y198979D01*
X144477Y199036D01*
X144442Y199099D01*
X144381Y199162D01*
X144328Y199232D01*
X144272Y199277D01*
X144223Y199329D01*
X144148Y199375D01*
X144079Y199430D01*
X144013Y199459D01*
X143953Y199497D01*
X143869Y199524D01*
X143788Y199559D01*
X143718Y199571D01*
X143650Y199593D01*
X143562Y199598D01*
X143475Y199613D01*
X143403Y199607D01*
X143332Y199611D01*
X143246Y199593D01*
X143158Y199586D01*
X143090Y199563D01*
X143020Y199549D01*
X142871Y199488D01*
X141894Y199018D01*
X141891Y199016D01*
X141887Y199015D01*
X141756Y198929D01*
X141627Y198846D01*
X141625Y198843D01*
X141621Y198840D01*
X141517Y198726D01*
X141464Y198669D01*
X140733Y198444D01*
X140720Y198438D01*
X140706Y198435D01*
X140557Y198375D01*
X139868Y198043D01*
X139797Y198058D01*
X139793Y198058D01*
X139789Y198059D01*
X139635Y198052D01*
X139479Y198046D01*
X139475Y198044D01*
X139471Y198044D01*
X139314Y198007D01*
X137767Y197530D01*
X137763Y197528D01*
X137759Y197527D01*
X137619Y197463D01*
X137477Y197399D01*
X137474Y197396D01*
X137470Y197395D01*
X137350Y197297D01*
X137290Y197249D01*
X136533Y197135D01*
X136519Y197131D01*
X136505Y197130D01*
X136348Y197093D01*
X135617Y196868D01*
X135550Y196893D01*
X135546Y196894D01*
X135542Y196895D01*
X135387Y196911D01*
X135234Y196928D01*
X135230Y196927D01*
X135225Y196928D01*
X135065Y196914D01*
X133464Y196673D01*
X133460Y196672D01*
X133456Y196672D01*
X133307Y196629D01*
X133158Y196587D01*
X133154Y196585D01*
X133150Y196584D01*
X133014Y196504D01*
X132950Y196466D01*
X132185Y196467D01*
X132171Y196465D01*
X132156Y196466D01*
X131996Y196452D01*
X131240Y196339D01*
X131176Y196374D01*
X131172Y196375D01*
X131169Y196377D01*
X131017Y196416D01*
X130869Y196456D01*
X130865Y196456D01*
X130861Y196457D01*
X130700Y196467D01*
X129081Y196468D01*
X129077Y196467D01*
X129073Y196468D01*
X128919Y196447D01*
X128765Y196428D01*
X128762Y196426D01*
X128758Y196426D01*
X128612Y196367D01*
X128542Y196340D01*
X127786Y196454D01*
X127771Y196454D01*
X127757Y196458D01*
X127596Y196468D01*
X126832Y196468D01*
X126775Y196513D01*
X126771Y196514D01*
X126767Y196517D01*
X126627Y196577D01*
X126483Y196639D01*
X126479Y196640D01*
X126475Y196641D01*
X126317Y196676D01*
X124717Y196917D01*
X124712Y196917D01*
X124708Y196919D01*
X124553Y196921D01*
X124399Y196925D01*
X124395Y196924D01*
X124390Y196924D01*
X124240Y196889D01*
X124165Y196871D01*
X123433Y197097D01*
X123419Y197099D01*
X123406Y197105D01*
X123248Y197139D01*
X122493Y197253D01*
X122443Y197306D01*
X122439Y197308D01*
X122436Y197311D01*
X122304Y197392D01*
X122173Y197474D01*
X122169Y197476D01*
X122165Y197478D01*
X122015Y197535D01*
X120468Y198013D01*
X120464Y198013D01*
X120460Y198015D01*
X120311Y198040D01*
X120155Y198068D01*
X120150Y198067D01*
X120146Y198068D01*
X119995Y198055D01*
X119915Y198049D01*
X119226Y198381D01*
X119212Y198386D01*
X119200Y198394D01*
X119049Y198451D01*
X118319Y198676D01*
X118277Y198736D01*
X118274Y198738D01*
X118272Y198742D01*
X118156Y198840D01*
X118036Y198943D01*
X118032Y198944D01*
X118029Y198947D01*
X117888Y199026D01*
X116430Y199729D01*
X116426Y199730D01*
X116422Y199733D01*
X116275Y199781D01*
X116128Y199830D01*
X116124Y199830D01*
X116120Y199832D01*
X115965Y199842D01*
X115889Y199847D01*
X115257Y200279D01*
X115244Y200285D01*
X115233Y200295D01*
X115092Y200374D01*
X114404Y200706D01*
X114371Y200770D01*
X114369Y200774D01*
X114367Y200777D01*
X114265Y200894D01*
X114163Y201011D01*
X114160Y201013D01*
X114157Y201016D01*
X114030Y201115D01*
X112693Y202028D01*
X112689Y202030D01*
X112686Y202033D01*
X112549Y202102D01*
X112410Y202173D01*
X112406Y202174D01*
X112402Y202176D01*
X112252Y202208D01*
X112175Y202226D01*
X111615Y202746D01*
X111603Y202755D01*
X111593Y202766D01*
X111466Y202865D01*
X110835Y203296D01*
X110813Y203365D01*
X110810Y203368D01*
X110809Y203372D01*
X110726Y203501D01*
X110643Y203633D01*
X110640Y203636D01*
X110637Y203640D01*
X110527Y203757D01*
X109340Y204858D01*
X109337Y204861D01*
X109334Y204864D01*
X109207Y204954D01*
X109082Y205044D01*
X109078Y205045D01*
X109074Y205048D01*
X108929Y205103D01*
X108858Y205131D01*
X108596Y205460D01*
X108509Y205544D01*
X108428Y205634D01*
X108396Y205655D01*
X108368Y205682D01*
X108263Y205742D01*
X108162Y205808D01*
X108126Y205821D01*
X108092Y205840D01*
X107976Y205872D01*
X107861Y205912D01*
X107823Y205915D01*
X107785Y205925D01*
X107665Y205927D01*
X107544Y205937D01*
X107506Y205930D01*
X107468Y205931D01*
X107350Y205903D01*
X107231Y205882D01*
X107196Y205866D01*
X107158Y205858D01*
X107051Y205801D01*
X106941Y205752D01*
X106911Y205728D01*
X106877Y205710D01*
X106787Y205629D01*
X106693Y205553D01*
X106669Y205522D01*
X106641Y205496D01*
X106574Y205396D01*
X106501Y205299D01*
X106476Y205248D01*
X106465Y205231D01*
X106458Y205211D01*
X106430Y205155D01*
X105779Y203583D01*
X104392Y202196D01*
X102581Y201445D01*
X100619Y201445D01*
X98808Y202196D01*
X97421Y203583D01*
X96670Y205394D01*
X96670Y207356D01*
X97421Y209167D01*
X98808Y210554D01*
X100619Y211305D01*
X101154Y211305D01*
X101252Y211317D01*
X101351Y211320D01*
X101409Y211337D01*
X101469Y211345D01*
X101561Y211381D01*
X101656Y211409D01*
X101709Y211439D01*
X101765Y211462D01*
X101845Y211520D01*
X101930Y211570D01*
X102006Y211636D01*
X102022Y211648D01*
X102030Y211658D01*
X102051Y211676D01*
X102711Y212336D01*
X102779Y212425D01*
X102855Y212508D01*
X102877Y212550D01*
X102906Y212587D01*
X102950Y212690D01*
X103002Y212790D01*
X103013Y212836D01*
X103032Y212879D01*
X103050Y212990D01*
X103075Y213099D01*
X103074Y213146D01*
X103082Y213193D01*
X103071Y213305D01*
X103069Y213417D01*
X103056Y213463D01*
X103052Y213510D01*
X103014Y213615D01*
X102984Y213724D01*
X102952Y213788D01*
X102963Y213869D01*
X102962Y213873D01*
X102963Y213878D01*
X102944Y214033D01*
X102927Y214185D01*
X102925Y214189D01*
X102925Y214193D01*
X102875Y214347D01*
X102284Y215854D01*
X102282Y215858D01*
X102281Y215862D01*
X102207Y215997D01*
X102132Y216133D01*
X102129Y216136D01*
X102127Y216140D01*
X102021Y216252D01*
X101968Y216309D01*
X101798Y217055D01*
X101793Y217069D01*
X101792Y217083D01*
X101742Y217236D01*
X101463Y217948D01*
X101484Y218018D01*
X101484Y218022D01*
X101485Y218026D01*
X101490Y218182D01*
X101495Y218335D01*
X101494Y218339D01*
X101494Y218343D01*
X101468Y218502D01*
X101109Y220081D01*
X101107Y220085D01*
X101107Y220089D01*
X101053Y220233D01*
X101000Y220380D01*
X100997Y220383D01*
X100996Y220387D01*
X100908Y220514D01*
X100864Y220578D01*
X100807Y221341D01*
X100804Y221355D01*
X100804Y221370D01*
X100779Y221529D01*
X100609Y222274D01*
X100639Y222340D01*
X100640Y222344D01*
X100642Y222348D01*
X100669Y222500D01*
X100698Y222652D01*
X100697Y222656D01*
X100698Y222661D01*
X100696Y222822D01*
X100576Y224436D01*
X100575Y224440D01*
X100575Y224444D01*
X100543Y224596D01*
X100513Y224748D01*
X100511Y224752D01*
X100510Y224756D01*
X100441Y224895D01*
X100408Y224964D01*
X100465Y225727D01*
X100465Y225741D01*
X100467Y225756D01*
X100465Y225917D01*
X100409Y226679D01*
X100449Y226740D01*
X100450Y226743D01*
X100452Y226747D01*
X100503Y226896D01*
X100553Y227040D01*
X100553Y227044D01*
X100555Y227048D01*
X100577Y227208D01*
X100698Y228822D01*
X100698Y228826D01*
X100699Y228830D01*
X100690Y228983D01*
X100682Y229140D01*
X100681Y229144D01*
X100681Y229148D01*
X100635Y229293D01*
X100611Y229369D01*
X100781Y230115D01*
X100783Y230129D01*
X100788Y230143D01*
X100810Y230303D01*
X100867Y231065D01*
X100916Y231119D01*
X100918Y231122D01*
X100920Y231126D01*
X100992Y231264D01*
X101064Y231400D01*
X101065Y231404D01*
X101067Y231408D01*
X101112Y231562D01*
X101473Y233141D01*
X101473Y233145D01*
X101475Y233149D01*
X101489Y233300D01*
X101505Y233457D01*
X101504Y233461D01*
X101504Y233465D01*
X101480Y233617D01*
X101468Y233695D01*
X101748Y234407D01*
X101751Y234421D01*
X101758Y234434D01*
X101804Y234588D01*
X101974Y235333D01*
X102030Y235379D01*
X102033Y235383D01*
X102036Y235385D01*
X102126Y235510D01*
X102219Y235636D01*
X102220Y235640D01*
X102223Y235643D01*
X102291Y235789D01*
X102883Y237296D01*
X102884Y237300D01*
X102886Y237303D01*
X102922Y237449D01*
X102961Y237604D01*
X102961Y237608D01*
X102962Y237612D01*
X102961Y237765D01*
X102960Y237844D01*
X103343Y238507D01*
X103349Y238520D01*
X103357Y238532D01*
X103426Y238678D01*
X103705Y239389D01*
X103767Y239426D01*
X103770Y239429D01*
X103774Y239431D01*
X103880Y239540D01*
X103992Y239652D01*
X103994Y239655D01*
X103997Y239658D01*
X104086Y239792D01*
X104896Y241194D01*
X104898Y241198D01*
X104900Y241201D01*
X104960Y241346D01*
X105019Y241487D01*
X105020Y241491D01*
X105022Y241495D01*
X105043Y241645D01*
X105055Y241725D01*
X105532Y242323D01*
X105539Y242335D01*
X105550Y242346D01*
X105639Y242480D01*
X106021Y243142D01*
X106088Y243169D01*
X106092Y243172D01*
X106096Y243173D01*
X106220Y243267D01*
X106344Y243359D01*
X106346Y243362D01*
X106350Y243364D01*
X106458Y243484D01*
X107468Y244749D01*
X107470Y244753D01*
X107473Y244756D01*
X107553Y244888D01*
X107634Y245021D01*
X107635Y245025D01*
X107637Y245028D01*
X107681Y245176D01*
X107704Y245250D01*
X108265Y245770D01*
X108274Y245781D01*
X108286Y245790D01*
X108394Y245909D01*
X108871Y246507D01*
X108941Y246524D01*
X108945Y246526D01*
X108949Y246527D01*
X109085Y246601D01*
X109222Y246674D01*
X109225Y246676D01*
X109229Y246678D01*
X109354Y246780D01*
X110226Y247589D01*
X110541Y247881D01*
X110543Y247884D01*
X110547Y247886D01*
X110645Y248005D01*
X110745Y248125D01*
X110747Y248128D01*
X110749Y248131D01*
X110815Y248271D01*
X110849Y248341D01*
X111481Y248772D01*
X111492Y248782D01*
X111505Y248789D01*
X111630Y248890D01*
X112190Y249410D01*
X112262Y249417D01*
X112266Y249418D01*
X112270Y249418D01*
X112418Y249472D01*
X112562Y249522D01*
X112566Y249525D01*
X112569Y249526D01*
X112708Y249608D01*
X113588Y250208D01*
X113642Y250255D01*
X113702Y250295D01*
X113761Y250360D01*
X113826Y250418D01*
X113867Y250478D01*
X113915Y250531D01*
X113956Y250609D01*
X114005Y250681D01*
X114029Y250749D01*
X114062Y250813D01*
X114083Y250898D01*
X114112Y250981D01*
X114119Y251052D01*
X114135Y251122D01*
X114134Y251210D01*
X114142Y251297D01*
X114131Y251368D01*
X114129Y251440D01*
X114106Y251525D01*
X114092Y251611D01*
X114063Y251677D01*
X114044Y251747D01*
X113972Y251891D01*
X86531Y299423D01*
X86467Y299507D01*
X86410Y299597D01*
X86371Y299634D01*
X86338Y299676D01*
X86256Y299742D01*
X86179Y299815D01*
X86131Y299841D01*
X86089Y299874D01*
X85993Y299917D01*
X85900Y299968D01*
X85848Y299982D01*
X85799Y300003D01*
X85694Y300021D01*
X85592Y300048D01*
X85507Y300053D01*
X85485Y300057D01*
X85470Y300055D01*
X85431Y300058D01*
X-85431Y300058D01*
X-85536Y300045D01*
X-85642Y300040D01*
X-85694Y300025D01*
X-85747Y300018D01*
X-85845Y299979D01*
X-85946Y299949D01*
X-85993Y299921D01*
X-86043Y299901D01*
X-86128Y299839D01*
X-86219Y299784D01*
X-86256Y299746D01*
X-86300Y299714D01*
X-86367Y299633D01*
X-86441Y299557D01*
X-86489Y299486D01*
X-86503Y299469D01*
X-86509Y299455D01*
X-86531Y299423D01*
X-113972Y251891D01*
X-114000Y251825D01*
X-114037Y251763D01*
X-114062Y251679D01*
X-114096Y251598D01*
X-114106Y251527D01*
X-114126Y251458D01*
X-114129Y251370D01*
X-114142Y251283D01*
X-114135Y251212D01*
X-114137Y251140D01*
X-114118Y251054D01*
X-114109Y250967D01*
X-114084Y250899D01*
X-114068Y250829D01*
X-114029Y250751D01*
X-113998Y250669D01*
X-113957Y250610D01*
X-113925Y250546D01*
X-113867Y250480D01*
X-113817Y250408D01*
X-113762Y250361D01*
X-113715Y250306D01*
X-113588Y250208D01*
X-112708Y249608D01*
X-112704Y249606D01*
X-112701Y249603D01*
X-112561Y249533D01*
X-112425Y249463D01*
X-112421Y249462D01*
X-112417Y249461D01*
X-112262Y249427D01*
X-112191Y249411D01*
X-111630Y248890D01*
X-111618Y248882D01*
X-111608Y248871D01*
X-111481Y248772D01*
X-110849Y248342D01*
X-110827Y248273D01*
X-110825Y248269D01*
X-110823Y248265D01*
X-110740Y248136D01*
X-110657Y248004D01*
X-110654Y248001D01*
X-110652Y247998D01*
X-110541Y247881D01*
X-109354Y246780D01*
X-109350Y246778D01*
X-109348Y246774D01*
X-109220Y246684D01*
X-109095Y246595D01*
X-109091Y246593D01*
X-109088Y246591D01*
X-108944Y246536D01*
X-108871Y246508D01*
X-108394Y245909D01*
X-108383Y245899D01*
X-108376Y245887D01*
X-108265Y245770D01*
X-107704Y245251D01*
X-107692Y245179D01*
X-107691Y245175D01*
X-107690Y245171D01*
X-107628Y245032D01*
X-107564Y244888D01*
X-107562Y244885D01*
X-107560Y244881D01*
X-107468Y244749D01*
X-106458Y243484D01*
X-106455Y243481D01*
X-106453Y243477D01*
X-106341Y243369D01*
X-106230Y243262D01*
X-106226Y243260D01*
X-106223Y243257D01*
X-106090Y243182D01*
X-106022Y243142D01*
X-105639Y242480D01*
X-105630Y242468D01*
X-105624Y242455D01*
X-105532Y242323D01*
X-105055Y241725D01*
X-105054Y241653D01*
X-105053Y241649D01*
X-105053Y241645D01*
X-105011Y241494D01*
X-104971Y241346D01*
X-104969Y241342D01*
X-104968Y241338D01*
X-104896Y241194D01*
X-104086Y239792D01*
X-104084Y239789D01*
X-104082Y239785D01*
X-103989Y239664D01*
X-103894Y239539D01*
X-103890Y239536D01*
X-103888Y239533D01*
X-103766Y239438D01*
X-103705Y239390D01*
X-103426Y238678D01*
X-103419Y238665D01*
X-103415Y238651D01*
X-103343Y238507D01*
X-102961Y237845D01*
X-102971Y237773D01*
X-102970Y237769D01*
X-102971Y237765D01*
X-102952Y237612D01*
X-102934Y237457D01*
X-102933Y237453D01*
X-102932Y237449D01*
X-102883Y237296D01*
X-102291Y235789D01*
X-102289Y235785D01*
X-102288Y235781D01*
X-102214Y235647D01*
X-102138Y235510D01*
X-102135Y235507D01*
X-102133Y235503D01*
X-102027Y235390D01*
X-101974Y235334D01*
X-101804Y234588D01*
X-101799Y234575D01*
X-101797Y234560D01*
X-101748Y234407D01*
X-101468Y233695D01*
X-101489Y233626D01*
X-101489Y233622D01*
X-101490Y233618D01*
X-101494Y233463D01*
X-101500Y233308D01*
X-101499Y233304D01*
X-101499Y233300D01*
X-101473Y233141D01*
X-101112Y231562D01*
X-101111Y231558D01*
X-101110Y231554D01*
X-101056Y231408D01*
X-101003Y231264D01*
X-101001Y231260D01*
X-100999Y231256D01*
X-100911Y231129D01*
X-100867Y231066D01*
X-100810Y230303D01*
X-100807Y230288D01*
X-100807Y230274D01*
X-100781Y230115D01*
X-100611Y229370D01*
X-100642Y229304D01*
X-100642Y229300D01*
X-100644Y229296D01*
X-100671Y229144D01*
X-100700Y228991D01*
X-100699Y228987D01*
X-100700Y228983D01*
X-100698Y228822D01*
X-100577Y227208D01*
X-100576Y227204D01*
X-100576Y227199D01*
X-100544Y227045D01*
X-100513Y226896D01*
X-100512Y226892D01*
X-100511Y226888D01*
X-100441Y226747D01*
X-100408Y226680D01*
X-100465Y225917D01*
X-100465Y225902D01*
X-100467Y225888D01*
X-100465Y225727D01*
X-100408Y224965D01*
X-100448Y224904D01*
X-100449Y224900D01*
X-100452Y224897D01*
X-100502Y224748D01*
X-100552Y224604D01*
X-100552Y224600D01*
X-100554Y224596D01*
X-100576Y224436D01*
X-100696Y222822D01*
X-100696Y222818D01*
X-100697Y222813D01*
X-100688Y222654D01*
X-100680Y222504D01*
X-100679Y222500D01*
X-100679Y222496D01*
X-100631Y222347D01*
X-100609Y222275D01*
X-100779Y221529D01*
X-100780Y221514D01*
X-100785Y221500D01*
X-100807Y221341D01*
X-100864Y220579D01*
X-100912Y220525D01*
X-100914Y220521D01*
X-100917Y220518D01*
X-100988Y220380D01*
X-101060Y220243D01*
X-101061Y220239D01*
X-101063Y220235D01*
X-101109Y220081D01*
X-101468Y218502D01*
X-101469Y218498D01*
X-101470Y218494D01*
X-101484Y218341D01*
X-101500Y218186D01*
X-101499Y218182D01*
X-101499Y218178D01*
X-101475Y218025D01*
X-101463Y217949D01*
X-101742Y217236D01*
X-101746Y217222D01*
X-101753Y217209D01*
X-101760Y217183D01*
X-101764Y217176D01*
X-101766Y217165D01*
X-101798Y217055D01*
X-101968Y216309D01*
X-102024Y216263D01*
X-102027Y216260D01*
X-102030Y216257D01*
X-102121Y216132D01*
X-102212Y216007D01*
X-102214Y216003D01*
X-102216Y216000D01*
X-102284Y215854D01*
X-102875Y214347D01*
X-102876Y214343D01*
X-102878Y214339D01*
X-102916Y214187D01*
X-102953Y214038D01*
X-102953Y214034D01*
X-102954Y214030D01*
X-102953Y213875D01*
X-102953Y213798D01*
X-103335Y213135D01*
X-103341Y213122D01*
X-103349Y213110D01*
X-103417Y212964D01*
X-103696Y212253D01*
X-103759Y212215D01*
X-103762Y212213D01*
X-103765Y212210D01*
X-103874Y212099D01*
X-103983Y211990D01*
X-103985Y211986D01*
X-103988Y211983D01*
X-104077Y211849D01*
X-104886Y210447D01*
X-104888Y210443D01*
X-104890Y210440D01*
X-104950Y210296D01*
X-105009Y210154D01*
X-105010Y210150D01*
X-105012Y210146D01*
X-105033Y209991D01*
X-105044Y209916D01*
X-105521Y209317D01*
X-105529Y209305D01*
X-105539Y209295D01*
X-105628Y209161D01*
X-106010Y208499D01*
X-106077Y208471D01*
X-106081Y208469D01*
X-106084Y208467D01*
X-106209Y208374D01*
X-106333Y208282D01*
X-106335Y208278D01*
X-106338Y208276D01*
X-106447Y208157D01*
X-107418Y206938D01*
X-107432Y206914D01*
X-107451Y206894D01*
X-107515Y206779D01*
X-107583Y206666D01*
X-107591Y206640D01*
X-107605Y206615D01*
X-107638Y206488D01*
X-107676Y206362D01*
X-107677Y206334D01*
X-107684Y206307D01*
X-107694Y206147D01*
X-107694Y201517D01*
X-107682Y201419D01*
X-107679Y201320D01*
X-107662Y201262D01*
X-107655Y201202D01*
X-107618Y201110D01*
X-107591Y201014D01*
X-107560Y200962D01*
X-107538Y200906D01*
X-107479Y200826D01*
X-107429Y200741D01*
X-107363Y200665D01*
X-107351Y200649D01*
X-107341Y200641D01*
X-107323Y200620D01*
X-106945Y200242D01*
X-106194Y198430D01*
X-106194Y196469D01*
X-106945Y194657D01*
X-108332Y193270D01*
X-110144Y192520D01*
X-112105Y192520D01*
X-113917Y193270D01*
X-115303Y194657D01*
X-116054Y196469D01*
X-116054Y197889D01*
X-116065Y197974D01*
X-116065Y198060D01*
X-116084Y198131D01*
X-116094Y198205D01*
X-116125Y198285D01*
X-116147Y198367D01*
X-116184Y198432D01*
X-116211Y198501D01*
X-116261Y198570D01*
X-116303Y198645D01*
X-116354Y198698D01*
X-116398Y198758D01*
X-116464Y198813D01*
X-116523Y198874D01*
X-116586Y198914D01*
X-116643Y198961D01*
X-116720Y198997D01*
X-116793Y199043D01*
X-116863Y199065D01*
X-116930Y199096D01*
X-117014Y199112D01*
X-117096Y199138D01*
X-117170Y199142D01*
X-117243Y199156D01*
X-117328Y199151D01*
X-117414Y199155D01*
X-117486Y199141D01*
X-117560Y199136D01*
X-117593Y199126D01*
X-117595Y199125D01*
X-117615Y199119D01*
X-117641Y199110D01*
X-117725Y199093D01*
X-117852Y199042D01*
X-117863Y199038D01*
X-117866Y199036D01*
X-117875Y199033D01*
X-117889Y199026D01*
X-117892Y199024D01*
X-117896Y199022D01*
X-118027Y198936D01*
X-118156Y198853D01*
X-118158Y198850D01*
X-118162Y198848D01*
X-118266Y198733D01*
X-118318Y198677D01*
X-119049Y198451D01*
X-119062Y198445D01*
X-119077Y198442D01*
X-119226Y198381D01*
X-119915Y198049D01*
X-119985Y198065D01*
X-119990Y198064D01*
X-119994Y198065D01*
X-120151Y198058D01*
X-120303Y198052D01*
X-120307Y198051D01*
X-120311Y198050D01*
X-120468Y198013D01*
X-122015Y197535D01*
X-122019Y197533D01*
X-122023Y197532D01*
X-122166Y197467D01*
X-122305Y197404D01*
X-122308Y197401D01*
X-122312Y197399D01*
X-122432Y197301D01*
X-122492Y197253D01*
X-123248Y197139D01*
X-123262Y197135D01*
X-123277Y197135D01*
X-123433Y197097D01*
X-124164Y196871D01*
X-124232Y196897D01*
X-124236Y196897D01*
X-124240Y196899D01*
X-124396Y196915D01*
X-124548Y196931D01*
X-124552Y196931D01*
X-124556Y196931D01*
X-124717Y196917D01*
X-126317Y196676D01*
X-126321Y196674D01*
X-126326Y196674D01*
X-126474Y196631D01*
X-126624Y196589D01*
X-126627Y196587D01*
X-126631Y196586D01*
X-126765Y196507D01*
X-126831Y196468D01*
X-127596Y196468D01*
X-127611Y196466D01*
X-127625Y196468D01*
X-127786Y196454D01*
X-128541Y196340D01*
X-128605Y196375D01*
X-128609Y196376D01*
X-128612Y196378D01*
X-128763Y196417D01*
X-128912Y196456D01*
X-128916Y196456D01*
X-128920Y196457D01*
X-129081Y196468D01*
X-130700Y196467D01*
X-130704Y196467D01*
X-130708Y196467D01*
X-130861Y196447D01*
X-131016Y196427D01*
X-131020Y196426D01*
X-131024Y196425D01*
X-131168Y196367D01*
X-131239Y196339D01*
X-131996Y196452D01*
X-132010Y196453D01*
X-132024Y196456D01*
X-132185Y196467D01*
X-132949Y196466D01*
X-133007Y196511D01*
X-133011Y196512D01*
X-133014Y196515D01*
X-133154Y196575D01*
X-133299Y196637D01*
X-133303Y196638D01*
X-133306Y196639D01*
X-133464Y196673D01*
X-135065Y196914D01*
X-135069Y196914D01*
X-135073Y196915D01*
X-135229Y196918D01*
X-135383Y196922D01*
X-135387Y196921D01*
X-135391Y196921D01*
X-135544Y196884D01*
X-135617Y196867D01*
X-136348Y197093D01*
X-136362Y197095D01*
X-136376Y197101D01*
X-136533Y197135D01*
X-137289Y197249D01*
X-137339Y197301D01*
X-137343Y197303D01*
X-137346Y197306D01*
X-137476Y197386D01*
X-137609Y197469D01*
X-137613Y197471D01*
X-137616Y197473D01*
X-137767Y197530D01*
X-139314Y198007D01*
X-139318Y198007D01*
X-139322Y198009D01*
X-139477Y198035D01*
X-139628Y198061D01*
X-139632Y198061D01*
X-139636Y198062D01*
X-139793Y198049D01*
X-139867Y198043D01*
X-140557Y198375D01*
X-140570Y198379D01*
X-140583Y198387D01*
X-140733Y198444D01*
X-141464Y198669D01*
X-141505Y198728D01*
X-141509Y198731D01*
X-141511Y198734D01*
X-141627Y198832D01*
X-141747Y198935D01*
X-141751Y198937D01*
X-141754Y198939D01*
X-141894Y199018D01*
X-142871Y199488D01*
X-142939Y199511D01*
X-143003Y199543D01*
X-143089Y199561D01*
X-143172Y199589D01*
X-143244Y199594D01*
X-143314Y199609D01*
X-143402Y199606D01*
X-143490Y199612D01*
X-143560Y199599D01*
X-143632Y199596D01*
X-143716Y199571D01*
X-143803Y199555D01*
X-143868Y199525D01*
X-143936Y199504D01*
X-144012Y199459D01*
X-144091Y199422D01*
X-144147Y199377D01*
X-144208Y199340D01*
X-144270Y199277D01*
X-144338Y199222D01*
X-144381Y199164D01*
X-144431Y199113D01*
X-144520Y198979D01*
X-161266Y169974D01*
X-161293Y169911D01*
X-161328Y169853D01*
X-161354Y169765D01*
X-161389Y169681D01*
X-161399Y169613D01*
X-161419Y169548D01*
X-161422Y169457D01*
X-161436Y169366D01*
X-161429Y169298D01*
X-161431Y169230D01*
X-161412Y169141D01*
X-161403Y169050D01*
X-161379Y168986D01*
X-161365Y168919D01*
X-161324Y168837D01*
X-161292Y168752D01*
X-161253Y168696D01*
X-161223Y168635D01*
X-161163Y168566D01*
X-161111Y168490D01*
X-161059Y168446D01*
X-161014Y168394D01*
X-160888Y168295D01*
X-160786Y168224D01*
X-160650Y168154D01*
X-160510Y168080D01*
X-160507Y168079D01*
X-160504Y168078D01*
X-160353Y168043D01*
X-160253Y168019D01*
X-159724Y167511D01*
X-159707Y167498D01*
X-159692Y167482D01*
X-159566Y167382D01*
X-158958Y166963D01*
X-158931Y166874D01*
X-158929Y166871D01*
X-158928Y166868D01*
X-158846Y166736D01*
X-158764Y166603D01*
X-158761Y166600D01*
X-158760Y166598D01*
X-158755Y166594D01*
X-158655Y166484D01*
X-158154Y166003D01*
X-158027Y165909D01*
X-157904Y165817D01*
X-157901Y165815D01*
X-157899Y165813D01*
X-157754Y165754D01*
X-157661Y165715D01*
X-157220Y165129D01*
X-157205Y165113D01*
X-157193Y165095D01*
X-157085Y164976D01*
X-156552Y164465D01*
X-156539Y164372D01*
X-156538Y164369D01*
X-156538Y164366D01*
X-156477Y164222D01*
X-156418Y164078D01*
X-156416Y164075D01*
X-156415Y164073D01*
X-156411Y164068D01*
X-156330Y163944D01*
X-155912Y163389D01*
X-155804Y163277D01*
X-155696Y163164D01*
X-155693Y163163D01*
X-155691Y163160D01*
X-155558Y163079D01*
X-155472Y163026D01*
X-155131Y162376D01*
X-155119Y162358D01*
X-155110Y162338D01*
X-155022Y162204D01*
X-154578Y161613D01*
X-154580Y161520D01*
X-154580Y161517D01*
X-154580Y161514D01*
X-154543Y161361D01*
X-154508Y161210D01*
X-154506Y161206D01*
X-154505Y161204D01*
X-154503Y161199D01*
X-154442Y161063D01*
X-154119Y160449D01*
X-154030Y160321D01*
X-153942Y160192D01*
X-153939Y160190D01*
X-153937Y160188D01*
X-153819Y160086D01*
X-153743Y160019D01*
X-153510Y159324D01*
X-153501Y159304D01*
X-153496Y159283D01*
X-153430Y159136D01*
X-152918Y158160D01*
X-152843Y158053D01*
X-152773Y157942D01*
X-152753Y157923D01*
X-152736Y157899D01*
X-152637Y157814D01*
X-152541Y157724D01*
X-152517Y157710D01*
X-152495Y157692D01*
X-152378Y157634D01*
X-152263Y157570D01*
X-152236Y157563D01*
X-152210Y157551D01*
X-152082Y157524D01*
X-151955Y157491D01*
X-151915Y157488D01*
X-151899Y157485D01*
X-151877Y157486D01*
X-151794Y157481D01*
X-120332Y157481D01*
X-120332Y142811D01*
X-120314Y142674D01*
X-120301Y142535D01*
X-120294Y142516D01*
X-120292Y142496D01*
X-120241Y142367D01*
X-120194Y142236D01*
X-120182Y142219D01*
X-120175Y142200D01*
X-120093Y142088D01*
X-120015Y141972D01*
X-120000Y141959D01*
X-119988Y141943D01*
X-119881Y141854D01*
X-119777Y141762D01*
X-119759Y141753D01*
X-119743Y141740D01*
X-119617Y141681D01*
X-119493Y141617D01*
X-119474Y141613D01*
X-119455Y141604D01*
X-119319Y141578D01*
X-119183Y141548D01*
X-119163Y141548D01*
X-119143Y141544D01*
X-119005Y141553D01*
X-118865Y141557D01*
X-118846Y141563D01*
X-118826Y141564D01*
X-118693Y141607D01*
X-118560Y141646D01*
X-118542Y141656D01*
X-118523Y141662D01*
X-118406Y141737D01*
X-118286Y141807D01*
X-118265Y141826D01*
X-118254Y141832D01*
X-118240Y141847D01*
X-118165Y141914D01*
X-109910Y150169D01*
X-107884Y152194D01*
X-107811Y152288D01*
X-107733Y152378D01*
X-107714Y152414D01*
X-107689Y152446D01*
X-107642Y152555D01*
X-107588Y152661D01*
X-107579Y152700D01*
X-107563Y152737D01*
X-107544Y152855D01*
X-107518Y152971D01*
X-107520Y153011D01*
X-107513Y153051D01*
X-107524Y153170D01*
X-107528Y153289D01*
X-107539Y153328D01*
X-107543Y153368D01*
X-107583Y153480D01*
X-107616Y153595D01*
X-107637Y153629D01*
X-107651Y153667D01*
X-107718Y153766D01*
X-107778Y153868D01*
X-107818Y153914D01*
X-107829Y153931D01*
X-107845Y153944D01*
X-107884Y153989D01*
X-109006Y155111D01*
X-109006Y166689D01*
X-107889Y167806D01*
X-95311Y167806D01*
X-94194Y166689D01*
X-94194Y166107D01*
X-94179Y165989D01*
X-94172Y165870D01*
X-94159Y165832D01*
X-94154Y165791D01*
X-94111Y165681D01*
X-94074Y165568D01*
X-94052Y165533D01*
X-94037Y165496D01*
X-93968Y165400D01*
X-93904Y165299D01*
X-93874Y165271D01*
X-93851Y165238D01*
X-93759Y165162D01*
X-93672Y165081D01*
X-93637Y165061D01*
X-93606Y165036D01*
X-93498Y164985D01*
X-93394Y164927D01*
X-93354Y164917D01*
X-93318Y164900D01*
X-93201Y164878D01*
X-93086Y164848D01*
X-93026Y164844D01*
X-93006Y164840D01*
X-92985Y164842D01*
X-92925Y164838D01*
X-90147Y164838D01*
X-90029Y164853D01*
X-89911Y164860D01*
X-89872Y164873D01*
X-89832Y164878D01*
X-89721Y164921D01*
X-89608Y164958D01*
X-89574Y164980D01*
X-89536Y164995D01*
X-89440Y165064D01*
X-89339Y165128D01*
X-89312Y165158D01*
X-89279Y165181D01*
X-89203Y165273D01*
X-89121Y165360D01*
X-89102Y165395D01*
X-89076Y165426D01*
X-89025Y165534D01*
X-88968Y165638D01*
X-88958Y165678D01*
X-88941Y165714D01*
X-88918Y165831D01*
X-88888Y165946D01*
X-88885Y166006D01*
X-88881Y166026D01*
X-88882Y166047D01*
X-88878Y166107D01*
X-88878Y170284D01*
X-88422Y170740D01*
X-88361Y170819D01*
X-88293Y170891D01*
X-88264Y170944D01*
X-88227Y170992D01*
X-88188Y171083D01*
X-88140Y171169D01*
X-88125Y171228D01*
X-88101Y171283D01*
X-88085Y171381D01*
X-88060Y171477D01*
X-88054Y171577D01*
X-88051Y171598D01*
X-88052Y171610D01*
X-88050Y171638D01*
X-88050Y173468D01*
X-88063Y173566D01*
X-88066Y173665D01*
X-88082Y173724D01*
X-88090Y173784D01*
X-88127Y173876D01*
X-88154Y173971D01*
X-88185Y174023D01*
X-88207Y174079D01*
X-88265Y174159D01*
X-88316Y174245D01*
X-88382Y174320D01*
X-88394Y174337D01*
X-88403Y174345D01*
X-88422Y174366D01*
X-90929Y176873D01*
X-91007Y176933D01*
X-91079Y177001D01*
X-91132Y177030D01*
X-91180Y177067D01*
X-91271Y177107D01*
X-91358Y177155D01*
X-91416Y177170D01*
X-91472Y177194D01*
X-91570Y177209D01*
X-91666Y177234D01*
X-91766Y177240D01*
X-91786Y177244D01*
X-91798Y177242D01*
X-91826Y177244D01*
X-98927Y177244D01*
X-100043Y178361D01*
X-100043Y189939D01*
X-98927Y191056D01*
X-86348Y191056D01*
X-85232Y189939D01*
X-85232Y182839D01*
X-85219Y182741D01*
X-85216Y182642D01*
X-85200Y182583D01*
X-85192Y182523D01*
X-85155Y182431D01*
X-85128Y182336D01*
X-85097Y182284D01*
X-85075Y182228D01*
X-85017Y182148D01*
X-84966Y182062D01*
X-84900Y181987D01*
X-84888Y181970D01*
X-84879Y181962D01*
X-84860Y181941D01*
X-82853Y179934D01*
X-80175Y177256D01*
X-80175Y171638D01*
X-80162Y171540D01*
X-80159Y171441D01*
X-80143Y171382D01*
X-80135Y171322D01*
X-80098Y171230D01*
X-80071Y171135D01*
X-80040Y171083D01*
X-80018Y171027D01*
X-79960Y170947D01*
X-79909Y170861D01*
X-79843Y170786D01*
X-79831Y170769D01*
X-79822Y170761D01*
X-79803Y170740D01*
X-79347Y170284D01*
X-79347Y156516D01*
X-81451Y154412D01*
X-81524Y154318D01*
X-81603Y154229D01*
X-81621Y154193D01*
X-81646Y154161D01*
X-81693Y154051D01*
X-81747Y153945D01*
X-81756Y153906D01*
X-81772Y153869D01*
X-81791Y153751D01*
X-81817Y153635D01*
X-81816Y153595D01*
X-81822Y153555D01*
X-81811Y153436D01*
X-81807Y153317D01*
X-81796Y153278D01*
X-81792Y153238D01*
X-81752Y153126D01*
X-81719Y153012D01*
X-81698Y152977D01*
X-81685Y152939D01*
X-81618Y152840D01*
X-81557Y152738D01*
X-81517Y152693D01*
X-81506Y152676D01*
X-81491Y152662D01*
X-81451Y152617D01*
X-79374Y150540D01*
X-79374Y148837D01*
X-79362Y148739D01*
X-79359Y148640D01*
X-79347Y148598D01*
X-79347Y134190D01*
X-79364Y134123D01*
X-79370Y134023D01*
X-79374Y134003D01*
X-79372Y133991D01*
X-79374Y133963D01*
X-79374Y133622D01*
X-81235Y131762D01*
X-81575Y131762D01*
X-81673Y131749D01*
X-81772Y131746D01*
X-81831Y131730D01*
X-81872Y131724D01*
X-83921Y131724D01*
X-84020Y131712D01*
X-84119Y131709D01*
X-84177Y131692D01*
X-84237Y131684D01*
X-84329Y131648D01*
X-84424Y131620D01*
X-84476Y131590D01*
X-84533Y131567D01*
X-84613Y131509D01*
X-84698Y131459D01*
X-84773Y131393D01*
X-84790Y131381D01*
X-84798Y131371D01*
X-84819Y131353D01*
X-88528Y127644D01*
X-88588Y127566D01*
X-88656Y127493D01*
X-88685Y127440D01*
X-88722Y127393D01*
X-88762Y127302D01*
X-88810Y127215D01*
X-88825Y127156D01*
X-88849Y127101D01*
X-88864Y127003D01*
X-88889Y126907D01*
X-88895Y126807D01*
X-88899Y126787D01*
X-88897Y126774D01*
X-88899Y126746D01*
X-88899Y100013D01*
X-88884Y99894D01*
X-88877Y99776D01*
X-88864Y99737D01*
X-88859Y99697D01*
X-88816Y99586D01*
X-88779Y99473D01*
X-88757Y99439D01*
X-88742Y99401D01*
X-88673Y99305D01*
X-88609Y99204D01*
X-88579Y99177D01*
X-88556Y99144D01*
X-88464Y99068D01*
X-88377Y98986D01*
X-88342Y98967D01*
X-88311Y98941D01*
X-88203Y98890D01*
X-88099Y98833D01*
X-88059Y98823D01*
X-88023Y98806D01*
X-87906Y98783D01*
X-87791Y98753D01*
X-87731Y98750D01*
X-87711Y98746D01*
X-87690Y98747D01*
X-87630Y98743D01*
X28575Y98743D01*
X28592Y98745D01*
G37*
G36*
X-67572Y319D02*
X-67572Y319D01*
X-67544Y316D01*
X-67476Y339D01*
X-67405Y353D01*
X-67382Y369D01*
X-67355Y378D01*
X-67300Y425D01*
X-67241Y465D01*
X-67226Y489D01*
X-67205Y508D01*
X-67173Y572D01*
X-67134Y633D01*
X-67129Y661D01*
X-67117Y686D01*
X-67108Y788D01*
X-67101Y829D01*
X-67103Y839D01*
X-67102Y852D01*
X-67159Y1567D01*
X-30534Y1567D01*
X-30462Y1576D01*
X-30391Y1575D01*
X-30305Y1596D01*
X-30218Y1607D01*
X-30151Y1634D01*
X-30082Y1650D01*
X-30004Y1692D01*
X-29922Y1724D01*
X-29864Y1766D01*
X-29801Y1800D01*
X-29736Y1859D01*
X-29665Y1911D01*
X-29619Y1966D01*
X-29566Y2015D01*
X-29518Y2088D01*
X-29462Y2156D01*
X-29432Y2221D01*
X-29392Y2281D01*
X-29364Y2364D01*
X-29327Y2444D01*
X-29313Y2514D01*
X-29290Y2582D01*
X-29268Y2742D01*
X-29188Y3811D01*
X-29188Y3815D01*
X-29187Y3819D01*
X-29196Y3976D01*
X-29204Y4128D01*
X-29205Y4132D01*
X-29205Y4136D01*
X-29253Y4285D01*
X-29275Y4357D01*
X-29105Y5104D01*
X-29104Y5118D01*
X-29099Y5132D01*
X-29077Y5291D01*
X-29020Y6053D01*
X-28971Y6107D01*
X-28969Y6111D01*
X-28966Y6114D01*
X-28896Y6251D01*
X-28823Y6389D01*
X-28822Y6393D01*
X-28820Y6397D01*
X-28775Y6551D01*
X-28415Y8127D01*
X-28415Y8131D01*
X-28413Y8135D01*
X-28399Y8286D01*
X-28384Y8444D01*
X-28384Y8448D01*
X-28384Y8452D01*
X-28408Y8605D01*
X-28420Y8681D01*
X-28140Y9394D01*
X-28137Y9408D01*
X-28130Y9420D01*
X-28085Y9575D01*
X-27914Y10320D01*
X-27858Y10366D01*
X-27856Y10369D01*
X-27853Y10372D01*
X-27763Y10496D01*
X-27670Y10622D01*
X-27669Y10626D01*
X-27666Y10630D01*
X-27598Y10775D01*
X-27007Y12281D01*
X-27006Y12285D01*
X-27004Y12288D01*
X-26967Y12440D01*
X-26929Y12589D01*
X-26929Y12593D01*
X-26928Y12597D01*
X-26930Y12752D01*
X-26930Y12829D01*
X-26547Y13492D01*
X-26542Y13505D01*
X-26533Y13517D01*
X-26465Y13663D01*
X-26186Y14374D01*
X-26123Y14411D01*
X-26120Y14414D01*
X-26117Y14417D01*
X-26009Y14526D01*
X-25899Y14637D01*
X-25897Y14640D01*
X-25894Y14643D01*
X-25805Y14778D01*
X-24996Y16178D01*
X-24995Y16182D01*
X-24992Y16185D01*
X-24933Y16328D01*
X-24933Y16330D01*
X-24897Y16405D01*
X-24894Y16422D01*
X-24873Y16471D01*
X-24873Y16475D01*
X-24871Y16479D01*
X-24849Y16633D01*
X-24838Y16709D01*
X-24361Y17307D01*
X-24353Y17319D01*
X-24343Y17329D01*
X-24254Y17463D01*
X-23872Y18126D01*
X-23805Y18153D01*
X-23801Y18156D01*
X-23798Y18157D01*
X-23673Y18251D01*
X-23549Y18343D01*
X-23547Y18346D01*
X-23543Y18348D01*
X-23435Y18468D01*
X-22427Y19732D01*
X-22425Y19735D01*
X-22422Y19738D01*
X-22342Y19872D01*
X-22262Y20003D01*
X-22260Y20007D01*
X-22258Y20011D01*
X-22214Y20160D01*
X-22169Y20307D01*
X-22169Y20311D01*
X-22167Y20315D01*
X-22162Y20373D01*
X-22143Y20412D01*
X-22075Y20555D01*
X-22074Y20559D01*
X-22072Y20562D01*
X-22044Y20711D01*
X-22013Y20867D01*
X-22013Y20871D01*
X-22013Y20875D01*
X-22022Y21026D01*
X-22031Y21185D01*
X-22032Y21188D01*
X-22032Y21192D01*
X-22079Y21336D01*
X-22127Y21488D01*
X-22129Y21491D01*
X-22130Y21494D01*
X-22213Y21625D01*
X-22296Y21757D01*
X-22299Y21760D01*
X-22301Y21763D01*
X-22414Y21870D01*
X-22526Y21977D01*
X-22529Y21979D01*
X-22532Y21981D01*
X-22669Y22057D01*
X-22804Y22132D01*
X-22807Y22133D01*
X-22811Y22135D01*
X-22960Y22173D01*
X-23111Y22213D01*
X-23115Y22213D01*
X-23119Y22214D01*
X-23279Y22224D01*
X-28303Y22224D01*
X-30163Y24085D01*
X-30163Y50528D01*
X-28303Y52388D01*
X44178Y52388D01*
X44315Y52251D01*
X44425Y52166D01*
X44532Y52077D01*
X44550Y52069D01*
X44566Y52056D01*
X44694Y52001D01*
X44820Y51942D01*
X44839Y51938D01*
X44858Y51930D01*
X44996Y51908D01*
X45132Y51882D01*
X45152Y51883D01*
X45172Y51880D01*
X45311Y51893D01*
X45449Y51902D01*
X45469Y51908D01*
X45489Y51910D01*
X45620Y51957D01*
X45752Y52000D01*
X45769Y52011D01*
X45788Y52017D01*
X45903Y52095D01*
X46021Y52170D01*
X46035Y52185D01*
X46051Y52196D01*
X46143Y52300D01*
X46239Y52401D01*
X46248Y52419D01*
X46262Y52434D01*
X46325Y52558D01*
X46392Y52680D01*
X46397Y52700D01*
X46406Y52718D01*
X46437Y52854D01*
X46472Y52988D01*
X46473Y53016D01*
X46476Y53028D01*
X46475Y53048D01*
X46482Y53149D01*
X46482Y54439D01*
X47598Y55556D01*
X57177Y55556D01*
X58293Y54439D01*
X58293Y44861D01*
X57177Y43744D01*
X47307Y43744D01*
X47189Y43729D01*
X47071Y43722D01*
X47032Y43709D01*
X46992Y43704D01*
X46881Y43661D01*
X46768Y43624D01*
X46734Y43602D01*
X46696Y43587D01*
X46600Y43517D01*
X46499Y43454D01*
X46472Y43424D01*
X46439Y43401D01*
X46363Y43309D01*
X46281Y43222D01*
X46262Y43187D01*
X46236Y43156D01*
X46185Y43048D01*
X46128Y42944D01*
X46118Y42904D01*
X46101Y42868D01*
X46078Y42751D01*
X46048Y42636D01*
X46045Y42576D01*
X46041Y42556D01*
X46042Y42535D01*
X46038Y42475D01*
X46038Y24085D01*
X44178Y22224D01*
X33685Y22224D01*
X33566Y22209D01*
X33448Y22202D01*
X33409Y22189D01*
X33369Y22184D01*
X33258Y22141D01*
X33145Y22104D01*
X33111Y22082D01*
X33073Y22067D01*
X32977Y21998D01*
X32876Y21934D01*
X32849Y21904D01*
X32816Y21881D01*
X32740Y21789D01*
X32659Y21702D01*
X32639Y21667D01*
X32613Y21636D01*
X32563Y21528D01*
X32505Y21424D01*
X32495Y21384D01*
X32478Y21348D01*
X32455Y21231D01*
X32426Y21116D01*
X32422Y21056D01*
X32418Y21036D01*
X32419Y21015D01*
X32415Y20955D01*
X32415Y20485D01*
X31665Y18673D01*
X30278Y17286D01*
X28466Y16536D01*
X27932Y16536D01*
X27834Y16523D01*
X27735Y16520D01*
X27677Y16504D01*
X27616Y16496D01*
X27524Y16460D01*
X27429Y16432D01*
X27377Y16401D01*
X27321Y16379D01*
X27241Y16321D01*
X27155Y16271D01*
X27080Y16204D01*
X27063Y16192D01*
X27056Y16183D01*
X27035Y16164D01*
X26508Y15638D01*
X26497Y15624D01*
X26484Y15613D01*
X26400Y15498D01*
X26313Y15386D01*
X26306Y15370D01*
X26296Y15356D01*
X26243Y15225D01*
X26187Y15095D01*
X26184Y15077D01*
X26177Y15061D01*
X26159Y14920D01*
X26137Y14780D01*
X26139Y14763D01*
X26136Y14745D01*
X26153Y14605D01*
X26167Y14464D01*
X26173Y14447D01*
X26175Y14430D01*
X26224Y14276D01*
X26465Y13663D01*
X26472Y13650D01*
X26476Y13636D01*
X26547Y13492D01*
X26930Y12830D01*
X26920Y12758D01*
X26920Y12754D01*
X26920Y12750D01*
X26938Y12595D01*
X26956Y12442D01*
X26958Y12438D01*
X26958Y12434D01*
X27007Y12281D01*
X27598Y10775D01*
X27600Y10772D01*
X27601Y10768D01*
X27678Y10630D01*
X27750Y10496D01*
X27753Y10493D01*
X27755Y10490D01*
X27863Y10376D01*
X27914Y10321D01*
X28085Y9575D01*
X28090Y9561D01*
X28091Y9547D01*
X28140Y9393D01*
X28420Y8682D01*
X28399Y8612D01*
X28399Y8608D01*
X28398Y8604D01*
X28394Y8450D01*
X28388Y8294D01*
X28389Y8290D01*
X28389Y8286D01*
X28415Y8127D01*
X28775Y6551D01*
X28776Y6547D01*
X28777Y6543D01*
X28830Y6399D01*
X28884Y6252D01*
X28886Y6249D01*
X28888Y6245D01*
X28976Y6117D01*
X29020Y6054D01*
X29077Y5291D01*
X29080Y5277D01*
X29079Y5262D01*
X29097Y5152D01*
X29098Y5138D01*
X29101Y5130D01*
X29105Y5104D01*
X29275Y4358D01*
X29245Y4292D01*
X29244Y4288D01*
X29242Y4285D01*
X29214Y4128D01*
X29186Y3980D01*
X29187Y3976D01*
X29186Y3972D01*
X29188Y3811D01*
X29268Y2742D01*
X29282Y2671D01*
X29287Y2600D01*
X29314Y2516D01*
X29331Y2430D01*
X29363Y2365D01*
X29385Y2297D01*
X29432Y2223D01*
X29470Y2144D01*
X29516Y2089D01*
X29555Y2028D01*
X29619Y1968D01*
X29676Y1901D01*
X29734Y1860D01*
X29786Y1810D01*
X29863Y1768D01*
X29935Y1717D01*
X30002Y1692D01*
X30065Y1657D01*
X30150Y1635D01*
X30232Y1604D01*
X30303Y1595D01*
X30373Y1577D01*
X30534Y1567D01*
X67159Y1567D01*
X67102Y852D01*
X67106Y824D01*
X67101Y796D01*
X67118Y726D01*
X67126Y655D01*
X67141Y630D01*
X67147Y603D01*
X67190Y545D01*
X67226Y482D01*
X67248Y465D01*
X67265Y442D01*
X67327Y406D01*
X67384Y362D01*
X67412Y355D01*
X67436Y341D01*
X67536Y324D01*
X67577Y314D01*
X67587Y315D01*
X67600Y313D01*
X86600Y313D01*
X86676Y329D01*
X86754Y337D01*
X86773Y348D01*
X86795Y353D01*
X86859Y397D01*
X86927Y435D01*
X86943Y454D01*
X86959Y465D01*
X86983Y503D01*
X87033Y563D01*
X96533Y17063D01*
X96542Y17091D01*
X96558Y17114D01*
X96573Y17184D01*
X96596Y17252D01*
X96593Y17281D01*
X96599Y17309D01*
X96586Y17379D01*
X96580Y17450D01*
X96567Y17476D01*
X96561Y17504D01*
X96521Y17563D01*
X96488Y17627D01*
X96466Y17645D01*
X96450Y17669D01*
X96367Y17726D01*
X96335Y17753D01*
X96324Y17756D01*
X96314Y17764D01*
X95686Y18060D01*
X113972Y49734D01*
X114000Y49800D01*
X114037Y49862D01*
X114062Y49946D01*
X114096Y50027D01*
X114106Y50098D01*
X114126Y50167D01*
X114129Y50255D01*
X114142Y50342D01*
X114135Y50413D01*
X114137Y50485D01*
X114118Y50571D01*
X114109Y50658D01*
X114084Y50726D01*
X114068Y50796D01*
X114029Y50874D01*
X113998Y50956D01*
X113957Y51015D01*
X113925Y51079D01*
X113867Y51145D01*
X113817Y51217D01*
X113762Y51264D01*
X113715Y51319D01*
X113588Y51417D01*
X112708Y52017D01*
X112704Y52019D01*
X112701Y52022D01*
X112561Y52092D01*
X112425Y52162D01*
X112421Y52163D01*
X112417Y52164D01*
X112262Y52198D01*
X112191Y52214D01*
X111630Y52735D01*
X111618Y52743D01*
X111608Y52754D01*
X111481Y52853D01*
X110849Y53283D01*
X110827Y53352D01*
X110825Y53356D01*
X110823Y53360D01*
X110740Y53489D01*
X110657Y53621D01*
X110654Y53624D01*
X110652Y53627D01*
X110541Y53744D01*
X109354Y54845D01*
X109350Y54847D01*
X109348Y54851D01*
X109220Y54941D01*
X109095Y55030D01*
X109091Y55032D01*
X109088Y55034D01*
X108945Y55089D01*
X108871Y55117D01*
X108394Y55716D01*
X108383Y55726D01*
X108376Y55738D01*
X108265Y55855D01*
X107704Y56374D01*
X107692Y56446D01*
X107691Y56450D01*
X107690Y56454D01*
X107628Y56592D01*
X107564Y56737D01*
X107562Y56740D01*
X107560Y56744D01*
X107468Y56876D01*
X106458Y58141D01*
X106455Y58144D01*
X106453Y58148D01*
X106341Y58256D01*
X106230Y58363D01*
X106226Y58365D01*
X106223Y58368D01*
X106090Y58443D01*
X106022Y58483D01*
X105639Y59145D01*
X105630Y59157D01*
X105624Y59170D01*
X105532Y59302D01*
X105055Y59900D01*
X105054Y59972D01*
X105053Y59976D01*
X105053Y59980D01*
X105011Y60130D01*
X104971Y60279D01*
X104969Y60283D01*
X104968Y60287D01*
X104896Y60431D01*
X104086Y61833D01*
X104084Y61836D01*
X104082Y61840D01*
X103989Y61961D01*
X103894Y62086D01*
X103890Y62089D01*
X103888Y62092D01*
X103766Y62187D01*
X103705Y62235D01*
X103426Y62947D01*
X103419Y62960D01*
X103415Y62974D01*
X103392Y63020D01*
X103389Y63031D01*
X103380Y63044D01*
X103343Y63118D01*
X102961Y63780D01*
X102971Y63852D01*
X102970Y63856D01*
X102971Y63860D01*
X102952Y64013D01*
X102934Y64168D01*
X102933Y64172D01*
X102932Y64176D01*
X102883Y64329D01*
X102291Y65836D01*
X102289Y65840D01*
X102288Y65844D01*
X102214Y65978D01*
X102138Y66115D01*
X102135Y66118D01*
X102133Y66122D01*
X102027Y66235D01*
X101974Y66291D01*
X101804Y67037D01*
X101799Y67050D01*
X101797Y67065D01*
X101748Y67218D01*
X101468Y67930D01*
X101489Y67999D01*
X101489Y68003D01*
X101490Y68007D01*
X101494Y68162D01*
X101500Y68317D01*
X101499Y68321D01*
X101499Y68325D01*
X101473Y68484D01*
X101112Y70063D01*
X101111Y70067D01*
X101110Y70071D01*
X101056Y70216D01*
X101003Y70361D01*
X101001Y70365D01*
X100999Y70369D01*
X100911Y70496D01*
X100867Y70559D01*
X100810Y71322D01*
X100807Y71337D01*
X100807Y71351D01*
X100781Y71510D01*
X100611Y72255D01*
X100642Y72321D01*
X100642Y72325D01*
X100644Y72329D01*
X100671Y72481D01*
X100700Y72634D01*
X100699Y72638D01*
X100700Y72642D01*
X100698Y72803D01*
X100577Y74417D01*
X100576Y74421D01*
X100576Y74426D01*
X100544Y74580D01*
X100513Y74729D01*
X100512Y74733D01*
X100511Y74737D01*
X100442Y74877D01*
X100408Y74945D01*
X100447Y75468D01*
X100443Y75553D01*
X100449Y75637D01*
X100435Y75711D01*
X100431Y75786D01*
X100406Y75866D01*
X100390Y75950D01*
X100359Y76018D01*
X100337Y76089D01*
X100292Y76161D01*
X100256Y76238D01*
X100209Y76296D01*
X100169Y76360D01*
X100108Y76418D01*
X100055Y76484D01*
X99994Y76528D01*
X99940Y76580D01*
X99866Y76622D01*
X99798Y76672D01*
X99729Y76700D01*
X99663Y76737D01*
X99582Y76759D01*
X99503Y76790D01*
X99429Y76800D01*
X99356Y76820D01*
X99272Y76821D01*
X99188Y76832D01*
X99113Y76823D01*
X99038Y76823D01*
X98956Y76803D01*
X98872Y76793D01*
X98802Y76766D01*
X98729Y76748D01*
X98654Y76708D01*
X98576Y76677D01*
X98515Y76634D01*
X98449Y76599D01*
X98386Y76541D01*
X98317Y76492D01*
X98221Y76390D01*
X98214Y76384D01*
X98212Y76380D01*
X98207Y76375D01*
X97718Y75789D01*
X97714Y75782D01*
X97702Y75769D01*
X96885Y74747D01*
X95582Y74629D01*
X95574Y74627D01*
X95556Y74626D01*
X94256Y74482D01*
X93251Y75320D01*
X93244Y75324D01*
X93231Y75336D01*
X92009Y76313D01*
X91959Y76383D01*
X91862Y76475D01*
X91854Y76484D01*
X91850Y76486D01*
X91842Y76493D01*
X75456Y90149D01*
X75433Y90164D01*
X75424Y90172D01*
X75403Y90183D01*
X75362Y90220D01*
X75273Y90266D01*
X75188Y90320D01*
X75132Y90339D01*
X75080Y90366D01*
X75057Y90371D01*
X74119Y91260D01*
X74102Y91272D01*
X74058Y91313D01*
X73066Y92140D01*
X73064Y92143D01*
X73029Y93435D01*
X73026Y93455D01*
X73025Y93516D01*
X72908Y94802D01*
X72908Y94806D01*
X73797Y95744D01*
X73809Y95760D01*
X73851Y95804D01*
X74678Y96797D01*
X74746Y96839D01*
X74836Y96885D01*
X74881Y96924D01*
X74930Y96955D01*
X75048Y97064D01*
X75854Y97914D01*
X75942Y98035D01*
X76034Y98157D01*
X76039Y98167D01*
X76042Y98171D01*
X76046Y98182D01*
X76105Y98302D01*
X76168Y98454D01*
X77771Y100057D01*
X77856Y100110D01*
X77971Y100176D01*
X77990Y100194D01*
X78013Y100208D01*
X78131Y100318D01*
X102430Y125968D01*
X102436Y125976D01*
X102452Y125992D01*
X103326Y126963D01*
X104632Y126998D01*
X104642Y127000D01*
X104665Y126999D01*
X105969Y127068D01*
X106918Y126169D01*
X106926Y126163D01*
X106942Y126147D01*
X122679Y111984D01*
X122695Y111973D01*
X122735Y111937D01*
X123746Y111127D01*
X123815Y109833D01*
X123818Y109814D01*
X123821Y109760D01*
X123964Y108472D01*
X123097Y107509D01*
X123085Y107493D01*
X123049Y107453D01*
X122395Y106635D01*
X122343Y106550D01*
X122283Y106470D01*
X122260Y106415D01*
X122229Y106363D01*
X122199Y106268D01*
X122161Y106176D01*
X122153Y106117D01*
X122135Y106059D01*
X122131Y105960D01*
X122117Y105861D01*
X122123Y105802D01*
X122120Y105742D01*
X122141Y105644D01*
X122152Y105545D01*
X122173Y105489D01*
X122185Y105430D01*
X122229Y105341D01*
X122264Y105248D01*
X122299Y105199D01*
X122325Y105145D01*
X122390Y105069D01*
X122447Y104987D01*
X122493Y104948D01*
X122532Y104903D01*
X122613Y104846D01*
X122689Y104781D01*
X122743Y104754D01*
X122792Y104720D01*
X122885Y104685D01*
X122975Y104641D01*
X123033Y104629D01*
X123089Y104608D01*
X123188Y104597D01*
X123286Y104576D01*
X123346Y104579D01*
X123405Y104573D01*
X123504Y104587D01*
X123604Y104591D01*
X123700Y104615D01*
X123720Y104617D01*
X123732Y104622D01*
X123760Y104629D01*
X124164Y104754D01*
X124232Y104728D01*
X124236Y104728D01*
X124240Y104726D01*
X124396Y104710D01*
X124548Y104694D01*
X124552Y104694D01*
X124556Y104694D01*
X124717Y104708D01*
X126317Y104949D01*
X126321Y104951D01*
X126326Y104951D01*
X126474Y104994D01*
X126624Y105036D01*
X126627Y105038D01*
X126631Y105039D01*
X126764Y105117D01*
X126831Y105157D01*
X127596Y105157D01*
X127611Y105159D01*
X127625Y105157D01*
X127786Y105171D01*
X128541Y105285D01*
X128605Y105250D01*
X128609Y105249D01*
X128612Y105247D01*
X128763Y105208D01*
X128912Y105169D01*
X128916Y105169D01*
X128920Y105168D01*
X129081Y105157D01*
X130700Y105158D01*
X130704Y105158D01*
X130708Y105158D01*
X130861Y105178D01*
X131016Y105198D01*
X131020Y105199D01*
X131024Y105200D01*
X131168Y105258D01*
X131239Y105286D01*
X131996Y105173D01*
X132010Y105172D01*
X132024Y105169D01*
X132185Y105158D01*
X132949Y105159D01*
X133007Y105114D01*
X133011Y105113D01*
X133014Y105110D01*
X133154Y105050D01*
X133299Y104988D01*
X133303Y104987D01*
X133306Y104986D01*
X133464Y104952D01*
X135065Y104711D01*
X135069Y104711D01*
X135073Y104710D01*
X135229Y104707D01*
X135383Y104703D01*
X135387Y104704D01*
X135391Y104704D01*
X135542Y104740D01*
X135617Y104758D01*
X136348Y104532D01*
X136362Y104530D01*
X136376Y104524D01*
X136533Y104490D01*
X137289Y104376D01*
X137339Y104324D01*
X137343Y104322D01*
X137346Y104319D01*
X137477Y104238D01*
X137609Y104156D01*
X137613Y104154D01*
X137616Y104152D01*
X137767Y104095D01*
X139314Y103618D01*
X139318Y103618D01*
X139322Y103616D01*
X139477Y103590D01*
X139628Y103564D01*
X139632Y103564D01*
X139636Y103563D01*
X139793Y103576D01*
X139867Y103582D01*
X140557Y103250D01*
X140570Y103246D01*
X140583Y103238D01*
X140733Y103181D01*
X141464Y102956D01*
X141505Y102897D01*
X141509Y102894D01*
X141511Y102891D01*
X141628Y102792D01*
X141747Y102690D01*
X141751Y102688D01*
X141754Y102686D01*
X141894Y102607D01*
X142871Y102137D01*
X142939Y102114D01*
X143003Y102082D01*
X143089Y102064D01*
X143172Y102036D01*
X143244Y102031D01*
X143314Y102016D01*
X143402Y102019D01*
X143490Y102013D01*
X143560Y102026D01*
X143632Y102029D01*
X143716Y102054D01*
X143803Y102070D01*
X143868Y102100D01*
X143936Y102121D01*
X144012Y102166D01*
X144091Y102203D01*
X144147Y102248D01*
X144208Y102285D01*
X144270Y102348D01*
X144338Y102403D01*
X144381Y102461D01*
X144431Y102512D01*
X144520Y102646D01*
X162808Y134322D01*
X163416Y133902D01*
X163443Y133890D01*
X163465Y133872D01*
X163534Y133852D01*
X163599Y133824D01*
X163628Y133823D01*
X163656Y133815D01*
X163727Y133823D01*
X163798Y133823D01*
X163825Y133834D01*
X163854Y133837D01*
X163916Y133873D01*
X163981Y133900D01*
X164002Y133921D01*
X164027Y133935D01*
X164090Y134012D01*
X164120Y134043D01*
X164124Y134053D01*
X164133Y134063D01*
X173633Y150563D01*
X173643Y150595D01*
X173652Y150608D01*
X173656Y150633D01*
X173657Y150636D01*
X173688Y150707D01*
X173688Y150730D01*
X173696Y150752D01*
X173690Y150829D01*
X173691Y150906D01*
X173681Y150930D01*
X173680Y150950D01*
X173659Y150990D01*
X173633Y151062D01*
X164133Y167562D01*
X164114Y167583D01*
X164101Y167610D01*
X164048Y167657D01*
X164001Y167711D01*
X163975Y167723D01*
X163954Y167743D01*
X163886Y167766D01*
X163822Y167797D01*
X163793Y167798D01*
X163766Y167807D01*
X163694Y167803D01*
X163623Y167806D01*
X163596Y167796D01*
X163567Y167794D01*
X163477Y167751D01*
X163437Y167737D01*
X163429Y167729D01*
X163416Y167723D01*
X160893Y165982D01*
X160869Y165957D01*
X160831Y165931D01*
X158619Y163807D01*
X158600Y163779D01*
X158566Y163747D01*
X156724Y161295D01*
X156710Y161265D01*
X156681Y161227D01*
X155256Y158512D01*
X155247Y158481D01*
X155231Y158456D01*
X155230Y158448D01*
X155225Y158439D01*
X154254Y155530D01*
X154250Y155496D01*
X154235Y155452D01*
X153945Y153669D01*
X139382Y153669D01*
X139264Y153654D01*
X139146Y153647D01*
X139107Y153634D01*
X139067Y153629D01*
X138956Y153586D01*
X138843Y153549D01*
X138809Y153527D01*
X138771Y153512D01*
X138675Y153443D01*
X138574Y153379D01*
X138547Y153349D01*
X138514Y153326D01*
X138438Y153234D01*
X138356Y153147D01*
X138337Y153112D01*
X138311Y153081D01*
X138260Y152973D01*
X138203Y152869D01*
X138193Y152829D01*
X138176Y152793D01*
X138153Y152676D01*
X138123Y152561D01*
X138120Y152501D01*
X138116Y152481D01*
X138117Y152460D01*
X138113Y152400D01*
X138113Y143147D01*
X136253Y141287D01*
X98697Y141287D01*
X96837Y143147D01*
X96837Y143193D01*
X96819Y143330D01*
X96806Y143469D01*
X96799Y143488D01*
X96797Y143508D01*
X96746Y143637D01*
X96699Y143768D01*
X96687Y143785D01*
X96680Y143804D01*
X96598Y143916D01*
X96520Y144031D01*
X96505Y144045D01*
X96493Y144061D01*
X96386Y144150D01*
X96282Y144242D01*
X96264Y144251D01*
X96248Y144264D01*
X96122Y144323D01*
X95998Y144386D01*
X95979Y144391D01*
X95960Y144399D01*
X95824Y144425D01*
X95688Y144456D01*
X95668Y144455D01*
X95648Y144459D01*
X95510Y144451D01*
X95370Y144446D01*
X95351Y144441D01*
X95331Y144439D01*
X95198Y144397D01*
X95065Y144358D01*
X95047Y144348D01*
X95028Y144341D01*
X94911Y144267D01*
X94791Y144196D01*
X94770Y144178D01*
X94759Y144171D01*
X94745Y144156D01*
X94670Y144090D01*
X89585Y139005D01*
X89512Y138911D01*
X89433Y138822D01*
X89415Y138786D01*
X89390Y138754D01*
X89343Y138644D01*
X89289Y138538D01*
X89280Y138499D01*
X89264Y138462D01*
X89245Y138344D01*
X89219Y138228D01*
X89220Y138188D01*
X89214Y138148D01*
X89225Y138029D01*
X89229Y137910D01*
X89240Y137871D01*
X89244Y137831D01*
X89284Y137719D01*
X89317Y137605D01*
X89338Y137570D01*
X89351Y137532D01*
X89418Y137433D01*
X89479Y137331D01*
X89518Y137286D01*
X89530Y137269D01*
X89545Y137255D01*
X89585Y137210D01*
X90131Y136664D01*
X90131Y134513D01*
X90147Y134386D01*
X90157Y134259D01*
X90168Y134215D01*
X90171Y134198D01*
X90179Y134177D01*
X90199Y134103D01*
X90731Y132543D01*
X90640Y131111D01*
X90606Y130576D01*
X90261Y129873D01*
X90245Y129826D01*
X90220Y129782D01*
X90193Y129676D01*
X90157Y129572D01*
X90153Y129523D01*
X90141Y129474D01*
X90131Y129314D01*
X90131Y127086D01*
X89014Y125969D01*
X82436Y125969D01*
X81544Y126861D01*
X81497Y126897D01*
X81457Y126940D01*
X81421Y126963D01*
X81403Y126980D01*
X81360Y127003D01*
X81292Y127056D01*
X81239Y127079D01*
X81189Y127111D01*
X81130Y127130D01*
X81125Y127133D01*
X81107Y127138D01*
X81093Y127142D01*
X81001Y127182D01*
X80943Y127192D01*
X80887Y127210D01*
X80727Y127230D01*
X79693Y127296D01*
X79550Y127288D01*
X79376Y127277D01*
X79266Y127241D01*
X79073Y127179D01*
X78918Y127081D01*
X78805Y127009D01*
X78804Y127008D01*
X78674Y126870D01*
X78587Y126777D01*
X78586Y126777D01*
X78543Y126698D01*
X77227Y125382D01*
X76488Y125382D01*
X76389Y125369D01*
X76290Y125366D01*
X76232Y125350D01*
X76172Y125342D01*
X76080Y125305D01*
X75985Y125278D01*
X75933Y125247D01*
X75876Y125225D01*
X75796Y125167D01*
X75711Y125116D01*
X75635Y125050D01*
X75619Y125038D01*
X75611Y125029D01*
X75590Y125010D01*
X58329Y107749D01*
X58256Y107655D01*
X58178Y107566D01*
X58159Y107530D01*
X58135Y107498D01*
X58087Y107389D01*
X58033Y107283D01*
X58024Y107243D01*
X58008Y107206D01*
X57989Y107089D01*
X57963Y106973D01*
X57965Y106932D01*
X57958Y106892D01*
X57969Y106774D01*
X57973Y106655D01*
X57984Y106616D01*
X57988Y106576D01*
X58028Y106463D01*
X58062Y106349D01*
X58082Y106314D01*
X58096Y106276D01*
X58163Y106178D01*
X58223Y106075D01*
X58263Y106030D01*
X58274Y106013D01*
X58290Y106000D01*
X58329Y105954D01*
X61913Y102371D01*
X61913Y94479D01*
X56333Y88899D01*
X48442Y88899D01*
X42781Y94560D01*
X42703Y94621D01*
X42631Y94689D01*
X42578Y94718D01*
X42530Y94755D01*
X42439Y94794D01*
X42352Y94842D01*
X42294Y94857D01*
X42238Y94881D01*
X42140Y94897D01*
X42044Y94922D01*
X41944Y94928D01*
X41924Y94931D01*
X41912Y94930D01*
X41884Y94932D01*
X12226Y94932D01*
X12089Y94914D01*
X11950Y94901D01*
X11931Y94894D01*
X11911Y94892D01*
X11782Y94841D01*
X11651Y94794D01*
X11634Y94782D01*
X11615Y94775D01*
X11503Y94693D01*
X11388Y94615D01*
X11374Y94600D01*
X11358Y94588D01*
X11269Y94481D01*
X11177Y94377D01*
X11168Y94359D01*
X11155Y94343D01*
X11096Y94217D01*
X11032Y94093D01*
X11028Y94074D01*
X11019Y94055D01*
X10993Y93919D01*
X10963Y93783D01*
X10963Y93763D01*
X10960Y93743D01*
X10968Y93605D01*
X10972Y93465D01*
X10978Y93446D01*
X10979Y93426D01*
X11022Y93293D01*
X11061Y93160D01*
X11071Y93142D01*
X11077Y93123D01*
X11152Y93006D01*
X11222Y92886D01*
X11241Y92865D01*
X11248Y92854D01*
X11262Y92840D01*
X11329Y92765D01*
X18463Y85630D01*
X18482Y85583D01*
X18540Y85503D01*
X18591Y85418D01*
X18657Y85342D01*
X18669Y85326D01*
X18678Y85318D01*
X18697Y85297D01*
X20905Y83089D01*
X20983Y83028D01*
X21055Y82960D01*
X21108Y82931D01*
X21156Y82894D01*
X21247Y82855D01*
X21334Y82807D01*
X21392Y82792D01*
X21448Y82768D01*
X21526Y82755D01*
X23430Y81967D01*
X24817Y80580D01*
X25567Y78768D01*
X25567Y76807D01*
X24817Y74995D01*
X23430Y73608D01*
X21618Y72858D01*
X19657Y72858D01*
X17845Y73608D01*
X16458Y74995D01*
X15674Y76888D01*
X15668Y76938D01*
X15631Y77030D01*
X15604Y77125D01*
X15573Y77178D01*
X15551Y77234D01*
X15493Y77314D01*
X15442Y77399D01*
X15376Y77475D01*
X15364Y77491D01*
X15355Y77499D01*
X15336Y77520D01*
X10548Y82308D01*
X10454Y82381D01*
X10365Y82460D01*
X10329Y82478D01*
X10297Y82503D01*
X10187Y82550D01*
X10082Y82604D01*
X10042Y82613D01*
X10005Y82629D01*
X9887Y82648D01*
X9771Y82674D01*
X9731Y82673D01*
X9691Y82679D01*
X9572Y82668D01*
X9453Y82664D01*
X9415Y82653D01*
X9374Y82649D01*
X9262Y82609D01*
X9148Y82576D01*
X9113Y82555D01*
X9075Y82542D01*
X8977Y82475D01*
X8874Y82414D01*
X8829Y82375D01*
X8812Y82363D01*
X8798Y82348D01*
X8753Y82308D01*
X8502Y82057D01*
X-3077Y82057D01*
X-4193Y83173D01*
X-4193Y93663D01*
X-4208Y93781D01*
X-4216Y93899D01*
X-4228Y93938D01*
X-4233Y93978D01*
X-4277Y94089D01*
X-4314Y94202D01*
X-4335Y94236D01*
X-4350Y94274D01*
X-4420Y94370D01*
X-4484Y94471D01*
X-4513Y94498D01*
X-4537Y94531D01*
X-4629Y94607D01*
X-4715Y94689D01*
X-4751Y94708D01*
X-4782Y94734D01*
X-4890Y94785D01*
X-4994Y94842D01*
X-5033Y94852D01*
X-5070Y94869D01*
X-5186Y94892D01*
X-5302Y94922D01*
X-5362Y94925D01*
X-5382Y94929D01*
X-5402Y94928D01*
X-5462Y94932D01*
X-6113Y94932D01*
X-6231Y94917D01*
X-6349Y94909D01*
X-6388Y94897D01*
X-6428Y94892D01*
X-6539Y94848D01*
X-6652Y94811D01*
X-6686Y94790D01*
X-6724Y94775D01*
X-6820Y94705D01*
X-6921Y94641D01*
X-6948Y94612D01*
X-6981Y94588D01*
X-7057Y94496D01*
X-7139Y94410D01*
X-7158Y94374D01*
X-7184Y94343D01*
X-7235Y94235D01*
X-7292Y94131D01*
X-7302Y94092D01*
X-7319Y94055D01*
X-7342Y93939D01*
X-7372Y93823D01*
X-7375Y93763D01*
X-7379Y93743D01*
X-7378Y93723D01*
X-7382Y93663D01*
X-7382Y83173D01*
X-8498Y82057D01*
X-20077Y82057D01*
X-21193Y83173D01*
X-21193Y84256D01*
X-21208Y84374D01*
X-21216Y84492D01*
X-21228Y84531D01*
X-21233Y84571D01*
X-21277Y84682D01*
X-21314Y84795D01*
X-21335Y84829D01*
X-21350Y84867D01*
X-21420Y84963D01*
X-21484Y85064D01*
X-21513Y85091D01*
X-21537Y85124D01*
X-21629Y85200D01*
X-21715Y85282D01*
X-21751Y85301D01*
X-21782Y85327D01*
X-21890Y85378D01*
X-21994Y85435D01*
X-22033Y85445D01*
X-22070Y85462D01*
X-22186Y85485D01*
X-22302Y85515D01*
X-22362Y85518D01*
X-22382Y85522D01*
X-22402Y85521D01*
X-22462Y85525D01*
X-40005Y85525D01*
X-40123Y85510D01*
X-40242Y85502D01*
X-40280Y85490D01*
X-40321Y85485D01*
X-40431Y85441D01*
X-40544Y85404D01*
X-40579Y85383D01*
X-40616Y85368D01*
X-40712Y85298D01*
X-40813Y85234D01*
X-40841Y85205D01*
X-40874Y85181D01*
X-40950Y85089D01*
X-41031Y85003D01*
X-41051Y84967D01*
X-41076Y84936D01*
X-41127Y84828D01*
X-41185Y84724D01*
X-41195Y84685D01*
X-41212Y84648D01*
X-41234Y84532D01*
X-41264Y84416D01*
X-41268Y84356D01*
X-41272Y84336D01*
X-41270Y84316D01*
X-41274Y84256D01*
X-41274Y83830D01*
X-42724Y80329D01*
X-45404Y77649D01*
X-46079Y77370D01*
X-46104Y77355D01*
X-46132Y77346D01*
X-46242Y77277D01*
X-46355Y77213D01*
X-46376Y77192D01*
X-46401Y77176D01*
X-46490Y77082D01*
X-46583Y76991D01*
X-46599Y76966D01*
X-46619Y76945D01*
X-46682Y76831D01*
X-46750Y76720D01*
X-46758Y76692D01*
X-46773Y76666D01*
X-46805Y76540D01*
X-46843Y76416D01*
X-46845Y76387D01*
X-46852Y76358D01*
X-46862Y76197D01*
X-46862Y69853D01*
X-46859Y69823D01*
X-46861Y69794D01*
X-46839Y69666D01*
X-46822Y69537D01*
X-46812Y69510D01*
X-46807Y69480D01*
X-46753Y69362D01*
X-46705Y69241D01*
X-46688Y69218D01*
X-46676Y69191D01*
X-46595Y69089D01*
X-46519Y68984D01*
X-46496Y68965D01*
X-46477Y68942D01*
X-46374Y68864D01*
X-46274Y68781D01*
X-46247Y68769D01*
X-46223Y68751D01*
X-46079Y68680D01*
X-45404Y68401D01*
X-42724Y65721D01*
X-41274Y62220D01*
X-41274Y58430D01*
X-42724Y54929D01*
X-45404Y52249D01*
X-48905Y50799D01*
X-52695Y50799D01*
X-56196Y52249D01*
X-58876Y54929D01*
X-60326Y58430D01*
X-60326Y62220D01*
X-58876Y65721D01*
X-56196Y68401D01*
X-55521Y68680D01*
X-55496Y68695D01*
X-55468Y68704D01*
X-55358Y68773D01*
X-55245Y68837D01*
X-55224Y68858D01*
X-55199Y68874D01*
X-55110Y68968D01*
X-55017Y69059D01*
X-55001Y69084D01*
X-54981Y69105D01*
X-54918Y69219D01*
X-54850Y69330D01*
X-54842Y69358D01*
X-54827Y69384D01*
X-54795Y69510D01*
X-54757Y69634D01*
X-54755Y69663D01*
X-54748Y69692D01*
X-54738Y69853D01*
X-54738Y76197D01*
X-54741Y76227D01*
X-54739Y76256D01*
X-54761Y76384D01*
X-54778Y76513D01*
X-54788Y76540D01*
X-54793Y76570D01*
X-54847Y76688D01*
X-54895Y76809D01*
X-54912Y76832D01*
X-54924Y76859D01*
X-55005Y76961D01*
X-55081Y77066D01*
X-55104Y77085D01*
X-55123Y77108D01*
X-55226Y77186D01*
X-55326Y77269D01*
X-55353Y77281D01*
X-55377Y77299D01*
X-55521Y77370D01*
X-56196Y77649D01*
X-58876Y80329D01*
X-60326Y83830D01*
X-60326Y87620D01*
X-58876Y91121D01*
X-57231Y92765D01*
X-57146Y92875D01*
X-57058Y92982D01*
X-57049Y93000D01*
X-57036Y93016D01*
X-56981Y93144D01*
X-56922Y93270D01*
X-56918Y93289D01*
X-56910Y93308D01*
X-56888Y93446D01*
X-56862Y93582D01*
X-56863Y93602D01*
X-56860Y93622D01*
X-56873Y93761D01*
X-56882Y93899D01*
X-56888Y93919D01*
X-56890Y93939D01*
X-56937Y94070D01*
X-56980Y94202D01*
X-56991Y94219D01*
X-56998Y94238D01*
X-57076Y94353D01*
X-57150Y94471D01*
X-57165Y94485D01*
X-57176Y94501D01*
X-57280Y94593D01*
X-57382Y94689D01*
X-57400Y94698D01*
X-57415Y94712D01*
X-57538Y94775D01*
X-57660Y94842D01*
X-57680Y94847D01*
X-57698Y94856D01*
X-57834Y94887D01*
X-57968Y94922D01*
X-57996Y94923D01*
X-58008Y94926D01*
X-58029Y94925D01*
X-58129Y94932D01*
X-104854Y94932D01*
X-104985Y94915D01*
X-105117Y94904D01*
X-105143Y94895D01*
X-105170Y94892D01*
X-105292Y94843D01*
X-105417Y94800D01*
X-105440Y94785D01*
X-105465Y94775D01*
X-105572Y94697D01*
X-105682Y94624D01*
X-105701Y94604D01*
X-105723Y94588D01*
X-105807Y94486D01*
X-105896Y94388D01*
X-105908Y94364D01*
X-105925Y94343D01*
X-105982Y94224D01*
X-106043Y94106D01*
X-106049Y94080D01*
X-106061Y94055D01*
X-106086Y93926D01*
X-106116Y93797D01*
X-106116Y93770D01*
X-106121Y93743D01*
X-106113Y93611D01*
X-106110Y93479D01*
X-106103Y93453D01*
X-106101Y93426D01*
X-106060Y93300D01*
X-106025Y93173D01*
X-106008Y93138D01*
X-106003Y93123D01*
X-105991Y93105D01*
X-105954Y93028D01*
X-105628Y92464D01*
X-105619Y92453D01*
X-105614Y92440D01*
X-105521Y92308D01*
X-105045Y91710D01*
X-105044Y91637D01*
X-105043Y91633D01*
X-105043Y91629D01*
X-105001Y91480D01*
X-104961Y91330D01*
X-104959Y91326D01*
X-104958Y91322D01*
X-104886Y91178D01*
X-104077Y89776D01*
X-104075Y89772D01*
X-104073Y89769D01*
X-104009Y89686D01*
X-103959Y89607D01*
X-103923Y89573D01*
X-103885Y89522D01*
X-103882Y89520D01*
X-103879Y89516D01*
X-103785Y89443D01*
X-103727Y89389D01*
X-103696Y89371D01*
X-103417Y88661D01*
X-103411Y88648D01*
X-103407Y88634D01*
X-103394Y88608D01*
X-103393Y88606D01*
X-103392Y88604D01*
X-103335Y88490D01*
X-102953Y87827D01*
X-102963Y87755D01*
X-102962Y87751D01*
X-102963Y87747D01*
X-102944Y87592D01*
X-102926Y87440D01*
X-102925Y87436D01*
X-102925Y87432D01*
X-102875Y87278D01*
X-102284Y85771D01*
X-102282Y85767D01*
X-102281Y85763D01*
X-102207Y85629D01*
X-102132Y85492D01*
X-102129Y85489D01*
X-102127Y85485D01*
X-102021Y85373D01*
X-101968Y85316D01*
X-101798Y84570D01*
X-101793Y84556D01*
X-101792Y84542D01*
X-101742Y84389D01*
X-101463Y83677D01*
X-101484Y83607D01*
X-101484Y83603D01*
X-101485Y83599D01*
X-101490Y83443D01*
X-101495Y83290D01*
X-101494Y83286D01*
X-101494Y83282D01*
X-101468Y83123D01*
X-101109Y81544D01*
X-101107Y81540D01*
X-101107Y81536D01*
X-101053Y81391D01*
X-101000Y81245D01*
X-100997Y81242D01*
X-100996Y81238D01*
X-100907Y81110D01*
X-100820Y80983D01*
X-100817Y80980D01*
X-100815Y80977D01*
X-100699Y80864D01*
X-100666Y80835D01*
X-100664Y80834D01*
X-100662Y80832D01*
X-100603Y80793D01*
X-100580Y80773D01*
X-100548Y80757D01*
X-100531Y80746D01*
X-100401Y80659D01*
X-100398Y80659D01*
X-100396Y80657D01*
X-100250Y80607D01*
X-100100Y80555D01*
X-100098Y80555D01*
X-100095Y80554D01*
X-99941Y80542D01*
X-99783Y80529D01*
X-99781Y80529D01*
X-99778Y80529D01*
X-99624Y80556D01*
X-99470Y80582D01*
X-99467Y80583D01*
X-99465Y80583D01*
X-99322Y80648D01*
X-99179Y80711D01*
X-99177Y80713D01*
X-99175Y80714D01*
X-99051Y80813D01*
X-98930Y80909D01*
X-98929Y80911D01*
X-98927Y80913D01*
X-98830Y81041D01*
X-98762Y81130D01*
X-97044Y82848D01*
X-94850Y83757D01*
X-92114Y83757D01*
X-89920Y82848D01*
X-88062Y80991D01*
X-82236Y75164D01*
X-80378Y73307D01*
X-79469Y71112D01*
X-79469Y57836D01*
X-80378Y55642D01*
X-93456Y42564D01*
X-95650Y41655D01*
X-98025Y41655D01*
X-100219Y42564D01*
X-101898Y44243D01*
X-102807Y46438D01*
X-102807Y48812D01*
X-101898Y51007D01*
X-93739Y59166D01*
X-93697Y59221D01*
X-93647Y59269D01*
X-93600Y59346D01*
X-93545Y59417D01*
X-93517Y59481D01*
X-93480Y59540D01*
X-93454Y59626D01*
X-93418Y59709D01*
X-93407Y59778D01*
X-93387Y59844D01*
X-93382Y59934D01*
X-93368Y60023D01*
X-93375Y60092D01*
X-93372Y60162D01*
X-93390Y60250D01*
X-93398Y60339D01*
X-93422Y60405D01*
X-93436Y60473D01*
X-93475Y60554D01*
X-93506Y60639D01*
X-93545Y60696D01*
X-93576Y60759D01*
X-93634Y60827D01*
X-93684Y60902D01*
X-93737Y60948D01*
X-93782Y61001D01*
X-93855Y61053D01*
X-93923Y61112D01*
X-93985Y61144D01*
X-94042Y61184D01*
X-94126Y61216D01*
X-94206Y61257D01*
X-94274Y61272D01*
X-94339Y61297D01*
X-94429Y61307D01*
X-94516Y61327D01*
X-94586Y61324D01*
X-94655Y61332D01*
X-94744Y61320D01*
X-94834Y61317D01*
X-94901Y61297D01*
X-94970Y61288D01*
X-95123Y61236D01*
X-95797Y60956D01*
X-97758Y60956D01*
X-99570Y61707D01*
X-99948Y62085D01*
X-100026Y62145D01*
X-100098Y62213D01*
X-100151Y62242D01*
X-100199Y62279D01*
X-100290Y62319D01*
X-100377Y62367D01*
X-100435Y62382D01*
X-100491Y62406D01*
X-100589Y62421D01*
X-100685Y62446D01*
X-100785Y62452D01*
X-100805Y62456D01*
X-100817Y62454D01*
X-100845Y62456D01*
X-102993Y62456D01*
X-103098Y62443D01*
X-103203Y62439D01*
X-103255Y62423D01*
X-103309Y62416D01*
X-103407Y62378D01*
X-103508Y62347D01*
X-103554Y62319D01*
X-103604Y62299D01*
X-103690Y62237D01*
X-103780Y62183D01*
X-103818Y62144D01*
X-103862Y62113D01*
X-103929Y62031D01*
X-104003Y61956D01*
X-104051Y61884D01*
X-104065Y61868D01*
X-104071Y61854D01*
X-104092Y61822D01*
X-104896Y60431D01*
X-104898Y60427D01*
X-104900Y60424D01*
X-104961Y60277D01*
X-105019Y60138D01*
X-105020Y60134D01*
X-105022Y60130D01*
X-105043Y59979D01*
X-105055Y59900D01*
X-105532Y59302D01*
X-105539Y59290D01*
X-105550Y59279D01*
X-105639Y59145D01*
X-106021Y58483D01*
X-106088Y58456D01*
X-106092Y58453D01*
X-106096Y58452D01*
X-106220Y58358D01*
X-106344Y58266D01*
X-106346Y58263D01*
X-106350Y58261D01*
X-106458Y58141D01*
X-107468Y56876D01*
X-107470Y56872D01*
X-107473Y56869D01*
X-107553Y56736D01*
X-107634Y56604D01*
X-107635Y56600D01*
X-107637Y56597D01*
X-107681Y56449D01*
X-107704Y56375D01*
X-108265Y55855D01*
X-108274Y55844D01*
X-108286Y55835D01*
X-108394Y55716D01*
X-108871Y55118D01*
X-108941Y55101D01*
X-108945Y55099D01*
X-108949Y55098D01*
X-109085Y55024D01*
X-109222Y54951D01*
X-109225Y54949D01*
X-109229Y54947D01*
X-109354Y54845D01*
X-110541Y53744D01*
X-110543Y53741D01*
X-110547Y53739D01*
X-110645Y53620D01*
X-110745Y53500D01*
X-110747Y53497D01*
X-110749Y53494D01*
X-110815Y53354D01*
X-110849Y53284D01*
X-111481Y52853D01*
X-111492Y52843D01*
X-111505Y52836D01*
X-111630Y52735D01*
X-112190Y52215D01*
X-112262Y52208D01*
X-112266Y52207D01*
X-112270Y52207D01*
X-112418Y52153D01*
X-112562Y52103D01*
X-112566Y52100D01*
X-112569Y52099D01*
X-112708Y52017D01*
X-113588Y51417D01*
X-113642Y51370D01*
X-113702Y51330D01*
X-113761Y51265D01*
X-113826Y51207D01*
X-113867Y51147D01*
X-113915Y51094D01*
X-113956Y51016D01*
X-114005Y50944D01*
X-114029Y50876D01*
X-114062Y50812D01*
X-114083Y50727D01*
X-114112Y50644D01*
X-114119Y50573D01*
X-114135Y50503D01*
X-114134Y50415D01*
X-114142Y50328D01*
X-114131Y50257D01*
X-114129Y50185D01*
X-114106Y50100D01*
X-114092Y50014D01*
X-114063Y49948D01*
X-114044Y49878D01*
X-113972Y49734D01*
X-95686Y18060D01*
X-96314Y17764D01*
X-96336Y17747D01*
X-96363Y17737D01*
X-96415Y17688D01*
X-96473Y17645D01*
X-96487Y17620D01*
X-96508Y17600D01*
X-96537Y17535D01*
X-96573Y17473D01*
X-96576Y17445D01*
X-96588Y17418D01*
X-96589Y17346D01*
X-96598Y17276D01*
X-96590Y17248D01*
X-96591Y17219D01*
X-96555Y17125D01*
X-96544Y17084D01*
X-96537Y17076D01*
X-96533Y17063D01*
X-87033Y563D01*
X-86981Y505D01*
X-86935Y442D01*
X-86916Y431D01*
X-86901Y414D01*
X-86831Y381D01*
X-86764Y341D01*
X-86740Y337D01*
X-86722Y328D01*
X-86677Y326D01*
X-86600Y313D01*
X-67600Y313D01*
X-67572Y319D01*
G37*
%LPC*%
G36*
X-53703Y173037D02*
X-53703Y173037D01*
X-55563Y174897D01*
X-55563Y198655D01*
X-55576Y198753D01*
X-55579Y198852D01*
X-55595Y198910D01*
X-55603Y198970D01*
X-55640Y199062D01*
X-55667Y199158D01*
X-55698Y199210D01*
X-55720Y199266D01*
X-55778Y199346D01*
X-55829Y199432D01*
X-55895Y199507D01*
X-55907Y199523D01*
X-55916Y199531D01*
X-55935Y199552D01*
X-56056Y199673D01*
X-56056Y216252D01*
X-55935Y216373D01*
X-55874Y216451D01*
X-55806Y216523D01*
X-55777Y216576D01*
X-55740Y216624D01*
X-55701Y216715D01*
X-55653Y216802D01*
X-55638Y216860D01*
X-55614Y216916D01*
X-55598Y217014D01*
X-55573Y217109D01*
X-55567Y217209D01*
X-55564Y217230D01*
X-55565Y217242D01*
X-55563Y217270D01*
X-55563Y221978D01*
X-53703Y223838D01*
X-34920Y223838D01*
X-34822Y223851D01*
X-34723Y223854D01*
X-34665Y223870D01*
X-34605Y223878D01*
X-34513Y223915D01*
X-34417Y223942D01*
X-34365Y223973D01*
X-34309Y223995D01*
X-34229Y224053D01*
X-34143Y224104D01*
X-34068Y224170D01*
X-34052Y224182D01*
X-34044Y224191D01*
X-34023Y224210D01*
X-33277Y224956D01*
X-33210Y224956D01*
X-33092Y224971D01*
X-32974Y224978D01*
X-32935Y224991D01*
X-32895Y224996D01*
X-32784Y225039D01*
X-32671Y225076D01*
X-32637Y225098D01*
X-32599Y225113D01*
X-32503Y225182D01*
X-32402Y225246D01*
X-32375Y225276D01*
X-32342Y225299D01*
X-32266Y225391D01*
X-32184Y225478D01*
X-32165Y225513D01*
X-32139Y225544D01*
X-32088Y225652D01*
X-32031Y225756D01*
X-32021Y225796D01*
X-32004Y225832D01*
X-31981Y225949D01*
X-31951Y226064D01*
X-31948Y226124D01*
X-31944Y226144D01*
X-31945Y226165D01*
X-31941Y226225D01*
X-31941Y243413D01*
X-31956Y243531D01*
X-31964Y243649D01*
X-31976Y243688D01*
X-31981Y243728D01*
X-32025Y243839D01*
X-32062Y243952D01*
X-32083Y243986D01*
X-32098Y244024D01*
X-32168Y244120D01*
X-32232Y244221D01*
X-32261Y244248D01*
X-32285Y244281D01*
X-32377Y244357D01*
X-32463Y244439D01*
X-32499Y244458D01*
X-32530Y244484D01*
X-32638Y244535D01*
X-32742Y244592D01*
X-32781Y244602D01*
X-32818Y244619D01*
X-32934Y244642D01*
X-33050Y244672D01*
X-33110Y244675D01*
X-33130Y244679D01*
X-33150Y244678D01*
X-33210Y244682D01*
X-37319Y244682D01*
X-41328Y246342D01*
X-44395Y249410D01*
X-46056Y253418D01*
X-46056Y257757D01*
X-44395Y261765D01*
X-41328Y264833D01*
X-37319Y266493D01*
X-32981Y266493D01*
X-28972Y264833D01*
X-25905Y261765D01*
X-24244Y257757D01*
X-24244Y253418D01*
X-24427Y252978D01*
X-24435Y252949D01*
X-24448Y252923D01*
X-24476Y252797D01*
X-24511Y252671D01*
X-24511Y252642D01*
X-24518Y252613D01*
X-24514Y252483D01*
X-24516Y252353D01*
X-24509Y252325D01*
X-24508Y252295D01*
X-24472Y252170D01*
X-24442Y252044D01*
X-24428Y252018D01*
X-24419Y251989D01*
X-24354Y251878D01*
X-24293Y251763D01*
X-24273Y251741D01*
X-24258Y251716D01*
X-24152Y251595D01*
X-22788Y250231D01*
X-22034Y248410D01*
X-22034Y226225D01*
X-22019Y226107D01*
X-22011Y225988D01*
X-21999Y225950D01*
X-21994Y225909D01*
X-21950Y225799D01*
X-21913Y225686D01*
X-21892Y225651D01*
X-21877Y225614D01*
X-21807Y225518D01*
X-21743Y225417D01*
X-21714Y225389D01*
X-21690Y225356D01*
X-21598Y225280D01*
X-21512Y225199D01*
X-21476Y225179D01*
X-21445Y225154D01*
X-21337Y225103D01*
X-21233Y225045D01*
X-21194Y225035D01*
X-21157Y225018D01*
X-21041Y224996D01*
X-20925Y224966D01*
X-20865Y224962D01*
X-20845Y224958D01*
X-20825Y224960D01*
X-20765Y224956D01*
X-20698Y224956D01*
X-19438Y223696D01*
X-19425Y223662D01*
X-19355Y223566D01*
X-19291Y223465D01*
X-19262Y223437D01*
X-19238Y223404D01*
X-19146Y223328D01*
X-19060Y223247D01*
X-19024Y223227D01*
X-18993Y223202D01*
X-18885Y223151D01*
X-18781Y223093D01*
X-18742Y223083D01*
X-18705Y223066D01*
X-18589Y223044D01*
X-18473Y223014D01*
X-18413Y223010D01*
X-18393Y223006D01*
X-18373Y223008D01*
X-18313Y223004D01*
X-14427Y223004D01*
X-12606Y222250D01*
X-11034Y220678D01*
X-11034Y220677D01*
X-10859Y220503D01*
X-10781Y220442D01*
X-10709Y220374D01*
X-10656Y220345D01*
X-10608Y220308D01*
X-10517Y220268D01*
X-10430Y220220D01*
X-10372Y220205D01*
X-10316Y220181D01*
X-10218Y220166D01*
X-10123Y220141D01*
X-10022Y220135D01*
X-10002Y220131D01*
X-9990Y220133D01*
X-9962Y220131D01*
X-4298Y220131D01*
X-3182Y219014D01*
X-3182Y206436D01*
X-4298Y205319D01*
X-15862Y205319D01*
X-15999Y205302D01*
X-16138Y205289D01*
X-16157Y205282D01*
X-16177Y205279D01*
X-16306Y205228D01*
X-16438Y205181D01*
X-16454Y205170D01*
X-16473Y205162D01*
X-16586Y205081D01*
X-16701Y205003D01*
X-16714Y204987D01*
X-16730Y204976D01*
X-16819Y204868D01*
X-16911Y204764D01*
X-16920Y204746D01*
X-16933Y204731D01*
X-16993Y204605D01*
X-17056Y204481D01*
X-17060Y204461D01*
X-17069Y204443D01*
X-17095Y204306D01*
X-17125Y204171D01*
X-17125Y204150D01*
X-17129Y204131D01*
X-17120Y203992D01*
X-17116Y203853D01*
X-17110Y203833D01*
X-17109Y203813D01*
X-17066Y203681D01*
X-17027Y203547D01*
X-17017Y203530D01*
X-17011Y203511D01*
X-16936Y203393D01*
X-16866Y203273D01*
X-16847Y203252D01*
X-16841Y203242D01*
X-16826Y203228D01*
X-16759Y203153D01*
X-14835Y201228D01*
X-13263Y199656D01*
X-12509Y197835D01*
X-12509Y195865D01*
X-13263Y194044D01*
X-14042Y193265D01*
X-14103Y193187D01*
X-14171Y193114D01*
X-14200Y193061D01*
X-14237Y193014D01*
X-14276Y192923D01*
X-14324Y192836D01*
X-14339Y192777D01*
X-14363Y192722D01*
X-14379Y192624D01*
X-14404Y192528D01*
X-14410Y192428D01*
X-14413Y192408D01*
X-14412Y192395D01*
X-14414Y192367D01*
X-14414Y191770D01*
X-14399Y191652D01*
X-14391Y191533D01*
X-14379Y191495D01*
X-14374Y191454D01*
X-14330Y191344D01*
X-14293Y191231D01*
X-14272Y191196D01*
X-14257Y191159D01*
X-14187Y191063D01*
X-14123Y190962D01*
X-14094Y190934D01*
X-14070Y190901D01*
X-13978Y190825D01*
X-13892Y190744D01*
X-13856Y190724D01*
X-13825Y190699D01*
X-13717Y190648D01*
X-13613Y190590D01*
X-13574Y190580D01*
X-13537Y190563D01*
X-13421Y190541D01*
X-13305Y190511D01*
X-13245Y190507D01*
X-13225Y190503D01*
X-13205Y190505D01*
X-13145Y190501D01*
X-12972Y190501D01*
X-11112Y188640D01*
X-11112Y174897D01*
X-12972Y173037D01*
X-53703Y173037D01*
G37*
%LPD*%
G36*
X-143403Y102018D02*
X-143403Y102018D01*
X-143332Y102014D01*
X-143246Y102032D01*
X-143158Y102039D01*
X-143090Y102062D01*
X-143020Y102076D01*
X-142871Y102137D01*
X-141894Y102607D01*
X-141891Y102609D01*
X-141887Y102610D01*
X-141756Y102696D01*
X-141627Y102779D01*
X-141625Y102782D01*
X-141621Y102785D01*
X-141517Y102899D01*
X-141464Y102956D01*
X-140733Y103181D01*
X-140720Y103187D01*
X-140706Y103190D01*
X-140557Y103250D01*
X-139868Y103582D01*
X-139797Y103567D01*
X-139793Y103567D01*
X-139789Y103566D01*
X-139635Y103573D01*
X-139479Y103579D01*
X-139475Y103581D01*
X-139471Y103581D01*
X-139314Y103618D01*
X-137767Y104095D01*
X-137763Y104097D01*
X-137759Y104098D01*
X-137619Y104162D01*
X-137477Y104226D01*
X-137474Y104229D01*
X-137470Y104230D01*
X-137350Y104328D01*
X-137290Y104376D01*
X-136533Y104490D01*
X-136519Y104494D01*
X-136505Y104495D01*
X-136348Y104532D01*
X-135617Y104757D01*
X-135550Y104732D01*
X-135546Y104731D01*
X-135542Y104730D01*
X-135386Y104714D01*
X-135234Y104697D01*
X-135229Y104698D01*
X-135225Y104697D01*
X-135065Y104711D01*
X-133464Y104952D01*
X-133460Y104953D01*
X-133456Y104953D01*
X-133307Y104996D01*
X-133158Y105038D01*
X-133154Y105040D01*
X-133150Y105041D01*
X-133014Y105121D01*
X-132950Y105159D01*
X-132185Y105158D01*
X-132171Y105160D01*
X-132156Y105159D01*
X-131996Y105173D01*
X-131240Y105286D01*
X-131176Y105251D01*
X-131172Y105250D01*
X-131169Y105248D01*
X-131017Y105209D01*
X-130869Y105169D01*
X-130865Y105169D01*
X-130861Y105168D01*
X-130700Y105158D01*
X-129081Y105157D01*
X-129077Y105158D01*
X-129073Y105157D01*
X-128919Y105178D01*
X-128765Y105197D01*
X-128762Y105199D01*
X-128758Y105199D01*
X-128612Y105258D01*
X-128542Y105285D01*
X-127786Y105171D01*
X-127771Y105171D01*
X-127757Y105167D01*
X-127596Y105157D01*
X-126832Y105157D01*
X-126775Y105112D01*
X-126771Y105111D01*
X-126767Y105108D01*
X-126627Y105048D01*
X-126483Y104986D01*
X-126479Y104985D01*
X-126475Y104984D01*
X-126317Y104949D01*
X-124717Y104708D01*
X-124712Y104708D01*
X-124708Y104706D01*
X-124553Y104704D01*
X-124399Y104700D01*
X-124395Y104701D01*
X-124390Y104701D01*
X-124240Y104736D01*
X-124153Y104757D01*
X-124051Y104739D01*
X-123906Y104711D01*
X-123896Y104711D01*
X-123886Y104710D01*
X-123736Y104721D01*
X-123588Y104730D01*
X-123579Y104733D01*
X-123569Y104734D01*
X-123427Y104783D01*
X-123286Y104829D01*
X-123277Y104834D01*
X-123268Y104837D01*
X-123144Y104918D01*
X-123017Y104999D01*
X-123010Y105006D01*
X-123002Y105011D01*
X-122903Y105120D01*
X-122799Y105230D01*
X-122794Y105239D01*
X-122788Y105246D01*
X-122718Y105378D01*
X-122645Y105509D01*
X-122643Y105518D01*
X-122638Y105527D01*
X-122603Y105672D01*
X-122566Y105817D01*
X-122565Y105830D01*
X-122564Y105836D01*
X-122564Y105850D01*
X-122556Y105977D01*
X-122556Y152400D01*
X-122571Y152518D01*
X-122578Y152637D01*
X-122591Y152675D01*
X-122596Y152716D01*
X-122639Y152826D01*
X-122676Y152939D01*
X-122698Y152974D01*
X-122713Y153011D01*
X-122783Y153107D01*
X-122846Y153208D01*
X-122876Y153236D01*
X-122899Y153269D01*
X-122991Y153345D01*
X-123078Y153426D01*
X-123113Y153446D01*
X-123144Y153471D01*
X-123252Y153522D01*
X-123356Y153580D01*
X-123396Y153590D01*
X-123432Y153607D01*
X-123549Y153629D01*
X-123664Y153659D01*
X-123725Y153663D01*
X-123745Y153667D01*
X-123765Y153665D01*
X-123825Y153669D01*
X-153945Y153669D01*
X-154235Y155452D01*
X-154247Y155484D01*
X-154254Y155530D01*
X-155225Y158439D01*
X-155238Y158462D01*
X-155244Y158486D01*
X-155251Y158495D01*
X-155256Y158512D01*
X-156681Y161227D01*
X-156703Y161254D01*
X-156724Y161295D01*
X-158566Y163747D01*
X-158591Y163769D01*
X-158619Y163807D01*
X-160831Y165931D01*
X-160859Y165949D01*
X-160893Y165982D01*
X-163416Y167723D01*
X-163443Y167735D01*
X-163465Y167753D01*
X-163534Y167774D01*
X-163599Y167801D01*
X-163628Y167802D01*
X-163656Y167810D01*
X-163727Y167802D01*
X-163798Y167802D01*
X-163825Y167791D01*
X-163854Y167788D01*
X-163916Y167753D01*
X-163981Y167725D01*
X-164002Y167704D01*
X-164027Y167690D01*
X-164090Y167613D01*
X-164120Y167582D01*
X-164124Y167572D01*
X-164133Y167562D01*
X-173633Y151062D01*
X-173657Y150989D01*
X-173688Y150918D01*
X-173688Y150895D01*
X-173696Y150873D01*
X-173690Y150796D01*
X-173691Y150719D01*
X-173681Y150695D01*
X-173680Y150675D01*
X-173659Y150635D01*
X-173640Y150583D01*
X-173639Y150578D01*
X-173637Y150576D01*
X-173633Y150563D01*
X-164133Y134063D01*
X-164114Y134042D01*
X-164101Y134015D01*
X-164048Y133968D01*
X-164001Y133914D01*
X-163975Y133902D01*
X-163954Y133882D01*
X-163886Y133859D01*
X-163822Y133828D01*
X-163793Y133827D01*
X-163766Y133818D01*
X-163694Y133822D01*
X-163623Y133819D01*
X-163596Y133829D01*
X-163567Y133831D01*
X-163477Y133874D01*
X-163437Y133888D01*
X-163429Y133896D01*
X-163416Y133902D01*
X-162808Y134322D01*
X-144520Y102646D01*
X-144477Y102589D01*
X-144442Y102526D01*
X-144381Y102463D01*
X-144328Y102393D01*
X-144272Y102348D01*
X-144223Y102296D01*
X-144148Y102250D01*
X-144079Y102195D01*
X-144013Y102166D01*
X-143953Y102128D01*
X-143869Y102101D01*
X-143788Y102066D01*
X-143718Y102054D01*
X-143650Y102032D01*
X-143562Y102027D01*
X-143475Y102012D01*
X-143403Y102018D01*
G37*
G36*
X-18414Y24140D02*
X-18414Y24140D01*
X-18339Y24140D01*
X-18257Y24160D01*
X-18173Y24171D01*
X-18103Y24198D01*
X-18030Y24217D01*
X-17956Y24257D01*
X-17878Y24288D01*
X-17817Y24332D01*
X-17750Y24368D01*
X-17721Y24392D01*
X-17636Y24399D01*
X-17632Y24401D01*
X-17628Y24401D01*
X-17483Y24453D01*
X-17336Y24505D01*
X-17333Y24507D01*
X-17329Y24509D01*
X-17190Y24591D01*
X-15854Y25502D01*
X-15851Y25504D01*
X-15848Y25506D01*
X-15732Y25610D01*
X-15616Y25712D01*
X-15614Y25716D01*
X-15611Y25719D01*
X-15526Y25846D01*
X-15481Y25911D01*
X-14792Y26243D01*
X-14780Y26251D01*
X-14766Y26256D01*
X-14628Y26338D01*
X-13996Y26769D01*
X-13924Y26764D01*
X-13920Y26765D01*
X-13915Y26765D01*
X-13763Y26795D01*
X-13611Y26824D01*
X-13607Y26826D01*
X-13603Y26827D01*
X-13454Y26887D01*
X-11998Y27589D01*
X-11994Y27591D01*
X-11990Y27592D01*
X-11863Y27676D01*
X-11731Y27762D01*
X-11728Y27765D01*
X-11724Y27767D01*
X-11621Y27881D01*
X-11568Y27938D01*
X-10836Y28164D01*
X-10823Y28170D01*
X-10809Y28173D01*
X-10660Y28233D01*
X-9971Y28565D01*
X-9900Y28550D01*
X-9896Y28550D01*
X-9892Y28549D01*
X-9738Y28556D01*
X-9582Y28562D01*
X-9578Y28564D01*
X-9574Y28564D01*
X-9418Y28601D01*
X-7873Y29078D01*
X-7869Y29080D01*
X-7865Y29080D01*
X-7725Y29145D01*
X-7583Y29209D01*
X-7580Y29212D01*
X-7576Y29213D01*
X-7455Y29312D01*
X-7396Y29359D01*
X-6639Y29473D01*
X-6625Y29477D01*
X-6610Y29478D01*
X-6454Y29516D01*
X-5723Y29741D01*
X-5656Y29715D01*
X-5652Y29715D01*
X-5648Y29713D01*
X-5493Y29697D01*
X-5340Y29681D01*
X-5335Y29681D01*
X-5331Y29681D01*
X-5171Y29695D01*
X-3572Y29936D01*
X-3568Y29937D01*
X-3564Y29937D01*
X-3416Y29980D01*
X-3266Y30022D01*
X-3262Y30024D01*
X-3259Y30025D01*
X-3127Y30103D01*
X-3058Y30143D01*
X-2293Y30143D01*
X-2279Y30145D01*
X-2264Y30143D01*
X-2104Y30157D01*
X-1348Y30271D01*
X-1285Y30235D01*
X-1281Y30234D01*
X-1277Y30232D01*
X-1128Y30194D01*
X-977Y30154D01*
X-973Y30154D01*
X-969Y30153D01*
X-808Y30143D01*
X808Y30143D01*
X813Y30143D01*
X817Y30143D01*
X970Y30163D01*
X1124Y30183D01*
X1128Y30184D01*
X1132Y30185D01*
X1276Y30243D01*
X1347Y30271D01*
X2104Y30157D01*
X2118Y30157D01*
X2132Y30153D01*
X2293Y30143D01*
X3058Y30143D01*
X3115Y30098D01*
X3119Y30097D01*
X3122Y30094D01*
X3264Y30034D01*
X3407Y29972D01*
X3411Y29971D01*
X3415Y29970D01*
X3572Y29936D01*
X5171Y29695D01*
X5175Y29695D01*
X5179Y29693D01*
X5332Y29691D01*
X5489Y29687D01*
X5493Y29688D01*
X5497Y29688D01*
X5649Y29724D01*
X5723Y29741D01*
X6454Y29516D01*
X6468Y29513D01*
X6482Y29507D01*
X6639Y29473D01*
X7395Y29359D01*
X7445Y29307D01*
X7448Y29305D01*
X7451Y29302D01*
X7584Y29220D01*
X7715Y29139D01*
X7719Y29137D01*
X7722Y29135D01*
X7873Y29078D01*
X9418Y28601D01*
X9422Y28601D01*
X9426Y28599D01*
X9579Y28573D01*
X9731Y28546D01*
X9735Y28547D01*
X9739Y28546D01*
X9895Y28559D01*
X9970Y28565D01*
X10660Y28233D01*
X10674Y28229D01*
X10686Y28221D01*
X10836Y28164D01*
X11567Y27938D01*
X11609Y27879D01*
X11612Y27876D01*
X11614Y27873D01*
X11733Y27773D01*
X11850Y27672D01*
X11854Y27670D01*
X11857Y27668D01*
X11998Y27589D01*
X13454Y26887D01*
X13458Y26886D01*
X13462Y26884D01*
X13606Y26837D01*
X13756Y26786D01*
X13760Y26786D01*
X13764Y26785D01*
X13917Y26775D01*
X13995Y26769D01*
X14628Y26338D01*
X14640Y26331D01*
X14652Y26322D01*
X14792Y26243D01*
X15481Y25911D01*
X15513Y25847D01*
X15516Y25843D01*
X15518Y25840D01*
X15619Y25724D01*
X15721Y25606D01*
X15725Y25604D01*
X15727Y25601D01*
X15854Y25502D01*
X17190Y24591D01*
X17194Y24589D01*
X17197Y24586D01*
X17335Y24517D01*
X17473Y24446D01*
X17478Y24445D01*
X17481Y24443D01*
X17632Y24410D01*
X17725Y24389D01*
X17742Y24374D01*
X17815Y24333D01*
X17884Y24284D01*
X17954Y24257D01*
X18020Y24220D01*
X18102Y24199D01*
X18180Y24169D01*
X18255Y24160D01*
X18328Y24141D01*
X18489Y24131D01*
X22653Y24131D01*
X22752Y24143D01*
X22851Y24146D01*
X22909Y24163D01*
X22969Y24171D01*
X23061Y24207D01*
X23156Y24235D01*
X23208Y24265D01*
X23265Y24288D01*
X23345Y24346D01*
X23430Y24396D01*
X23505Y24462D01*
X23522Y24474D01*
X23530Y24484D01*
X23551Y24503D01*
X24693Y25645D01*
X26505Y26395D01*
X28466Y26395D01*
X30278Y25645D01*
X31420Y24503D01*
X31499Y24442D01*
X31571Y24374D01*
X31624Y24345D01*
X31672Y24308D01*
X31763Y24268D01*
X31849Y24220D01*
X31908Y24205D01*
X31964Y24181D01*
X32061Y24166D01*
X32157Y24141D01*
X32257Y24135D01*
X32278Y24131D01*
X32290Y24133D01*
X32318Y24131D01*
X42863Y24131D01*
X42981Y24146D01*
X43099Y24153D01*
X43138Y24166D01*
X43178Y24171D01*
X43289Y24214D01*
X43402Y24251D01*
X43436Y24273D01*
X43474Y24288D01*
X43570Y24358D01*
X43671Y24421D01*
X43698Y24451D01*
X43731Y24474D01*
X43807Y24566D01*
X43889Y24653D01*
X43908Y24688D01*
X43934Y24719D01*
X43985Y24827D01*
X44042Y24931D01*
X44052Y24971D01*
X44069Y25007D01*
X44092Y25124D01*
X44122Y25239D01*
X44125Y25300D01*
X44129Y25320D01*
X44128Y25340D01*
X44132Y25400D01*
X44132Y49213D01*
X44117Y49331D01*
X44109Y49449D01*
X44097Y49488D01*
X44092Y49528D01*
X44048Y49639D01*
X44011Y49752D01*
X43990Y49786D01*
X43975Y49824D01*
X43905Y49920D01*
X43841Y50021D01*
X43812Y50048D01*
X43788Y50081D01*
X43696Y50157D01*
X43610Y50239D01*
X43574Y50258D01*
X43543Y50284D01*
X43435Y50335D01*
X43331Y50392D01*
X43292Y50402D01*
X43255Y50419D01*
X43139Y50442D01*
X43023Y50472D01*
X42963Y50475D01*
X42943Y50479D01*
X42923Y50478D01*
X42863Y50482D01*
X-7669Y50482D01*
X-7767Y50469D01*
X-7866Y50466D01*
X-7925Y50450D01*
X-7985Y50442D01*
X-8077Y50406D01*
X-8172Y50378D01*
X-8224Y50347D01*
X-8280Y50325D01*
X-8360Y50267D01*
X-8446Y50216D01*
X-8521Y50150D01*
X-8538Y50138D01*
X-8546Y50129D01*
X-8567Y50110D01*
X-9496Y49180D01*
X-11575Y48319D01*
X-13825Y48319D01*
X-15904Y49180D01*
X-16833Y50110D01*
X-16912Y50171D01*
X-16984Y50239D01*
X-17037Y50268D01*
X-17085Y50305D01*
X-17176Y50344D01*
X-17262Y50392D01*
X-17321Y50407D01*
X-17377Y50431D01*
X-17475Y50447D01*
X-17570Y50472D01*
X-17670Y50478D01*
X-17691Y50481D01*
X-17703Y50480D01*
X-17731Y50482D01*
X-26988Y50482D01*
X-27106Y50467D01*
X-27224Y50459D01*
X-27263Y50447D01*
X-27303Y50442D01*
X-27414Y50398D01*
X-27527Y50361D01*
X-27561Y50340D01*
X-27599Y50325D01*
X-27695Y50255D01*
X-27796Y50191D01*
X-27823Y50162D01*
X-27856Y50138D01*
X-27932Y50046D01*
X-28014Y49960D01*
X-28033Y49924D01*
X-28059Y49893D01*
X-28110Y49785D01*
X-28167Y49681D01*
X-28177Y49642D01*
X-28194Y49605D01*
X-28217Y49489D01*
X-28247Y49373D01*
X-28250Y49313D01*
X-28254Y49293D01*
X-28253Y49273D01*
X-28257Y49213D01*
X-28257Y25400D01*
X-28242Y25282D01*
X-28234Y25163D01*
X-28222Y25125D01*
X-28217Y25084D01*
X-28173Y24974D01*
X-28136Y24861D01*
X-28115Y24826D01*
X-28100Y24789D01*
X-28030Y24693D01*
X-27966Y24592D01*
X-27937Y24564D01*
X-27913Y24531D01*
X-27821Y24456D01*
X-27735Y24374D01*
X-27699Y24354D01*
X-27668Y24329D01*
X-27560Y24278D01*
X-27456Y24220D01*
X-27417Y24210D01*
X-27380Y24193D01*
X-27264Y24171D01*
X-27148Y24141D01*
X-27088Y24137D01*
X-27068Y24133D01*
X-27048Y24135D01*
X-26988Y24131D01*
X-18489Y24131D01*
X-18414Y24140D01*
G37*
G36*
X-91957Y100346D02*
X-91957Y100346D01*
X-91838Y100353D01*
X-91800Y100366D01*
X-91759Y100371D01*
X-91649Y100414D01*
X-91536Y100451D01*
X-91501Y100473D01*
X-91464Y100488D01*
X-91368Y100558D01*
X-91267Y100621D01*
X-91239Y100651D01*
X-91206Y100674D01*
X-91131Y100766D01*
X-91049Y100853D01*
X-91029Y100888D01*
X-91004Y100919D01*
X-90953Y101027D01*
X-90895Y101131D01*
X-90885Y101171D01*
X-90868Y101207D01*
X-90846Y101324D01*
X-90816Y101439D01*
X-90812Y101500D01*
X-90808Y101520D01*
X-90810Y101540D01*
X-90806Y101600D01*
X-90806Y128062D01*
X-85199Y133668D01*
X-82550Y133668D01*
X-82432Y133683D01*
X-82313Y133691D01*
X-82275Y133703D01*
X-82234Y133708D01*
X-82124Y133752D01*
X-82011Y133789D01*
X-81976Y133810D01*
X-81939Y133825D01*
X-81843Y133895D01*
X-81742Y133959D01*
X-81714Y133988D01*
X-81681Y134012D01*
X-81606Y134104D01*
X-81524Y134190D01*
X-81504Y134226D01*
X-81479Y134257D01*
X-81428Y134365D01*
X-81370Y134469D01*
X-81360Y134508D01*
X-81343Y134545D01*
X-81321Y134661D01*
X-81291Y134777D01*
X-81287Y134837D01*
X-81283Y134857D01*
X-81285Y134877D01*
X-81281Y134938D01*
X-81281Y149225D01*
X-81296Y149343D01*
X-81303Y149462D01*
X-81316Y149500D01*
X-81321Y149541D01*
X-81364Y149651D01*
X-81401Y149764D01*
X-81423Y149799D01*
X-81438Y149836D01*
X-81508Y149932D01*
X-81571Y150033D01*
X-81601Y150061D01*
X-81624Y150094D01*
X-81716Y150170D01*
X-81803Y150251D01*
X-81838Y150271D01*
X-81869Y150296D01*
X-81977Y150347D01*
X-82081Y150405D01*
X-82121Y150415D01*
X-82157Y150432D01*
X-82274Y150454D01*
X-82389Y150484D01*
X-82450Y150488D01*
X-82470Y150492D01*
X-82490Y150490D01*
X-82550Y150494D01*
X-106363Y150494D01*
X-106461Y150482D01*
X-106560Y150479D01*
X-106618Y150462D01*
X-106678Y150454D01*
X-106770Y150418D01*
X-106865Y150390D01*
X-106917Y150360D01*
X-106974Y150337D01*
X-107054Y150279D01*
X-107139Y150229D01*
X-107215Y150163D01*
X-107231Y150151D01*
X-107239Y150141D01*
X-107260Y150123D01*
X-118373Y139010D01*
X-118433Y138932D01*
X-118501Y138860D01*
X-118530Y138807D01*
X-118567Y138759D01*
X-118607Y138668D01*
X-118655Y138581D01*
X-118670Y138523D01*
X-118694Y138467D01*
X-118709Y138369D01*
X-118734Y138273D01*
X-118740Y138173D01*
X-118744Y138153D01*
X-118742Y138141D01*
X-118744Y138113D01*
X-118744Y111125D01*
X-118732Y111027D01*
X-118729Y110928D01*
X-118712Y110870D01*
X-118704Y110809D01*
X-118668Y110717D01*
X-118640Y110622D01*
X-118610Y110570D01*
X-118587Y110514D01*
X-118529Y110434D01*
X-118479Y110348D01*
X-118413Y110273D01*
X-118401Y110256D01*
X-118391Y110249D01*
X-118373Y110228D01*
X-108848Y100703D01*
X-108769Y100642D01*
X-108697Y100574D01*
X-108644Y100545D01*
X-108596Y100508D01*
X-108505Y100468D01*
X-108419Y100420D01*
X-108360Y100405D01*
X-108304Y100381D01*
X-108206Y100366D01*
X-108111Y100341D01*
X-108011Y100335D01*
X-107990Y100331D01*
X-107978Y100333D01*
X-107950Y100331D01*
X-92075Y100331D01*
X-91957Y100346D01*
G37*
G36*
X131941Y198380D02*
X131941Y198380D01*
X131984Y198379D01*
X135977Y198979D01*
X136007Y198990D01*
X136050Y198996D01*
X139909Y200185D01*
X139937Y200200D01*
X139978Y200212D01*
X143616Y201963D01*
X143638Y201979D01*
X143664Y201989D01*
X143717Y202039D01*
X143775Y202083D01*
X143788Y202106D01*
X143808Y202125D01*
X143838Y202192D01*
X143874Y202255D01*
X143877Y202282D01*
X143888Y202307D01*
X143889Y202380D01*
X143898Y202453D01*
X143890Y202479D01*
X143890Y202506D01*
X143854Y202605D01*
X143842Y202644D01*
X143836Y202651D01*
X143832Y202662D01*
X116832Y249462D01*
X116814Y249482D01*
X116803Y249507D01*
X116749Y249556D01*
X116701Y249611D01*
X116676Y249623D01*
X116656Y249641D01*
X116587Y249665D01*
X116521Y249697D01*
X116494Y249698D01*
X116469Y249707D01*
X116396Y249702D01*
X116323Y249706D01*
X116297Y249696D01*
X116270Y249695D01*
X116174Y249651D01*
X116136Y249636D01*
X116129Y249630D01*
X116119Y249625D01*
X112782Y247352D01*
X112760Y247329D01*
X112724Y247305D01*
X109763Y244560D01*
X109744Y244534D01*
X109712Y244505D01*
X107194Y241349D01*
X107179Y241321D01*
X107152Y241288D01*
X105132Y237791D01*
X105122Y237761D01*
X105099Y237724D01*
X103623Y233966D01*
X103618Y233935D01*
X103601Y233895D01*
X102701Y229959D01*
X102701Y229927D01*
X102690Y229885D01*
X102387Y225859D01*
X102390Y225835D01*
X102387Y225815D01*
X102389Y225806D01*
X102387Y225784D01*
X102688Y221758D01*
X102696Y221727D01*
X102699Y221684D01*
X103596Y217747D01*
X103609Y217718D01*
X103618Y217676D01*
X105092Y213917D01*
X105109Y213890D01*
X105124Y213849D01*
X107142Y210352D01*
X107163Y210328D01*
X107184Y210290D01*
X109700Y207133D01*
X109725Y207112D01*
X109751Y207078D01*
X112710Y204331D01*
X112737Y204314D01*
X112768Y204284D01*
X116104Y202009D01*
X116133Y201996D01*
X116168Y201971D01*
X119806Y200218D01*
X119836Y200211D01*
X119875Y200191D01*
X123733Y199000D01*
X123765Y198997D01*
X123806Y198983D01*
X127798Y198380D01*
X127830Y198382D01*
X127872Y198374D01*
X131910Y198373D01*
X131941Y198380D01*
G37*
G36*
X-127872Y198374D02*
X-127872Y198374D01*
X-127841Y198381D01*
X-127798Y198380D01*
X-123806Y198983D01*
X-123776Y198994D01*
X-123733Y199000D01*
X-119875Y200191D01*
X-119847Y200206D01*
X-119806Y200218D01*
X-116168Y201971D01*
X-116143Y201991D01*
X-116104Y202009D01*
X-112768Y204284D01*
X-112746Y204307D01*
X-112710Y204331D01*
X-109751Y207078D01*
X-109732Y207104D01*
X-109700Y207133D01*
X-107184Y210290D01*
X-107169Y210319D01*
X-107142Y210352D01*
X-105124Y213849D01*
X-105114Y213880D01*
X-105092Y213917D01*
X-103618Y217676D01*
X-103612Y217707D01*
X-103596Y217747D01*
X-102699Y221684D01*
X-102698Y221716D01*
X-102688Y221758D01*
X-102387Y225784D01*
X-102391Y225816D01*
X-102390Y225832D01*
X-102387Y225848D01*
X-102388Y225852D01*
X-102387Y225859D01*
X-102690Y229885D01*
X-102699Y229916D01*
X-102701Y229959D01*
X-103601Y233895D01*
X-103614Y233924D01*
X-103623Y233966D01*
X-105099Y237724D01*
X-105117Y237751D01*
X-105132Y237791D01*
X-107152Y241288D01*
X-107173Y241311D01*
X-107194Y241349D01*
X-109712Y244505D01*
X-109737Y244526D01*
X-109763Y244560D01*
X-112724Y247305D01*
X-112751Y247322D01*
X-112782Y247352D01*
X-116119Y249625D01*
X-116144Y249636D01*
X-116165Y249653D01*
X-116235Y249674D01*
X-116302Y249702D01*
X-116330Y249702D01*
X-116356Y249710D01*
X-116428Y249702D01*
X-116501Y249701D01*
X-116526Y249691D01*
X-116553Y249688D01*
X-116617Y249652D01*
X-116684Y249623D01*
X-116703Y249604D01*
X-116726Y249590D01*
X-116794Y249509D01*
X-116822Y249480D01*
X-116825Y249471D01*
X-116832Y249462D01*
X-143832Y202662D01*
X-143841Y202636D01*
X-143857Y202614D01*
X-143872Y202543D01*
X-143896Y202473D01*
X-143893Y202446D01*
X-143899Y202420D01*
X-143886Y202348D01*
X-143880Y202275D01*
X-143867Y202251D01*
X-143862Y202224D01*
X-143822Y202164D01*
X-143788Y202099D01*
X-143767Y202081D01*
X-143752Y202059D01*
X-143666Y201998D01*
X-143635Y201972D01*
X-143626Y201969D01*
X-143616Y201963D01*
X-139978Y200212D01*
X-139947Y200204D01*
X-139909Y200185D01*
X-136050Y198996D01*
X-136018Y198993D01*
X-135977Y198979D01*
X-131984Y198379D01*
X-131953Y198380D01*
X-131910Y198373D01*
X-127872Y198374D01*
G37*
G36*
X116428Y51923D02*
X116428Y51923D01*
X116501Y51924D01*
X116526Y51934D01*
X116553Y51937D01*
X116617Y51973D01*
X116684Y52002D01*
X116703Y52021D01*
X116726Y52035D01*
X116794Y52116D01*
X116822Y52145D01*
X116825Y52154D01*
X116832Y52163D01*
X143832Y98963D01*
X143841Y98989D01*
X143857Y99011D01*
X143872Y99082D01*
X143896Y99152D01*
X143893Y99179D01*
X143899Y99205D01*
X143886Y99277D01*
X143880Y99350D01*
X143867Y99374D01*
X143862Y99401D01*
X143822Y99462D01*
X143788Y99526D01*
X143767Y99544D01*
X143752Y99566D01*
X143666Y99627D01*
X143635Y99653D01*
X143626Y99656D01*
X143616Y99662D01*
X139978Y101413D01*
X139947Y101421D01*
X139909Y101440D01*
X136050Y102629D01*
X136018Y102632D01*
X135977Y102646D01*
X131984Y103246D01*
X131953Y103245D01*
X131910Y103252D01*
X127872Y103251D01*
X127841Y103244D01*
X127798Y103245D01*
X123806Y102642D01*
X123776Y102631D01*
X123733Y102625D01*
X119875Y101434D01*
X119847Y101419D01*
X119806Y101407D01*
X116168Y99654D01*
X116143Y99634D01*
X116104Y99616D01*
X112768Y97341D01*
X112746Y97318D01*
X112710Y97294D01*
X109751Y94547D01*
X109732Y94521D01*
X109700Y94492D01*
X107184Y91335D01*
X107169Y91306D01*
X107142Y91273D01*
X105124Y87776D01*
X105114Y87745D01*
X105092Y87708D01*
X103618Y83949D01*
X103612Y83918D01*
X103596Y83878D01*
X102699Y79941D01*
X102698Y79909D01*
X102688Y79867D01*
X102387Y75841D01*
X102391Y75809D01*
X102387Y75766D01*
X102690Y71740D01*
X102699Y71709D01*
X102701Y71666D01*
X103601Y67730D01*
X103614Y67701D01*
X103623Y67659D01*
X105099Y63901D01*
X105117Y63874D01*
X105132Y63834D01*
X107152Y60338D01*
X107173Y60314D01*
X107194Y60276D01*
X109712Y57120D01*
X109737Y57100D01*
X109763Y57065D01*
X112724Y54320D01*
X112751Y54303D01*
X112782Y54273D01*
X116119Y52000D01*
X116144Y51989D01*
X116165Y51972D01*
X116235Y51951D01*
X116302Y51923D01*
X116330Y51923D01*
X116356Y51915D01*
X116428Y51923D01*
G37*
G36*
X-116396Y51923D02*
X-116396Y51923D01*
X-116323Y51919D01*
X-116297Y51929D01*
X-116270Y51930D01*
X-116174Y51974D01*
X-116136Y51989D01*
X-116129Y51995D01*
X-116119Y52000D01*
X-112782Y54273D01*
X-112760Y54296D01*
X-112724Y54320D01*
X-109763Y57065D01*
X-109744Y57091D01*
X-109712Y57120D01*
X-107194Y60276D01*
X-107179Y60304D01*
X-107152Y60338D01*
X-105132Y63834D01*
X-105122Y63864D01*
X-105099Y63901D01*
X-103623Y67659D01*
X-103618Y67690D01*
X-103601Y67730D01*
X-102701Y71666D01*
X-102701Y71698D01*
X-102690Y71740D01*
X-102387Y75766D01*
X-102391Y75798D01*
X-102387Y75841D01*
X-102688Y79867D01*
X-102696Y79898D01*
X-102699Y79941D01*
X-103596Y83878D01*
X-103609Y83907D01*
X-103618Y83949D01*
X-105092Y87708D01*
X-105109Y87735D01*
X-105124Y87776D01*
X-107142Y91273D01*
X-107163Y91297D01*
X-107184Y91335D01*
X-109700Y94492D01*
X-109725Y94513D01*
X-109751Y94547D01*
X-112710Y97294D01*
X-112737Y97311D01*
X-112768Y97341D01*
X-116104Y99616D01*
X-116133Y99629D01*
X-116168Y99654D01*
X-119806Y101407D01*
X-119836Y101414D01*
X-119875Y101434D01*
X-123733Y102625D01*
X-123765Y102628D01*
X-123806Y102642D01*
X-127798Y103245D01*
X-127830Y103243D01*
X-127872Y103251D01*
X-131910Y103252D01*
X-131941Y103246D01*
X-131984Y103246D01*
X-135977Y102646D01*
X-136007Y102635D01*
X-136050Y102629D01*
X-139909Y101440D01*
X-139937Y101425D01*
X-139978Y101413D01*
X-143616Y99662D01*
X-143638Y99646D01*
X-143664Y99636D01*
X-143717Y99586D01*
X-143775Y99542D01*
X-143788Y99519D01*
X-143808Y99500D01*
X-143838Y99433D01*
X-143874Y99370D01*
X-143877Y99343D01*
X-143888Y99318D01*
X-143889Y99245D01*
X-143898Y99172D01*
X-143890Y99146D01*
X-143890Y99119D01*
X-143854Y99020D01*
X-143842Y98981D01*
X-143836Y98974D01*
X-143832Y98963D01*
X-116832Y52163D01*
X-116814Y52143D01*
X-116803Y52118D01*
X-116749Y52069D01*
X-116701Y52014D01*
X-116676Y52002D01*
X-116656Y51984D01*
X-116587Y51960D01*
X-116521Y51928D01*
X-116494Y51927D01*
X-116469Y51918D01*
X-116396Y51923D01*
G37*
G36*
X27027Y319D02*
X27027Y319D01*
X27054Y316D01*
X27123Y338D01*
X27195Y353D01*
X27217Y368D01*
X27243Y377D01*
X27299Y424D01*
X27359Y465D01*
X27373Y488D01*
X27394Y506D01*
X27427Y571D01*
X27466Y633D01*
X27470Y660D01*
X27482Y684D01*
X27492Y789D01*
X27499Y829D01*
X27497Y838D01*
X27498Y850D01*
X27196Y4874D01*
X27188Y4905D01*
X27185Y4948D01*
X26287Y8882D01*
X26274Y8911D01*
X26265Y8953D01*
X24791Y12710D01*
X24774Y12737D01*
X24759Y12777D01*
X22741Y16272D01*
X22720Y16296D01*
X22699Y16333D01*
X20183Y19488D01*
X20158Y19509D01*
X20132Y19543D01*
X17174Y22288D01*
X17147Y22304D01*
X17115Y22334D01*
X13781Y24608D01*
X13752Y24620D01*
X13717Y24645D01*
X10081Y26396D01*
X10050Y26404D01*
X10011Y26423D01*
X6155Y27613D01*
X6124Y27616D01*
X6082Y27629D01*
X2092Y28231D01*
X2060Y28229D01*
X2018Y28236D01*
X-2018Y28236D01*
X-2049Y28230D01*
X-2092Y28231D01*
X-6082Y27629D01*
X-6112Y27618D01*
X-6155Y27613D01*
X-10011Y26423D01*
X-10039Y26408D01*
X-10081Y26396D01*
X-13717Y24645D01*
X-13742Y24626D01*
X-13781Y24608D01*
X-17115Y22334D01*
X-17138Y22312D01*
X-17174Y22288D01*
X-20132Y19543D01*
X-20151Y19517D01*
X-20183Y19488D01*
X-22699Y16333D01*
X-22713Y16305D01*
X-22741Y16272D01*
X-24759Y12777D01*
X-24769Y12747D01*
X-24791Y12710D01*
X-26265Y8953D01*
X-26271Y8922D01*
X-26287Y8882D01*
X-27185Y4948D01*
X-27186Y4916D01*
X-27196Y4874D01*
X-27498Y850D01*
X-27494Y823D01*
X-27499Y796D01*
X-27482Y725D01*
X-27473Y653D01*
X-27459Y629D01*
X-27453Y603D01*
X-27410Y544D01*
X-27373Y481D01*
X-27351Y464D01*
X-27335Y442D01*
X-27272Y405D01*
X-27214Y361D01*
X-27187Y355D01*
X-27164Y341D01*
X-27060Y323D01*
X-27021Y314D01*
X-27011Y315D01*
X-27000Y313D01*
X27000Y313D01*
X27027Y319D01*
G37*
G36*
X50918Y174958D02*
X50918Y174958D01*
X51037Y174966D01*
X51075Y174978D01*
X51116Y174983D01*
X51226Y175027D01*
X51339Y175064D01*
X51374Y175085D01*
X51411Y175100D01*
X51507Y175170D01*
X51608Y175234D01*
X51636Y175263D01*
X51669Y175287D01*
X51745Y175379D01*
X51826Y175465D01*
X51846Y175501D01*
X51871Y175532D01*
X51922Y175640D01*
X51980Y175744D01*
X51990Y175783D01*
X52007Y175820D01*
X52029Y175936D01*
X52059Y176052D01*
X52063Y176112D01*
X52067Y176132D01*
X52065Y176152D01*
X52069Y176213D01*
X52069Y220663D01*
X52054Y220781D01*
X52047Y220899D01*
X52034Y220938D01*
X52029Y220978D01*
X51986Y221089D01*
X51949Y221202D01*
X51927Y221236D01*
X51912Y221274D01*
X51843Y221370D01*
X51779Y221471D01*
X51749Y221498D01*
X51726Y221531D01*
X51634Y221607D01*
X51547Y221689D01*
X51512Y221708D01*
X51481Y221734D01*
X51373Y221785D01*
X51269Y221842D01*
X51229Y221852D01*
X51193Y221869D01*
X51076Y221892D01*
X50961Y221922D01*
X50901Y221925D01*
X50881Y221929D01*
X50860Y221928D01*
X50800Y221932D01*
X34925Y221932D01*
X34807Y221917D01*
X34688Y221909D01*
X34650Y221897D01*
X34609Y221892D01*
X34499Y221848D01*
X34386Y221811D01*
X34351Y221790D01*
X34314Y221775D01*
X34218Y221705D01*
X34117Y221641D01*
X34089Y221612D01*
X34056Y221588D01*
X33981Y221496D01*
X33899Y221410D01*
X33879Y221374D01*
X33854Y221343D01*
X33803Y221235D01*
X33745Y221131D01*
X33735Y221092D01*
X33718Y221055D01*
X33696Y220939D01*
X33666Y220823D01*
X33662Y220763D01*
X33658Y220743D01*
X33660Y220723D01*
X33658Y220717D01*
X33659Y220710D01*
X33656Y220663D01*
X33656Y198991D01*
X33668Y198892D01*
X33671Y198793D01*
X33688Y198735D01*
X33696Y198675D01*
X33732Y198583D01*
X33760Y198488D01*
X33790Y198436D01*
X33813Y198379D01*
X33871Y198299D01*
X33921Y198214D01*
X33987Y198139D01*
X33999Y198122D01*
X34009Y198114D01*
X34028Y198093D01*
X34862Y197258D01*
X34862Y190092D01*
X34028Y189257D01*
X33967Y189179D01*
X33899Y189107D01*
X33870Y189054D01*
X33833Y189006D01*
X33793Y188915D01*
X33745Y188828D01*
X33730Y188769D01*
X33706Y188714D01*
X33691Y188616D01*
X33685Y188594D01*
X11113Y188594D01*
X10994Y188579D01*
X10876Y188572D01*
X10837Y188559D01*
X10797Y188554D01*
X10686Y188511D01*
X10573Y188474D01*
X10539Y188452D01*
X10501Y188437D01*
X10405Y188368D01*
X10304Y188304D01*
X10277Y188274D01*
X10244Y188251D01*
X10168Y188159D01*
X10086Y188072D01*
X10067Y188037D01*
X10041Y188006D01*
X9990Y187898D01*
X9933Y187794D01*
X9923Y187754D01*
X9906Y187718D01*
X9883Y187601D01*
X9853Y187486D01*
X9850Y187426D01*
X9846Y187406D01*
X9847Y187385D01*
X9843Y187325D01*
X9843Y176213D01*
X9858Y176094D01*
X9866Y175976D01*
X9878Y175937D01*
X9883Y175897D01*
X9927Y175786D01*
X9964Y175673D01*
X9985Y175639D01*
X10000Y175601D01*
X10070Y175505D01*
X10134Y175404D01*
X10163Y175377D01*
X10187Y175344D01*
X10279Y175268D01*
X10365Y175186D01*
X10401Y175167D01*
X10432Y175141D01*
X10540Y175090D01*
X10644Y175033D01*
X10683Y175023D01*
X10720Y175006D01*
X10836Y174983D01*
X10952Y174953D01*
X11012Y174950D01*
X11032Y174946D01*
X11052Y174947D01*
X11113Y174943D01*
X50800Y174943D01*
X50918Y174958D01*
G37*
G36*
X-14169Y174958D02*
X-14169Y174958D01*
X-14051Y174966D01*
X-14012Y174978D01*
X-13972Y174983D01*
X-13861Y175027D01*
X-13748Y175064D01*
X-13714Y175085D01*
X-13676Y175100D01*
X-13580Y175170D01*
X-13479Y175234D01*
X-13452Y175263D01*
X-13419Y175287D01*
X-13343Y175379D01*
X-13261Y175465D01*
X-13242Y175501D01*
X-13216Y175532D01*
X-13165Y175640D01*
X-13108Y175744D01*
X-13098Y175783D01*
X-13081Y175820D01*
X-13058Y175936D01*
X-13028Y176052D01*
X-13025Y176112D01*
X-13021Y176132D01*
X-13022Y176152D01*
X-13018Y176213D01*
X-13018Y187325D01*
X-13033Y187443D01*
X-13041Y187562D01*
X-13053Y187600D01*
X-13058Y187641D01*
X-13102Y187751D01*
X-13139Y187864D01*
X-13160Y187899D01*
X-13175Y187936D01*
X-13245Y188032D01*
X-13309Y188133D01*
X-13338Y188161D01*
X-13362Y188194D01*
X-13454Y188270D01*
X-13540Y188351D01*
X-13576Y188371D01*
X-13607Y188396D01*
X-13715Y188447D01*
X-13819Y188505D01*
X-13858Y188515D01*
X-13895Y188532D01*
X-14011Y188554D01*
X-14127Y188584D01*
X-14187Y188588D01*
X-14207Y188592D01*
X-14227Y188590D01*
X-14288Y188594D01*
X-34023Y188594D01*
X-34091Y188651D01*
X-34178Y188732D01*
X-34213Y188752D01*
X-34244Y188777D01*
X-34352Y188828D01*
X-34456Y188886D01*
X-34496Y188896D01*
X-34532Y188913D01*
X-34649Y188935D01*
X-34764Y188965D01*
X-34825Y188969D01*
X-34845Y188973D01*
X-34865Y188971D01*
X-34925Y188975D01*
X-36921Y188975D01*
X-38037Y190092D01*
X-38037Y197258D01*
X-36921Y198375D01*
X-35662Y198375D01*
X-35544Y198390D01*
X-35426Y198397D01*
X-35387Y198410D01*
X-35347Y198415D01*
X-35236Y198458D01*
X-35123Y198495D01*
X-35089Y198517D01*
X-35051Y198532D01*
X-34955Y198601D01*
X-34854Y198665D01*
X-34827Y198695D01*
X-34794Y198718D01*
X-34718Y198810D01*
X-34636Y198897D01*
X-34617Y198932D01*
X-34591Y198963D01*
X-34540Y199071D01*
X-34483Y199175D01*
X-34473Y199215D01*
X-34456Y199251D01*
X-34433Y199368D01*
X-34403Y199483D01*
X-34400Y199543D01*
X-34396Y199563D01*
X-34397Y199584D01*
X-34393Y199644D01*
X-34393Y206839D01*
X-34028Y207205D01*
X-33967Y207283D01*
X-33899Y207355D01*
X-33870Y207408D01*
X-33833Y207456D01*
X-33793Y207547D01*
X-33745Y207634D01*
X-33730Y207693D01*
X-33706Y207748D01*
X-33691Y207846D01*
X-33666Y207942D01*
X-33660Y208042D01*
X-33656Y208062D01*
X-33658Y208075D01*
X-33656Y208103D01*
X-33656Y210997D01*
X-33668Y211096D01*
X-33671Y211195D01*
X-33688Y211253D01*
X-33696Y211313D01*
X-33732Y211405D01*
X-33760Y211500D01*
X-33790Y211552D01*
X-33813Y211609D01*
X-33871Y211689D01*
X-33921Y211774D01*
X-33987Y211849D01*
X-33999Y211866D01*
X-34009Y211874D01*
X-34028Y211895D01*
X-34393Y212261D01*
X-34393Y220663D01*
X-34408Y220781D01*
X-34416Y220899D01*
X-34428Y220938D01*
X-34433Y220978D01*
X-34477Y221089D01*
X-34514Y221202D01*
X-34535Y221236D01*
X-34550Y221274D01*
X-34620Y221370D01*
X-34684Y221471D01*
X-34713Y221498D01*
X-34737Y221531D01*
X-34829Y221607D01*
X-34915Y221689D01*
X-34951Y221708D01*
X-34982Y221734D01*
X-35090Y221785D01*
X-35194Y221842D01*
X-35233Y221852D01*
X-35270Y221869D01*
X-35386Y221892D01*
X-35502Y221922D01*
X-35562Y221925D01*
X-35582Y221929D01*
X-35602Y221928D01*
X-35662Y221932D01*
X-52388Y221932D01*
X-52506Y221917D01*
X-52624Y221909D01*
X-52663Y221897D01*
X-52703Y221892D01*
X-52814Y221848D01*
X-52927Y221811D01*
X-52961Y221790D01*
X-52999Y221775D01*
X-53095Y221705D01*
X-53196Y221641D01*
X-53223Y221612D01*
X-53256Y221588D01*
X-53332Y221496D01*
X-53414Y221410D01*
X-53433Y221374D01*
X-53459Y221343D01*
X-53510Y221235D01*
X-53567Y221131D01*
X-53577Y221092D01*
X-53594Y221055D01*
X-53617Y220939D01*
X-53647Y220823D01*
X-53650Y220763D01*
X-53654Y220743D01*
X-53653Y220723D01*
X-53654Y220717D01*
X-53654Y220710D01*
X-53657Y220663D01*
X-53657Y176213D01*
X-53642Y176094D01*
X-53634Y175976D01*
X-53622Y175937D01*
X-53617Y175897D01*
X-53573Y175786D01*
X-53536Y175673D01*
X-53515Y175639D01*
X-53500Y175601D01*
X-53430Y175505D01*
X-53366Y175404D01*
X-53337Y175377D01*
X-53313Y175344D01*
X-53221Y175268D01*
X-53135Y175186D01*
X-53099Y175167D01*
X-53068Y175141D01*
X-52960Y175090D01*
X-52856Y175033D01*
X-52817Y175023D01*
X-52780Y175006D01*
X-52664Y174983D01*
X-52548Y174953D01*
X-52488Y174950D01*
X-52468Y174946D01*
X-52448Y174947D01*
X-52388Y174943D01*
X-14288Y174943D01*
X-14169Y174958D01*
G37*
G36*
X95297Y76522D02*
X95297Y76522D01*
X95325Y76520D01*
X95455Y76545D01*
X95584Y76563D01*
X95610Y76574D01*
X95637Y76579D01*
X95757Y76634D01*
X95878Y76685D01*
X95901Y76701D01*
X95926Y76713D01*
X96028Y76797D01*
X96133Y76876D01*
X96159Y76905D01*
X96172Y76915D01*
X96184Y76932D01*
X96241Y76995D01*
X101224Y83223D01*
X101282Y83318D01*
X101347Y83407D01*
X101379Y83476D01*
X101390Y83495D01*
X101395Y83512D01*
X101415Y83553D01*
X101742Y84389D01*
X101746Y84403D01*
X101753Y84416D01*
X101798Y84570D01*
X101968Y85316D01*
X102024Y85362D01*
X102027Y85365D01*
X102030Y85368D01*
X102119Y85491D01*
X102212Y85618D01*
X102214Y85622D01*
X102216Y85625D01*
X102284Y85771D01*
X102875Y87278D01*
X102876Y87282D01*
X102878Y87286D01*
X102916Y87437D01*
X102954Y87587D01*
X102954Y87591D01*
X102954Y87595D01*
X102953Y87748D01*
X102953Y87827D01*
X103335Y88490D01*
X103341Y88503D01*
X103349Y88515D01*
X103417Y88661D01*
X103696Y89372D01*
X103759Y89410D01*
X103762Y89412D01*
X103765Y89415D01*
X103874Y89526D01*
X103983Y89635D01*
X103985Y89639D01*
X103988Y89642D01*
X104077Y89776D01*
X104886Y91178D01*
X104888Y91182D01*
X104890Y91185D01*
X104949Y91329D01*
X105009Y91471D01*
X105010Y91475D01*
X105012Y91479D01*
X105033Y91634D01*
X105056Y91786D01*
X105055Y91790D01*
X105056Y91794D01*
X105048Y91955D01*
X105020Y92199D01*
X104993Y92313D01*
X104973Y92428D01*
X104955Y92467D01*
X104945Y92508D01*
X104890Y92611D01*
X104842Y92718D01*
X104816Y92751D01*
X104796Y92789D01*
X104717Y92875D01*
X104644Y92967D01*
X104610Y92992D01*
X104581Y93023D01*
X104483Y93088D01*
X104389Y93158D01*
X104333Y93186D01*
X104315Y93197D01*
X104296Y93204D01*
X104245Y93229D01*
X102472Y93963D01*
X101085Y95350D01*
X100335Y97162D01*
X100335Y99123D01*
X101085Y100935D01*
X102472Y102322D01*
X104284Y103072D01*
X106245Y103072D01*
X108057Y102322D01*
X109444Y100935D01*
X109963Y99680D01*
X109976Y99658D01*
X109984Y99633D01*
X110055Y99520D01*
X110121Y99404D01*
X110139Y99385D01*
X110153Y99363D01*
X110249Y99272D01*
X110342Y99176D01*
X110364Y99162D01*
X110383Y99144D01*
X110500Y99079D01*
X110613Y99010D01*
X110638Y99002D01*
X110661Y98989D01*
X110790Y98955D01*
X110917Y98916D01*
X110943Y98915D01*
X110969Y98908D01*
X111102Y98907D01*
X111235Y98901D01*
X111260Y98906D01*
X111287Y98906D01*
X111416Y98938D01*
X111546Y98965D01*
X111570Y98977D01*
X111595Y98983D01*
X111712Y99046D01*
X111832Y99105D01*
X111852Y99122D01*
X111875Y99134D01*
X112000Y99236D01*
X112175Y99399D01*
X112247Y99405D01*
X112251Y99407D01*
X112255Y99407D01*
X112401Y99460D01*
X112547Y99511D01*
X112550Y99514D01*
X112554Y99515D01*
X112693Y99597D01*
X114030Y100510D01*
X114033Y100512D01*
X114037Y100514D01*
X114153Y100618D01*
X114268Y100720D01*
X114271Y100724D01*
X114274Y100727D01*
X114360Y100856D01*
X114403Y100919D01*
X115092Y101251D01*
X115105Y101259D01*
X115118Y101264D01*
X115257Y101346D01*
X116125Y101939D01*
X116206Y102011D01*
X116293Y102075D01*
X116347Y102135D01*
X116363Y102150D01*
X116373Y102163D01*
X116401Y102194D01*
X121641Y108745D01*
X121676Y108801D01*
X121706Y108838D01*
X121712Y108850D01*
X121735Y108879D01*
X121767Y108950D01*
X121807Y109016D01*
X121831Y109095D01*
X121865Y109170D01*
X121878Y109246D01*
X121900Y109320D01*
X121904Y109402D01*
X121918Y109483D01*
X121912Y109560D01*
X121915Y109638D01*
X121899Y109718D01*
X121892Y109800D01*
X121866Y109873D01*
X121851Y109949D01*
X121814Y110023D01*
X121787Y110101D01*
X121745Y110165D01*
X121711Y110235D01*
X121657Y110297D01*
X121612Y110366D01*
X121508Y110472D01*
X121504Y110476D01*
X121502Y110478D01*
X121499Y110481D01*
X105624Y124768D01*
X105539Y124827D01*
X105461Y124893D01*
X105409Y124918D01*
X105363Y124950D01*
X105267Y124986D01*
X105174Y125030D01*
X105118Y125041D01*
X105065Y125061D01*
X104963Y125071D01*
X104861Y125091D01*
X104805Y125088D01*
X104749Y125094D01*
X104647Y125079D01*
X104544Y125073D01*
X104490Y125056D01*
X104434Y125048D01*
X104339Y125008D01*
X104241Y124976D01*
X104193Y124946D01*
X104141Y124924D01*
X104059Y124862D01*
X103972Y124808D01*
X103905Y124745D01*
X103887Y124732D01*
X103878Y124721D01*
X103854Y124698D01*
X75279Y94535D01*
X75278Y94535D01*
X75187Y94410D01*
X75091Y94279D01*
X75090Y94279D01*
X75009Y94075D01*
X74972Y93984D01*
X74941Y93748D01*
X74931Y93668D01*
X74960Y93430D01*
X74969Y93353D01*
X75074Y93085D01*
X75085Y93057D01*
X75085Y93056D01*
X75271Y92798D01*
X75387Y92687D01*
X94437Y76812D01*
X94548Y76742D01*
X94656Y76666D01*
X94682Y76656D01*
X94705Y76641D01*
X94830Y76600D01*
X94954Y76553D01*
X94981Y76550D01*
X95007Y76542D01*
X95139Y76533D01*
X95270Y76518D01*
X95297Y76522D01*
G37*
%LPC*%
G36*
X-60053Y114299D02*
X-60053Y114299D01*
X-61913Y116160D01*
X-61913Y126746D01*
X-61926Y126845D01*
X-61929Y126944D01*
X-61945Y127002D01*
X-61953Y127062D01*
X-61990Y127154D01*
X-62017Y127249D01*
X-62048Y127301D01*
X-62070Y127358D01*
X-62128Y127438D01*
X-62179Y127523D01*
X-62245Y127598D01*
X-62257Y127615D01*
X-62266Y127623D01*
X-62285Y127644D01*
X-64444Y129803D01*
X-64522Y129863D01*
X-64594Y129931D01*
X-64647Y129960D01*
X-64695Y129997D01*
X-64786Y130037D01*
X-64873Y130085D01*
X-64931Y130100D01*
X-64987Y130124D01*
X-65085Y130139D01*
X-65180Y130164D01*
X-65281Y130170D01*
X-65301Y130174D01*
X-65313Y130172D01*
X-65341Y130174D01*
X-67990Y130174D01*
X-69851Y132035D01*
X-69851Y133963D01*
X-69863Y134061D01*
X-69866Y134160D01*
X-69878Y134202D01*
X-69878Y148610D01*
X-69861Y148677D01*
X-69855Y148777D01*
X-69851Y148797D01*
X-69853Y148809D01*
X-69851Y148837D01*
X-69851Y150540D01*
X-68612Y151779D01*
X-68539Y151873D01*
X-68460Y151963D01*
X-68442Y151999D01*
X-68417Y152031D01*
X-68370Y152140D01*
X-68316Y152246D01*
X-68307Y152285D01*
X-68291Y152322D01*
X-68272Y152440D01*
X-68246Y152556D01*
X-68247Y152596D01*
X-68241Y152636D01*
X-68252Y152755D01*
X-68256Y152874D01*
X-68267Y152913D01*
X-68271Y152953D01*
X-68311Y153065D01*
X-68344Y153180D01*
X-68364Y153214D01*
X-68378Y153252D01*
X-68445Y153351D01*
X-68505Y153453D01*
X-68545Y153499D01*
X-68557Y153516D01*
X-68572Y153529D01*
X-68612Y153574D01*
X-69878Y154841D01*
X-69878Y171959D01*
X-68762Y173076D01*
X-61463Y173076D01*
X-60347Y171959D01*
X-60347Y154841D01*
X-61588Y153599D01*
X-61661Y153505D01*
X-61740Y153416D01*
X-61758Y153380D01*
X-61783Y153348D01*
X-61830Y153239D01*
X-61884Y153133D01*
X-61893Y153093D01*
X-61909Y153056D01*
X-61928Y152938D01*
X-61954Y152822D01*
X-61953Y152782D01*
X-61959Y152742D01*
X-61948Y152623D01*
X-61944Y152505D01*
X-61933Y152466D01*
X-61929Y152425D01*
X-61889Y152313D01*
X-61856Y152199D01*
X-61836Y152164D01*
X-61822Y152126D01*
X-61755Y152028D01*
X-61695Y151925D01*
X-61655Y151880D01*
X-61643Y151863D01*
X-61628Y151850D01*
X-61588Y151804D01*
X-59953Y150169D01*
X-44449Y134665D01*
X-44449Y116160D01*
X-46310Y114299D01*
X-60053Y114299D01*
G37*
%LPD*%
%LPC*%
G36*
X-29890Y133349D02*
X-29890Y133349D01*
X-38101Y141560D01*
X-38101Y158683D01*
X-38088Y158713D01*
X-38072Y158811D01*
X-38047Y158906D01*
X-38041Y159007D01*
X-38038Y159027D01*
X-38039Y159039D01*
X-38037Y159067D01*
X-38037Y159158D01*
X-36921Y160275D01*
X-36830Y160275D01*
X-36731Y160287D01*
X-36632Y160290D01*
X-36574Y160307D01*
X-36514Y160315D01*
X-36454Y160338D01*
X-14560Y160338D01*
X-12699Y158478D01*
X-12699Y149497D01*
X-13915Y148281D01*
X-13976Y148203D01*
X-14044Y148131D01*
X-14073Y148078D01*
X-14110Y148030D01*
X-14149Y147939D01*
X-14197Y147852D01*
X-14212Y147794D01*
X-14236Y147738D01*
X-14252Y147640D01*
X-14277Y147545D01*
X-14283Y147444D01*
X-14286Y147424D01*
X-14285Y147412D01*
X-14287Y147384D01*
X-14287Y135210D01*
X-16147Y133349D01*
X-29890Y133349D01*
G37*
%LPD*%
G36*
X135056Y143208D02*
X135056Y143208D01*
X135174Y143216D01*
X135213Y143228D01*
X135253Y143233D01*
X135364Y143277D01*
X135477Y143314D01*
X135511Y143335D01*
X135549Y143350D01*
X135645Y143420D01*
X135746Y143484D01*
X135773Y143513D01*
X135806Y143537D01*
X135882Y143629D01*
X135964Y143715D01*
X135983Y143751D01*
X136009Y143782D01*
X136060Y143890D01*
X136117Y143994D01*
X136127Y144033D01*
X136144Y144070D01*
X136167Y144186D01*
X136197Y144302D01*
X136200Y144362D01*
X136204Y144382D01*
X136203Y144402D01*
X136207Y144463D01*
X136207Y155575D01*
X136192Y155693D01*
X136184Y155812D01*
X136172Y155850D01*
X136167Y155891D01*
X136123Y156001D01*
X136086Y156114D01*
X136065Y156149D01*
X136050Y156186D01*
X135980Y156282D01*
X135916Y156383D01*
X135887Y156411D01*
X135863Y156444D01*
X135771Y156520D01*
X135685Y156601D01*
X135649Y156621D01*
X135618Y156646D01*
X135510Y156697D01*
X135406Y156755D01*
X135367Y156765D01*
X135330Y156782D01*
X135214Y156804D01*
X135098Y156834D01*
X135038Y156838D01*
X135018Y156842D01*
X134998Y156840D01*
X134938Y156844D01*
X100013Y156844D01*
X99894Y156829D01*
X99776Y156822D01*
X99737Y156809D01*
X99697Y156804D01*
X99586Y156761D01*
X99473Y156724D01*
X99439Y156702D01*
X99401Y156687D01*
X99305Y156618D01*
X99204Y156554D01*
X99177Y156524D01*
X99144Y156501D01*
X99068Y156409D01*
X98986Y156322D01*
X98967Y156287D01*
X98941Y156256D01*
X98890Y156148D01*
X98833Y156044D01*
X98823Y156004D01*
X98806Y155968D01*
X98783Y155851D01*
X98753Y155736D01*
X98750Y155676D01*
X98746Y155656D01*
X98747Y155635D01*
X98743Y155575D01*
X98743Y144463D01*
X98758Y144344D01*
X98766Y144226D01*
X98778Y144187D01*
X98783Y144147D01*
X98827Y144036D01*
X98864Y143923D01*
X98885Y143889D01*
X98900Y143851D01*
X98970Y143755D01*
X99034Y143654D01*
X99063Y143627D01*
X99087Y143594D01*
X99179Y143518D01*
X99265Y143436D01*
X99301Y143417D01*
X99332Y143391D01*
X99440Y143340D01*
X99544Y143283D01*
X99583Y143273D01*
X99620Y143256D01*
X99736Y143233D01*
X99852Y143203D01*
X99912Y143200D01*
X99932Y143196D01*
X99952Y143197D01*
X100013Y143193D01*
X134938Y143193D01*
X135056Y143208D01*
G37*
G36*
X-47507Y116221D02*
X-47507Y116221D01*
X-47388Y116228D01*
X-47350Y116241D01*
X-47309Y116246D01*
X-47199Y116289D01*
X-47086Y116326D01*
X-47051Y116348D01*
X-47014Y116363D01*
X-46918Y116433D01*
X-46817Y116496D01*
X-46789Y116526D01*
X-46756Y116549D01*
X-46681Y116641D01*
X-46599Y116728D01*
X-46579Y116763D01*
X-46554Y116794D01*
X-46503Y116902D01*
X-46445Y117006D01*
X-46435Y117046D01*
X-46418Y117082D01*
X-46396Y117199D01*
X-46366Y117314D01*
X-46362Y117375D01*
X-46358Y117395D01*
X-46360Y117415D01*
X-46356Y117475D01*
X-46356Y133350D01*
X-46368Y133448D01*
X-46371Y133547D01*
X-46388Y133605D01*
X-46396Y133666D01*
X-46432Y133758D01*
X-46460Y133853D01*
X-46490Y133905D01*
X-46513Y133961D01*
X-46571Y134041D01*
X-46621Y134127D01*
X-46687Y134202D01*
X-46699Y134219D01*
X-46709Y134226D01*
X-46728Y134248D01*
X-62603Y150123D01*
X-62681Y150183D01*
X-62753Y150251D01*
X-62806Y150280D01*
X-62854Y150317D01*
X-62945Y150357D01*
X-63031Y150405D01*
X-63090Y150420D01*
X-63146Y150444D01*
X-63244Y150459D01*
X-63339Y150484D01*
X-63439Y150490D01*
X-63460Y150494D01*
X-63472Y150492D01*
X-63500Y150494D01*
X-66675Y150494D01*
X-66793Y150479D01*
X-66912Y150472D01*
X-66950Y150459D01*
X-66991Y150454D01*
X-67101Y150411D01*
X-67214Y150374D01*
X-67249Y150352D01*
X-67286Y150337D01*
X-67382Y150268D01*
X-67483Y150204D01*
X-67511Y150174D01*
X-67544Y150151D01*
X-67620Y150059D01*
X-67701Y149972D01*
X-67721Y149937D01*
X-67746Y149906D01*
X-67797Y149798D01*
X-67855Y149694D01*
X-67865Y149654D01*
X-67882Y149618D01*
X-67904Y149501D01*
X-67934Y149386D01*
X-67938Y149326D01*
X-67942Y149306D01*
X-67941Y149291D01*
X-67942Y149287D01*
X-67941Y149276D01*
X-67944Y149225D01*
X-67944Y133350D01*
X-67929Y133232D01*
X-67922Y133113D01*
X-67909Y133075D01*
X-67904Y133034D01*
X-67861Y132924D01*
X-67824Y132811D01*
X-67802Y132776D01*
X-67787Y132739D01*
X-67718Y132643D01*
X-67654Y132542D01*
X-67624Y132514D01*
X-67601Y132481D01*
X-67509Y132406D01*
X-67422Y132324D01*
X-67387Y132304D01*
X-67356Y132279D01*
X-67248Y132228D01*
X-67144Y132170D01*
X-67104Y132160D01*
X-67068Y132143D01*
X-66951Y132121D01*
X-66836Y132091D01*
X-66776Y132087D01*
X-66756Y132083D01*
X-66735Y132085D01*
X-66675Y132081D01*
X-64026Y132081D01*
X-60007Y128062D01*
X-60007Y117475D01*
X-59992Y117357D01*
X-59984Y117238D01*
X-59972Y117200D01*
X-59967Y117159D01*
X-59923Y117049D01*
X-59886Y116936D01*
X-59865Y116901D01*
X-59850Y116864D01*
X-59780Y116768D01*
X-59716Y116667D01*
X-59687Y116639D01*
X-59663Y116606D01*
X-59571Y116531D01*
X-59485Y116449D01*
X-59449Y116429D01*
X-59418Y116404D01*
X-59310Y116353D01*
X-59206Y116295D01*
X-59167Y116285D01*
X-59130Y116268D01*
X-59014Y116246D01*
X-58898Y116216D01*
X-58838Y116212D01*
X-58818Y116208D01*
X-58798Y116210D01*
X-58738Y116206D01*
X-47625Y116206D01*
X-47507Y116221D01*
G37*
%LPC*%
G36*
X60061Y244682D02*
X60061Y244682D01*
X58944Y245798D01*
X58944Y265377D01*
X60061Y266493D01*
X79639Y266493D01*
X80756Y265377D01*
X80756Y245798D01*
X79639Y244682D01*
X60061Y244682D01*
G37*
%LPD*%
G36*
X-17344Y135271D02*
X-17344Y135271D01*
X-17226Y135278D01*
X-17187Y135291D01*
X-17147Y135296D01*
X-17036Y135339D01*
X-16923Y135376D01*
X-16889Y135398D01*
X-16851Y135413D01*
X-16755Y135483D01*
X-16654Y135546D01*
X-16627Y135576D01*
X-16594Y135599D01*
X-16518Y135691D01*
X-16436Y135778D01*
X-16417Y135813D01*
X-16391Y135844D01*
X-16340Y135952D01*
X-16283Y136056D01*
X-16273Y136096D01*
X-16256Y136132D01*
X-16233Y136249D01*
X-16203Y136364D01*
X-16200Y136425D01*
X-16196Y136445D01*
X-16197Y136465D01*
X-16193Y136525D01*
X-16193Y148816D01*
X-16156Y148883D01*
X-16141Y148942D01*
X-16117Y148997D01*
X-16101Y149095D01*
X-16076Y149191D01*
X-16070Y149291D01*
X-16067Y149312D01*
X-16068Y149324D01*
X-16066Y149352D01*
X-16066Y157163D01*
X-16081Y157281D01*
X-16089Y157399D01*
X-16101Y157438D01*
X-16106Y157478D01*
X-16150Y157589D01*
X-16187Y157702D01*
X-16208Y157736D01*
X-16223Y157774D01*
X-16293Y157870D01*
X-16357Y157971D01*
X-16386Y157998D01*
X-16410Y158031D01*
X-16502Y158107D01*
X-16588Y158189D01*
X-16624Y158208D01*
X-16655Y158234D01*
X-16763Y158285D01*
X-16867Y158342D01*
X-16906Y158352D01*
X-16943Y158369D01*
X-17059Y158392D01*
X-17175Y158422D01*
X-17235Y158425D01*
X-17255Y158429D01*
X-17275Y158428D01*
X-17335Y158432D01*
X-34925Y158432D01*
X-35043Y158417D01*
X-35162Y158409D01*
X-35200Y158397D01*
X-35241Y158392D01*
X-35351Y158348D01*
X-35464Y158311D01*
X-35499Y158290D01*
X-35536Y158275D01*
X-35632Y158205D01*
X-35733Y158141D01*
X-35761Y158112D01*
X-35794Y158088D01*
X-35870Y157996D01*
X-35951Y157910D01*
X-35971Y157874D01*
X-35996Y157843D01*
X-36047Y157735D01*
X-36105Y157631D01*
X-36115Y157592D01*
X-36132Y157555D01*
X-36154Y157439D01*
X-36184Y157323D01*
X-36188Y157263D01*
X-36192Y157243D01*
X-36190Y157223D01*
X-36194Y157163D01*
X-36194Y142875D01*
X-36182Y142777D01*
X-36179Y142678D01*
X-36169Y142643D01*
X-36168Y142634D01*
X-36161Y142612D01*
X-36154Y142559D01*
X-36118Y142467D01*
X-36090Y142372D01*
X-36075Y142345D01*
X-36070Y142332D01*
X-36055Y142307D01*
X-36037Y142264D01*
X-35979Y142184D01*
X-35929Y142098D01*
X-35905Y142072D01*
X-35900Y142063D01*
X-35888Y142052D01*
X-35863Y142023D01*
X-35851Y142006D01*
X-35841Y141999D01*
X-35823Y141978D01*
X-29473Y135628D01*
X-29394Y135567D01*
X-29322Y135499D01*
X-29269Y135470D01*
X-29221Y135433D01*
X-29130Y135393D01*
X-29044Y135345D01*
X-28985Y135330D01*
X-28929Y135306D01*
X-28831Y135291D01*
X-28736Y135266D01*
X-28636Y135260D01*
X-28615Y135256D01*
X-28603Y135258D01*
X-28575Y135256D01*
X-17463Y135256D01*
X-17344Y135271D01*
G37*
%LPC*%
G36*
X-72319Y244682D02*
X-72319Y244682D01*
X-76328Y246342D01*
X-79395Y249410D01*
X-81056Y253418D01*
X-81056Y257757D01*
X-79395Y261765D01*
X-76328Y264833D01*
X-72319Y266493D01*
X-67981Y266493D01*
X-63972Y264833D01*
X-60905Y261765D01*
X-59244Y257757D01*
X-59244Y253418D01*
X-60905Y249410D01*
X-63972Y246342D01*
X-67981Y244682D01*
X-72319Y244682D01*
G37*
%LPD*%
%LPC*%
G36*
X-52695Y25399D02*
X-52695Y25399D01*
X-56196Y26849D01*
X-58876Y29529D01*
X-60326Y33030D01*
X-60326Y36820D01*
X-58876Y40321D01*
X-56196Y43001D01*
X-52695Y44451D01*
X-48905Y44451D01*
X-45404Y43001D01*
X-42724Y40321D01*
X-41274Y36820D01*
X-41274Y33030D01*
X-42724Y29529D01*
X-45404Y26849D01*
X-48905Y25399D01*
X-52695Y25399D01*
G37*
%LPD*%
%LPC*%
G36*
X52586Y58542D02*
X52586Y58542D01*
X52330Y58648D01*
X52321Y58650D01*
X52313Y58655D01*
X52168Y58692D01*
X52023Y58732D01*
X52014Y58732D01*
X52005Y58734D01*
X51844Y58744D01*
X47598Y58744D01*
X46482Y59861D01*
X46482Y69439D01*
X47598Y70556D01*
X57177Y70556D01*
X58293Y69439D01*
X58293Y65194D01*
X58294Y65184D01*
X58293Y65175D01*
X58314Y65026D01*
X58333Y64878D01*
X58336Y64869D01*
X58338Y64860D01*
X58390Y64708D01*
X58496Y64452D01*
X58496Y62491D01*
X58390Y62235D01*
X58387Y62226D01*
X58383Y62218D01*
X58346Y62073D01*
X58306Y61928D01*
X58306Y61919D01*
X58303Y61910D01*
X58293Y61749D01*
X58293Y59861D01*
X57177Y58744D01*
X55288Y58744D01*
X55279Y58743D01*
X55270Y58744D01*
X55121Y58723D01*
X54973Y58704D01*
X54964Y58701D01*
X54955Y58700D01*
X54803Y58648D01*
X54547Y58542D01*
X52586Y58542D01*
G37*
%LPD*%
D10*
X52388Y64650D03*
X52388Y49650D03*
D11*
X52388Y98425D03*
D12*
X2713Y89463D03*
X-14288Y89463D03*
X-112150Y130175D03*
X-129150Y130175D03*
D13*
X22788Y123825D03*
X5788Y123825D03*
D14*
X-26226Y193675D03*
X-26226Y180975D03*
X-26226Y168275D03*
X-26226Y155575D03*
X23051Y155575D03*
X23051Y168275D03*
X23051Y180975D03*
X23051Y193675D03*
D12*
X-23813Y141850D03*
X-23813Y124850D03*
D13*
X44450Y150250D03*
X44450Y167250D03*
D12*
X-8500Y139700D03*
X8500Y139700D03*
X71438Y132788D03*
X71438Y149788D03*
D13*
X55563Y132788D03*
X55563Y149788D03*
D15*
X41250Y211138D03*
X22250Y211138D03*
D13*
X43888Y184150D03*
X60888Y184150D03*
D16*
X-65113Y163400D03*
D17*
X-74613Y168310D02*
X-74613Y158490D01*
X-84113Y158490D02*
X-84113Y168310D01*
X-84113Y146310D02*
X-84113Y136490D01*
X-65113Y136490D02*
X-65113Y146310D01*
D13*
X-92638Y184150D03*
X-75638Y184150D03*
X-53413Y122238D03*
X-70413Y122238D03*
X-101600Y143900D03*
X-101600Y160900D03*
X-98988Y122238D03*
X-81988Y122238D03*
D15*
X-99988Y111125D03*
X-80988Y111125D03*
D13*
X43888Y193675D03*
X60888Y193675D03*
D15*
X-66650Y207963D03*
X-47650Y207963D03*
D13*
X-64063Y184150D03*
X-47063Y184150D03*
X-64063Y193675D03*
X-47063Y193675D03*
D18*
X-50800Y85725D03*
X-50800Y60325D03*
X-50800Y34925D03*
D19*
X85725Y153875D03*
X85725Y131875D03*
D20*
X165200Y150813D03*
X82600Y7713D03*
X-82600Y7713D03*
X-165200Y150813D03*
X123900Y222313D03*
X123900Y79313D03*
X0Y7713D03*
X-123900Y79313D03*
X-123900Y222313D03*
D21*
X69850Y255588D03*
D22*
X34850Y255588D03*
X-150Y255588D03*
X-35150Y255588D03*
X-70150Y255588D03*
D13*
X-26988Y218050D03*
X-26988Y201050D03*
D12*
X6913Y212725D03*
X-10088Y212725D03*
D23*
X-98425Y88900D03*
X-127000Y111125D03*
X-12700Y53975D03*
D24*
X14388Y84137D02*
X9063Y89463D01*
X2713Y89463D01*
X14388Y84037D02*
X20638Y77788D01*
X14388Y84037D02*
X14388Y84137D01*
D25*
X20638Y77788D03*
D23*
X104775Y150813D03*
X128588Y149225D03*
X115888Y109538D03*
X104775Y117475D03*
X93663Y82550D03*
X80963Y95250D03*
D26*
X6350Y114300D02*
X5788Y123825D01*
D25*
X6350Y114300D03*
D26*
X52388Y49650D02*
X52388Y49213D01*
D25*
X52388Y49213D03*
D23*
X36513Y42863D03*
X36513Y31750D03*
X-20638Y42863D03*
X-20638Y31750D03*
X-96838Y47625D03*
X-93663Y77788D03*
D27*
X-93302Y77788D02*
X-85439Y69925D01*
X-93302Y77788D02*
X-93663Y77788D01*
X-85439Y69925D02*
X-85439Y59023D01*
X-96838Y47625D01*
D23*
X11113Y44450D03*
X-88900Y144463D03*
X77788Y293688D03*
X34925Y293688D03*
X-25400Y293688D03*
X-57150Y295275D03*
X92075Y263525D03*
X-65088Y228600D03*
X60325Y231775D03*
X23813Y209550D03*
X0Y188913D03*
X-74613Y173038D03*
X65088Y177800D03*
X85725Y176213D03*
X63500Y220663D03*
X92075Y231775D03*
X-76200Y122238D03*
X141288Y180975D03*
D28*
X-14288Y168275D02*
X-26226Y168275D01*
X-14288Y168275D02*
X-11113Y165100D01*
X-11113Y142313D01*
X-8500Y139700D01*
D25*
X53566Y63471D03*
D26*
X52388Y64650D01*
D25*
X24277Y146840D03*
D26*
X24277Y146149D01*
X22689Y144561D01*
X22788Y123825D01*
X47546Y99067D01*
X51746Y99067D02*
X52388Y98425D01*
X51746Y99067D02*
X47546Y99067D01*
D24*
X-50800Y85725D02*
X-50800Y60325D01*
X-44450Y89463D02*
X-14288Y89463D01*
X-44450Y89463D02*
X-49494Y84419D01*
X-50800Y85725D01*
D25*
X105264Y98143D03*
D26*
X123900Y79507D01*
X123900Y79313D01*
D25*
X-96778Y65886D03*
D26*
X-110474Y65886D01*
X-123900Y79313D01*
D25*
X-111124Y197450D03*
D26*
X-111124Y209537D02*
X-123900Y222313D01*
X-111124Y209537D02*
X-111124Y197450D01*
D25*
X101600Y206375D03*
D26*
X117538Y222313D01*
X123900Y222313D01*
D23*
X-58738Y139700D03*
D24*
X-58738Y138113D01*
X-57150Y136525D01*
D23*
X-46038Y201613D03*
X-46038Y187325D03*
X42863Y201613D03*
X34925Y180975D03*
D28*
X43425Y168275D02*
X23051Y168275D01*
X43425Y168275D02*
X44450Y167250D01*
X23051Y168275D02*
X11113Y168275D01*
X7938Y165100D01*
X7938Y140263D01*
X8500Y139700D01*
D25*
X52388Y115888D03*
D28*
X71438Y132788D02*
X85725Y131875D01*
X71438Y132788D02*
X55563Y132788D01*
X52388Y115888D01*
X39125Y155575D02*
X23051Y155575D01*
X39125Y155575D02*
X44450Y150250D01*
D24*
X55100Y150250D01*
X55563Y149788D01*
X-86613Y160900D02*
X-101600Y160900D01*
X-86613Y160900D02*
X-84113Y163400D01*
X-84113Y175625D02*
X-92638Y184150D01*
X-84113Y175625D02*
X-84113Y163400D01*
D28*
X-26988Y247425D02*
X-35150Y255588D01*
X-26988Y247425D02*
X-26988Y218050D01*
X-15413Y218050D02*
X-10088Y212725D01*
X-15413Y218050D02*
X-26988Y218050D01*
X6913Y223838D02*
X34850Y251775D01*
X6913Y223838D02*
X6913Y212725D01*
X34850Y251775D02*
X34850Y255588D01*
X23051Y193675D02*
X14288Y193675D01*
X6350Y201613D01*
X6350Y212163D01*
X6913Y212725D01*
D25*
X27486Y21466D03*
D26*
X13733Y7713D01*
X0Y7713D01*
D28*
X-21663Y201050D02*
X-26988Y201050D01*
X-21663Y201050D02*
X-17463Y196850D01*
X-20638Y193675D01*
X-26226Y193675D01*
M02*
