G04 EAGLE Gerber RS-274X export*
G75*
%MOMM*%
%FSLAX34Y34*%
%LPD*%
%INBottom Copper*%
%IPPOS*%
%AMOC8*
5,1,8,0,0,1.08239X$1,22.5*%
G01*
%ADD10R,0.400000X1.399997*%
%ADD11P,1.649562X8X112.500000*%
%ADD12R,1.100000X1.000000*%
%ADD13R,1.000000X1.100000*%
%ADD14R,1.500000X1.300000*%
%ADD15R,1.300000X1.500000*%
%ADD16R,0.297181X0.550000*%
%ADD17R,0.550000X0.297181*%
%ADD18R,5.600000X5.600000*%
%ADD19R,1.800000X2.200000*%
%ADD20R,0.800000X1.600000*%
%ADD21C,1.524000*%
%ADD22C,1.000000*%
%ADD23R,1.800000X1.800000*%
%ADD24C,1.800000*%
%ADD25C,0.304800*%
%ADD26C,0.508000*%
%ADD27C,0.750000*%
%ADD28C,0.812800*%
%ADD29C,0.406400*%
%ADD30C,0.604800*%
%ADD31C,0.254000*%
%ADD32C,1.016000*%
%ADD33C,0.609600*%

G36*
X4763Y141540D02*
X4763Y141540D01*
X4882Y141543D01*
X4921Y141555D01*
X4961Y141559D01*
X5073Y141599D01*
X5188Y141632D01*
X5222Y141652D01*
X5260Y141666D01*
X5359Y141733D01*
X5461Y141793D01*
X5507Y141833D01*
X5524Y141845D01*
X5537Y141860D01*
X5582Y141900D01*
X6676Y142993D01*
X6736Y143071D01*
X6804Y143143D01*
X6833Y143196D01*
X6870Y143244D01*
X6910Y143335D01*
X6958Y143422D01*
X6973Y143480D01*
X6997Y143536D01*
X7012Y143634D01*
X7037Y143730D01*
X7043Y143830D01*
X7047Y143850D01*
X7045Y143863D01*
X7047Y143891D01*
X7047Y145177D01*
X7035Y145275D01*
X7032Y145375D01*
X7015Y145433D01*
X7007Y145493D01*
X6971Y145585D01*
X6943Y145680D01*
X6913Y145732D01*
X6890Y145789D01*
X6832Y145869D01*
X6782Y145954D01*
X6716Y146029D01*
X6704Y146046D01*
X6694Y146054D01*
X6676Y146075D01*
X103Y152648D01*
X25Y152708D01*
X-48Y152776D01*
X-101Y152805D01*
X-149Y152842D01*
X-239Y152882D01*
X-326Y152930D01*
X-385Y152945D01*
X-440Y152969D01*
X-538Y152984D01*
X-634Y153009D01*
X-734Y153015D01*
X-754Y153019D01*
X-767Y153018D01*
X-795Y153019D01*
X-2089Y153019D01*
X-3206Y154136D01*
X-3206Y169714D01*
X-2089Y170831D01*
X3489Y170831D01*
X4606Y169714D01*
X4606Y158371D01*
X4618Y158273D01*
X4621Y158174D01*
X4638Y158116D01*
X4646Y158056D01*
X4682Y157963D01*
X4710Y157868D01*
X4740Y157816D01*
X4763Y157760D01*
X4821Y157680D01*
X4871Y157594D01*
X4937Y157519D01*
X4949Y157502D01*
X4959Y157495D01*
X4978Y157474D01*
X6628Y155824D01*
X6737Y155738D01*
X6844Y155650D01*
X6863Y155641D01*
X6879Y155629D01*
X7007Y155573D01*
X7132Y155514D01*
X7152Y155510D01*
X7171Y155502D01*
X7309Y155480D01*
X7445Y155454D01*
X7465Y155456D01*
X7485Y155452D01*
X7624Y155465D01*
X7762Y155474D01*
X7781Y155480D01*
X7801Y155482D01*
X7933Y155529D01*
X8064Y155572D01*
X8082Y155583D01*
X8101Y155590D01*
X8216Y155668D01*
X8333Y155742D01*
X8347Y155757D01*
X8364Y155768D01*
X8456Y155873D01*
X8551Y155974D01*
X8561Y155992D01*
X8574Y156007D01*
X8638Y156131D01*
X8705Y156252D01*
X8710Y156272D01*
X8719Y156290D01*
X8749Y156426D01*
X8784Y156560D01*
X8786Y156588D01*
X8789Y156600D01*
X8788Y156621D01*
X8794Y156721D01*
X8794Y159736D01*
X8782Y159834D01*
X8779Y159933D01*
X8762Y159991D01*
X8762Y171494D01*
X14244Y176975D01*
X28560Y176975D01*
X28610Y176981D01*
X28659Y176979D01*
X28767Y177001D01*
X28876Y177015D01*
X28922Y177033D01*
X28971Y177043D01*
X29070Y177092D01*
X29172Y177132D01*
X29212Y177161D01*
X29257Y177183D01*
X29340Y177254D01*
X29429Y177319D01*
X29461Y177357D01*
X29499Y177389D01*
X29562Y177479D01*
X29632Y177564D01*
X29653Y177609D01*
X29682Y177649D01*
X29721Y177752D01*
X29767Y177852D01*
X29777Y177900D01*
X29794Y177947D01*
X29807Y178056D01*
X29827Y178164D01*
X29824Y178213D01*
X29830Y178263D01*
X29814Y178372D01*
X29807Y178481D01*
X29792Y178529D01*
X29785Y178578D01*
X29733Y178730D01*
X29269Y179850D01*
X29269Y182100D01*
X30130Y184179D01*
X31721Y185770D01*
X33183Y186375D01*
X33191Y186380D01*
X33200Y186382D01*
X33329Y186458D01*
X33459Y186533D01*
X33466Y186539D01*
X33474Y186544D01*
X33595Y186650D01*
X41217Y194273D01*
X41248Y194312D01*
X41284Y194345D01*
X41345Y194437D01*
X41412Y194524D01*
X41432Y194570D01*
X41459Y194611D01*
X41495Y194715D01*
X41538Y194816D01*
X41546Y194865D01*
X41562Y194912D01*
X41571Y195021D01*
X41588Y195130D01*
X41584Y195179D01*
X41588Y195229D01*
X41569Y195337D01*
X41558Y195447D01*
X41542Y195493D01*
X41533Y195542D01*
X41488Y195642D01*
X41451Y195746D01*
X41423Y195787D01*
X41403Y195832D01*
X41334Y195918D01*
X41272Y196009D01*
X41235Y196042D01*
X41204Y196081D01*
X41116Y196147D01*
X41034Y196219D01*
X40990Y196242D01*
X40950Y196272D01*
X40805Y196343D01*
X39659Y196818D01*
X38068Y198409D01*
X37207Y200487D01*
X37207Y202738D01*
X38068Y204816D01*
X39659Y206407D01*
X41737Y207268D01*
X43988Y207268D01*
X46177Y206361D01*
X46225Y206348D01*
X46270Y206327D01*
X46377Y206307D01*
X46484Y206277D01*
X46533Y206277D01*
X46582Y206267D01*
X46692Y206274D01*
X46802Y206272D01*
X46850Y206284D01*
X46899Y206287D01*
X47004Y206321D01*
X47111Y206347D01*
X47155Y206370D01*
X47202Y206385D01*
X47295Y206444D01*
X47392Y206495D01*
X47429Y206529D01*
X47471Y206555D01*
X47546Y206635D01*
X47627Y206709D01*
X47655Y206751D01*
X47689Y206787D01*
X47742Y206883D01*
X47802Y206975D01*
X47818Y207022D01*
X47842Y207065D01*
X47870Y207172D01*
X47905Y207276D01*
X47909Y207325D01*
X47922Y207373D01*
X47932Y207534D01*
X47932Y208639D01*
X49048Y209756D01*
X68627Y209756D01*
X69743Y208639D01*
X69743Y206574D01*
X69758Y206456D01*
X69766Y206337D01*
X69778Y206299D01*
X69783Y206258D01*
X69827Y206148D01*
X69864Y206035D01*
X69885Y206000D01*
X69900Y205963D01*
X69970Y205866D01*
X70034Y205766D01*
X70063Y205738D01*
X70087Y205705D01*
X70179Y205629D01*
X70265Y205548D01*
X70301Y205528D01*
X70332Y205503D01*
X70440Y205452D01*
X70544Y205394D01*
X70583Y205384D01*
X70620Y205367D01*
X70736Y205345D01*
X70852Y205315D01*
X70912Y205311D01*
X70932Y205307D01*
X70952Y205309D01*
X71012Y205305D01*
X71194Y205305D01*
X71312Y205320D01*
X71431Y205327D01*
X71469Y205339D01*
X71509Y205345D01*
X71620Y205388D01*
X71733Y205425D01*
X71767Y205447D01*
X71805Y205462D01*
X71901Y205531D01*
X72002Y205595D01*
X72029Y205625D01*
X72062Y205648D01*
X72138Y205740D01*
X72220Y205827D01*
X72239Y205862D01*
X72265Y205893D01*
X72316Y206001D01*
X72373Y206105D01*
X72383Y206145D01*
X72401Y206181D01*
X72423Y206298D01*
X72453Y206413D01*
X72456Y206473D01*
X72460Y206493D01*
X72459Y206514D01*
X72463Y206574D01*
X72463Y207108D01*
X73579Y208225D01*
X83158Y208225D01*
X84274Y207108D01*
X84274Y202568D01*
X84275Y202559D01*
X84274Y202550D01*
X84295Y202401D01*
X84314Y202253D01*
X84318Y202244D01*
X84319Y202235D01*
X84371Y202083D01*
X85354Y199709D01*
X85354Y196929D01*
X84371Y194555D01*
X84369Y194546D01*
X84364Y194538D01*
X84327Y194393D01*
X84287Y194249D01*
X84287Y194239D01*
X84285Y194230D01*
X84274Y194070D01*
X84274Y189530D01*
X83158Y188413D01*
X73579Y188413D01*
X72463Y189530D01*
X72463Y190064D01*
X72448Y190182D01*
X72441Y190301D01*
X72428Y190339D01*
X72423Y190380D01*
X72379Y190490D01*
X72343Y190603D01*
X72321Y190638D01*
X72306Y190675D01*
X72236Y190771D01*
X72172Y190872D01*
X72143Y190900D01*
X72119Y190933D01*
X72027Y191008D01*
X71941Y191090D01*
X71905Y191110D01*
X71874Y191135D01*
X71767Y191186D01*
X71662Y191244D01*
X71623Y191254D01*
X71586Y191271D01*
X71470Y191293D01*
X71354Y191323D01*
X71294Y191327D01*
X71274Y191331D01*
X71254Y191329D01*
X71194Y191333D01*
X71012Y191333D01*
X70894Y191318D01*
X70776Y191311D01*
X70737Y191298D01*
X70697Y191293D01*
X70586Y191250D01*
X70473Y191213D01*
X70439Y191191D01*
X70401Y191176D01*
X70305Y191106D01*
X70204Y191043D01*
X70177Y191013D01*
X70144Y190990D01*
X70068Y190898D01*
X69986Y190811D01*
X69967Y190776D01*
X69941Y190745D01*
X69890Y190637D01*
X69833Y190533D01*
X69823Y190493D01*
X69806Y190457D01*
X69783Y190340D01*
X69753Y190225D01*
X69750Y190164D01*
X69746Y190144D01*
X69747Y190124D01*
X69743Y190064D01*
X69743Y185061D01*
X68627Y183944D01*
X49048Y183944D01*
X47872Y185121D01*
X47777Y185194D01*
X47688Y185273D01*
X47652Y185291D01*
X47620Y185316D01*
X47511Y185363D01*
X47405Y185417D01*
X47366Y185426D01*
X47328Y185442D01*
X47211Y185461D01*
X47095Y185487D01*
X47054Y185486D01*
X47014Y185492D01*
X46896Y185481D01*
X46777Y185477D01*
X46738Y185466D01*
X46698Y185462D01*
X46585Y185422D01*
X46471Y185389D01*
X46437Y185368D01*
X46398Y185355D01*
X46300Y185288D01*
X46197Y185227D01*
X46152Y185187D01*
X46135Y185176D01*
X46122Y185161D01*
X46077Y185121D01*
X40600Y179645D01*
X40595Y179637D01*
X40587Y179631D01*
X40497Y179512D01*
X40405Y179393D01*
X40402Y179385D01*
X40396Y179377D01*
X40325Y179233D01*
X39720Y177771D01*
X38129Y176180D01*
X36050Y175319D01*
X35951Y175319D01*
X35814Y175302D01*
X35675Y175289D01*
X35656Y175282D01*
X35636Y175279D01*
X35507Y175228D01*
X35376Y175181D01*
X35359Y175170D01*
X35340Y175162D01*
X35228Y175081D01*
X35112Y175003D01*
X35099Y174987D01*
X35083Y174976D01*
X34994Y174868D01*
X34902Y174764D01*
X34893Y174746D01*
X34880Y174731D01*
X34821Y174605D01*
X34757Y174481D01*
X34753Y174461D01*
X34744Y174443D01*
X34718Y174307D01*
X34688Y174171D01*
X34688Y174150D01*
X34685Y174131D01*
X34693Y173992D01*
X34697Y173853D01*
X34703Y173833D01*
X34704Y173813D01*
X34747Y173681D01*
X34786Y173547D01*
X34796Y173530D01*
X34802Y173511D01*
X34877Y173393D01*
X34947Y173273D01*
X34966Y173252D01*
X34973Y173242D01*
X34988Y173228D01*
X35054Y173153D01*
X42416Y165790D01*
X42495Y165729D01*
X42567Y165661D01*
X42620Y165632D01*
X42668Y165595D01*
X42759Y165556D01*
X42845Y165508D01*
X42904Y165493D01*
X42959Y165469D01*
X43057Y165453D01*
X43153Y165428D01*
X43253Y165422D01*
X43274Y165419D01*
X43286Y165420D01*
X43314Y165418D01*
X109601Y165418D01*
X109719Y165433D01*
X109838Y165441D01*
X109876Y165453D01*
X109917Y165458D01*
X110027Y165502D01*
X110140Y165539D01*
X110175Y165560D01*
X110212Y165575D01*
X110308Y165645D01*
X110409Y165709D01*
X110437Y165738D01*
X110470Y165762D01*
X110546Y165854D01*
X110627Y165940D01*
X110647Y165976D01*
X110672Y166007D01*
X110723Y166115D01*
X110781Y166219D01*
X110791Y166258D01*
X110808Y166295D01*
X110830Y166411D01*
X110860Y166527D01*
X110864Y166587D01*
X110868Y166607D01*
X110866Y166627D01*
X110870Y166688D01*
X110870Y191729D01*
X110858Y191827D01*
X110855Y191926D01*
X110849Y191947D01*
X110848Y191961D01*
X110836Y191997D01*
X110830Y192044D01*
X110794Y192136D01*
X110766Y192231D01*
X110753Y192254D01*
X110750Y192264D01*
X110733Y192291D01*
X110713Y192340D01*
X110655Y192420D01*
X110605Y192505D01*
X110539Y192581D01*
X110527Y192597D01*
X110517Y192605D01*
X110499Y192626D01*
X102051Y201074D01*
X101973Y201134D01*
X101901Y201202D01*
X101848Y201231D01*
X101800Y201268D01*
X101709Y201308D01*
X101622Y201356D01*
X101564Y201371D01*
X101508Y201395D01*
X101410Y201410D01*
X101314Y201435D01*
X101214Y201441D01*
X101194Y201445D01*
X101182Y201443D01*
X101154Y201445D01*
X100619Y201445D01*
X98808Y202196D01*
X97421Y203583D01*
X96670Y205394D01*
X96670Y207356D01*
X97421Y209167D01*
X98808Y210554D01*
X100619Y211305D01*
X102194Y211305D01*
X102325Y211321D01*
X102457Y211332D01*
X102482Y211341D01*
X102509Y211345D01*
X102632Y211393D01*
X102757Y211437D01*
X102780Y211452D01*
X102805Y211462D01*
X102912Y211539D01*
X103022Y211612D01*
X103040Y211632D01*
X103062Y211648D01*
X103147Y211750D01*
X103235Y211848D01*
X103248Y211872D01*
X103265Y211893D01*
X103321Y212013D01*
X103383Y212130D01*
X103389Y212157D01*
X103401Y212181D01*
X103425Y212311D01*
X103456Y212440D01*
X103455Y212467D01*
X103460Y212493D01*
X103452Y212625D01*
X103450Y212758D01*
X103442Y212784D01*
X103441Y212811D01*
X103400Y212936D01*
X103364Y213064D01*
X103347Y213099D01*
X103343Y213113D01*
X103331Y213132D01*
X103293Y213208D01*
X102953Y213797D01*
X102963Y213869D01*
X102962Y213873D01*
X102963Y213878D01*
X102944Y214031D01*
X102927Y214185D01*
X102925Y214189D01*
X102925Y214193D01*
X102875Y214347D01*
X102284Y215854D01*
X102282Y215858D01*
X102281Y215862D01*
X102207Y215997D01*
X102132Y216133D01*
X102129Y216136D01*
X102127Y216140D01*
X102021Y216252D01*
X101968Y216309D01*
X101798Y217055D01*
X101793Y217069D01*
X101792Y217083D01*
X101742Y217236D01*
X101463Y217948D01*
X101484Y218018D01*
X101484Y218022D01*
X101485Y218026D01*
X101490Y218182D01*
X101495Y218335D01*
X101494Y218339D01*
X101494Y218343D01*
X101468Y218502D01*
X101109Y220081D01*
X101107Y220085D01*
X101107Y220089D01*
X101053Y220233D01*
X101000Y220380D01*
X100997Y220383D01*
X100996Y220387D01*
X100908Y220514D01*
X100864Y220578D01*
X100807Y221341D01*
X100804Y221355D01*
X100804Y221370D01*
X100779Y221529D01*
X100609Y222274D01*
X100639Y222340D01*
X100640Y222344D01*
X100642Y222348D01*
X100669Y222500D01*
X100698Y222652D01*
X100697Y222656D01*
X100698Y222661D01*
X100696Y222822D01*
X100576Y224436D01*
X100575Y224440D01*
X100575Y224444D01*
X100543Y224596D01*
X100513Y224748D01*
X100511Y224752D01*
X100510Y224756D01*
X100441Y224895D01*
X100408Y224964D01*
X100465Y225727D01*
X100465Y225741D01*
X100467Y225756D01*
X100465Y225917D01*
X100409Y226679D01*
X100449Y226740D01*
X100450Y226743D01*
X100452Y226747D01*
X100503Y226896D01*
X100553Y227040D01*
X100553Y227044D01*
X100555Y227048D01*
X100577Y227208D01*
X100698Y228822D01*
X100698Y228826D01*
X100699Y228830D01*
X100690Y228983D01*
X100682Y229140D01*
X100681Y229144D01*
X100681Y229148D01*
X100635Y229293D01*
X100611Y229369D01*
X100781Y230115D01*
X100783Y230129D01*
X100788Y230143D01*
X100810Y230303D01*
X100867Y231065D01*
X100916Y231119D01*
X100918Y231122D01*
X100920Y231126D01*
X100992Y231264D01*
X101064Y231400D01*
X101065Y231404D01*
X101067Y231408D01*
X101112Y231562D01*
X101473Y233141D01*
X101473Y233145D01*
X101475Y233149D01*
X101489Y233300D01*
X101505Y233457D01*
X101504Y233461D01*
X101504Y233465D01*
X101480Y233617D01*
X101468Y233695D01*
X101748Y234407D01*
X101751Y234421D01*
X101758Y234434D01*
X101771Y234476D01*
X101775Y234486D01*
X101778Y234502D01*
X101804Y234588D01*
X101974Y235333D01*
X102030Y235379D01*
X102033Y235383D01*
X102036Y235385D01*
X102126Y235510D01*
X102219Y235636D01*
X102220Y235640D01*
X102223Y235643D01*
X102291Y235789D01*
X102883Y237296D01*
X102884Y237300D01*
X102886Y237303D01*
X102922Y237449D01*
X102961Y237604D01*
X102961Y237608D01*
X102962Y237612D01*
X102961Y237765D01*
X102960Y237844D01*
X103343Y238507D01*
X103349Y238520D01*
X103357Y238532D01*
X103426Y238678D01*
X103705Y239389D01*
X103767Y239426D01*
X103770Y239429D01*
X103774Y239431D01*
X103880Y239540D01*
X103992Y239652D01*
X103994Y239655D01*
X103997Y239658D01*
X104086Y239792D01*
X104896Y241194D01*
X104898Y241198D01*
X104900Y241201D01*
X104960Y241346D01*
X105019Y241487D01*
X105020Y241491D01*
X105022Y241495D01*
X105043Y241645D01*
X105055Y241725D01*
X105532Y242323D01*
X105539Y242335D01*
X105550Y242346D01*
X105639Y242480D01*
X106021Y243142D01*
X106088Y243169D01*
X106092Y243172D01*
X106096Y243173D01*
X106219Y243266D01*
X106344Y243359D01*
X106346Y243362D01*
X106350Y243364D01*
X106458Y243483D01*
X107468Y244749D01*
X107470Y244753D01*
X107473Y244756D01*
X107552Y244887D01*
X107634Y245021D01*
X107635Y245025D01*
X107637Y245028D01*
X107681Y245176D01*
X107704Y245250D01*
X108265Y245770D01*
X108274Y245781D01*
X108286Y245790D01*
X108394Y245909D01*
X108871Y246507D01*
X108941Y246524D01*
X108945Y246526D01*
X108949Y246527D01*
X109086Y246601D01*
X109222Y246674D01*
X109225Y246676D01*
X109229Y246678D01*
X109354Y246780D01*
X110541Y247881D01*
X110543Y247884D01*
X110547Y247886D01*
X110645Y248006D01*
X110745Y248125D01*
X110747Y248128D01*
X110749Y248131D01*
X110814Y248268D01*
X110849Y248341D01*
X111481Y248772D01*
X111492Y248782D01*
X111505Y248789D01*
X111630Y248890D01*
X112190Y249410D01*
X112262Y249417D01*
X112266Y249418D01*
X112270Y249418D01*
X112417Y249471D01*
X112562Y249522D01*
X112566Y249525D01*
X112569Y249526D01*
X112708Y249608D01*
X113588Y250208D01*
X113642Y250255D01*
X113702Y250295D01*
X113761Y250360D01*
X113826Y250418D01*
X113867Y250478D01*
X113915Y250531D01*
X113956Y250609D01*
X114005Y250681D01*
X114029Y250749D01*
X114062Y250813D01*
X114083Y250898D01*
X114112Y250981D01*
X114119Y251052D01*
X114135Y251122D01*
X114134Y251210D01*
X114142Y251297D01*
X114131Y251368D01*
X114129Y251440D01*
X114106Y251525D01*
X114092Y251611D01*
X114063Y251677D01*
X114044Y251747D01*
X113972Y251891D01*
X86531Y299423D01*
X86467Y299507D01*
X86410Y299597D01*
X86371Y299634D01*
X86338Y299676D01*
X86256Y299742D01*
X86179Y299815D01*
X86131Y299841D01*
X86089Y299874D01*
X85993Y299917D01*
X85900Y299968D01*
X85848Y299982D01*
X85799Y300003D01*
X85694Y300021D01*
X85592Y300048D01*
X85507Y300053D01*
X85485Y300057D01*
X85470Y300055D01*
X85431Y300058D01*
X-85431Y300058D01*
X-85536Y300045D01*
X-85642Y300040D01*
X-85694Y300025D01*
X-85747Y300018D01*
X-85845Y299979D01*
X-85946Y299949D01*
X-85993Y299921D01*
X-86043Y299901D01*
X-86128Y299839D01*
X-86219Y299784D01*
X-86256Y299746D01*
X-86300Y299714D01*
X-86367Y299633D01*
X-86441Y299557D01*
X-86489Y299486D01*
X-86503Y299469D01*
X-86509Y299455D01*
X-86531Y299423D01*
X-113972Y251891D01*
X-114000Y251825D01*
X-114037Y251763D01*
X-114062Y251679D01*
X-114096Y251598D01*
X-114106Y251527D01*
X-114126Y251458D01*
X-114129Y251370D01*
X-114142Y251283D01*
X-114135Y251212D01*
X-114137Y251140D01*
X-114118Y251054D01*
X-114109Y250967D01*
X-114084Y250899D01*
X-114068Y250829D01*
X-114029Y250751D01*
X-113998Y250669D01*
X-113957Y250610D01*
X-113925Y250546D01*
X-113867Y250480D01*
X-113817Y250408D01*
X-113762Y250361D01*
X-113715Y250306D01*
X-113588Y250208D01*
X-112708Y249608D01*
X-112704Y249606D01*
X-112701Y249603D01*
X-112561Y249533D01*
X-112425Y249463D01*
X-112421Y249462D01*
X-112417Y249461D01*
X-112262Y249427D01*
X-112191Y249411D01*
X-111630Y248890D01*
X-111618Y248882D01*
X-111608Y248871D01*
X-111481Y248772D01*
X-110849Y248342D01*
X-110827Y248273D01*
X-110825Y248269D01*
X-110823Y248265D01*
X-110740Y248135D01*
X-110657Y248004D01*
X-110654Y248001D01*
X-110652Y247998D01*
X-110541Y247881D01*
X-109354Y246780D01*
X-109350Y246778D01*
X-109348Y246774D01*
X-109221Y246685D01*
X-109095Y246595D01*
X-109091Y246593D01*
X-109088Y246591D01*
X-108943Y246536D01*
X-108871Y246508D01*
X-108394Y245909D01*
X-108383Y245899D01*
X-108376Y245887D01*
X-108265Y245770D01*
X-107704Y245251D01*
X-107692Y245179D01*
X-107691Y245175D01*
X-107690Y245171D01*
X-107628Y245032D01*
X-107564Y244888D01*
X-107562Y244885D01*
X-107560Y244881D01*
X-107468Y244749D01*
X-106458Y243484D01*
X-106455Y243481D01*
X-106453Y243477D01*
X-106341Y243369D01*
X-106230Y243262D01*
X-106226Y243260D01*
X-106223Y243257D01*
X-106090Y243182D01*
X-106022Y243142D01*
X-105639Y242480D01*
X-105630Y242468D01*
X-105624Y242455D01*
X-105532Y242323D01*
X-105055Y241725D01*
X-105054Y241653D01*
X-105053Y241649D01*
X-105053Y241645D01*
X-105011Y241494D01*
X-104971Y241346D01*
X-104969Y241342D01*
X-104968Y241338D01*
X-104896Y241194D01*
X-104086Y239792D01*
X-104084Y239789D01*
X-104082Y239785D01*
X-103989Y239664D01*
X-103894Y239539D01*
X-103890Y239536D01*
X-103888Y239533D01*
X-103766Y239438D01*
X-103705Y239390D01*
X-103426Y238678D01*
X-103419Y238665D01*
X-103415Y238651D01*
X-103343Y238507D01*
X-102961Y237845D01*
X-102971Y237773D01*
X-102970Y237769D01*
X-102971Y237765D01*
X-102952Y237612D01*
X-102934Y237457D01*
X-102933Y237453D01*
X-102932Y237449D01*
X-102883Y237296D01*
X-102291Y235789D01*
X-102289Y235785D01*
X-102288Y235781D01*
X-102214Y235647D01*
X-102138Y235510D01*
X-102135Y235507D01*
X-102133Y235503D01*
X-102027Y235390D01*
X-101974Y235334D01*
X-101804Y234588D01*
X-101799Y234575D01*
X-101797Y234560D01*
X-101748Y234407D01*
X-101468Y233695D01*
X-101489Y233626D01*
X-101489Y233622D01*
X-101490Y233618D01*
X-101494Y233463D01*
X-101500Y233308D01*
X-101499Y233304D01*
X-101499Y233300D01*
X-101473Y233141D01*
X-101112Y231562D01*
X-101111Y231558D01*
X-101110Y231554D01*
X-101056Y231408D01*
X-101003Y231264D01*
X-101001Y231260D01*
X-100999Y231256D01*
X-100911Y231129D01*
X-100867Y231066D01*
X-100810Y230303D01*
X-100807Y230288D01*
X-100807Y230274D01*
X-100781Y230115D01*
X-100611Y229370D01*
X-100642Y229304D01*
X-100642Y229300D01*
X-100644Y229296D01*
X-100671Y229144D01*
X-100700Y228991D01*
X-100699Y228987D01*
X-100700Y228983D01*
X-100698Y228822D01*
X-100577Y227208D01*
X-100576Y227204D01*
X-100576Y227199D01*
X-100544Y227045D01*
X-100513Y226896D01*
X-100512Y226892D01*
X-100511Y226888D01*
X-100441Y226747D01*
X-100408Y226680D01*
X-100465Y225917D01*
X-100465Y225902D01*
X-100467Y225888D01*
X-100465Y225727D01*
X-100408Y224965D01*
X-100448Y224904D01*
X-100449Y224900D01*
X-100452Y224897D01*
X-100502Y224748D01*
X-100552Y224604D01*
X-100552Y224600D01*
X-100554Y224596D01*
X-100576Y224436D01*
X-100696Y222822D01*
X-100696Y222818D01*
X-100697Y222813D01*
X-100688Y222656D01*
X-100680Y222504D01*
X-100679Y222500D01*
X-100679Y222496D01*
X-100631Y222347D01*
X-100609Y222275D01*
X-100779Y221529D01*
X-100780Y221514D01*
X-100785Y221500D01*
X-100807Y221341D01*
X-100864Y220579D01*
X-100912Y220525D01*
X-100914Y220521D01*
X-100917Y220518D01*
X-100988Y220380D01*
X-101060Y220243D01*
X-101061Y220239D01*
X-101063Y220235D01*
X-101109Y220081D01*
X-101468Y218502D01*
X-101469Y218498D01*
X-101470Y218494D01*
X-101485Y218339D01*
X-101500Y218186D01*
X-101499Y218182D01*
X-101499Y218178D01*
X-101475Y218026D01*
X-101463Y217949D01*
X-101742Y217236D01*
X-101746Y217222D01*
X-101753Y217209D01*
X-101798Y217055D01*
X-101968Y216309D01*
X-102024Y216263D01*
X-102027Y216260D01*
X-102030Y216257D01*
X-102121Y216132D01*
X-102212Y216007D01*
X-102214Y216003D01*
X-102216Y216000D01*
X-102284Y215854D01*
X-102875Y214347D01*
X-102876Y214343D01*
X-102878Y214339D01*
X-102916Y214187D01*
X-102953Y214038D01*
X-102953Y214034D01*
X-102954Y214030D01*
X-102953Y213875D01*
X-102953Y213761D01*
X-102965Y213716D01*
X-102968Y213708D01*
X-102975Y213694D01*
X-102975Y213691D01*
X-102993Y213648D01*
X-103006Y213563D01*
X-103028Y213480D01*
X-103029Y213410D01*
X-103034Y213382D01*
X-103034Y213373D01*
X-103040Y213334D01*
X-103031Y213248D01*
X-103032Y213162D01*
X-103017Y213102D01*
X-103015Y213065D01*
X-103010Y213050D01*
X-103006Y213017D01*
X-102976Y212937D01*
X-102956Y212853D01*
X-102922Y212779D01*
X-102917Y212762D01*
X-102908Y212749D01*
X-102900Y212730D01*
X-102896Y212719D01*
X-102893Y212715D01*
X-102889Y212706D01*
X-98993Y205457D01*
X-98921Y205355D01*
X-98854Y205249D01*
X-98829Y205226D01*
X-98809Y205198D01*
X-98713Y205117D01*
X-98622Y205031D01*
X-98592Y205015D01*
X-98566Y204993D01*
X-98453Y204938D01*
X-98344Y204878D01*
X-98311Y204869D01*
X-98279Y204854D01*
X-98157Y204830D01*
X-98036Y204798D01*
X-97986Y204795D01*
X-97968Y204792D01*
X-97946Y204793D01*
X-97875Y204788D01*
X-95522Y204788D01*
X-93662Y202928D01*
X-93662Y197450D01*
X-93649Y197352D01*
X-93646Y197253D01*
X-93630Y197195D01*
X-93622Y197135D01*
X-93585Y197043D01*
X-93558Y196948D01*
X-93527Y196895D01*
X-93505Y196839D01*
X-93447Y196759D01*
X-93408Y196693D01*
X-93408Y195381D01*
X-93399Y195308D01*
X-93399Y195235D01*
X-93379Y195151D01*
X-93368Y195065D01*
X-93357Y195037D01*
X-93406Y194032D01*
X-93405Y194015D01*
X-93408Y193970D01*
X-93408Y150617D01*
X-93402Y150567D01*
X-93404Y150518D01*
X-93382Y150410D01*
X-93368Y150301D01*
X-93350Y150255D01*
X-93340Y150206D01*
X-93291Y150108D01*
X-93251Y150005D01*
X-93222Y149965D01*
X-93200Y149921D01*
X-93129Y149837D01*
X-93064Y149748D01*
X-93026Y149716D01*
X-92994Y149679D01*
X-92904Y149615D01*
X-92819Y149545D01*
X-92774Y149524D01*
X-92733Y149495D01*
X-92631Y149456D01*
X-92531Y149410D01*
X-92483Y149400D01*
X-92436Y149383D01*
X-92327Y149371D01*
X-92219Y149350D01*
X-92170Y149353D01*
X-92120Y149347D01*
X-92011Y149363D01*
X-91902Y149370D01*
X-91854Y149385D01*
X-91805Y149392D01*
X-91653Y149444D01*
X-90025Y150118D01*
X-89339Y150118D01*
X-89241Y150131D01*
X-89142Y150134D01*
X-89083Y150150D01*
X-89023Y150158D01*
X-88931Y150195D01*
X-88836Y150222D01*
X-88784Y150253D01*
X-88728Y150275D01*
X-88648Y150333D01*
X-88562Y150384D01*
X-88487Y150450D01*
X-88470Y150462D01*
X-88462Y150471D01*
X-88441Y150490D01*
X-79394Y159538D01*
X-37662Y159538D01*
X-37544Y159553D01*
X-37426Y159560D01*
X-37387Y159573D01*
X-37347Y159578D01*
X-37236Y159621D01*
X-37123Y159658D01*
X-37089Y159680D01*
X-37051Y159695D01*
X-36955Y159764D01*
X-36854Y159828D01*
X-36827Y159858D01*
X-36794Y159881D01*
X-36718Y159973D01*
X-36636Y160060D01*
X-36617Y160095D01*
X-36591Y160126D01*
X-36540Y160234D01*
X-36483Y160338D01*
X-36473Y160378D01*
X-36456Y160414D01*
X-36433Y160531D01*
X-36403Y160646D01*
X-36400Y160706D01*
X-36396Y160726D01*
X-36397Y160747D01*
X-36393Y160807D01*
X-36393Y162889D01*
X-35277Y164006D01*
X-10086Y164006D01*
X-8969Y162889D01*
X-8969Y150106D01*
X-8954Y149988D01*
X-8947Y149869D01*
X-8934Y149831D01*
X-8929Y149790D01*
X-8886Y149680D01*
X-8849Y149567D01*
X-8827Y149532D01*
X-8812Y149495D01*
X-8743Y149399D01*
X-8679Y149298D01*
X-8649Y149270D01*
X-8626Y149237D01*
X-8534Y149161D01*
X-8447Y149080D01*
X-8412Y149060D01*
X-8381Y149035D01*
X-8273Y148984D01*
X-8169Y148926D01*
X-8129Y148916D01*
X-8093Y148899D01*
X-7976Y148877D01*
X-7861Y148847D01*
X-7801Y148843D01*
X-7781Y148839D01*
X-7760Y148841D01*
X-7700Y148837D01*
X-3150Y148837D01*
X3787Y141900D01*
X3882Y141827D01*
X3971Y141748D01*
X4007Y141730D01*
X4039Y141705D01*
X4148Y141658D01*
X4254Y141603D01*
X4293Y141595D01*
X4330Y141579D01*
X4448Y141560D01*
X4564Y141534D01*
X4605Y141535D01*
X4645Y141529D01*
X4763Y141540D01*
G37*
G36*
X86676Y329D02*
X86676Y329D01*
X86754Y337D01*
X86773Y348D01*
X86795Y353D01*
X86859Y397D01*
X86927Y435D01*
X86943Y454D01*
X86959Y465D01*
X86983Y503D01*
X87033Y563D01*
X96533Y17063D01*
X96542Y17091D01*
X96558Y17114D01*
X96573Y17184D01*
X96596Y17252D01*
X96593Y17281D01*
X96599Y17309D01*
X96586Y17379D01*
X96580Y17450D01*
X96567Y17476D01*
X96561Y17504D01*
X96521Y17563D01*
X96488Y17627D01*
X96466Y17645D01*
X96450Y17669D01*
X96367Y17726D01*
X96335Y17753D01*
X96324Y17756D01*
X96314Y17764D01*
X95686Y18060D01*
X113972Y49734D01*
X114000Y49800D01*
X114037Y49862D01*
X114062Y49946D01*
X114096Y50027D01*
X114106Y50098D01*
X114126Y50167D01*
X114129Y50255D01*
X114142Y50342D01*
X114135Y50413D01*
X114137Y50485D01*
X114118Y50571D01*
X114109Y50658D01*
X114084Y50726D01*
X114068Y50796D01*
X114029Y50874D01*
X113998Y50956D01*
X113957Y51015D01*
X113925Y51079D01*
X113867Y51145D01*
X113817Y51217D01*
X113762Y51264D01*
X113715Y51319D01*
X113588Y51417D01*
X112708Y52017D01*
X112704Y52019D01*
X112701Y52022D01*
X112561Y52092D01*
X112425Y52162D01*
X112421Y52163D01*
X112417Y52164D01*
X112262Y52198D01*
X112191Y52214D01*
X111630Y52735D01*
X111618Y52743D01*
X111608Y52754D01*
X111481Y52853D01*
X110849Y53283D01*
X110827Y53352D01*
X110825Y53356D01*
X110823Y53360D01*
X110740Y53490D01*
X110657Y53621D01*
X110654Y53624D01*
X110652Y53627D01*
X110541Y53744D01*
X109354Y54845D01*
X109350Y54847D01*
X109348Y54851D01*
X109221Y54940D01*
X109095Y55030D01*
X109091Y55032D01*
X109088Y55034D01*
X108943Y55089D01*
X108871Y55117D01*
X108394Y55716D01*
X108383Y55726D01*
X108376Y55738D01*
X108265Y55855D01*
X107704Y56374D01*
X107692Y56446D01*
X107691Y56450D01*
X107690Y56454D01*
X107628Y56593D01*
X107564Y56737D01*
X107562Y56740D01*
X107560Y56744D01*
X107468Y56876D01*
X106458Y58142D01*
X106455Y58144D01*
X106453Y58148D01*
X106341Y58255D01*
X106230Y58363D01*
X106226Y58365D01*
X106223Y58368D01*
X106087Y58445D01*
X106022Y58483D01*
X105639Y59145D01*
X105630Y59157D01*
X105624Y59170D01*
X105532Y59302D01*
X105055Y59900D01*
X105054Y59972D01*
X105053Y59976D01*
X105053Y59980D01*
X105011Y60131D01*
X104971Y60279D01*
X104969Y60283D01*
X104968Y60287D01*
X104896Y60431D01*
X104086Y61833D01*
X104084Y61836D01*
X104082Y61840D01*
X103989Y61961D01*
X103894Y62086D01*
X103890Y62089D01*
X103888Y62092D01*
X103766Y62187D01*
X103705Y62235D01*
X103426Y62947D01*
X103419Y62960D01*
X103415Y62974D01*
X103392Y63020D01*
X103389Y63031D01*
X103380Y63044D01*
X103343Y63118D01*
X102961Y63780D01*
X102971Y63852D01*
X102970Y63856D01*
X102971Y63860D01*
X102952Y64013D01*
X102934Y64168D01*
X102933Y64172D01*
X102932Y64176D01*
X102883Y64329D01*
X102291Y65836D01*
X102289Y65840D01*
X102288Y65844D01*
X102214Y65978D01*
X102138Y66115D01*
X102135Y66118D01*
X102133Y66122D01*
X102027Y66235D01*
X101974Y66291D01*
X101804Y67037D01*
X101799Y67050D01*
X101797Y67065D01*
X101748Y67218D01*
X101468Y67930D01*
X101489Y67999D01*
X101489Y68003D01*
X101490Y68007D01*
X101494Y68162D01*
X101500Y68317D01*
X101499Y68321D01*
X101499Y68325D01*
X101473Y68484D01*
X101112Y70063D01*
X101111Y70067D01*
X101110Y70071D01*
X101056Y70216D01*
X101003Y70361D01*
X101001Y70365D01*
X100999Y70369D01*
X100911Y70496D01*
X100867Y70559D01*
X100810Y71322D01*
X100807Y71337D01*
X100807Y71351D01*
X100781Y71510D01*
X100611Y72255D01*
X100642Y72321D01*
X100642Y72325D01*
X100644Y72329D01*
X100671Y72481D01*
X100700Y72634D01*
X100699Y72638D01*
X100700Y72642D01*
X100698Y72803D01*
X100577Y74417D01*
X100576Y74421D01*
X100576Y74426D01*
X100544Y74579D01*
X100513Y74729D01*
X100512Y74733D01*
X100511Y74737D01*
X100443Y74875D01*
X100408Y74945D01*
X100465Y75708D01*
X100465Y75723D01*
X100467Y75737D01*
X100465Y75898D01*
X100408Y76660D01*
X100448Y76721D01*
X100449Y76725D01*
X100452Y76728D01*
X100502Y76876D01*
X100552Y77021D01*
X100552Y77025D01*
X100554Y77029D01*
X100576Y77189D01*
X100696Y78803D01*
X100696Y78808D01*
X100697Y78812D01*
X100688Y78967D01*
X100680Y79121D01*
X100679Y79125D01*
X100679Y79129D01*
X100633Y79273D01*
X100609Y79350D01*
X100779Y80096D01*
X100780Y80111D01*
X100785Y80125D01*
X100807Y80284D01*
X100864Y81046D01*
X100912Y81100D01*
X100914Y81104D01*
X100917Y81107D01*
X100987Y81243D01*
X101060Y81382D01*
X101061Y81386D01*
X101063Y81390D01*
X101109Y81544D01*
X101468Y83123D01*
X101469Y83127D01*
X101470Y83131D01*
X101485Y83287D01*
X101500Y83439D01*
X101499Y83443D01*
X101499Y83447D01*
X101475Y83600D01*
X101463Y83676D01*
X101742Y84389D01*
X101746Y84403D01*
X101753Y84416D01*
X101798Y84570D01*
X102012Y85507D01*
X102020Y85589D01*
X102038Y85669D01*
X102035Y85746D01*
X102043Y85824D01*
X102031Y85905D01*
X102028Y85987D01*
X102007Y86061D01*
X101995Y86138D01*
X101963Y86213D01*
X101940Y86292D01*
X101900Y86359D01*
X101870Y86430D01*
X101820Y86495D01*
X101778Y86566D01*
X101679Y86679D01*
X101676Y86683D01*
X101674Y86684D01*
X101672Y86687D01*
X94615Y93744D01*
X94611Y93773D01*
X94608Y93872D01*
X94591Y93931D01*
X94584Y93991D01*
X94547Y94083D01*
X94520Y94178D01*
X94489Y94230D01*
X94467Y94286D01*
X94409Y94366D01*
X94358Y94452D01*
X94292Y94527D01*
X94280Y94544D01*
X94271Y94552D01*
X94252Y94573D01*
X69528Y119297D01*
X69449Y119358D01*
X69377Y119426D01*
X69324Y119455D01*
X69276Y119492D01*
X69185Y119531D01*
X69099Y119579D01*
X69040Y119594D01*
X68984Y119618D01*
X68887Y119634D01*
X68791Y119659D01*
X68691Y119665D01*
X68670Y119668D01*
X68658Y119667D01*
X68630Y119669D01*
X58057Y119669D01*
X58007Y119663D01*
X57958Y119665D01*
X57850Y119643D01*
X57741Y119629D01*
X57695Y119611D01*
X57646Y119601D01*
X57548Y119552D01*
X57445Y119512D01*
X57405Y119483D01*
X57361Y119461D01*
X57277Y119390D01*
X57188Y119325D01*
X57156Y119287D01*
X57119Y119255D01*
X57055Y119165D01*
X56985Y119080D01*
X56964Y119035D01*
X56936Y118994D01*
X56897Y118892D01*
X56850Y118792D01*
X56840Y118744D01*
X56823Y118697D01*
X56811Y118588D01*
X56790Y118480D01*
X56793Y118431D01*
X56788Y118381D01*
X56803Y118272D01*
X56810Y118163D01*
X56825Y118115D01*
X56832Y118066D01*
X56884Y117914D01*
X57317Y116868D01*
X57317Y114907D01*
X56567Y113095D01*
X55180Y111708D01*
X53368Y110958D01*
X51407Y110958D01*
X49595Y111708D01*
X48208Y113095D01*
X47930Y113766D01*
X47920Y113785D01*
X47915Y113801D01*
X47911Y113806D01*
X47907Y113819D01*
X47837Y113929D01*
X47773Y114042D01*
X47752Y114063D01*
X47737Y114088D01*
X47642Y114177D01*
X47552Y114270D01*
X47526Y114286D01*
X47505Y114306D01*
X47391Y114369D01*
X47281Y114437D01*
X47252Y114445D01*
X47226Y114460D01*
X47101Y114492D01*
X46977Y114530D01*
X46947Y114532D01*
X46919Y114539D01*
X46758Y114549D01*
X42700Y114549D01*
X42582Y114534D01*
X42463Y114527D01*
X42425Y114514D01*
X42384Y114509D01*
X42274Y114466D01*
X42161Y114429D01*
X42126Y114407D01*
X42089Y114392D01*
X41993Y114323D01*
X41892Y114259D01*
X41864Y114229D01*
X41831Y114206D01*
X41755Y114114D01*
X41674Y114027D01*
X41654Y113992D01*
X41629Y113961D01*
X41578Y113853D01*
X41520Y113749D01*
X41510Y113709D01*
X41493Y113673D01*
X41471Y113556D01*
X41441Y113441D01*
X41437Y113381D01*
X41433Y113361D01*
X41434Y113346D01*
X41433Y113342D01*
X41434Y113331D01*
X41431Y113280D01*
X41431Y104004D01*
X41448Y103866D01*
X41461Y103728D01*
X41468Y103708D01*
X41471Y103688D01*
X41522Y103559D01*
X41569Y103428D01*
X41580Y103411D01*
X41588Y103393D01*
X41669Y103280D01*
X41747Y103165D01*
X41763Y103152D01*
X41774Y103135D01*
X41882Y103046D01*
X41986Y102955D01*
X42004Y102945D01*
X42019Y102932D01*
X42145Y102873D01*
X42269Y102810D01*
X42289Y102806D01*
X42307Y102797D01*
X42443Y102771D01*
X42579Y102740D01*
X42600Y102741D01*
X42619Y102737D01*
X42758Y102746D01*
X42897Y102750D01*
X42917Y102756D01*
X42937Y102757D01*
X43069Y102800D01*
X43203Y102838D01*
X43220Y102849D01*
X43239Y102855D01*
X43357Y102930D01*
X43477Y103000D01*
X43498Y103019D01*
X43508Y103025D01*
X43522Y103040D01*
X43597Y103106D01*
X48442Y107951D01*
X56333Y107951D01*
X61913Y102371D01*
X61913Y94479D01*
X58031Y90597D01*
X57946Y90488D01*
X57857Y90381D01*
X57849Y90362D01*
X57836Y90346D01*
X57781Y90218D01*
X57722Y90093D01*
X57718Y90073D01*
X57710Y90054D01*
X57688Y89916D01*
X57662Y89780D01*
X57663Y89760D01*
X57660Y89740D01*
X57673Y89601D01*
X57682Y89463D01*
X57688Y89444D01*
X57690Y89424D01*
X57737Y89292D01*
X57780Y89161D01*
X57791Y89143D01*
X57798Y89124D01*
X57876Y89009D01*
X57950Y88892D01*
X57965Y88878D01*
X57976Y88861D01*
X58081Y88769D01*
X58182Y88674D01*
X58199Y88664D01*
X58215Y88651D01*
X58339Y88587D01*
X58460Y88520D01*
X58480Y88515D01*
X58498Y88506D01*
X58634Y88476D01*
X58768Y88441D01*
X58796Y88439D01*
X58808Y88436D01*
X58829Y88437D01*
X58929Y88431D01*
X63439Y88431D01*
X64556Y87314D01*
X64556Y75736D01*
X63439Y74619D01*
X52606Y74619D01*
X52488Y74604D01*
X52369Y74597D01*
X52331Y74584D01*
X52290Y74579D01*
X52180Y74536D01*
X52067Y74499D01*
X52032Y74477D01*
X51995Y74462D01*
X51899Y74393D01*
X51798Y74329D01*
X51770Y74299D01*
X51737Y74276D01*
X51661Y74184D01*
X51580Y74097D01*
X51560Y74062D01*
X51535Y74031D01*
X51484Y73923D01*
X51426Y73819D01*
X51416Y73779D01*
X51399Y73743D01*
X51377Y73626D01*
X51347Y73511D01*
X51343Y73451D01*
X51339Y73431D01*
X51341Y73410D01*
X51337Y73350D01*
X51337Y72700D01*
X51352Y72582D01*
X51359Y72463D01*
X51372Y72425D01*
X51377Y72384D01*
X51420Y72274D01*
X51457Y72161D01*
X51479Y72126D01*
X51494Y72089D01*
X51563Y71993D01*
X51627Y71892D01*
X51657Y71864D01*
X51680Y71831D01*
X51772Y71755D01*
X51859Y71674D01*
X51894Y71654D01*
X51925Y71629D01*
X52033Y71578D01*
X52137Y71520D01*
X52177Y71510D01*
X52213Y71493D01*
X52330Y71471D01*
X52445Y71441D01*
X52505Y71437D01*
X52525Y71433D01*
X52546Y71435D01*
X52606Y71431D01*
X63439Y71431D01*
X64556Y70314D01*
X64556Y58736D01*
X63439Y57619D01*
X50861Y57619D01*
X49744Y58736D01*
X49744Y59796D01*
X49732Y59894D01*
X49729Y59993D01*
X49712Y60051D01*
X49704Y60111D01*
X49668Y60203D01*
X49640Y60299D01*
X49610Y60351D01*
X49587Y60407D01*
X49529Y60487D01*
X49479Y60572D01*
X49413Y60648D01*
X49401Y60664D01*
X49391Y60672D01*
X49388Y60675D01*
X48954Y61725D01*
X48943Y61744D01*
X48937Y61761D01*
X48924Y61782D01*
X48912Y61815D01*
X48851Y61906D01*
X48796Y62001D01*
X48762Y62037D01*
X48734Y62078D01*
X48651Y62151D01*
X48575Y62229D01*
X48533Y62255D01*
X48495Y62288D01*
X48397Y62338D01*
X48304Y62396D01*
X48256Y62410D01*
X48212Y62433D01*
X48105Y62457D01*
X48000Y62489D01*
X47950Y62492D01*
X47902Y62502D01*
X47792Y62499D01*
X47682Y62504D01*
X47634Y62494D01*
X47584Y62493D01*
X47478Y62462D01*
X47371Y62440D01*
X47326Y62418D01*
X47278Y62404D01*
X47184Y62349D01*
X47162Y62338D01*
X47153Y62334D01*
X47149Y62332D01*
X47085Y62300D01*
X47047Y62268D01*
X47004Y62243D01*
X46899Y62150D01*
X46896Y62147D01*
X46894Y62146D01*
X46884Y62136D01*
X31358Y46611D01*
X31298Y46533D01*
X31230Y46461D01*
X31201Y46408D01*
X31164Y46360D01*
X31124Y46269D01*
X31076Y46182D01*
X31061Y46124D01*
X31037Y46068D01*
X31022Y45970D01*
X30997Y45874D01*
X30991Y45774D01*
X30987Y45754D01*
X30989Y45742D01*
X30987Y45714D01*
X30987Y28688D01*
X30966Y28640D01*
X30950Y28542D01*
X30926Y28446D01*
X30919Y28346D01*
X30916Y28326D01*
X30917Y28313D01*
X30915Y28285D01*
X30915Y25533D01*
X30928Y25435D01*
X30931Y25336D01*
X30948Y25278D01*
X30955Y25218D01*
X30992Y25126D01*
X31019Y25031D01*
X31050Y24978D01*
X31072Y24922D01*
X31130Y24842D01*
X31181Y24757D01*
X31247Y24681D01*
X31259Y24665D01*
X31269Y24657D01*
X31287Y24636D01*
X31665Y24258D01*
X32415Y22446D01*
X32415Y20485D01*
X31665Y18673D01*
X30278Y17286D01*
X28466Y16536D01*
X27199Y16536D01*
X27162Y16531D01*
X27124Y16534D01*
X27004Y16511D01*
X26883Y16496D01*
X26848Y16482D01*
X26811Y16475D01*
X26701Y16424D01*
X26588Y16379D01*
X26557Y16357D01*
X26523Y16341D01*
X26429Y16264D01*
X26330Y16192D01*
X26306Y16163D01*
X26277Y16139D01*
X26205Y16041D01*
X26128Y15947D01*
X26111Y15913D01*
X26089Y15882D01*
X26044Y15770D01*
X25992Y15659D01*
X25985Y15622D01*
X25971Y15587D01*
X25955Y15466D01*
X25932Y15347D01*
X25935Y15309D01*
X25930Y15272D01*
X25945Y15151D01*
X25952Y15030D01*
X25964Y14994D01*
X25968Y14956D01*
X26017Y14803D01*
X26465Y13663D01*
X26472Y13650D01*
X26476Y13636D01*
X26547Y13492D01*
X26930Y12830D01*
X26920Y12758D01*
X26920Y12754D01*
X26920Y12750D01*
X26938Y12595D01*
X26956Y12442D01*
X26958Y12438D01*
X26958Y12434D01*
X27007Y12281D01*
X27598Y10775D01*
X27600Y10772D01*
X27601Y10768D01*
X27678Y10630D01*
X27750Y10496D01*
X27753Y10493D01*
X27755Y10490D01*
X27863Y10376D01*
X27914Y10321D01*
X28085Y9575D01*
X28090Y9561D01*
X28091Y9547D01*
X28140Y9394D01*
X28420Y8682D01*
X28399Y8612D01*
X28399Y8608D01*
X28398Y8604D01*
X28394Y8450D01*
X28388Y8294D01*
X28389Y8290D01*
X28389Y8286D01*
X28415Y8127D01*
X28775Y6551D01*
X28776Y6547D01*
X28777Y6543D01*
X28830Y6399D01*
X28884Y6252D01*
X28886Y6249D01*
X28888Y6245D01*
X28976Y6117D01*
X29020Y6054D01*
X29077Y5291D01*
X29080Y5277D01*
X29079Y5262D01*
X29097Y5152D01*
X29098Y5138D01*
X29101Y5130D01*
X29105Y5104D01*
X29275Y4358D01*
X29245Y4292D01*
X29244Y4288D01*
X29242Y4285D01*
X29214Y4128D01*
X29186Y3980D01*
X29187Y3976D01*
X29186Y3972D01*
X29188Y3811D01*
X29268Y2742D01*
X29282Y2671D01*
X29287Y2600D01*
X29314Y2516D01*
X29331Y2430D01*
X29363Y2365D01*
X29385Y2297D01*
X29432Y2223D01*
X29470Y2144D01*
X29516Y2089D01*
X29555Y2028D01*
X29619Y1968D01*
X29676Y1901D01*
X29734Y1860D01*
X29786Y1810D01*
X29863Y1768D01*
X29935Y1717D01*
X30002Y1692D01*
X30065Y1657D01*
X30150Y1635D01*
X30232Y1604D01*
X30303Y1595D01*
X30373Y1577D01*
X30534Y1567D01*
X67159Y1567D01*
X67102Y852D01*
X67106Y824D01*
X67101Y796D01*
X67118Y726D01*
X67126Y655D01*
X67141Y630D01*
X67147Y603D01*
X67190Y545D01*
X67226Y482D01*
X67248Y465D01*
X67265Y442D01*
X67327Y406D01*
X67384Y362D01*
X67412Y355D01*
X67436Y341D01*
X67536Y324D01*
X67577Y314D01*
X67587Y315D01*
X67600Y313D01*
X86600Y313D01*
X86676Y329D01*
G37*
G36*
X-90688Y69328D02*
X-90688Y69328D01*
X-90589Y69331D01*
X-90531Y69348D01*
X-90471Y69356D01*
X-90379Y69392D01*
X-90284Y69420D01*
X-90232Y69450D01*
X-90175Y69473D01*
X-90095Y69531D01*
X-90010Y69581D01*
X-89935Y69647D01*
X-89918Y69659D01*
X-89910Y69669D01*
X-89889Y69687D01*
X-60968Y98609D01*
X-60882Y98719D01*
X-60794Y98826D01*
X-60785Y98844D01*
X-60773Y98860D01*
X-60717Y98988D01*
X-60658Y99114D01*
X-60654Y99133D01*
X-60646Y99152D01*
X-60624Y99290D01*
X-60598Y99426D01*
X-60600Y99446D01*
X-60596Y99466D01*
X-60609Y99605D01*
X-60618Y99743D01*
X-60624Y99763D01*
X-60626Y99783D01*
X-60673Y99914D01*
X-60716Y100046D01*
X-60727Y100063D01*
X-60734Y100082D01*
X-60812Y100197D01*
X-60886Y100315D01*
X-60901Y100329D01*
X-60912Y100345D01*
X-61016Y100437D01*
X-61118Y100533D01*
X-61136Y100542D01*
X-61151Y100556D01*
X-61274Y100619D01*
X-61396Y100686D01*
X-61416Y100691D01*
X-61434Y100700D01*
X-61570Y100731D01*
X-61704Y100766D01*
X-61732Y100767D01*
X-61744Y100770D01*
X-61765Y100769D01*
X-61865Y100776D01*
X-80655Y100776D01*
X-106616Y126737D01*
X-106616Y187566D01*
X-106629Y187664D01*
X-106632Y187763D01*
X-106649Y187821D01*
X-106656Y187881D01*
X-106693Y187973D01*
X-106720Y188068D01*
X-106751Y188121D01*
X-106773Y188177D01*
X-106831Y188257D01*
X-106882Y188342D01*
X-106948Y188418D01*
X-106960Y188434D01*
X-106970Y188442D01*
X-106988Y188463D01*
X-110673Y192148D01*
X-110751Y192209D01*
X-110823Y192277D01*
X-110876Y192306D01*
X-110924Y192343D01*
X-111015Y192382D01*
X-111102Y192430D01*
X-111161Y192445D01*
X-111216Y192469D01*
X-111314Y192485D01*
X-111410Y192510D01*
X-111510Y192516D01*
X-111530Y192519D01*
X-111543Y192518D01*
X-111571Y192520D01*
X-112105Y192520D01*
X-113917Y193270D01*
X-115303Y194657D01*
X-116054Y196469D01*
X-116054Y197889D01*
X-116065Y197974D01*
X-116065Y198060D01*
X-116084Y198131D01*
X-116094Y198205D01*
X-116125Y198285D01*
X-116147Y198367D01*
X-116184Y198432D01*
X-116211Y198501D01*
X-116261Y198570D01*
X-116303Y198645D01*
X-116354Y198698D01*
X-116398Y198758D01*
X-116464Y198813D01*
X-116523Y198874D01*
X-116586Y198914D01*
X-116643Y198961D01*
X-116720Y198997D01*
X-116793Y199043D01*
X-116863Y199065D01*
X-116930Y199096D01*
X-117014Y199112D01*
X-117096Y199138D01*
X-117170Y199142D01*
X-117243Y199156D01*
X-117328Y199151D01*
X-117414Y199155D01*
X-117486Y199141D01*
X-117560Y199136D01*
X-117593Y199126D01*
X-117595Y199125D01*
X-117615Y199119D01*
X-117641Y199110D01*
X-117725Y199093D01*
X-117852Y199042D01*
X-117863Y199038D01*
X-117866Y199036D01*
X-117875Y199033D01*
X-117889Y199026D01*
X-117892Y199024D01*
X-117896Y199022D01*
X-118027Y198936D01*
X-118156Y198853D01*
X-118158Y198850D01*
X-118162Y198848D01*
X-118266Y198733D01*
X-118318Y198677D01*
X-119049Y198451D01*
X-119062Y198445D01*
X-119077Y198442D01*
X-119226Y198381D01*
X-119915Y198049D01*
X-119985Y198065D01*
X-119990Y198064D01*
X-119994Y198065D01*
X-120151Y198058D01*
X-120303Y198052D01*
X-120307Y198051D01*
X-120311Y198050D01*
X-120468Y198013D01*
X-122015Y197535D01*
X-122019Y197533D01*
X-122023Y197532D01*
X-122166Y197467D01*
X-122305Y197404D01*
X-122308Y197401D01*
X-122312Y197399D01*
X-122432Y197302D01*
X-122492Y197253D01*
X-123248Y197139D01*
X-123262Y197135D01*
X-123277Y197135D01*
X-123433Y197097D01*
X-124164Y196871D01*
X-124232Y196897D01*
X-124236Y196897D01*
X-124240Y196899D01*
X-124396Y196915D01*
X-124548Y196931D01*
X-124552Y196931D01*
X-124556Y196931D01*
X-124717Y196917D01*
X-126317Y196676D01*
X-126321Y196674D01*
X-126326Y196674D01*
X-126474Y196631D01*
X-126624Y196589D01*
X-126627Y196587D01*
X-126631Y196586D01*
X-126764Y196508D01*
X-126831Y196468D01*
X-127596Y196468D01*
X-127611Y196466D01*
X-127625Y196468D01*
X-127786Y196454D01*
X-128541Y196340D01*
X-128605Y196375D01*
X-128609Y196376D01*
X-128612Y196378D01*
X-128763Y196417D01*
X-128912Y196456D01*
X-128916Y196456D01*
X-128920Y196457D01*
X-129081Y196468D01*
X-130700Y196467D01*
X-130704Y196467D01*
X-130708Y196467D01*
X-130861Y196447D01*
X-131016Y196427D01*
X-131020Y196426D01*
X-131024Y196425D01*
X-131168Y196367D01*
X-131239Y196339D01*
X-131996Y196452D01*
X-132010Y196453D01*
X-132024Y196456D01*
X-132185Y196467D01*
X-132949Y196466D01*
X-133007Y196511D01*
X-133011Y196512D01*
X-133014Y196515D01*
X-133154Y196575D01*
X-133299Y196637D01*
X-133303Y196638D01*
X-133306Y196639D01*
X-133464Y196673D01*
X-135065Y196914D01*
X-135069Y196914D01*
X-135073Y196915D01*
X-135229Y196918D01*
X-135383Y196922D01*
X-135387Y196921D01*
X-135391Y196921D01*
X-135544Y196884D01*
X-135617Y196867D01*
X-136348Y197093D01*
X-136362Y197095D01*
X-136376Y197101D01*
X-136533Y197135D01*
X-137289Y197249D01*
X-137339Y197301D01*
X-137343Y197303D01*
X-137346Y197306D01*
X-137476Y197386D01*
X-137609Y197469D01*
X-137613Y197471D01*
X-137616Y197473D01*
X-137767Y197530D01*
X-139314Y198007D01*
X-139318Y198007D01*
X-139322Y198009D01*
X-139477Y198035D01*
X-139628Y198061D01*
X-139632Y198061D01*
X-139636Y198062D01*
X-139793Y198049D01*
X-139867Y198043D01*
X-140557Y198375D01*
X-140570Y198379D01*
X-140583Y198387D01*
X-140733Y198444D01*
X-141464Y198669D01*
X-141505Y198728D01*
X-141509Y198731D01*
X-141511Y198734D01*
X-141628Y198833D01*
X-141747Y198935D01*
X-141751Y198937D01*
X-141754Y198939D01*
X-141894Y199018D01*
X-142871Y199488D01*
X-142939Y199511D01*
X-143003Y199543D01*
X-143089Y199561D01*
X-143172Y199589D01*
X-143244Y199594D01*
X-143314Y199609D01*
X-143402Y199606D01*
X-143490Y199612D01*
X-143560Y199599D01*
X-143632Y199596D01*
X-143716Y199571D01*
X-143803Y199555D01*
X-143868Y199525D01*
X-143936Y199504D01*
X-144012Y199459D01*
X-144091Y199422D01*
X-144147Y199377D01*
X-144208Y199340D01*
X-144270Y199277D01*
X-144338Y199222D01*
X-144381Y199164D01*
X-144431Y199113D01*
X-144520Y198979D01*
X-162808Y167303D01*
X-163416Y167723D01*
X-163443Y167735D01*
X-163465Y167753D01*
X-163534Y167774D01*
X-163599Y167801D01*
X-163628Y167802D01*
X-163656Y167810D01*
X-163727Y167802D01*
X-163798Y167802D01*
X-163825Y167791D01*
X-163854Y167788D01*
X-163916Y167753D01*
X-163981Y167725D01*
X-164002Y167704D01*
X-164027Y167690D01*
X-164090Y167613D01*
X-164120Y167582D01*
X-164124Y167572D01*
X-164133Y167562D01*
X-173633Y151062D01*
X-173657Y150989D01*
X-173688Y150918D01*
X-173688Y150895D01*
X-173696Y150873D01*
X-173690Y150796D01*
X-173691Y150719D01*
X-173681Y150695D01*
X-173680Y150675D01*
X-173659Y150635D01*
X-173640Y150583D01*
X-173639Y150578D01*
X-173637Y150576D01*
X-173633Y150563D01*
X-164133Y134063D01*
X-164114Y134042D01*
X-164101Y134015D01*
X-164048Y133968D01*
X-164001Y133914D01*
X-163975Y133902D01*
X-163954Y133882D01*
X-163886Y133859D01*
X-163822Y133828D01*
X-163793Y133827D01*
X-163766Y133818D01*
X-163694Y133822D01*
X-163623Y133819D01*
X-163596Y133829D01*
X-163567Y133831D01*
X-163477Y133874D01*
X-163437Y133888D01*
X-163429Y133896D01*
X-163416Y133902D01*
X-162808Y134322D01*
X-144520Y102646D01*
X-144477Y102589D01*
X-144442Y102526D01*
X-144381Y102463D01*
X-144328Y102393D01*
X-144272Y102348D01*
X-144223Y102296D01*
X-144148Y102250D01*
X-144079Y102195D01*
X-144013Y102166D01*
X-143953Y102128D01*
X-143869Y102101D01*
X-143788Y102066D01*
X-143718Y102054D01*
X-143650Y102032D01*
X-143562Y102027D01*
X-143475Y102012D01*
X-143403Y102018D01*
X-143332Y102014D01*
X-143246Y102032D01*
X-143158Y102039D01*
X-143090Y102062D01*
X-143020Y102076D01*
X-142871Y102137D01*
X-141894Y102607D01*
X-141891Y102609D01*
X-141887Y102610D01*
X-141756Y102696D01*
X-141627Y102779D01*
X-141625Y102782D01*
X-141621Y102785D01*
X-141517Y102899D01*
X-141464Y102956D01*
X-140733Y103181D01*
X-140720Y103187D01*
X-140706Y103190D01*
X-140557Y103250D01*
X-139868Y103582D01*
X-139797Y103567D01*
X-139793Y103567D01*
X-139789Y103566D01*
X-139635Y103573D01*
X-139479Y103579D01*
X-139475Y103581D01*
X-139471Y103581D01*
X-139314Y103618D01*
X-137767Y104095D01*
X-137763Y104097D01*
X-137759Y104098D01*
X-137619Y104162D01*
X-137477Y104226D01*
X-137474Y104229D01*
X-137470Y104230D01*
X-137350Y104328D01*
X-137290Y104376D01*
X-136533Y104490D01*
X-136519Y104494D01*
X-136505Y104495D01*
X-136348Y104532D01*
X-135617Y104757D01*
X-135550Y104732D01*
X-135546Y104731D01*
X-135542Y104730D01*
X-135386Y104714D01*
X-135234Y104697D01*
X-135229Y104698D01*
X-135225Y104697D01*
X-135065Y104711D01*
X-133464Y104952D01*
X-133460Y104953D01*
X-133456Y104953D01*
X-133307Y104996D01*
X-133158Y105038D01*
X-133154Y105040D01*
X-133150Y105041D01*
X-133014Y105121D01*
X-132950Y105159D01*
X-132541Y105159D01*
X-132403Y105176D01*
X-132264Y105189D01*
X-132245Y105196D01*
X-132225Y105198D01*
X-132096Y105249D01*
X-131965Y105297D01*
X-131948Y105308D01*
X-131929Y105315D01*
X-131817Y105397D01*
X-131701Y105475D01*
X-131688Y105490D01*
X-131672Y105502D01*
X-131583Y105609D01*
X-131491Y105714D01*
X-131482Y105731D01*
X-131469Y105747D01*
X-131410Y105872D01*
X-131346Y105997D01*
X-131342Y106017D01*
X-131333Y106035D01*
X-131307Y106171D01*
X-131277Y106307D01*
X-131277Y106327D01*
X-131274Y106347D01*
X-131282Y106486D01*
X-131286Y106625D01*
X-131292Y106644D01*
X-131293Y106664D01*
X-131336Y106797D01*
X-131375Y106931D01*
X-131385Y106948D01*
X-131391Y106967D01*
X-131466Y107085D01*
X-131536Y107204D01*
X-131555Y107225D01*
X-131561Y107236D01*
X-131576Y107250D01*
X-131643Y107325D01*
X-132061Y107743D01*
X-132970Y109938D01*
X-132970Y112312D01*
X-132061Y114507D01*
X-130382Y116186D01*
X-128187Y117095D01*
X-116638Y117095D01*
X-114444Y116186D01*
X-93364Y95106D01*
X-92455Y92912D01*
X-92455Y87713D01*
X-93364Y85518D01*
X-95043Y83839D01*
X-97238Y82930D01*
X-99680Y82930D01*
X-99707Y82927D01*
X-99734Y82929D01*
X-99864Y82907D01*
X-99995Y82890D01*
X-100021Y82880D01*
X-100048Y82876D01*
X-100169Y82822D01*
X-100291Y82773D01*
X-100313Y82757D01*
X-100338Y82746D01*
X-100442Y82664D01*
X-100548Y82587D01*
X-100566Y82565D01*
X-100587Y82548D01*
X-100667Y82443D01*
X-100751Y82342D01*
X-100763Y82317D01*
X-100779Y82295D01*
X-100830Y82173D01*
X-100886Y82054D01*
X-100892Y82027D01*
X-100902Y82001D01*
X-100922Y81871D01*
X-100946Y81742D01*
X-100945Y81714D01*
X-100949Y81687D01*
X-100935Y81555D01*
X-100926Y81424D01*
X-100918Y81398D01*
X-100915Y81370D01*
X-100881Y81279D01*
X-100807Y80284D01*
X-100804Y80270D01*
X-100804Y80255D01*
X-100779Y80096D01*
X-100609Y79351D01*
X-100639Y79285D01*
X-100640Y79281D01*
X-100642Y79277D01*
X-100670Y79121D01*
X-100698Y78973D01*
X-100697Y78968D01*
X-100698Y78964D01*
X-100696Y78803D01*
X-100576Y77189D01*
X-100575Y77185D01*
X-100575Y77181D01*
X-100543Y77028D01*
X-100513Y76877D01*
X-100511Y76873D01*
X-100510Y76869D01*
X-100441Y76728D01*
X-100408Y76661D01*
X-100465Y75898D01*
X-100465Y75884D01*
X-100467Y75869D01*
X-100465Y75708D01*
X-100409Y74946D01*
X-100449Y74885D01*
X-100450Y74881D01*
X-100452Y74878D01*
X-100503Y74730D01*
X-100553Y74585D01*
X-100553Y74581D01*
X-100555Y74577D01*
X-100577Y74417D01*
X-100698Y72803D01*
X-100698Y72799D01*
X-100699Y72795D01*
X-100690Y72637D01*
X-100682Y72485D01*
X-100681Y72481D01*
X-100681Y72477D01*
X-100634Y72329D01*
X-100611Y72256D01*
X-100725Y71756D01*
X-100728Y71723D01*
X-100738Y71692D01*
X-100744Y71566D01*
X-100757Y71440D01*
X-100752Y71407D01*
X-100753Y71374D01*
X-100728Y71251D01*
X-100708Y71125D01*
X-100696Y71095D01*
X-100689Y71063D01*
X-100633Y70949D01*
X-100584Y70833D01*
X-100564Y70807D01*
X-100549Y70777D01*
X-100467Y70681D01*
X-100390Y70580D01*
X-100364Y70560D01*
X-100343Y70535D01*
X-100240Y70462D01*
X-100140Y70384D01*
X-100110Y70371D01*
X-100083Y70352D01*
X-99965Y70307D01*
X-99849Y70256D01*
X-99816Y70251D01*
X-99785Y70239D01*
X-99659Y70225D01*
X-99535Y70205D01*
X-99502Y70208D01*
X-99469Y70204D01*
X-99344Y70222D01*
X-99218Y70233D01*
X-99187Y70244D01*
X-99154Y70248D01*
X-99002Y70301D01*
X-97758Y70816D01*
X-95797Y70816D01*
X-93985Y70065D01*
X-93607Y69687D01*
X-93529Y69627D01*
X-93457Y69559D01*
X-93404Y69530D01*
X-93356Y69493D01*
X-93265Y69453D01*
X-93179Y69405D01*
X-93120Y69390D01*
X-93064Y69366D01*
X-92966Y69351D01*
X-92871Y69326D01*
X-92771Y69320D01*
X-92750Y69316D01*
X-92738Y69318D01*
X-92710Y69316D01*
X-90787Y69316D01*
X-90688Y69328D01*
G37*
G36*
X-67572Y319D02*
X-67572Y319D01*
X-67544Y316D01*
X-67476Y339D01*
X-67405Y353D01*
X-67382Y369D01*
X-67355Y378D01*
X-67300Y425D01*
X-67241Y465D01*
X-67226Y489D01*
X-67205Y508D01*
X-67173Y572D01*
X-67134Y633D01*
X-67129Y661D01*
X-67117Y686D01*
X-67108Y788D01*
X-67101Y829D01*
X-67103Y839D01*
X-67102Y852D01*
X-67159Y1567D01*
X-30534Y1567D01*
X-30462Y1576D01*
X-30391Y1575D01*
X-30305Y1596D01*
X-30218Y1607D01*
X-30151Y1633D01*
X-30082Y1650D01*
X-30004Y1692D01*
X-29922Y1724D01*
X-29864Y1766D01*
X-29801Y1800D01*
X-29736Y1859D01*
X-29665Y1911D01*
X-29619Y1966D01*
X-29566Y2015D01*
X-29518Y2088D01*
X-29462Y2156D01*
X-29432Y2221D01*
X-29392Y2281D01*
X-29364Y2364D01*
X-29327Y2444D01*
X-29313Y2514D01*
X-29290Y2582D01*
X-29268Y2742D01*
X-29188Y3810D01*
X-29188Y3815D01*
X-29187Y3819D01*
X-29196Y3974D01*
X-29204Y4128D01*
X-29205Y4132D01*
X-29205Y4136D01*
X-29251Y4281D01*
X-29275Y4358D01*
X-29105Y5104D01*
X-29104Y5118D01*
X-29099Y5132D01*
X-29077Y5291D01*
X-29020Y6053D01*
X-28971Y6107D01*
X-28969Y6111D01*
X-28966Y6114D01*
X-28895Y6253D01*
X-28823Y6389D01*
X-28822Y6393D01*
X-28820Y6397D01*
X-28775Y6551D01*
X-28415Y8127D01*
X-28415Y8131D01*
X-28413Y8135D01*
X-28399Y8286D01*
X-28384Y8444D01*
X-28384Y8448D01*
X-28384Y8452D01*
X-28408Y8606D01*
X-28420Y8681D01*
X-28140Y9394D01*
X-28137Y9408D01*
X-28130Y9420D01*
X-28085Y9575D01*
X-27914Y10320D01*
X-27858Y10366D01*
X-27856Y10369D01*
X-27853Y10372D01*
X-27763Y10496D01*
X-27670Y10622D01*
X-27669Y10626D01*
X-27666Y10630D01*
X-27598Y10775D01*
X-27007Y12281D01*
X-27006Y12285D01*
X-27004Y12288D01*
X-26967Y12440D01*
X-26929Y12589D01*
X-26929Y12593D01*
X-26928Y12597D01*
X-26930Y12752D01*
X-26930Y12829D01*
X-26547Y13492D01*
X-26542Y13505D01*
X-26533Y13517D01*
X-26465Y13663D01*
X-26186Y14374D01*
X-26123Y14412D01*
X-26120Y14414D01*
X-26117Y14417D01*
X-26009Y14526D01*
X-25899Y14637D01*
X-25897Y14641D01*
X-25894Y14643D01*
X-25805Y14778D01*
X-24997Y16178D01*
X-24995Y16182D01*
X-24992Y16185D01*
X-24933Y16329D01*
X-24933Y16330D01*
X-24897Y16405D01*
X-24894Y16422D01*
X-24873Y16471D01*
X-24873Y16475D01*
X-24871Y16479D01*
X-24849Y16632D01*
X-24838Y16709D01*
X-24361Y17307D01*
X-24353Y17319D01*
X-24343Y17329D01*
X-24254Y17463D01*
X-23872Y18126D01*
X-23805Y18153D01*
X-23801Y18156D01*
X-23798Y18157D01*
X-23674Y18250D01*
X-23549Y18343D01*
X-23547Y18346D01*
X-23544Y18348D01*
X-23435Y18468D01*
X-22427Y19732D01*
X-22425Y19735D01*
X-22422Y19738D01*
X-22342Y19871D01*
X-22262Y20003D01*
X-22260Y20007D01*
X-22258Y20011D01*
X-22214Y20160D01*
X-22192Y20233D01*
X-21631Y20753D01*
X-21621Y20764D01*
X-21610Y20773D01*
X-21502Y20892D01*
X-21025Y21490D01*
X-20954Y21507D01*
X-20951Y21509D01*
X-20947Y21510D01*
X-20810Y21584D01*
X-20674Y21657D01*
X-20671Y21659D01*
X-20667Y21661D01*
X-20542Y21763D01*
X-19357Y22863D01*
X-19354Y22866D01*
X-19351Y22869D01*
X-19253Y22988D01*
X-19153Y23107D01*
X-19151Y23111D01*
X-19148Y23114D01*
X-19083Y23254D01*
X-19049Y23324D01*
X-18417Y23755D01*
X-18406Y23764D01*
X-18393Y23771D01*
X-18269Y23873D01*
X-17708Y24393D01*
X-17636Y24399D01*
X-17632Y24401D01*
X-17628Y24401D01*
X-17483Y24453D01*
X-17336Y24505D01*
X-17333Y24507D01*
X-17329Y24509D01*
X-17190Y24591D01*
X-15854Y25502D01*
X-15851Y25504D01*
X-15848Y25506D01*
X-15732Y25610D01*
X-15616Y25712D01*
X-15614Y25716D01*
X-15611Y25719D01*
X-15526Y25846D01*
X-15481Y25911D01*
X-14792Y26243D01*
X-14780Y26251D01*
X-14766Y26256D01*
X-14628Y26338D01*
X-13996Y26769D01*
X-13924Y26764D01*
X-13920Y26765D01*
X-13915Y26765D01*
X-13762Y26795D01*
X-13611Y26824D01*
X-13608Y26826D01*
X-13603Y26827D01*
X-13454Y26887D01*
X-11998Y27589D01*
X-11994Y27591D01*
X-11990Y27592D01*
X-11861Y27677D01*
X-11731Y27762D01*
X-11728Y27765D01*
X-11724Y27767D01*
X-11619Y27883D01*
X-11568Y27938D01*
X-10836Y28164D01*
X-10823Y28170D01*
X-10809Y28173D01*
X-10660Y28233D01*
X-9971Y28565D01*
X-9900Y28550D01*
X-9896Y28550D01*
X-9892Y28549D01*
X-9736Y28556D01*
X-9582Y28562D01*
X-9578Y28564D01*
X-9574Y28564D01*
X-9418Y28601D01*
X-7873Y29078D01*
X-7869Y29080D01*
X-7865Y29080D01*
X-7723Y29145D01*
X-7583Y29209D01*
X-7580Y29212D01*
X-7576Y29213D01*
X-7456Y29311D01*
X-7385Y29368D01*
X-7365Y29371D01*
X-7276Y29406D01*
X-7185Y29431D01*
X-7129Y29464D01*
X-7069Y29488D01*
X-6992Y29543D01*
X-6910Y29591D01*
X-6864Y29636D01*
X-6812Y29674D01*
X-6751Y29748D01*
X-6683Y29814D01*
X-6650Y29870D01*
X-6609Y29919D01*
X-6568Y30005D01*
X-6519Y30087D01*
X-6501Y30149D01*
X-6473Y30207D01*
X-6455Y30300D01*
X-6428Y30391D01*
X-6426Y30456D01*
X-6414Y30520D01*
X-6419Y30614D01*
X-6416Y30709D01*
X-6429Y30772D01*
X-6433Y30837D01*
X-6463Y30927D01*
X-6482Y31020D01*
X-6511Y31078D01*
X-6531Y31139D01*
X-6582Y31220D01*
X-6624Y31305D01*
X-6667Y31353D01*
X-6701Y31408D01*
X-6771Y31473D01*
X-6833Y31545D01*
X-6886Y31582D01*
X-6933Y31626D01*
X-7016Y31672D01*
X-7094Y31726D01*
X-7155Y31748D01*
X-7212Y31780D01*
X-7303Y31803D01*
X-7393Y31836D01*
X-7457Y31843D01*
X-7520Y31859D01*
X-7680Y31869D01*
X-13614Y31869D01*
X-14731Y32986D01*
X-14731Y47846D01*
X-14734Y47876D01*
X-14732Y47905D01*
X-14754Y48033D01*
X-14771Y48162D01*
X-14781Y48189D01*
X-14786Y48218D01*
X-14840Y48337D01*
X-14888Y48458D01*
X-14905Y48481D01*
X-14917Y48508D01*
X-14998Y48610D01*
X-15074Y48715D01*
X-15097Y48734D01*
X-15116Y48757D01*
X-15219Y48835D01*
X-15319Y48918D01*
X-15346Y48930D01*
X-15370Y48948D01*
X-15514Y49019D01*
X-15904Y49180D01*
X-17495Y50771D01*
X-18356Y52850D01*
X-18356Y54264D01*
X-18373Y54402D01*
X-18386Y54540D01*
X-18393Y54559D01*
X-18396Y54580D01*
X-18446Y54708D01*
X-18494Y54840D01*
X-18505Y54856D01*
X-18513Y54875D01*
X-18594Y54988D01*
X-18672Y55103D01*
X-18688Y55116D01*
X-18699Y55133D01*
X-18807Y55221D01*
X-18911Y55313D01*
X-18929Y55322D01*
X-18944Y55335D01*
X-19070Y55395D01*
X-19194Y55458D01*
X-19214Y55462D01*
X-19232Y55471D01*
X-19368Y55497D01*
X-19504Y55527D01*
X-19525Y55527D01*
X-19544Y55531D01*
X-19683Y55522D01*
X-19822Y55518D01*
X-19842Y55512D01*
X-19862Y55511D01*
X-19994Y55468D01*
X-20128Y55429D01*
X-20145Y55419D01*
X-20164Y55413D01*
X-20282Y55339D01*
X-20402Y55268D01*
X-20423Y55249D01*
X-20433Y55243D01*
X-20447Y55228D01*
X-20522Y55161D01*
X-40903Y34781D01*
X-40963Y34703D01*
X-41031Y34631D01*
X-41060Y34578D01*
X-41097Y34530D01*
X-41137Y34439D01*
X-41185Y34353D01*
X-41200Y34294D01*
X-41224Y34238D01*
X-41239Y34140D01*
X-41264Y34045D01*
X-41270Y33945D01*
X-41274Y33924D01*
X-41272Y33912D01*
X-41274Y33884D01*
X-41274Y33030D01*
X-42724Y29529D01*
X-45404Y26849D01*
X-48905Y25399D01*
X-52695Y25399D01*
X-56196Y26849D01*
X-58876Y29529D01*
X-60326Y33030D01*
X-60326Y36820D01*
X-58876Y40321D01*
X-56196Y43001D01*
X-52695Y44451D01*
X-48905Y44451D01*
X-45404Y43001D01*
X-44792Y42388D01*
X-44698Y42315D01*
X-44608Y42236D01*
X-44572Y42218D01*
X-44540Y42193D01*
X-44431Y42146D01*
X-44325Y42092D01*
X-44286Y42083D01*
X-44249Y42067D01*
X-44131Y42048D01*
X-44015Y42022D01*
X-43974Y42023D01*
X-43934Y42017D01*
X-43816Y42028D01*
X-43697Y42032D01*
X-43658Y42043D01*
X-43618Y42047D01*
X-43506Y42087D01*
X-43391Y42120D01*
X-43357Y42141D01*
X-43319Y42154D01*
X-43220Y42221D01*
X-43117Y42282D01*
X-43072Y42321D01*
X-43055Y42333D01*
X-43042Y42348D01*
X-42997Y42388D01*
X-35419Y49966D01*
X-35333Y50076D01*
X-35245Y50183D01*
X-35236Y50201D01*
X-35224Y50217D01*
X-35168Y50345D01*
X-35109Y50471D01*
X-35105Y50490D01*
X-35097Y50509D01*
X-35075Y50647D01*
X-35049Y50783D01*
X-35051Y50803D01*
X-35048Y50823D01*
X-35061Y50962D01*
X-35069Y51100D01*
X-35075Y51120D01*
X-35077Y51140D01*
X-35125Y51271D01*
X-35167Y51403D01*
X-35178Y51420D01*
X-35185Y51439D01*
X-35263Y51554D01*
X-35337Y51672D01*
X-35352Y51686D01*
X-35364Y51702D01*
X-35468Y51794D01*
X-35569Y51890D01*
X-35587Y51899D01*
X-35602Y51913D01*
X-35726Y51976D01*
X-35848Y52043D01*
X-35867Y52048D01*
X-35885Y52057D01*
X-36021Y52088D01*
X-36155Y52123D01*
X-36184Y52124D01*
X-36195Y52127D01*
X-36216Y52126D01*
X-36316Y52133D01*
X-45433Y52133D01*
X-45443Y52132D01*
X-45452Y52133D01*
X-45601Y52112D01*
X-45749Y52093D01*
X-45758Y52090D01*
X-45767Y52088D01*
X-45919Y52036D01*
X-48905Y50799D01*
X-52695Y50799D01*
X-56196Y52249D01*
X-58876Y54929D01*
X-60326Y58430D01*
X-60326Y62220D01*
X-58876Y65721D01*
X-57104Y67492D01*
X-57019Y67602D01*
X-56930Y67709D01*
X-56922Y67727D01*
X-56909Y67743D01*
X-56854Y67871D01*
X-56795Y67997D01*
X-56791Y68016D01*
X-56783Y68035D01*
X-56761Y68173D01*
X-56735Y68309D01*
X-56736Y68329D01*
X-56733Y68349D01*
X-56746Y68488D01*
X-56755Y68626D01*
X-56761Y68646D01*
X-56763Y68666D01*
X-56810Y68797D01*
X-56853Y68929D01*
X-56864Y68946D01*
X-56871Y68965D01*
X-56949Y69080D01*
X-57023Y69198D01*
X-57038Y69212D01*
X-57049Y69228D01*
X-57154Y69320D01*
X-57255Y69416D01*
X-57272Y69425D01*
X-57288Y69439D01*
X-57412Y69502D01*
X-57533Y69569D01*
X-57553Y69574D01*
X-57571Y69583D01*
X-57707Y69614D01*
X-57841Y69649D01*
X-57869Y69650D01*
X-57881Y69653D01*
X-57902Y69652D01*
X-58002Y69659D01*
X-68484Y69659D01*
X-68582Y69646D01*
X-68681Y69643D01*
X-68739Y69627D01*
X-68799Y69619D01*
X-68891Y69582D01*
X-68987Y69555D01*
X-69039Y69524D01*
X-69095Y69502D01*
X-69175Y69444D01*
X-69260Y69393D01*
X-69336Y69327D01*
X-69352Y69315D01*
X-69360Y69306D01*
X-69381Y69287D01*
X-83297Y55371D01*
X-104809Y55371D01*
X-105858Y56420D01*
X-105934Y56479D01*
X-106002Y56544D01*
X-106059Y56576D01*
X-106110Y56615D01*
X-106197Y56653D01*
X-106280Y56700D01*
X-106342Y56716D01*
X-106401Y56742D01*
X-106496Y56757D01*
X-106588Y56781D01*
X-106652Y56781D01*
X-106715Y56792D01*
X-106810Y56783D01*
X-106906Y56783D01*
X-106968Y56768D01*
X-107032Y56762D01*
X-107122Y56729D01*
X-107214Y56706D01*
X-107271Y56676D01*
X-107331Y56654D01*
X-107410Y56601D01*
X-107494Y56555D01*
X-107579Y56486D01*
X-107594Y56476D01*
X-107601Y56468D01*
X-107619Y56454D01*
X-108265Y55855D01*
X-108274Y55844D01*
X-108286Y55835D01*
X-108394Y55716D01*
X-108871Y55118D01*
X-108941Y55101D01*
X-108945Y55099D01*
X-108949Y55098D01*
X-109084Y55025D01*
X-109222Y54951D01*
X-109225Y54949D01*
X-109229Y54947D01*
X-109354Y54845D01*
X-110541Y53744D01*
X-110543Y53741D01*
X-110547Y53739D01*
X-110645Y53619D01*
X-110745Y53500D01*
X-110747Y53497D01*
X-110749Y53494D01*
X-110816Y53352D01*
X-110849Y53284D01*
X-111481Y52853D01*
X-111492Y52843D01*
X-111505Y52836D01*
X-111630Y52735D01*
X-112190Y52215D01*
X-112262Y52208D01*
X-112266Y52207D01*
X-112270Y52207D01*
X-112417Y52154D01*
X-112562Y52103D01*
X-112566Y52100D01*
X-112569Y52099D01*
X-112708Y52017D01*
X-113588Y51417D01*
X-113642Y51370D01*
X-113702Y51330D01*
X-113761Y51265D01*
X-113826Y51207D01*
X-113867Y51147D01*
X-113915Y51094D01*
X-113956Y51016D01*
X-114005Y50944D01*
X-114029Y50876D01*
X-114062Y50812D01*
X-114083Y50727D01*
X-114112Y50644D01*
X-114119Y50573D01*
X-114135Y50503D01*
X-114134Y50415D01*
X-114142Y50328D01*
X-114131Y50257D01*
X-114129Y50185D01*
X-114106Y50100D01*
X-114092Y50014D01*
X-114063Y49948D01*
X-114044Y49878D01*
X-113972Y49734D01*
X-95686Y18060D01*
X-96314Y17764D01*
X-96336Y17747D01*
X-96363Y17737D01*
X-96415Y17688D01*
X-96473Y17645D01*
X-96487Y17620D01*
X-96508Y17600D01*
X-96537Y17535D01*
X-96573Y17473D01*
X-96576Y17445D01*
X-96588Y17418D01*
X-96589Y17346D01*
X-96598Y17276D01*
X-96590Y17248D01*
X-96591Y17219D01*
X-96555Y17125D01*
X-96544Y17084D01*
X-96537Y17076D01*
X-96533Y17063D01*
X-87033Y563D01*
X-86981Y505D01*
X-86935Y442D01*
X-86916Y431D01*
X-86901Y414D01*
X-86831Y381D01*
X-86764Y341D01*
X-86740Y337D01*
X-86722Y328D01*
X-86677Y326D01*
X-86600Y313D01*
X-67600Y313D01*
X-67572Y319D01*
G37*
G36*
X111260Y98906D02*
X111260Y98906D01*
X111287Y98906D01*
X111416Y98938D01*
X111546Y98965D01*
X111570Y98977D01*
X111595Y98983D01*
X111712Y99046D01*
X111832Y99105D01*
X111852Y99122D01*
X111875Y99134D01*
X112000Y99236D01*
X112175Y99399D01*
X112247Y99405D01*
X112251Y99407D01*
X112255Y99407D01*
X112401Y99460D01*
X112547Y99511D01*
X112550Y99514D01*
X112554Y99515D01*
X112693Y99597D01*
X114030Y100510D01*
X114033Y100512D01*
X114037Y100514D01*
X114152Y100618D01*
X114268Y100720D01*
X114271Y100724D01*
X114274Y100726D01*
X114359Y100853D01*
X114403Y100919D01*
X115092Y101251D01*
X115105Y101259D01*
X115118Y101264D01*
X115257Y101346D01*
X115888Y101777D01*
X115961Y101773D01*
X115965Y101774D01*
X115969Y101773D01*
X116121Y101804D01*
X116273Y101833D01*
X116277Y101835D01*
X116281Y101835D01*
X116430Y101896D01*
X117888Y102599D01*
X117892Y102601D01*
X117896Y102603D01*
X118026Y102688D01*
X118155Y102772D01*
X118158Y102775D01*
X118162Y102777D01*
X118265Y102891D01*
X118318Y102948D01*
X119049Y103174D01*
X119062Y103180D01*
X119077Y103183D01*
X119226Y103244D01*
X119915Y103576D01*
X119986Y103560D01*
X119990Y103561D01*
X119994Y103560D01*
X120150Y103567D01*
X120303Y103573D01*
X120307Y103574D01*
X120311Y103575D01*
X120468Y103612D01*
X122015Y104090D01*
X122019Y104092D01*
X122023Y104093D01*
X122162Y104157D01*
X122305Y104221D01*
X122308Y104224D01*
X122312Y104226D01*
X122431Y104322D01*
X122492Y104372D01*
X123248Y104486D01*
X123262Y104490D01*
X123277Y104490D01*
X123433Y104528D01*
X124164Y104754D01*
X124232Y104728D01*
X124236Y104728D01*
X124240Y104726D01*
X124396Y104710D01*
X124548Y104694D01*
X124552Y104694D01*
X124556Y104694D01*
X124717Y104708D01*
X126318Y104949D01*
X126321Y104951D01*
X126326Y104951D01*
X126473Y104993D01*
X126624Y105036D01*
X126627Y105038D01*
X126631Y105039D01*
X126764Y105118D01*
X126831Y105157D01*
X127596Y105157D01*
X127611Y105159D01*
X127625Y105157D01*
X127786Y105171D01*
X128541Y105285D01*
X128605Y105250D01*
X128609Y105249D01*
X128612Y105247D01*
X128763Y105208D01*
X128912Y105169D01*
X128916Y105169D01*
X128920Y105168D01*
X129081Y105157D01*
X130700Y105158D01*
X130704Y105158D01*
X130708Y105158D01*
X130861Y105178D01*
X131016Y105198D01*
X131020Y105199D01*
X131024Y105200D01*
X131168Y105258D01*
X131239Y105286D01*
X131996Y105173D01*
X132010Y105172D01*
X132024Y105169D01*
X132185Y105158D01*
X132949Y105159D01*
X133007Y105114D01*
X133011Y105113D01*
X133014Y105110D01*
X133154Y105050D01*
X133299Y104988D01*
X133303Y104987D01*
X133306Y104986D01*
X133464Y104952D01*
X135065Y104711D01*
X135069Y104711D01*
X135073Y104710D01*
X135229Y104707D01*
X135383Y104703D01*
X135387Y104704D01*
X135391Y104704D01*
X135544Y104741D01*
X135617Y104758D01*
X136348Y104532D01*
X136362Y104530D01*
X136376Y104524D01*
X136533Y104490D01*
X137289Y104376D01*
X137339Y104324D01*
X137343Y104322D01*
X137346Y104319D01*
X137477Y104238D01*
X137609Y104156D01*
X137613Y104154D01*
X137616Y104152D01*
X137767Y104095D01*
X139314Y103618D01*
X139318Y103618D01*
X139322Y103616D01*
X139477Y103590D01*
X139628Y103564D01*
X139632Y103564D01*
X139636Y103563D01*
X139793Y103576D01*
X139867Y103582D01*
X140557Y103250D01*
X140570Y103246D01*
X140583Y103238D01*
X140733Y103181D01*
X141464Y102956D01*
X141505Y102897D01*
X141509Y102894D01*
X141511Y102891D01*
X141628Y102792D01*
X141747Y102690D01*
X141751Y102688D01*
X141754Y102686D01*
X141894Y102607D01*
X142871Y102137D01*
X142939Y102114D01*
X143003Y102082D01*
X143089Y102064D01*
X143172Y102036D01*
X143244Y102031D01*
X143314Y102016D01*
X143402Y102019D01*
X143490Y102013D01*
X143560Y102026D01*
X143632Y102029D01*
X143716Y102054D01*
X143803Y102070D01*
X143868Y102100D01*
X143936Y102121D01*
X144012Y102166D01*
X144091Y102203D01*
X144147Y102248D01*
X144208Y102285D01*
X144270Y102348D01*
X144338Y102403D01*
X144381Y102461D01*
X144431Y102512D01*
X144520Y102646D01*
X162808Y134322D01*
X163416Y133902D01*
X163443Y133890D01*
X163465Y133872D01*
X163534Y133852D01*
X163599Y133824D01*
X163628Y133823D01*
X163656Y133815D01*
X163727Y133823D01*
X163798Y133823D01*
X163825Y133834D01*
X163854Y133837D01*
X163916Y133873D01*
X163981Y133900D01*
X164002Y133921D01*
X164027Y133935D01*
X164090Y134012D01*
X164120Y134043D01*
X164124Y134053D01*
X164133Y134063D01*
X173633Y150563D01*
X173643Y150595D01*
X173652Y150608D01*
X173656Y150633D01*
X173657Y150636D01*
X173688Y150707D01*
X173688Y150730D01*
X173696Y150752D01*
X173690Y150829D01*
X173691Y150906D01*
X173681Y150930D01*
X173680Y150950D01*
X173659Y150990D01*
X173633Y151062D01*
X164133Y167562D01*
X164114Y167583D01*
X164101Y167610D01*
X164048Y167657D01*
X164001Y167711D01*
X163975Y167723D01*
X163954Y167743D01*
X163886Y167766D01*
X163822Y167797D01*
X163793Y167798D01*
X163766Y167807D01*
X163694Y167803D01*
X163623Y167806D01*
X163596Y167796D01*
X163567Y167794D01*
X163477Y167751D01*
X163437Y167737D01*
X163429Y167729D01*
X163416Y167723D01*
X160893Y165982D01*
X160869Y165957D01*
X160831Y165931D01*
X158619Y163807D01*
X158600Y163779D01*
X158566Y163747D01*
X158151Y163194D01*
X124622Y163194D01*
X124504Y163179D01*
X124386Y163172D01*
X124347Y163159D01*
X124307Y163154D01*
X124196Y163111D01*
X124083Y163074D01*
X124049Y163052D01*
X124011Y163037D01*
X123915Y162968D01*
X123814Y162904D01*
X123787Y162874D01*
X123754Y162851D01*
X123678Y162759D01*
X123596Y162672D01*
X123577Y162637D01*
X123551Y162606D01*
X123500Y162498D01*
X123443Y162394D01*
X123433Y162354D01*
X123416Y162318D01*
X123393Y162201D01*
X123363Y162086D01*
X123360Y162026D01*
X123356Y162006D01*
X123357Y161985D01*
X123353Y161925D01*
X123353Y143230D01*
X110969Y130845D01*
X80476Y130845D01*
X80339Y130828D01*
X80200Y130815D01*
X80181Y130808D01*
X80161Y130805D01*
X80032Y130754D01*
X79901Y130707D01*
X79884Y130696D01*
X79865Y130688D01*
X79753Y130607D01*
X79637Y130529D01*
X79624Y130513D01*
X79608Y130502D01*
X79519Y130394D01*
X79427Y130290D01*
X79418Y130272D01*
X79405Y130257D01*
X79346Y130131D01*
X79282Y130007D01*
X79278Y129987D01*
X79269Y129969D01*
X79243Y129833D01*
X79213Y129697D01*
X79213Y129676D01*
X79210Y129657D01*
X79218Y129518D01*
X79222Y129379D01*
X79228Y129359D01*
X79229Y129339D01*
X79272Y129207D01*
X79311Y129073D01*
X79321Y129056D01*
X79327Y129037D01*
X79402Y128919D01*
X79472Y128799D01*
X79491Y128778D01*
X79498Y128768D01*
X79512Y128754D01*
X79579Y128679D01*
X104813Y103444D01*
X104892Y103383D01*
X104964Y103315D01*
X105017Y103286D01*
X105065Y103249D01*
X105156Y103210D01*
X105242Y103162D01*
X105301Y103147D01*
X105356Y103123D01*
X105454Y103107D01*
X105550Y103083D01*
X105650Y103076D01*
X105670Y103073D01*
X105683Y103074D01*
X105711Y103072D01*
X106245Y103072D01*
X108057Y102322D01*
X109444Y100935D01*
X109963Y99680D01*
X109976Y99658D01*
X109984Y99633D01*
X110055Y99520D01*
X110121Y99404D01*
X110139Y99385D01*
X110153Y99363D01*
X110249Y99272D01*
X110342Y99176D01*
X110364Y99162D01*
X110383Y99144D01*
X110500Y99079D01*
X110613Y99010D01*
X110638Y99002D01*
X110661Y98989D01*
X110790Y98955D01*
X110917Y98916D01*
X110943Y98915D01*
X110969Y98908D01*
X111102Y98907D01*
X111235Y98901D01*
X111260Y98906D01*
G37*
G36*
X12523Y27613D02*
X12523Y27613D01*
X12672Y27617D01*
X12682Y27620D01*
X12692Y27620D01*
X12835Y27664D01*
X12978Y27706D01*
X12986Y27711D01*
X12996Y27713D01*
X13124Y27792D01*
X13252Y27867D01*
X13262Y27876D01*
X13267Y27879D01*
X13277Y27889D01*
X13373Y27974D01*
X18803Y33404D01*
X18863Y33482D01*
X18931Y33554D01*
X18960Y33607D01*
X18997Y33655D01*
X19037Y33746D01*
X19085Y33832D01*
X19100Y33891D01*
X19124Y33947D01*
X19139Y34045D01*
X19164Y34140D01*
X19170Y34240D01*
X19174Y34261D01*
X19172Y34273D01*
X19174Y34301D01*
X19174Y51132D01*
X21555Y53513D01*
X27894Y59853D01*
X27980Y59962D01*
X28068Y60069D01*
X28077Y60088D01*
X28089Y60104D01*
X28145Y60232D01*
X28204Y60357D01*
X28208Y60377D01*
X28216Y60396D01*
X28238Y60534D01*
X28264Y60670D01*
X28262Y60690D01*
X28265Y60710D01*
X28252Y60849D01*
X28244Y60987D01*
X28238Y61006D01*
X28236Y61026D01*
X28188Y61158D01*
X28146Y61289D01*
X28135Y61307D01*
X28128Y61326D01*
X28050Y61441D01*
X27976Y61558D01*
X27961Y61572D01*
X27949Y61589D01*
X27845Y61681D01*
X27744Y61776D01*
X27726Y61786D01*
X27711Y61799D01*
X27587Y61862D01*
X27465Y61930D01*
X27446Y61935D01*
X27428Y61944D01*
X27292Y61974D01*
X27158Y62009D01*
X27129Y62011D01*
X27118Y62014D01*
X27097Y62013D01*
X26997Y62019D01*
X13203Y62019D01*
X12086Y63136D01*
X12086Y70214D01*
X13203Y71331D01*
X30850Y71331D01*
X30968Y71346D01*
X31087Y71353D01*
X31125Y71366D01*
X31166Y71371D01*
X31276Y71414D01*
X31389Y71451D01*
X31424Y71473D01*
X31461Y71488D01*
X31557Y71557D01*
X31658Y71621D01*
X31686Y71651D01*
X31719Y71674D01*
X31795Y71766D01*
X31876Y71853D01*
X31896Y71888D01*
X31921Y71919D01*
X31972Y72027D01*
X32030Y72131D01*
X32040Y72171D01*
X32057Y72207D01*
X32079Y72324D01*
X32109Y72439D01*
X32113Y72499D01*
X32117Y72519D01*
X32115Y72540D01*
X32119Y72600D01*
X32119Y128350D01*
X32104Y128468D01*
X32097Y128587D01*
X32084Y128625D01*
X32079Y128666D01*
X32036Y128776D01*
X31999Y128889D01*
X31977Y128924D01*
X31962Y128961D01*
X31893Y129057D01*
X31829Y129158D01*
X31799Y129186D01*
X31776Y129219D01*
X31684Y129295D01*
X31597Y129376D01*
X31562Y129396D01*
X31531Y129421D01*
X31423Y129472D01*
X31319Y129530D01*
X31279Y129540D01*
X31243Y129557D01*
X31126Y129579D01*
X31011Y129609D01*
X30951Y129613D01*
X30931Y129617D01*
X30910Y129615D01*
X30850Y129619D01*
X30163Y129619D01*
X30044Y129604D01*
X29926Y129597D01*
X29887Y129584D01*
X29847Y129579D01*
X29736Y129536D01*
X29623Y129499D01*
X29589Y129477D01*
X29551Y129462D01*
X29455Y129393D01*
X29354Y129329D01*
X29327Y129299D01*
X29294Y129276D01*
X29218Y129184D01*
X29136Y129097D01*
X29117Y129062D01*
X29091Y129031D01*
X29040Y128923D01*
X28983Y128819D01*
X28973Y128779D01*
X28956Y128743D01*
X28933Y128626D01*
X28903Y128511D01*
X28900Y128451D01*
X28896Y128431D01*
X28897Y128410D01*
X28893Y128350D01*
X28893Y105092D01*
X-24900Y105092D01*
X-25018Y105077D01*
X-25137Y105069D01*
X-25175Y105057D01*
X-25216Y105052D01*
X-25326Y105008D01*
X-25439Y104971D01*
X-25474Y104950D01*
X-25511Y104935D01*
X-25607Y104865D01*
X-25708Y104801D01*
X-25736Y104772D01*
X-25769Y104748D01*
X-25845Y104656D01*
X-25926Y104570D01*
X-25946Y104534D01*
X-25971Y104503D01*
X-26022Y104395D01*
X-26080Y104291D01*
X-26090Y104252D01*
X-26107Y104215D01*
X-26129Y104099D01*
X-26159Y103983D01*
X-26163Y103923D01*
X-26167Y103903D01*
X-26165Y103883D01*
X-26169Y103823D01*
X-26169Y72600D01*
X-26154Y72482D01*
X-26147Y72363D01*
X-26134Y72325D01*
X-26129Y72284D01*
X-26086Y72174D01*
X-26049Y72061D01*
X-26027Y72026D01*
X-26012Y71989D01*
X-25943Y71893D01*
X-25879Y71792D01*
X-25849Y71764D01*
X-25826Y71731D01*
X-25734Y71655D01*
X-25647Y71574D01*
X-25612Y71554D01*
X-25581Y71529D01*
X-25473Y71478D01*
X-25369Y71420D01*
X-25329Y71410D01*
X-25293Y71393D01*
X-25176Y71371D01*
X-25061Y71341D01*
X-25001Y71337D01*
X-24981Y71333D01*
X-24960Y71335D01*
X-24900Y71331D01*
X2749Y71331D01*
X3866Y70214D01*
X3866Y68659D01*
X3878Y68561D01*
X3881Y68462D01*
X3898Y68404D01*
X3904Y68358D01*
X3904Y56766D01*
X2452Y55315D01*
X2392Y55236D01*
X2324Y55164D01*
X2295Y55111D01*
X2258Y55063D01*
X2218Y54972D01*
X2170Y54886D01*
X2155Y54827D01*
X2131Y54771D01*
X2116Y54674D01*
X2091Y54578D01*
X2085Y54478D01*
X2081Y54457D01*
X2083Y54445D01*
X2081Y54417D01*
X2081Y32986D01*
X1405Y32309D01*
X1320Y32200D01*
X1231Y32093D01*
X1222Y32074D01*
X1210Y32058D01*
X1154Y31931D01*
X1095Y31805D01*
X1091Y31785D01*
X1083Y31766D01*
X1061Y31628D01*
X1035Y31492D01*
X1037Y31472D01*
X1033Y31452D01*
X1047Y31313D01*
X1055Y31175D01*
X1061Y31156D01*
X1063Y31136D01*
X1110Y31004D01*
X1153Y30873D01*
X1164Y30855D01*
X1171Y30836D01*
X1249Y30721D01*
X1323Y30604D01*
X1338Y30590D01*
X1349Y30573D01*
X1453Y30481D01*
X1555Y30386D01*
X1573Y30376D01*
X1588Y30363D01*
X1712Y30300D01*
X1833Y30232D01*
X1853Y30227D01*
X1871Y30218D01*
X2007Y30188D01*
X2141Y30153D01*
X2169Y30151D01*
X2181Y30148D01*
X2202Y30149D01*
X2302Y30143D01*
X3058Y30143D01*
X3115Y30098D01*
X3119Y30097D01*
X3122Y30094D01*
X3264Y30034D01*
X3407Y29972D01*
X3411Y29971D01*
X3415Y29970D01*
X3572Y29936D01*
X5171Y29695D01*
X5175Y29695D01*
X5179Y29693D01*
X5334Y29691D01*
X5489Y29687D01*
X5493Y29688D01*
X5497Y29688D01*
X5648Y29724D01*
X5723Y29741D01*
X6454Y29516D01*
X6468Y29513D01*
X6482Y29507D01*
X6639Y29473D01*
X7395Y29359D01*
X7445Y29307D01*
X7448Y29305D01*
X7451Y29302D01*
X7585Y29220D01*
X7715Y29138D01*
X7719Y29137D01*
X7722Y29135D01*
X7873Y29078D01*
X9418Y28601D01*
X9422Y28601D01*
X9426Y28599D01*
X9579Y28573D01*
X9731Y28546D01*
X9735Y28547D01*
X9739Y28546D01*
X9894Y28559D01*
X9970Y28565D01*
X10660Y28233D01*
X10674Y28229D01*
X10686Y28221D01*
X10836Y28164D01*
X11662Y27909D01*
X11761Y27822D01*
X11770Y27817D01*
X11777Y27811D01*
X11912Y27745D01*
X12044Y27677D01*
X12054Y27675D01*
X12062Y27671D01*
X12209Y27640D01*
X12354Y27608D01*
X12364Y27608D01*
X12374Y27606D01*
X12523Y27613D01*
G37*
G36*
X105970Y144511D02*
X105970Y144511D01*
X106069Y144514D01*
X106127Y144531D01*
X106187Y144539D01*
X106279Y144575D01*
X106374Y144603D01*
X106426Y144633D01*
X106483Y144656D01*
X106563Y144714D01*
X106648Y144764D01*
X106724Y144831D01*
X106740Y144843D01*
X106748Y144852D01*
X106769Y144871D01*
X110499Y148600D01*
X110559Y148678D01*
X110627Y148750D01*
X110656Y148803D01*
X110693Y148851D01*
X110733Y148942D01*
X110781Y149029D01*
X110796Y149087D01*
X110820Y149143D01*
X110835Y149241D01*
X110860Y149337D01*
X110866Y149437D01*
X110870Y149457D01*
X110868Y149470D01*
X110870Y149498D01*
X110870Y161925D01*
X110855Y162043D01*
X110848Y162162D01*
X110835Y162200D01*
X110830Y162241D01*
X110787Y162351D01*
X110750Y162464D01*
X110728Y162499D01*
X110713Y162536D01*
X110644Y162632D01*
X110580Y162733D01*
X110550Y162761D01*
X110527Y162794D01*
X110435Y162870D01*
X110348Y162951D01*
X110313Y162971D01*
X110282Y162996D01*
X110174Y163047D01*
X110070Y163105D01*
X110030Y163115D01*
X109994Y163132D01*
X109877Y163154D01*
X109762Y163184D01*
X109702Y163188D01*
X109682Y163192D01*
X109661Y163190D01*
X109601Y163194D01*
X40213Y163194D01*
X38998Y164410D01*
X38888Y164495D01*
X38781Y164584D01*
X38762Y164593D01*
X38746Y164605D01*
X38618Y164660D01*
X38493Y164719D01*
X38473Y164723D01*
X38454Y164731D01*
X38316Y164753D01*
X38181Y164779D01*
X38160Y164778D01*
X38140Y164781D01*
X38001Y164768D01*
X37863Y164759D01*
X37844Y164753D01*
X37824Y164751D01*
X37692Y164704D01*
X37561Y164661D01*
X37543Y164651D01*
X37524Y164644D01*
X37409Y164566D01*
X37292Y164491D01*
X37278Y164476D01*
X37261Y164465D01*
X37169Y164361D01*
X37074Y164260D01*
X37064Y164242D01*
X37051Y164227D01*
X36988Y164103D01*
X36920Y163981D01*
X36915Y163962D01*
X36906Y163943D01*
X36876Y163808D01*
X36841Y163673D01*
X36839Y163645D01*
X36837Y163633D01*
X36837Y163613D01*
X36831Y163513D01*
X36831Y163194D01*
X30163Y163194D01*
X30044Y163179D01*
X29926Y163172D01*
X29887Y163159D01*
X29847Y163154D01*
X29736Y163111D01*
X29623Y163074D01*
X29589Y163052D01*
X29551Y163037D01*
X29455Y162968D01*
X29354Y162904D01*
X29327Y162874D01*
X29294Y162851D01*
X29218Y162759D01*
X29136Y162672D01*
X29117Y162637D01*
X29091Y162606D01*
X29040Y162498D01*
X28983Y162394D01*
X28973Y162354D01*
X28956Y162318D01*
X28933Y162201D01*
X28903Y162086D01*
X28900Y162026D01*
X28896Y162006D01*
X28897Y161985D01*
X28893Y161925D01*
X28893Y148829D01*
X28894Y148819D01*
X28893Y148810D01*
X28914Y148661D01*
X28933Y148513D01*
X28937Y148504D01*
X28938Y148495D01*
X28990Y148343D01*
X29206Y147821D01*
X29206Y145768D01*
X29221Y145650D01*
X29229Y145531D01*
X29241Y145493D01*
X29246Y145453D01*
X29290Y145342D01*
X29327Y145229D01*
X29348Y145194D01*
X29363Y145157D01*
X29433Y145061D01*
X29497Y144960D01*
X29526Y144932D01*
X29550Y144899D01*
X29642Y144824D01*
X29728Y144742D01*
X29764Y144722D01*
X29795Y144697D01*
X29903Y144646D01*
X30007Y144588D01*
X30046Y144578D01*
X30083Y144561D01*
X30199Y144539D01*
X30315Y144509D01*
X30375Y144505D01*
X30395Y144501D01*
X30415Y144503D01*
X30475Y144499D01*
X105872Y144499D01*
X105970Y144511D01*
G37*
G36*
X-47785Y113043D02*
X-47785Y113043D01*
X-47686Y113046D01*
X-47628Y113063D01*
X-47568Y113071D01*
X-47476Y113107D01*
X-47381Y113135D01*
X-47329Y113165D01*
X-47272Y113188D01*
X-47192Y113246D01*
X-47107Y113296D01*
X-47031Y113362D01*
X-47015Y113374D01*
X-47007Y113384D01*
X-46986Y113403D01*
X-38980Y121409D01*
X-36750Y121409D01*
X-36632Y121424D01*
X-36513Y121431D01*
X-36475Y121444D01*
X-36434Y121449D01*
X-36324Y121492D01*
X-36211Y121529D01*
X-36176Y121551D01*
X-36139Y121566D01*
X-36043Y121635D01*
X-35942Y121699D01*
X-35914Y121729D01*
X-35881Y121752D01*
X-35805Y121844D01*
X-35724Y121931D01*
X-35704Y121966D01*
X-35679Y121997D01*
X-35628Y122105D01*
X-35570Y122209D01*
X-35560Y122249D01*
X-35543Y122285D01*
X-35521Y122402D01*
X-35491Y122517D01*
X-35487Y122577D01*
X-35483Y122597D01*
X-35485Y122618D01*
X-35481Y122678D01*
X-35481Y130257D01*
X-34364Y131374D01*
X-29193Y131374D01*
X-29075Y131389D01*
X-28956Y131396D01*
X-28918Y131408D01*
X-28877Y131413D01*
X-28767Y131457D01*
X-28653Y131494D01*
X-28619Y131516D01*
X-28582Y131531D01*
X-28485Y131600D01*
X-28385Y131664D01*
X-28357Y131694D01*
X-28324Y131717D01*
X-28248Y131809D01*
X-28167Y131896D01*
X-28147Y131931D01*
X-28122Y131962D01*
X-28071Y132070D01*
X-28013Y132174D01*
X-28003Y132213D01*
X-27986Y132250D01*
X-27964Y132367D01*
X-27934Y132482D01*
X-27930Y132542D01*
X-27926Y132562D01*
X-27927Y132583D01*
X-27924Y132643D01*
X-27924Y135755D01*
X-27939Y135873D01*
X-27946Y135992D01*
X-27958Y136030D01*
X-27963Y136071D01*
X-28007Y136181D01*
X-28044Y136294D01*
X-28066Y136329D01*
X-28081Y136366D01*
X-28150Y136462D01*
X-28214Y136563D01*
X-28244Y136591D01*
X-28267Y136624D01*
X-28359Y136700D01*
X-28446Y136781D01*
X-28481Y136801D01*
X-28512Y136826D01*
X-28620Y136877D01*
X-28724Y136935D01*
X-28763Y136945D01*
X-28800Y136962D01*
X-28917Y136984D01*
X-29032Y137014D01*
X-29092Y137018D01*
X-29112Y137022D01*
X-29133Y137020D01*
X-29193Y137024D01*
X-37142Y137024D01*
X-37241Y137012D01*
X-37340Y137009D01*
X-37398Y136992D01*
X-37458Y136984D01*
X-37550Y136948D01*
X-37645Y136920D01*
X-37697Y136890D01*
X-37754Y136867D01*
X-37834Y136809D01*
X-37919Y136759D01*
X-37994Y136693D01*
X-38011Y136681D01*
X-38019Y136671D01*
X-38040Y136653D01*
X-38661Y136032D01*
X-53882Y136032D01*
X-53980Y136019D01*
X-54079Y136016D01*
X-54137Y136000D01*
X-54197Y135992D01*
X-54289Y135955D01*
X-54384Y135928D01*
X-54436Y135897D01*
X-54493Y135875D01*
X-54573Y135817D01*
X-54658Y135766D01*
X-54734Y135700D01*
X-54750Y135688D01*
X-54758Y135679D01*
X-54779Y135660D01*
X-55534Y134905D01*
X-57612Y134044D01*
X-59863Y134044D01*
X-61941Y134905D01*
X-62696Y135660D01*
X-62774Y135721D01*
X-62846Y135789D01*
X-62899Y135818D01*
X-62947Y135855D01*
X-63038Y135894D01*
X-63125Y135942D01*
X-63183Y135957D01*
X-63239Y135981D01*
X-63337Y135997D01*
X-63433Y136022D01*
X-63533Y136028D01*
X-63553Y136031D01*
X-63565Y136030D01*
X-63593Y136032D01*
X-63852Y136032D01*
X-64968Y137148D01*
X-64968Y150393D01*
X-64983Y150511D01*
X-64991Y150630D01*
X-65003Y150668D01*
X-65008Y150709D01*
X-65052Y150819D01*
X-65089Y150932D01*
X-65110Y150967D01*
X-65125Y151004D01*
X-65195Y151100D01*
X-65259Y151201D01*
X-65288Y151229D01*
X-65312Y151262D01*
X-65404Y151338D01*
X-65490Y151419D01*
X-65526Y151439D01*
X-65557Y151464D01*
X-65665Y151515D01*
X-65769Y151573D01*
X-65808Y151583D01*
X-65845Y151600D01*
X-65961Y151622D01*
X-66077Y151652D01*
X-66137Y151656D01*
X-66157Y151660D01*
X-66177Y151658D01*
X-66237Y151662D01*
X-75606Y151662D01*
X-75704Y151650D01*
X-75803Y151647D01*
X-75861Y151630D01*
X-75921Y151622D01*
X-76013Y151586D01*
X-76108Y151558D01*
X-76161Y151528D01*
X-76217Y151505D01*
X-76297Y151447D01*
X-76382Y151397D01*
X-76458Y151331D01*
X-76474Y151319D01*
X-76482Y151309D01*
X-76503Y151291D01*
X-82873Y144921D01*
X-82933Y144843D01*
X-83001Y144771D01*
X-83030Y144718D01*
X-83067Y144670D01*
X-83107Y144579D01*
X-83155Y144492D01*
X-83170Y144434D01*
X-83194Y144378D01*
X-83209Y144280D01*
X-83234Y144184D01*
X-83240Y144084D01*
X-83244Y144064D01*
X-83242Y144052D01*
X-83244Y144024D01*
X-83244Y143337D01*
X-84105Y141259D01*
X-85696Y139668D01*
X-87775Y138807D01*
X-90025Y138807D01*
X-91653Y139481D01*
X-91701Y139494D01*
X-91746Y139515D01*
X-91853Y139536D01*
X-91960Y139565D01*
X-92009Y139566D01*
X-92058Y139575D01*
X-92168Y139568D01*
X-92278Y139570D01*
X-92326Y139558D01*
X-92375Y139555D01*
X-92480Y139522D01*
X-92587Y139496D01*
X-92631Y139473D01*
X-92678Y139457D01*
X-92771Y139399D01*
X-92868Y139347D01*
X-92905Y139314D01*
X-92947Y139287D01*
X-93022Y139207D01*
X-93103Y139133D01*
X-93131Y139092D01*
X-93165Y139056D01*
X-93218Y138959D01*
X-93278Y138868D01*
X-93294Y138820D01*
X-93318Y138777D01*
X-93346Y138671D01*
X-93381Y138567D01*
X-93385Y138517D01*
X-93398Y138469D01*
X-93408Y138308D01*
X-93408Y133583D01*
X-93402Y133539D01*
X-93405Y133495D01*
X-93383Y133335D01*
X-92947Y131142D01*
X-92905Y131015D01*
X-92868Y130887D01*
X-92855Y130865D01*
X-92847Y130841D01*
X-92774Y130728D01*
X-92706Y130613D01*
X-92682Y130586D01*
X-92674Y130573D01*
X-92658Y130559D01*
X-92600Y130492D01*
X-75510Y113403D01*
X-75432Y113342D01*
X-75360Y113274D01*
X-75307Y113245D01*
X-75259Y113208D01*
X-75168Y113168D01*
X-75081Y113120D01*
X-75023Y113105D01*
X-74967Y113081D01*
X-74869Y113066D01*
X-74773Y113041D01*
X-74673Y113035D01*
X-74653Y113031D01*
X-74641Y113033D01*
X-74613Y113031D01*
X-47884Y113031D01*
X-47785Y113043D01*
G37*
G36*
X131941Y198380D02*
X131941Y198380D01*
X131984Y198379D01*
X135977Y198979D01*
X136007Y198990D01*
X136050Y198996D01*
X139909Y200185D01*
X139937Y200200D01*
X139978Y200212D01*
X143616Y201963D01*
X143638Y201979D01*
X143664Y201989D01*
X143717Y202039D01*
X143775Y202083D01*
X143788Y202106D01*
X143808Y202125D01*
X143838Y202192D01*
X143874Y202255D01*
X143877Y202282D01*
X143888Y202307D01*
X143889Y202380D01*
X143898Y202453D01*
X143890Y202479D01*
X143890Y202506D01*
X143854Y202605D01*
X143842Y202644D01*
X143836Y202651D01*
X143832Y202662D01*
X116832Y249462D01*
X116814Y249482D01*
X116803Y249507D01*
X116749Y249556D01*
X116701Y249611D01*
X116676Y249623D01*
X116656Y249641D01*
X116587Y249665D01*
X116521Y249697D01*
X116494Y249698D01*
X116469Y249707D01*
X116396Y249702D01*
X116323Y249706D01*
X116297Y249696D01*
X116270Y249695D01*
X116174Y249651D01*
X116136Y249636D01*
X116129Y249630D01*
X116119Y249625D01*
X112782Y247352D01*
X112760Y247329D01*
X112724Y247305D01*
X109763Y244560D01*
X109744Y244534D01*
X109712Y244505D01*
X107194Y241349D01*
X107179Y241321D01*
X107152Y241288D01*
X105132Y237791D01*
X105122Y237761D01*
X105099Y237724D01*
X103623Y233966D01*
X103618Y233935D01*
X103601Y233895D01*
X102701Y229959D01*
X102701Y229927D01*
X102690Y229885D01*
X102387Y225859D01*
X102390Y225835D01*
X102387Y225815D01*
X102389Y225806D01*
X102387Y225784D01*
X102688Y221758D01*
X102696Y221727D01*
X102699Y221684D01*
X103596Y217747D01*
X103609Y217718D01*
X103618Y217676D01*
X105092Y213917D01*
X105109Y213890D01*
X105124Y213849D01*
X107142Y210352D01*
X107163Y210328D01*
X107184Y210290D01*
X109700Y207133D01*
X109725Y207112D01*
X109751Y207078D01*
X112710Y204331D01*
X112737Y204314D01*
X112768Y204284D01*
X116104Y202009D01*
X116133Y201996D01*
X116168Y201971D01*
X119806Y200218D01*
X119836Y200211D01*
X119875Y200191D01*
X123733Y199000D01*
X123765Y198997D01*
X123806Y198983D01*
X127798Y198380D01*
X127830Y198382D01*
X127872Y198374D01*
X131910Y198373D01*
X131941Y198380D01*
G37*
G36*
X-127872Y198374D02*
X-127872Y198374D01*
X-127841Y198381D01*
X-127798Y198380D01*
X-123806Y198983D01*
X-123776Y198994D01*
X-123733Y199000D01*
X-119875Y200191D01*
X-119847Y200206D01*
X-119806Y200218D01*
X-116168Y201971D01*
X-116143Y201991D01*
X-116104Y202009D01*
X-112768Y204284D01*
X-112746Y204307D01*
X-112710Y204331D01*
X-109751Y207078D01*
X-109732Y207104D01*
X-109700Y207133D01*
X-107184Y210290D01*
X-107169Y210319D01*
X-107142Y210352D01*
X-105124Y213849D01*
X-105114Y213880D01*
X-105092Y213917D01*
X-103618Y217676D01*
X-103612Y217707D01*
X-103596Y217747D01*
X-102699Y221684D01*
X-102698Y221716D01*
X-102688Y221758D01*
X-102387Y225784D01*
X-102391Y225816D01*
X-102390Y225832D01*
X-102387Y225848D01*
X-102388Y225852D01*
X-102387Y225859D01*
X-102690Y229885D01*
X-102699Y229916D01*
X-102701Y229959D01*
X-103601Y233895D01*
X-103614Y233924D01*
X-103623Y233966D01*
X-105099Y237724D01*
X-105117Y237751D01*
X-105132Y237791D01*
X-107152Y241288D01*
X-107173Y241311D01*
X-107194Y241349D01*
X-109712Y244505D01*
X-109737Y244526D01*
X-109763Y244560D01*
X-112724Y247305D01*
X-112751Y247322D01*
X-112782Y247352D01*
X-116119Y249625D01*
X-116144Y249636D01*
X-116165Y249653D01*
X-116235Y249674D01*
X-116302Y249702D01*
X-116330Y249702D01*
X-116356Y249710D01*
X-116428Y249702D01*
X-116501Y249701D01*
X-116526Y249691D01*
X-116553Y249688D01*
X-116617Y249652D01*
X-116684Y249623D01*
X-116703Y249604D01*
X-116726Y249590D01*
X-116794Y249509D01*
X-116822Y249480D01*
X-116825Y249471D01*
X-116832Y249462D01*
X-143832Y202662D01*
X-143841Y202636D01*
X-143857Y202614D01*
X-143872Y202543D01*
X-143896Y202473D01*
X-143893Y202446D01*
X-143899Y202420D01*
X-143886Y202348D01*
X-143880Y202275D01*
X-143867Y202251D01*
X-143862Y202224D01*
X-143822Y202164D01*
X-143788Y202099D01*
X-143767Y202081D01*
X-143752Y202059D01*
X-143666Y201998D01*
X-143635Y201972D01*
X-143626Y201969D01*
X-143616Y201963D01*
X-139978Y200212D01*
X-139947Y200204D01*
X-139909Y200185D01*
X-136050Y198996D01*
X-136018Y198993D01*
X-135977Y198979D01*
X-131984Y198379D01*
X-131953Y198380D01*
X-131910Y198373D01*
X-127872Y198374D01*
G37*
G36*
X116428Y51923D02*
X116428Y51923D01*
X116501Y51924D01*
X116526Y51934D01*
X116553Y51937D01*
X116617Y51973D01*
X116684Y52002D01*
X116703Y52021D01*
X116726Y52035D01*
X116794Y52116D01*
X116822Y52145D01*
X116825Y52154D01*
X116832Y52163D01*
X143832Y98963D01*
X143841Y98989D01*
X143857Y99011D01*
X143872Y99082D01*
X143896Y99152D01*
X143893Y99179D01*
X143899Y99205D01*
X143886Y99277D01*
X143880Y99350D01*
X143867Y99374D01*
X143862Y99401D01*
X143822Y99462D01*
X143788Y99526D01*
X143767Y99544D01*
X143752Y99566D01*
X143666Y99627D01*
X143635Y99653D01*
X143626Y99656D01*
X143616Y99662D01*
X139978Y101413D01*
X139947Y101421D01*
X139909Y101440D01*
X136050Y102629D01*
X136018Y102632D01*
X135977Y102646D01*
X131984Y103246D01*
X131953Y103245D01*
X131910Y103252D01*
X127872Y103251D01*
X127841Y103244D01*
X127798Y103245D01*
X123806Y102642D01*
X123776Y102631D01*
X123733Y102625D01*
X119875Y101434D01*
X119847Y101419D01*
X119806Y101407D01*
X116168Y99654D01*
X116143Y99634D01*
X116104Y99616D01*
X112768Y97341D01*
X112746Y97318D01*
X112710Y97294D01*
X109751Y94547D01*
X109732Y94521D01*
X109700Y94492D01*
X107184Y91335D01*
X107169Y91306D01*
X107142Y91273D01*
X105124Y87776D01*
X105114Y87745D01*
X105092Y87708D01*
X103618Y83949D01*
X103612Y83918D01*
X103596Y83878D01*
X102699Y79941D01*
X102698Y79909D01*
X102688Y79867D01*
X102387Y75841D01*
X102391Y75809D01*
X102387Y75766D01*
X102690Y71740D01*
X102699Y71709D01*
X102701Y71666D01*
X103601Y67730D01*
X103614Y67701D01*
X103623Y67659D01*
X105099Y63901D01*
X105117Y63874D01*
X105132Y63834D01*
X107152Y60338D01*
X107173Y60314D01*
X107194Y60276D01*
X109712Y57120D01*
X109737Y57100D01*
X109763Y57065D01*
X112724Y54320D01*
X112751Y54303D01*
X112782Y54273D01*
X116119Y52000D01*
X116144Y51989D01*
X116165Y51972D01*
X116235Y51951D01*
X116302Y51923D01*
X116330Y51923D01*
X116356Y51915D01*
X116428Y51923D01*
G37*
G36*
X-116396Y51923D02*
X-116396Y51923D01*
X-116323Y51919D01*
X-116297Y51929D01*
X-116270Y51930D01*
X-116174Y51974D01*
X-116136Y51989D01*
X-116129Y51995D01*
X-116119Y52000D01*
X-112782Y54273D01*
X-112760Y54296D01*
X-112724Y54320D01*
X-109763Y57065D01*
X-109744Y57091D01*
X-109712Y57120D01*
X-107194Y60276D01*
X-107179Y60304D01*
X-107152Y60338D01*
X-105132Y63834D01*
X-105122Y63864D01*
X-105099Y63901D01*
X-103623Y67659D01*
X-103618Y67690D01*
X-103601Y67730D01*
X-102701Y71666D01*
X-102701Y71698D01*
X-102690Y71740D01*
X-102387Y75766D01*
X-102391Y75798D01*
X-102387Y75841D01*
X-102688Y79867D01*
X-102696Y79898D01*
X-102699Y79941D01*
X-103596Y83878D01*
X-103609Y83907D01*
X-103618Y83949D01*
X-105092Y87708D01*
X-105109Y87735D01*
X-105124Y87776D01*
X-107142Y91273D01*
X-107163Y91297D01*
X-107184Y91335D01*
X-109700Y94492D01*
X-109725Y94513D01*
X-109751Y94547D01*
X-112710Y97294D01*
X-112737Y97311D01*
X-112768Y97341D01*
X-116104Y99616D01*
X-116133Y99629D01*
X-116168Y99654D01*
X-119806Y101407D01*
X-119836Y101414D01*
X-119875Y101434D01*
X-123733Y102625D01*
X-123765Y102628D01*
X-123806Y102642D01*
X-127798Y103245D01*
X-127830Y103243D01*
X-127872Y103251D01*
X-131910Y103252D01*
X-131941Y103246D01*
X-131984Y103246D01*
X-135977Y102646D01*
X-136007Y102635D01*
X-136050Y102629D01*
X-139909Y101440D01*
X-139937Y101425D01*
X-139978Y101413D01*
X-143616Y99662D01*
X-143638Y99646D01*
X-143664Y99636D01*
X-143717Y99586D01*
X-143775Y99542D01*
X-143788Y99519D01*
X-143808Y99500D01*
X-143838Y99433D01*
X-143874Y99370D01*
X-143877Y99343D01*
X-143888Y99318D01*
X-143889Y99245D01*
X-143898Y99172D01*
X-143890Y99146D01*
X-143890Y99119D01*
X-143854Y99020D01*
X-143842Y98981D01*
X-143836Y98974D01*
X-143832Y98963D01*
X-116832Y52163D01*
X-116814Y52143D01*
X-116803Y52118D01*
X-116749Y52069D01*
X-116701Y52014D01*
X-116676Y52002D01*
X-116656Y51984D01*
X-116587Y51960D01*
X-116521Y51928D01*
X-116494Y51927D01*
X-116469Y51918D01*
X-116396Y51923D01*
G37*
G36*
X27027Y319D02*
X27027Y319D01*
X27054Y316D01*
X27123Y338D01*
X27195Y353D01*
X27217Y368D01*
X27243Y377D01*
X27299Y424D01*
X27359Y465D01*
X27373Y488D01*
X27394Y506D01*
X27427Y571D01*
X27466Y633D01*
X27470Y660D01*
X27482Y684D01*
X27492Y789D01*
X27499Y829D01*
X27497Y838D01*
X27498Y850D01*
X27196Y4874D01*
X27188Y4905D01*
X27185Y4948D01*
X26287Y8882D01*
X26274Y8911D01*
X26265Y8953D01*
X24791Y12710D01*
X24774Y12737D01*
X24759Y12777D01*
X22741Y16272D01*
X22720Y16296D01*
X22699Y16333D01*
X20183Y19488D01*
X20158Y19509D01*
X20132Y19543D01*
X17174Y22288D01*
X17147Y22304D01*
X17115Y22334D01*
X13781Y24608D01*
X13752Y24620D01*
X13717Y24645D01*
X10081Y26396D01*
X10050Y26404D01*
X10011Y26423D01*
X6155Y27613D01*
X6124Y27616D01*
X6082Y27629D01*
X2092Y28231D01*
X2060Y28229D01*
X2018Y28236D01*
X-2018Y28236D01*
X-2049Y28230D01*
X-2092Y28231D01*
X-6082Y27629D01*
X-6112Y27618D01*
X-6155Y27613D01*
X-10011Y26423D01*
X-10039Y26408D01*
X-10081Y26396D01*
X-13717Y24645D01*
X-13742Y24626D01*
X-13781Y24608D01*
X-17115Y22334D01*
X-17138Y22312D01*
X-17174Y22288D01*
X-20132Y19543D01*
X-20151Y19517D01*
X-20183Y19488D01*
X-22699Y16333D01*
X-22713Y16305D01*
X-22741Y16272D01*
X-24759Y12777D01*
X-24769Y12747D01*
X-24791Y12710D01*
X-26265Y8953D01*
X-26271Y8922D01*
X-26287Y8882D01*
X-27185Y4948D01*
X-27186Y4916D01*
X-27196Y4874D01*
X-27498Y850D01*
X-27494Y823D01*
X-27499Y796D01*
X-27482Y725D01*
X-27473Y653D01*
X-27459Y629D01*
X-27453Y603D01*
X-27410Y544D01*
X-27373Y481D01*
X-27351Y464D01*
X-27335Y442D01*
X-27272Y405D01*
X-27214Y361D01*
X-27187Y355D01*
X-27164Y341D01*
X-27060Y323D01*
X-27021Y314D01*
X-27011Y315D01*
X-27000Y313D01*
X27000Y313D01*
X27027Y319D01*
G37*
%LPC*%
G36*
X-47163Y181669D02*
X-47163Y181669D01*
X-49241Y182530D01*
X-50542Y183831D01*
X-50636Y183904D01*
X-50725Y183982D01*
X-50761Y184001D01*
X-50793Y184026D01*
X-50902Y184073D01*
X-51008Y184127D01*
X-51048Y184136D01*
X-51085Y184152D01*
X-51202Y184171D01*
X-51318Y184197D01*
X-51359Y184196D01*
X-51399Y184202D01*
X-51517Y184191D01*
X-51636Y184187D01*
X-51675Y184176D01*
X-51715Y184172D01*
X-51828Y184132D01*
X-51942Y184099D01*
X-51977Y184078D01*
X-52015Y184064D01*
X-52113Y183998D01*
X-52204Y183944D01*
X-71802Y183944D01*
X-72918Y185061D01*
X-72918Y188595D01*
X-72933Y188713D01*
X-72941Y188832D01*
X-72953Y188870D01*
X-72958Y188911D01*
X-73002Y189021D01*
X-73039Y189134D01*
X-73060Y189169D01*
X-73075Y189206D01*
X-73145Y189302D01*
X-73209Y189403D01*
X-73238Y189431D01*
X-73262Y189464D01*
X-73354Y189540D01*
X-73440Y189621D01*
X-73476Y189641D01*
X-73507Y189666D01*
X-73615Y189717D01*
X-73719Y189775D01*
X-73758Y189785D01*
X-73795Y189802D01*
X-73911Y189824D01*
X-74027Y189854D01*
X-74087Y189858D01*
X-74107Y189862D01*
X-74127Y189860D01*
X-74187Y189864D01*
X-74369Y189864D01*
X-74487Y189849D01*
X-74605Y189842D01*
X-74644Y189829D01*
X-74684Y189824D01*
X-74795Y189781D01*
X-74908Y189744D01*
X-74942Y189722D01*
X-74980Y189707D01*
X-75076Y189638D01*
X-75177Y189574D01*
X-75204Y189544D01*
X-75237Y189521D01*
X-75313Y189429D01*
X-76754Y187988D01*
X-86333Y187988D01*
X-87449Y189104D01*
X-87449Y193644D01*
X-87450Y193653D01*
X-87449Y193663D01*
X-87470Y193811D01*
X-87489Y193960D01*
X-87493Y193968D01*
X-87494Y193978D01*
X-87546Y194130D01*
X-88529Y196504D01*
X-88529Y199283D01*
X-87546Y201657D01*
X-87543Y201666D01*
X-87539Y201674D01*
X-87501Y201819D01*
X-87462Y201964D01*
X-87462Y201973D01*
X-87459Y201982D01*
X-87449Y202143D01*
X-87449Y206683D01*
X-86333Y207799D01*
X-76754Y207799D01*
X-75638Y206683D01*
X-75638Y205105D01*
X-75623Y204987D01*
X-75615Y204868D01*
X-75603Y204830D01*
X-75598Y204789D01*
X-75554Y204679D01*
X-75517Y204566D01*
X-75496Y204531D01*
X-75481Y204494D01*
X-75411Y204398D01*
X-75347Y204297D01*
X-75318Y204269D01*
X-75294Y204236D01*
X-75202Y204160D01*
X-75116Y204079D01*
X-75080Y204059D01*
X-75049Y204034D01*
X-74941Y203983D01*
X-74837Y203925D01*
X-74798Y203915D01*
X-74761Y203898D01*
X-74645Y203876D01*
X-74529Y203846D01*
X-74469Y203842D01*
X-74449Y203838D01*
X-74429Y203840D01*
X-74369Y203836D01*
X-74187Y203836D01*
X-74069Y203851D01*
X-73951Y203858D01*
X-73912Y203871D01*
X-73872Y203876D01*
X-73761Y203919D01*
X-73648Y203956D01*
X-73614Y203978D01*
X-73576Y203993D01*
X-73480Y204062D01*
X-73379Y204126D01*
X-73352Y204156D01*
X-73319Y204179D01*
X-73243Y204271D01*
X-73161Y204358D01*
X-73142Y204393D01*
X-73116Y204424D01*
X-73065Y204532D01*
X-73008Y204636D01*
X-72998Y204676D01*
X-72981Y204712D01*
X-72958Y204829D01*
X-72928Y204944D01*
X-72925Y205004D01*
X-72921Y205024D01*
X-72922Y205045D01*
X-72918Y205105D01*
X-72918Y208639D01*
X-71802Y209756D01*
X-52223Y209756D01*
X-51107Y208639D01*
X-51107Y207534D01*
X-51101Y207485D01*
X-51103Y207435D01*
X-51081Y207328D01*
X-51067Y207219D01*
X-51049Y207172D01*
X-51039Y207124D01*
X-50990Y207025D01*
X-50950Y206923D01*
X-50921Y206883D01*
X-50899Y206838D01*
X-50828Y206754D01*
X-50763Y206665D01*
X-50725Y206634D01*
X-50693Y206596D01*
X-50603Y206533D01*
X-50518Y206463D01*
X-50473Y206442D01*
X-50433Y206413D01*
X-50330Y206374D01*
X-50230Y206327D01*
X-50182Y206318D01*
X-50135Y206300D01*
X-50026Y206288D01*
X-49918Y206267D01*
X-49869Y206270D01*
X-49819Y206265D01*
X-49710Y206280D01*
X-49601Y206287D01*
X-49553Y206302D01*
X-49504Y206309D01*
X-49352Y206361D01*
X-47163Y207268D01*
X-44912Y207268D01*
X-42834Y206407D01*
X-41243Y204816D01*
X-40382Y202738D01*
X-40382Y200487D01*
X-41243Y198409D01*
X-42834Y196818D01*
X-44912Y195957D01*
X-45653Y195957D01*
X-45739Y195946D01*
X-45825Y195945D01*
X-45896Y195926D01*
X-45969Y195917D01*
X-46049Y195885D01*
X-46132Y195863D01*
X-46196Y195827D01*
X-46264Y195800D01*
X-46334Y195749D01*
X-46409Y195707D01*
X-46462Y195656D01*
X-46522Y195613D01*
X-46577Y195547D01*
X-46639Y195487D01*
X-46677Y195425D01*
X-46724Y195368D01*
X-46761Y195290D01*
X-46807Y195217D01*
X-46829Y195147D01*
X-46860Y195080D01*
X-46876Y194996D01*
X-46902Y194914D01*
X-46906Y194840D01*
X-46920Y194768D01*
X-46914Y194682D01*
X-46919Y194596D01*
X-46905Y194524D01*
X-46900Y194451D01*
X-46874Y194369D01*
X-46857Y194284D01*
X-46825Y194218D01*
X-46802Y194148D01*
X-46756Y194075D01*
X-46719Y193998D01*
X-46671Y193942D01*
X-46632Y193879D01*
X-46569Y193820D01*
X-46514Y193755D01*
X-46408Y193669D01*
X-46400Y193661D01*
X-46396Y193659D01*
X-46389Y193653D01*
X-45773Y193216D01*
X-45639Y193143D01*
X-45506Y193070D01*
X-45499Y193069D01*
X-45493Y193065D01*
X-45344Y193029D01*
X-45198Y192991D01*
X-45189Y192990D01*
X-45184Y192989D01*
X-45173Y192989D01*
X-45038Y192981D01*
X-44912Y192981D01*
X-42834Y192120D01*
X-41243Y190529D01*
X-40382Y188450D01*
X-40382Y186200D01*
X-41243Y184121D01*
X-42834Y182530D01*
X-44912Y181669D01*
X-47163Y181669D01*
G37*
%LPD*%
G36*
X156833Y165422D02*
X156833Y165422D01*
X156862Y165420D01*
X156990Y165442D01*
X157119Y165458D01*
X157146Y165469D01*
X157175Y165474D01*
X157294Y165527D01*
X157415Y165575D01*
X157438Y165592D01*
X157465Y165604D01*
X157567Y165686D01*
X157583Y165697D01*
X157605Y165703D01*
X157754Y165743D01*
X157757Y165745D01*
X157760Y165746D01*
X157895Y165822D01*
X158031Y165899D01*
X158034Y165902D01*
X158036Y165903D01*
X158040Y165907D01*
X158154Y166003D01*
X158655Y166484D01*
X158751Y166603D01*
X158851Y166726D01*
X158853Y166729D01*
X158855Y166732D01*
X158919Y166873D01*
X158962Y166965D01*
X159566Y167382D01*
X159582Y167397D01*
X159601Y167407D01*
X159724Y167511D01*
X160497Y168254D01*
X160527Y168271D01*
X160582Y168320D01*
X160600Y168332D01*
X160612Y168346D01*
X160648Y168378D01*
X160935Y168665D01*
X161004Y168754D01*
X161079Y168837D01*
X161101Y168879D01*
X161130Y168917D01*
X161175Y169020D01*
X161227Y169119D01*
X161238Y169165D01*
X161257Y169208D01*
X161274Y169319D01*
X161300Y169429D01*
X161299Y169476D01*
X161306Y169522D01*
X161296Y169635D01*
X161294Y169747D01*
X161281Y169792D01*
X161277Y169839D01*
X161239Y169945D01*
X161208Y170053D01*
X161176Y170118D01*
X161169Y170138D01*
X161159Y170153D01*
X161137Y170197D01*
X144520Y198979D01*
X144477Y199036D01*
X144442Y199099D01*
X144381Y199162D01*
X144328Y199232D01*
X144272Y199277D01*
X144223Y199329D01*
X144148Y199375D01*
X144079Y199430D01*
X144013Y199459D01*
X143953Y199497D01*
X143869Y199524D01*
X143788Y199559D01*
X143718Y199571D01*
X143650Y199593D01*
X143562Y199598D01*
X143475Y199613D01*
X143403Y199607D01*
X143332Y199611D01*
X143246Y199593D01*
X143158Y199586D01*
X143090Y199563D01*
X143020Y199549D01*
X142871Y199488D01*
X141894Y199018D01*
X141891Y199016D01*
X141887Y199015D01*
X141756Y198929D01*
X141627Y198846D01*
X141625Y198843D01*
X141621Y198840D01*
X141517Y198726D01*
X141464Y198669D01*
X140733Y198444D01*
X140720Y198438D01*
X140706Y198435D01*
X140557Y198375D01*
X139868Y198043D01*
X139797Y198058D01*
X139793Y198058D01*
X139789Y198059D01*
X139635Y198052D01*
X139479Y198046D01*
X139475Y198044D01*
X139471Y198044D01*
X139314Y198007D01*
X137767Y197530D01*
X137763Y197528D01*
X137759Y197527D01*
X137619Y197463D01*
X137477Y197399D01*
X137474Y197396D01*
X137470Y197395D01*
X137350Y197297D01*
X137290Y197249D01*
X136533Y197135D01*
X136519Y197131D01*
X136505Y197130D01*
X136348Y197093D01*
X135617Y196868D01*
X135550Y196893D01*
X135546Y196894D01*
X135542Y196895D01*
X135386Y196911D01*
X135234Y196928D01*
X135229Y196927D01*
X135225Y196928D01*
X135065Y196914D01*
X133464Y196673D01*
X133460Y196672D01*
X133456Y196672D01*
X133305Y196628D01*
X133158Y196587D01*
X133154Y196585D01*
X133150Y196584D01*
X133016Y196504D01*
X132950Y196466D01*
X132185Y196467D01*
X132171Y196465D01*
X132156Y196466D01*
X131996Y196452D01*
X131240Y196339D01*
X131176Y196374D01*
X131172Y196375D01*
X131169Y196377D01*
X131017Y196416D01*
X130869Y196456D01*
X130865Y196456D01*
X130861Y196457D01*
X130700Y196467D01*
X129081Y196468D01*
X129077Y196467D01*
X129073Y196468D01*
X128919Y196447D01*
X128765Y196428D01*
X128762Y196426D01*
X128758Y196426D01*
X128612Y196367D01*
X128542Y196340D01*
X127786Y196454D01*
X127771Y196454D01*
X127757Y196458D01*
X127596Y196468D01*
X126832Y196468D01*
X126775Y196513D01*
X126771Y196514D01*
X126767Y196517D01*
X126626Y196577D01*
X126483Y196639D01*
X126479Y196640D01*
X126475Y196641D01*
X126317Y196676D01*
X124812Y196903D01*
X124757Y196904D01*
X124703Y196915D01*
X124599Y196908D01*
X124494Y196911D01*
X124440Y196898D01*
X124386Y196895D01*
X124286Y196863D01*
X124184Y196839D01*
X124135Y196814D01*
X124083Y196797D01*
X123995Y196741D01*
X123902Y196693D01*
X123861Y196656D01*
X123814Y196627D01*
X123743Y196551D01*
X123665Y196481D01*
X123634Y196435D01*
X123596Y196395D01*
X123546Y196304D01*
X123488Y196217D01*
X123469Y196165D01*
X123443Y196117D01*
X123417Y196016D01*
X123382Y195917D01*
X123377Y195862D01*
X123363Y195809D01*
X123353Y195648D01*
X123353Y166688D01*
X123368Y166569D01*
X123376Y166451D01*
X123388Y166412D01*
X123393Y166372D01*
X123437Y166261D01*
X123474Y166148D01*
X123495Y166114D01*
X123510Y166076D01*
X123580Y165980D01*
X123644Y165879D01*
X123673Y165852D01*
X123697Y165819D01*
X123789Y165743D01*
X123875Y165661D01*
X123911Y165642D01*
X123942Y165616D01*
X124050Y165565D01*
X124154Y165508D01*
X124193Y165498D01*
X124230Y165481D01*
X124346Y165458D01*
X124462Y165428D01*
X124522Y165425D01*
X124542Y165421D01*
X124562Y165422D01*
X124622Y165418D01*
X156804Y165418D01*
X156833Y165422D01*
G37*
%LPC*%
G36*
X73579Y222413D02*
X73579Y222413D01*
X72463Y223530D01*
X72463Y228070D01*
X72462Y228079D01*
X72463Y228088D01*
X72442Y228237D01*
X72423Y228385D01*
X72420Y228394D01*
X72418Y228403D01*
X72366Y228555D01*
X71383Y230929D01*
X71383Y243413D01*
X71368Y243531D01*
X71361Y243649D01*
X71348Y243688D01*
X71343Y243728D01*
X71299Y243839D01*
X71263Y243952D01*
X71241Y243986D01*
X71226Y244024D01*
X71156Y244120D01*
X71092Y244221D01*
X71063Y244248D01*
X71039Y244281D01*
X70947Y244357D01*
X70861Y244439D01*
X70825Y244458D01*
X70794Y244484D01*
X70687Y244535D01*
X70582Y244592D01*
X70543Y244602D01*
X70506Y244619D01*
X70390Y244642D01*
X70274Y244672D01*
X70214Y244675D01*
X70194Y244679D01*
X70174Y244678D01*
X70114Y244682D01*
X60061Y244682D01*
X58944Y245798D01*
X58944Y265377D01*
X60061Y266493D01*
X79639Y266493D01*
X80756Y265377D01*
X80756Y255087D01*
X80768Y254989D01*
X80771Y254890D01*
X80788Y254831D01*
X80796Y254771D01*
X80832Y254679D01*
X80860Y254584D01*
X80890Y254532D01*
X80913Y254476D01*
X80971Y254396D01*
X81021Y254310D01*
X81087Y254235D01*
X81099Y254218D01*
X81109Y254210D01*
X81127Y254189D01*
X84291Y251026D01*
X85354Y248458D01*
X85354Y230929D01*
X84371Y228555D01*
X84369Y228546D01*
X84364Y228538D01*
X84327Y228393D01*
X84287Y228249D01*
X84287Y228239D01*
X84285Y228230D01*
X84274Y228070D01*
X84274Y223530D01*
X83158Y222413D01*
X73579Y222413D01*
G37*
%LPD*%
%LPC*%
G36*
X-86333Y221988D02*
X-86333Y221988D01*
X-87449Y223104D01*
X-87449Y227644D01*
X-87450Y227653D01*
X-87449Y227663D01*
X-87470Y227811D01*
X-87489Y227960D01*
X-87493Y227968D01*
X-87494Y227978D01*
X-87546Y228130D01*
X-88529Y230504D01*
X-88529Y245584D01*
X-87466Y248151D01*
X-81427Y254189D01*
X-81367Y254268D01*
X-81299Y254340D01*
X-81270Y254393D01*
X-81233Y254441D01*
X-81193Y254532D01*
X-81145Y254618D01*
X-81130Y254677D01*
X-81106Y254732D01*
X-81091Y254830D01*
X-81066Y254926D01*
X-81060Y255026D01*
X-81056Y255047D01*
X-81058Y255059D01*
X-81056Y255087D01*
X-81056Y257757D01*
X-79395Y261765D01*
X-76328Y264833D01*
X-72319Y266493D01*
X-67981Y266493D01*
X-63972Y264833D01*
X-60905Y261765D01*
X-59244Y257757D01*
X-59244Y253418D01*
X-60905Y249410D01*
X-63972Y246342D01*
X-67981Y244682D01*
X-70651Y244682D01*
X-70749Y244669D01*
X-70848Y244666D01*
X-70906Y244650D01*
X-70966Y244642D01*
X-71058Y244605D01*
X-71153Y244578D01*
X-71206Y244547D01*
X-71262Y244525D01*
X-71342Y244467D01*
X-71427Y244416D01*
X-71503Y244350D01*
X-71519Y244338D01*
X-71527Y244329D01*
X-71548Y244310D01*
X-74186Y241672D01*
X-74247Y241594D01*
X-74315Y241522D01*
X-74344Y241469D01*
X-74381Y241421D01*
X-74420Y241330D01*
X-74468Y241243D01*
X-74483Y241185D01*
X-74507Y241129D01*
X-74523Y241031D01*
X-74548Y240935D01*
X-74554Y240835D01*
X-74557Y240815D01*
X-74556Y240803D01*
X-74558Y240775D01*
X-74558Y230504D01*
X-75541Y228130D01*
X-75544Y228121D01*
X-75548Y228113D01*
X-75586Y227968D01*
X-75625Y227823D01*
X-75625Y227814D01*
X-75628Y227805D01*
X-75638Y227644D01*
X-75638Y223104D01*
X-76754Y221988D01*
X-86333Y221988D01*
G37*
%LPD*%
%LPC*%
G36*
X32681Y244682D02*
X32681Y244682D01*
X28672Y246342D01*
X25605Y249410D01*
X23944Y253418D01*
X23944Y257757D01*
X25605Y261765D01*
X28672Y264833D01*
X32681Y266493D01*
X37019Y266493D01*
X41028Y264833D01*
X44095Y261765D01*
X45756Y257757D01*
X45756Y253418D01*
X44095Y249410D01*
X41028Y246342D01*
X37019Y244682D01*
X32681Y244682D01*
G37*
%LPD*%
%LPC*%
G36*
X-37319Y244682D02*
X-37319Y244682D01*
X-41328Y246342D01*
X-44395Y249410D01*
X-46056Y253418D01*
X-46056Y257757D01*
X-44395Y261765D01*
X-41328Y264833D01*
X-37319Y266493D01*
X-32981Y266493D01*
X-28972Y264833D01*
X-25905Y261765D01*
X-24244Y257757D01*
X-24244Y253418D01*
X-25905Y249410D01*
X-28972Y246342D01*
X-32981Y244682D01*
X-37319Y244682D01*
G37*
%LPD*%
D10*
X24700Y161925D03*
X12700Y161925D03*
X700Y161925D03*
D11*
X52388Y98425D03*
D12*
X57150Y81525D03*
X57150Y64525D03*
X49213Y172013D03*
X49213Y155013D03*
D13*
X-15875Y156600D03*
X-15875Y173600D03*
X-44450Y143438D03*
X-44450Y126438D03*
D12*
X-5325Y52388D03*
X11675Y52388D03*
D14*
X-26988Y155600D03*
X-26988Y174600D03*
X-55563Y144438D03*
X-55563Y125438D03*
D15*
X-6325Y41275D03*
X12675Y41275D03*
D16*
X-24532Y134275D03*
X-19531Y134275D03*
X-14529Y134275D03*
X-9528Y134275D03*
X-4527Y134275D03*
X474Y134275D03*
X5476Y134275D03*
X10477Y134275D03*
X15478Y134275D03*
X20479Y134275D03*
X25481Y134275D03*
X30482Y134275D03*
D17*
X36775Y127982D03*
X36775Y122981D03*
X36775Y117979D03*
X36775Y112978D03*
X36775Y107977D03*
X36775Y102976D03*
X36775Y97974D03*
X36775Y92973D03*
X36775Y87972D03*
X36775Y82971D03*
X36775Y77969D03*
X36775Y72968D03*
D16*
X30482Y66675D03*
X25481Y66675D03*
X20479Y66675D03*
X15478Y66675D03*
X10477Y66675D03*
X5476Y66675D03*
X474Y66675D03*
X-4527Y66675D03*
X-9528Y66675D03*
X-14529Y66675D03*
X-19531Y66675D03*
X-24532Y66675D03*
D17*
X-30825Y72968D03*
X-30825Y77969D03*
X-30825Y82971D03*
X-30825Y87972D03*
X-30825Y92973D03*
X-30825Y97974D03*
X-30825Y102976D03*
X-30825Y107977D03*
X-30825Y112978D03*
X-30825Y117979D03*
X-30825Y122981D03*
X-30825Y127982D03*
D18*
X2975Y100475D03*
D19*
X58838Y196850D03*
X7838Y196850D03*
X-11013Y196850D03*
X-62013Y196850D03*
D20*
X78369Y232319D03*
X78369Y198319D03*
X-81544Y231894D03*
X-81544Y197894D03*
D21*
X-50800Y85725D03*
X-50800Y60325D03*
X-50800Y34925D03*
D22*
X165200Y150813D03*
X82600Y7713D03*
X-82600Y7713D03*
X-165200Y150813D03*
X123900Y222313D03*
X123900Y79313D03*
X0Y7713D03*
X-123900Y79313D03*
X-123900Y222313D03*
D23*
X69850Y255588D03*
D24*
X34850Y255588D03*
X-150Y255588D03*
X-35150Y255588D03*
X-70150Y255588D03*
D25*
X474Y66675D02*
X474Y58187D01*
X-5325Y52388D01*
D26*
X-5325Y42275D01*
X-6325Y41275D01*
D27*
X-98425Y88900D03*
D28*
X-98425Y91724D01*
X-117826Y111125D02*
X-127000Y111125D01*
D27*
X-127000Y111125D03*
D28*
X-117826Y111125D02*
X-98425Y91724D01*
D27*
X-12700Y53975D03*
D29*
X-11113Y52388D02*
X-5325Y52388D01*
X-11113Y52388D02*
X-12700Y53975D01*
D25*
X5476Y58587D02*
X5476Y66675D01*
X5476Y58587D02*
X11675Y52388D01*
D26*
X11675Y42275D01*
X12675Y41275D01*
D29*
X12700Y169863D02*
X15875Y173038D01*
X12700Y169863D02*
X12700Y161925D01*
X47625Y155013D02*
X49213Y155013D01*
X47625Y155013D02*
X29600Y173038D01*
X15875Y173038D01*
D30*
X20638Y77788D03*
D27*
X104775Y150813D03*
X128588Y149225D03*
X115888Y109538D03*
X104775Y117475D03*
X93663Y82550D03*
X80963Y95250D03*
D30*
X6350Y114300D03*
X52388Y49213D03*
D27*
X36513Y42863D03*
X36513Y31750D03*
X-20638Y42863D03*
X-20638Y31750D03*
X-96838Y47625D03*
X-93663Y77788D03*
X11113Y44450D03*
D31*
X2975Y100475D02*
X2975Y110925D01*
X6350Y114300D01*
D27*
X-88900Y144463D03*
D25*
X-26988Y155600D02*
X-16875Y155600D01*
X-15875Y156600D01*
X-16875Y147995D02*
X-14288Y145407D01*
X-16875Y147995D02*
X-16875Y155600D01*
X-14288Y145407D02*
X-4570Y145407D01*
X474Y140363D02*
X474Y134275D01*
X474Y140363D02*
X-4570Y145407D01*
D29*
X-77763Y155600D02*
X-88900Y144463D01*
X-77763Y155600D02*
X-26988Y155600D01*
D27*
X77788Y293688D03*
X34925Y293688D03*
X-25400Y293688D03*
X-57150Y295275D03*
X92075Y263525D03*
X-65088Y228600D03*
X60325Y231775D03*
X23813Y209550D03*
X0Y188913D03*
X-74613Y173038D03*
X65088Y177800D03*
X85725Y176213D03*
X63500Y220663D03*
X92075Y231775D03*
X-76200Y122238D03*
D25*
X5476Y134275D02*
X5476Y142365D01*
X-7446Y155287D02*
X-7446Y163520D01*
X-15875Y171949D02*
X-15875Y173600D01*
X-15875Y171949D02*
X-7446Y163520D01*
X-7446Y155287D02*
X5476Y142365D01*
D27*
X141288Y180975D03*
D25*
X57150Y64525D02*
X54620Y64525D01*
X53566Y63471D01*
D30*
X53566Y63471D03*
D25*
X24277Y145253D02*
X24277Y146840D01*
X20479Y141455D02*
X20479Y134275D01*
X20479Y141455D02*
X24277Y145253D01*
D30*
X24277Y146840D03*
D25*
X-24532Y66675D02*
X-24532Y63500D01*
X-32470Y55563D01*
X-46038Y55563D01*
X-50800Y60325D01*
X24700Y156901D02*
X24700Y161925D01*
X24700Y156901D02*
X15478Y147679D01*
X15478Y134275D01*
X700Y156901D02*
X700Y161925D01*
X700Y156901D02*
X10477Y147124D01*
X10477Y134275D01*
X-19531Y66675D02*
X-19579Y66627D01*
X-19579Y60955D02*
X-45609Y34925D01*
X-50800Y34925D01*
X-19579Y60955D02*
X-19579Y66627D01*
D30*
X105264Y98143D03*
D25*
X47279Y127982D02*
X36775Y127982D01*
X47279Y127982D02*
X47349Y128052D01*
X75355Y128052D01*
X105264Y98143D01*
X49283Y122981D02*
X36775Y122981D01*
X49283Y122981D02*
X49401Y123099D01*
X70577Y123099D01*
X98053Y95622D02*
X98053Y95156D01*
X113897Y79313D01*
X123900Y79313D01*
X98053Y95622D02*
X70577Y123099D01*
D30*
X-96778Y65886D03*
D25*
X-37660Y92973D02*
X-30825Y92973D01*
X-37660Y92973D02*
X-43048Y98362D01*
X-56365Y98362D01*
X-88840Y65886D01*
X-96778Y65886D01*
X-103389Y58801D02*
X-84718Y58801D01*
X-103389Y58801D02*
X-123900Y79313D01*
X-84718Y58801D02*
X-70430Y73089D01*
X-46223Y73089D02*
X-39751Y79561D01*
X-39751Y83130D01*
X-34909Y87972D01*
X-30825Y87972D01*
X-46223Y73089D02*
X-70430Y73089D01*
X-96838Y195250D02*
X-123900Y222313D01*
X-96838Y195250D02*
X-96838Y128813D01*
X-77183Y109159D01*
X-46380Y109159D01*
X-37559Y117979D02*
X-30825Y117979D01*
X-37559Y117979D02*
X-46380Y109159D01*
X-103187Y189512D02*
X-111124Y197450D01*
X-103187Y189512D02*
X-103187Y128158D01*
D30*
X-111124Y197450D03*
D25*
X-103187Y128158D02*
X-79234Y104206D01*
X-35556Y112978D02*
X-30825Y112978D01*
X-35556Y112978D02*
X-44328Y104206D01*
X-79234Y104206D01*
D30*
X101600Y206375D03*
D25*
X25481Y139038D02*
X25481Y134275D01*
X25481Y139038D02*
X27513Y141069D01*
X107818Y141069D01*
X114300Y193675D02*
X101600Y206375D01*
X114300Y193675D02*
X114300Y147551D01*
X107818Y141069D01*
X109548Y134275D02*
X30482Y134275D01*
X109548Y134275D02*
X119924Y144651D01*
X119924Y218336D01*
X123900Y222313D01*
D27*
X-58738Y139700D03*
D25*
X-4613Y134361D02*
X-4527Y134275D01*
X-41467Y140454D02*
X-44450Y143438D01*
X-6622Y140454D02*
X-4613Y138445D01*
X-4613Y134361D01*
X-6622Y140454D02*
X-41467Y140454D01*
D29*
X-55563Y142875D02*
X-55563Y144438D01*
X-55563Y142875D02*
X-58738Y139700D01*
X-54563Y143438D02*
X-44450Y143438D01*
X-54563Y143438D02*
X-55563Y144438D01*
D32*
X-62013Y196850D02*
X-80500Y196850D01*
X-81544Y197894D01*
D33*
X-62013Y196850D02*
X-46038Y201613D01*
D27*
X-46038Y201613D03*
D33*
X-59433Y196850D02*
X-46038Y187325D01*
X-59433Y196850D02*
X-62013Y196850D01*
D27*
X-46038Y187325D03*
D32*
X60306Y198319D02*
X78369Y198319D01*
X60306Y198319D02*
X58838Y196850D01*
D33*
X47625Y196850D01*
X42863Y201613D01*
D27*
X42863Y201613D03*
D33*
X50800Y196850D02*
X58838Y196850D01*
X50800Y196850D02*
X34925Y180975D01*
D27*
X34925Y180975D03*
D30*
X52388Y115888D03*
D25*
X50296Y117979D01*
X36775Y117979D01*
D32*
X-81544Y244194D02*
X-70150Y255588D01*
X-81544Y244194D02*
X-81544Y231894D01*
X69850Y255588D02*
X78369Y247069D01*
X78369Y232319D01*
D25*
X47907Y77926D02*
X47907Y68010D01*
X36824Y82922D02*
X36775Y82971D01*
X36824Y82922D02*
X42911Y82922D01*
X47907Y77926D01*
D30*
X27486Y21466D03*
D25*
X27557Y30303D02*
X27557Y47660D01*
X27557Y30303D02*
X27486Y30232D01*
X27486Y21466D01*
X27557Y47660D02*
X47907Y68010D01*
X42954Y70062D02*
X42954Y75874D01*
X40945Y77883D01*
X36861Y77883D01*
X36775Y77969D01*
X0Y9751D02*
X0Y7713D01*
X0Y9751D02*
X22604Y32355D01*
X22604Y49712D01*
X42954Y70062D01*
X44865Y87972D02*
X36775Y87972D01*
X51312Y81525D02*
X57150Y81525D01*
X51312Y81525D02*
X44865Y87972D01*
M02*
