G04 EAGLE Gerber RS-274X export*
G75*
%MOMM*%
%FSLAX34Y34*%
%LPD*%
%INSilkscreen Bottom*%
%IPPOS*%
%AMOC8*
5,1,8,0,0,1.08239X$1,22.5*%
G01*
%ADD10C,0.152400*%
%ADD11C,0.101600*%
%ADD12C,0.076200*%
%ADD13C,0.254000*%
%ADD14C,0.406400*%
%ADD15C,0.050800*%

G36*
X22386Y140482D02*
X22386Y140482D01*
X22388Y140481D01*
X22431Y140501D01*
X22475Y140519D01*
X22475Y140521D01*
X22477Y140522D01*
X22510Y140607D01*
X22510Y143147D01*
X22509Y143149D01*
X22510Y143151D01*
X22490Y143194D01*
X22472Y143238D01*
X22470Y143238D01*
X22469Y143240D01*
X22384Y143273D01*
X18574Y143273D01*
X18572Y143272D01*
X18570Y143273D01*
X18527Y143253D01*
X18483Y143235D01*
X18483Y143233D01*
X18481Y143232D01*
X18448Y143147D01*
X18448Y140607D01*
X18449Y140605D01*
X18448Y140603D01*
X18468Y140560D01*
X18486Y140516D01*
X18488Y140516D01*
X18489Y140514D01*
X18574Y140481D01*
X22384Y140481D01*
X22386Y140482D01*
G37*
G36*
X45649Y90943D02*
X45649Y90943D01*
X45651Y90942D01*
X45694Y90962D01*
X45738Y90980D01*
X45738Y90982D01*
X45740Y90983D01*
X45773Y91068D01*
X45773Y94878D01*
X45772Y94880D01*
X45773Y94882D01*
X45753Y94925D01*
X45735Y94969D01*
X45733Y94969D01*
X45732Y94971D01*
X45647Y95004D01*
X43107Y95004D01*
X43105Y95003D01*
X43103Y95004D01*
X43060Y94984D01*
X43016Y94966D01*
X43016Y94964D01*
X43014Y94963D01*
X42981Y94878D01*
X42981Y91068D01*
X42982Y91066D01*
X42981Y91064D01*
X43001Y91021D01*
X43019Y90977D01*
X43021Y90977D01*
X43022Y90975D01*
X43107Y90942D01*
X45647Y90942D01*
X45649Y90943D01*
G37*
G36*
X7383Y57678D02*
X7383Y57678D01*
X7385Y57677D01*
X7428Y57697D01*
X7472Y57715D01*
X7472Y57717D01*
X7474Y57718D01*
X7507Y57803D01*
X7507Y60343D01*
X7506Y60345D01*
X7507Y60347D01*
X7487Y60390D01*
X7469Y60434D01*
X7467Y60434D01*
X7466Y60436D01*
X7381Y60469D01*
X3571Y60469D01*
X3569Y60468D01*
X3567Y60469D01*
X3524Y60449D01*
X3480Y60431D01*
X3480Y60429D01*
X3478Y60428D01*
X3445Y60343D01*
X3445Y57803D01*
X3446Y57801D01*
X3445Y57799D01*
X3465Y57756D01*
X3483Y57712D01*
X3485Y57712D01*
X3486Y57710D01*
X3571Y57677D01*
X7381Y57677D01*
X7383Y57678D01*
G37*
D10*
X134176Y186500D02*
X134176Y204280D01*
X129237Y204280D01*
X129097Y204278D01*
X128958Y204272D01*
X128818Y204262D01*
X128679Y204248D01*
X128540Y204231D01*
X128402Y204209D01*
X128265Y204183D01*
X128128Y204154D01*
X127992Y204121D01*
X127858Y204084D01*
X127724Y204043D01*
X127592Y203998D01*
X127460Y203949D01*
X127331Y203897D01*
X127203Y203842D01*
X127076Y203782D01*
X126951Y203719D01*
X126828Y203653D01*
X126707Y203583D01*
X126588Y203510D01*
X126471Y203433D01*
X126357Y203353D01*
X126244Y203270D01*
X126134Y203184D01*
X126027Y203094D01*
X125922Y203002D01*
X125820Y202907D01*
X125720Y202809D01*
X125623Y202708D01*
X125529Y202604D01*
X125439Y202498D01*
X125351Y202389D01*
X125266Y202278D01*
X125185Y202164D01*
X125106Y202049D01*
X125031Y201931D01*
X124960Y201811D01*
X124892Y201688D01*
X124827Y201565D01*
X124766Y201439D01*
X124708Y201311D01*
X124654Y201183D01*
X124604Y201052D01*
X124557Y200920D01*
X124514Y200787D01*
X124475Y200653D01*
X124440Y200518D01*
X124409Y200382D01*
X124381Y200244D01*
X124358Y200107D01*
X124338Y199968D01*
X124322Y199829D01*
X124310Y199690D01*
X124302Y199551D01*
X124298Y199411D01*
X124298Y199271D01*
X124302Y199131D01*
X124310Y198992D01*
X124322Y198853D01*
X124338Y198714D01*
X124358Y198575D01*
X124381Y198438D01*
X124409Y198300D01*
X124440Y198164D01*
X124475Y198029D01*
X124514Y197895D01*
X124557Y197762D01*
X124604Y197630D01*
X124654Y197499D01*
X124708Y197371D01*
X124766Y197243D01*
X124827Y197117D01*
X124892Y196994D01*
X124960Y196871D01*
X125031Y196751D01*
X125106Y196633D01*
X125185Y196518D01*
X125266Y196404D01*
X125351Y196293D01*
X125439Y196184D01*
X125529Y196078D01*
X125623Y195974D01*
X125720Y195873D01*
X125820Y195775D01*
X125922Y195680D01*
X126027Y195588D01*
X126134Y195498D01*
X126244Y195412D01*
X126357Y195329D01*
X126471Y195249D01*
X126588Y195172D01*
X126707Y195099D01*
X126828Y195029D01*
X126951Y194963D01*
X127076Y194900D01*
X127203Y194840D01*
X127331Y194785D01*
X127460Y194733D01*
X127592Y194684D01*
X127724Y194639D01*
X127858Y194598D01*
X127992Y194561D01*
X128128Y194528D01*
X128265Y194499D01*
X128402Y194473D01*
X128540Y194451D01*
X128679Y194434D01*
X128818Y194420D01*
X128958Y194410D01*
X129097Y194404D01*
X129237Y194402D01*
X134176Y194402D01*
X118180Y200328D02*
X113242Y204280D01*
X113242Y186500D01*
X118180Y186500D02*
X108303Y186500D01*
X137351Y112205D02*
X137351Y94425D01*
X137351Y112205D02*
X132412Y112205D01*
X132272Y112203D01*
X132133Y112197D01*
X131993Y112187D01*
X131854Y112173D01*
X131715Y112156D01*
X131577Y112134D01*
X131440Y112108D01*
X131303Y112079D01*
X131167Y112046D01*
X131033Y112009D01*
X130899Y111968D01*
X130767Y111923D01*
X130635Y111874D01*
X130506Y111822D01*
X130378Y111767D01*
X130251Y111707D01*
X130126Y111644D01*
X130003Y111578D01*
X129882Y111508D01*
X129763Y111435D01*
X129646Y111358D01*
X129532Y111278D01*
X129419Y111195D01*
X129309Y111109D01*
X129202Y111019D01*
X129097Y110927D01*
X128995Y110832D01*
X128895Y110734D01*
X128798Y110633D01*
X128704Y110529D01*
X128614Y110423D01*
X128526Y110314D01*
X128441Y110203D01*
X128360Y110089D01*
X128281Y109974D01*
X128206Y109856D01*
X128135Y109735D01*
X128067Y109613D01*
X128002Y109490D01*
X127941Y109364D01*
X127883Y109236D01*
X127829Y109108D01*
X127779Y108977D01*
X127732Y108845D01*
X127689Y108712D01*
X127650Y108578D01*
X127615Y108443D01*
X127584Y108307D01*
X127556Y108169D01*
X127533Y108032D01*
X127513Y107893D01*
X127497Y107754D01*
X127485Y107615D01*
X127477Y107476D01*
X127473Y107336D01*
X127473Y107196D01*
X127477Y107056D01*
X127485Y106917D01*
X127497Y106778D01*
X127513Y106639D01*
X127533Y106500D01*
X127556Y106363D01*
X127584Y106225D01*
X127615Y106089D01*
X127650Y105954D01*
X127689Y105820D01*
X127732Y105687D01*
X127779Y105555D01*
X127829Y105424D01*
X127883Y105296D01*
X127941Y105168D01*
X128002Y105042D01*
X128067Y104919D01*
X128135Y104796D01*
X128206Y104676D01*
X128281Y104558D01*
X128360Y104443D01*
X128441Y104329D01*
X128526Y104218D01*
X128614Y104109D01*
X128704Y104003D01*
X128798Y103899D01*
X128895Y103798D01*
X128995Y103700D01*
X129097Y103605D01*
X129202Y103513D01*
X129309Y103423D01*
X129419Y103337D01*
X129532Y103254D01*
X129646Y103174D01*
X129763Y103097D01*
X129882Y103024D01*
X130003Y102954D01*
X130126Y102888D01*
X130251Y102825D01*
X130378Y102765D01*
X130506Y102710D01*
X130635Y102658D01*
X130767Y102609D01*
X130899Y102564D01*
X131033Y102523D01*
X131167Y102486D01*
X131303Y102453D01*
X131440Y102424D01*
X131577Y102398D01*
X131715Y102376D01*
X131854Y102359D01*
X131993Y102345D01*
X132133Y102335D01*
X132272Y102329D01*
X132412Y102327D01*
X137351Y102327D01*
X115923Y112205D02*
X115791Y112203D01*
X115660Y112197D01*
X115528Y112187D01*
X115397Y112174D01*
X115267Y112156D01*
X115137Y112135D01*
X115007Y112110D01*
X114879Y112081D01*
X114751Y112048D01*
X114625Y112011D01*
X114499Y111971D01*
X114375Y111927D01*
X114252Y111879D01*
X114131Y111828D01*
X114011Y111773D01*
X113893Y111715D01*
X113777Y111653D01*
X113663Y111587D01*
X113550Y111519D01*
X113440Y111447D01*
X113332Y111372D01*
X113226Y111293D01*
X113122Y111212D01*
X113021Y111127D01*
X112923Y111040D01*
X112827Y110949D01*
X112734Y110856D01*
X112643Y110760D01*
X112556Y110662D01*
X112471Y110561D01*
X112390Y110457D01*
X112311Y110351D01*
X112236Y110243D01*
X112164Y110133D01*
X112096Y110020D01*
X112030Y109906D01*
X111968Y109790D01*
X111910Y109672D01*
X111855Y109552D01*
X111804Y109431D01*
X111756Y109308D01*
X111712Y109184D01*
X111672Y109058D01*
X111635Y108932D01*
X111602Y108804D01*
X111573Y108676D01*
X111548Y108546D01*
X111527Y108416D01*
X111509Y108286D01*
X111496Y108155D01*
X111486Y108023D01*
X111480Y107892D01*
X111478Y107760D01*
X115923Y112205D02*
X116073Y112203D01*
X116222Y112197D01*
X116371Y112187D01*
X116520Y112174D01*
X116669Y112156D01*
X116817Y112135D01*
X116965Y112109D01*
X117111Y112080D01*
X117257Y112047D01*
X117402Y112010D01*
X117546Y111969D01*
X117689Y111925D01*
X117831Y111877D01*
X117971Y111825D01*
X118110Y111770D01*
X118248Y111711D01*
X118383Y111648D01*
X118518Y111582D01*
X118650Y111512D01*
X118780Y111439D01*
X118909Y111362D01*
X119036Y111282D01*
X119160Y111199D01*
X119282Y111113D01*
X119402Y111023D01*
X119519Y110930D01*
X119634Y110835D01*
X119747Y110736D01*
X119857Y110634D01*
X119964Y110530D01*
X120068Y110423D01*
X120170Y110313D01*
X120268Y110200D01*
X120364Y110085D01*
X120456Y109967D01*
X120546Y109847D01*
X120632Y109725D01*
X120715Y109601D01*
X120795Y109474D01*
X120871Y109346D01*
X120944Y109215D01*
X121014Y109082D01*
X121080Y108948D01*
X121142Y108812D01*
X121201Y108675D01*
X121257Y108536D01*
X121308Y108395D01*
X121356Y108254D01*
X112960Y104303D02*
X112864Y104396D01*
X112772Y104492D01*
X112682Y104591D01*
X112595Y104692D01*
X112511Y104795D01*
X112429Y104900D01*
X112351Y105008D01*
X112276Y105118D01*
X112203Y105230D01*
X112134Y105344D01*
X112068Y105460D01*
X112006Y105578D01*
X111947Y105697D01*
X111891Y105818D01*
X111838Y105941D01*
X111789Y106065D01*
X111744Y106190D01*
X111701Y106317D01*
X111663Y106444D01*
X111628Y106573D01*
X111597Y106702D01*
X111569Y106833D01*
X111545Y106964D01*
X111524Y107096D01*
X111508Y107228D01*
X111495Y107361D01*
X111485Y107494D01*
X111480Y107627D01*
X111478Y107760D01*
X112959Y104302D02*
X121355Y94425D01*
X111478Y94425D01*
X99108Y101339D02*
X99108Y107266D01*
X99108Y101339D02*
X95651Y96894D01*
X99108Y101339D02*
X102565Y96894D01*
X99108Y101339D02*
X93675Y103315D01*
X99108Y101339D02*
X104541Y103315D01*
X-106715Y187833D02*
X-106715Y205613D01*
X-111654Y205613D01*
X-111794Y205611D01*
X-111933Y205605D01*
X-112073Y205595D01*
X-112212Y205581D01*
X-112351Y205564D01*
X-112489Y205542D01*
X-112626Y205516D01*
X-112763Y205487D01*
X-112899Y205454D01*
X-113033Y205417D01*
X-113167Y205376D01*
X-113299Y205331D01*
X-113431Y205282D01*
X-113560Y205230D01*
X-113688Y205175D01*
X-113815Y205115D01*
X-113940Y205052D01*
X-114063Y204986D01*
X-114184Y204916D01*
X-114303Y204843D01*
X-114420Y204766D01*
X-114534Y204686D01*
X-114647Y204603D01*
X-114757Y204517D01*
X-114864Y204427D01*
X-114969Y204335D01*
X-115071Y204240D01*
X-115171Y204142D01*
X-115268Y204041D01*
X-115362Y203937D01*
X-115452Y203831D01*
X-115540Y203722D01*
X-115625Y203611D01*
X-115706Y203497D01*
X-115785Y203382D01*
X-115860Y203264D01*
X-115931Y203144D01*
X-115999Y203021D01*
X-116064Y202898D01*
X-116125Y202772D01*
X-116183Y202644D01*
X-116237Y202516D01*
X-116287Y202385D01*
X-116334Y202253D01*
X-116377Y202120D01*
X-116416Y201986D01*
X-116451Y201851D01*
X-116482Y201715D01*
X-116510Y201577D01*
X-116533Y201440D01*
X-116553Y201301D01*
X-116569Y201162D01*
X-116581Y201023D01*
X-116589Y200884D01*
X-116593Y200744D01*
X-116593Y200604D01*
X-116589Y200464D01*
X-116581Y200325D01*
X-116569Y200186D01*
X-116553Y200047D01*
X-116533Y199908D01*
X-116510Y199771D01*
X-116482Y199633D01*
X-116451Y199497D01*
X-116416Y199362D01*
X-116377Y199228D01*
X-116334Y199095D01*
X-116287Y198963D01*
X-116237Y198832D01*
X-116183Y198704D01*
X-116125Y198576D01*
X-116064Y198450D01*
X-115999Y198327D01*
X-115931Y198204D01*
X-115860Y198084D01*
X-115785Y197966D01*
X-115706Y197851D01*
X-115625Y197737D01*
X-115540Y197626D01*
X-115452Y197517D01*
X-115362Y197411D01*
X-115268Y197307D01*
X-115171Y197206D01*
X-115071Y197108D01*
X-114969Y197013D01*
X-114864Y196921D01*
X-114757Y196831D01*
X-114647Y196745D01*
X-114534Y196662D01*
X-114420Y196582D01*
X-114303Y196505D01*
X-114184Y196432D01*
X-114063Y196362D01*
X-113940Y196296D01*
X-113815Y196233D01*
X-113688Y196173D01*
X-113560Y196118D01*
X-113431Y196066D01*
X-113299Y196017D01*
X-113167Y195972D01*
X-113033Y195931D01*
X-112899Y195894D01*
X-112763Y195861D01*
X-112626Y195832D01*
X-112489Y195806D01*
X-112351Y195784D01*
X-112212Y195767D01*
X-112073Y195753D01*
X-111933Y195743D01*
X-111794Y195737D01*
X-111654Y195735D01*
X-106715Y195735D01*
X-122710Y187833D02*
X-128637Y187833D01*
X-128761Y187835D01*
X-128885Y187841D01*
X-129009Y187851D01*
X-129132Y187864D01*
X-129255Y187882D01*
X-129377Y187903D01*
X-129499Y187928D01*
X-129620Y187957D01*
X-129739Y187990D01*
X-129858Y188026D01*
X-129975Y188067D01*
X-130091Y188110D01*
X-130206Y188158D01*
X-130319Y188209D01*
X-130431Y188264D01*
X-130540Y188322D01*
X-130648Y188383D01*
X-130754Y188448D01*
X-130858Y188516D01*
X-130959Y188588D01*
X-131059Y188662D01*
X-131155Y188740D01*
X-131250Y188820D01*
X-131342Y188904D01*
X-131431Y188990D01*
X-131517Y189079D01*
X-131601Y189171D01*
X-131681Y189266D01*
X-131759Y189362D01*
X-131833Y189462D01*
X-131905Y189563D01*
X-131973Y189667D01*
X-132038Y189773D01*
X-132099Y189881D01*
X-132157Y189990D01*
X-132212Y190102D01*
X-132263Y190215D01*
X-132311Y190330D01*
X-132354Y190446D01*
X-132395Y190563D01*
X-132431Y190682D01*
X-132464Y190801D01*
X-132493Y190922D01*
X-132518Y191044D01*
X-132539Y191166D01*
X-132557Y191289D01*
X-132570Y191412D01*
X-132580Y191536D01*
X-132586Y191660D01*
X-132588Y191784D01*
X-132588Y193760D01*
X-132586Y193884D01*
X-132580Y194008D01*
X-132570Y194132D01*
X-132557Y194255D01*
X-132539Y194378D01*
X-132518Y194500D01*
X-132493Y194622D01*
X-132464Y194743D01*
X-132431Y194862D01*
X-132395Y194981D01*
X-132354Y195098D01*
X-132311Y195214D01*
X-132263Y195329D01*
X-132212Y195442D01*
X-132157Y195554D01*
X-132099Y195663D01*
X-132038Y195771D01*
X-131973Y195877D01*
X-131905Y195981D01*
X-131833Y196082D01*
X-131759Y196182D01*
X-131681Y196278D01*
X-131601Y196373D01*
X-131517Y196465D01*
X-131431Y196554D01*
X-131342Y196640D01*
X-131250Y196724D01*
X-131155Y196804D01*
X-131059Y196882D01*
X-130959Y196956D01*
X-130858Y197028D01*
X-130754Y197096D01*
X-130648Y197161D01*
X-130540Y197222D01*
X-130431Y197280D01*
X-130319Y197335D01*
X-130206Y197386D01*
X-130091Y197434D01*
X-129975Y197477D01*
X-129858Y197518D01*
X-129739Y197554D01*
X-129620Y197587D01*
X-129499Y197616D01*
X-129377Y197641D01*
X-129255Y197662D01*
X-129132Y197680D01*
X-129009Y197693D01*
X-128885Y197703D01*
X-128761Y197709D01*
X-128637Y197711D01*
X-122710Y197711D01*
X-122710Y205613D01*
X-132588Y205613D01*
X-113065Y111951D02*
X-113065Y94171D01*
X-113065Y111951D02*
X-118004Y111951D01*
X-118144Y111949D01*
X-118283Y111943D01*
X-118423Y111933D01*
X-118562Y111919D01*
X-118701Y111902D01*
X-118839Y111880D01*
X-118976Y111854D01*
X-119113Y111825D01*
X-119249Y111792D01*
X-119383Y111755D01*
X-119517Y111714D01*
X-119649Y111669D01*
X-119781Y111620D01*
X-119910Y111568D01*
X-120038Y111513D01*
X-120165Y111453D01*
X-120290Y111390D01*
X-120413Y111324D01*
X-120534Y111254D01*
X-120653Y111181D01*
X-120770Y111104D01*
X-120884Y111024D01*
X-120997Y110941D01*
X-121107Y110855D01*
X-121214Y110765D01*
X-121319Y110673D01*
X-121421Y110578D01*
X-121521Y110480D01*
X-121618Y110379D01*
X-121712Y110275D01*
X-121802Y110169D01*
X-121890Y110060D01*
X-121975Y109949D01*
X-122056Y109835D01*
X-122135Y109720D01*
X-122210Y109602D01*
X-122281Y109481D01*
X-122349Y109359D01*
X-122414Y109236D01*
X-122475Y109110D01*
X-122533Y108982D01*
X-122587Y108854D01*
X-122637Y108723D01*
X-122684Y108591D01*
X-122727Y108458D01*
X-122766Y108324D01*
X-122801Y108189D01*
X-122832Y108053D01*
X-122860Y107915D01*
X-122883Y107778D01*
X-122903Y107639D01*
X-122919Y107500D01*
X-122931Y107361D01*
X-122939Y107222D01*
X-122943Y107082D01*
X-122943Y106942D01*
X-122939Y106802D01*
X-122931Y106663D01*
X-122919Y106524D01*
X-122903Y106385D01*
X-122883Y106246D01*
X-122860Y106109D01*
X-122832Y105971D01*
X-122801Y105835D01*
X-122766Y105700D01*
X-122727Y105566D01*
X-122684Y105433D01*
X-122637Y105301D01*
X-122587Y105170D01*
X-122533Y105042D01*
X-122475Y104914D01*
X-122414Y104788D01*
X-122349Y104665D01*
X-122281Y104542D01*
X-122210Y104422D01*
X-122135Y104304D01*
X-122056Y104189D01*
X-121975Y104075D01*
X-121890Y103964D01*
X-121802Y103855D01*
X-121712Y103749D01*
X-121618Y103645D01*
X-121521Y103544D01*
X-121421Y103446D01*
X-121319Y103351D01*
X-121214Y103259D01*
X-121107Y103169D01*
X-120997Y103083D01*
X-120884Y103000D01*
X-120770Y102920D01*
X-120653Y102843D01*
X-120534Y102770D01*
X-120413Y102700D01*
X-120290Y102634D01*
X-120165Y102571D01*
X-120038Y102511D01*
X-119910Y102456D01*
X-119781Y102404D01*
X-119649Y102355D01*
X-119517Y102310D01*
X-119383Y102269D01*
X-119249Y102232D01*
X-119113Y102199D01*
X-118976Y102170D01*
X-118839Y102144D01*
X-118701Y102122D01*
X-118562Y102105D01*
X-118423Y102091D01*
X-118283Y102081D01*
X-118144Y102075D01*
X-118004Y102073D01*
X-113065Y102073D01*
X-129060Y98122D02*
X-133011Y111951D01*
X-129060Y98122D02*
X-138938Y98122D01*
X-135975Y102073D02*
X-135975Y94171D01*
X-96203Y74864D02*
X-78423Y74864D01*
X-86325Y74864D02*
X-86325Y84742D01*
X-78423Y84742D02*
X-96203Y84742D01*
X-82374Y92173D02*
X-78423Y97112D01*
X-96203Y97112D01*
X-96203Y92173D02*
X-96203Y102051D01*
X-82868Y118801D02*
X-82736Y118799D01*
X-82605Y118793D01*
X-82473Y118783D01*
X-82342Y118770D01*
X-82212Y118752D01*
X-82082Y118731D01*
X-81952Y118706D01*
X-81824Y118677D01*
X-81696Y118644D01*
X-81570Y118607D01*
X-81444Y118567D01*
X-81320Y118523D01*
X-81197Y118475D01*
X-81076Y118424D01*
X-80956Y118369D01*
X-80838Y118311D01*
X-80722Y118249D01*
X-80608Y118183D01*
X-80495Y118115D01*
X-80385Y118043D01*
X-80277Y117968D01*
X-80171Y117889D01*
X-80067Y117808D01*
X-79966Y117723D01*
X-79868Y117636D01*
X-79772Y117545D01*
X-79679Y117452D01*
X-79588Y117356D01*
X-79501Y117258D01*
X-79416Y117157D01*
X-79335Y117053D01*
X-79256Y116947D01*
X-79181Y116839D01*
X-79109Y116729D01*
X-79041Y116616D01*
X-78975Y116502D01*
X-78913Y116386D01*
X-78855Y116268D01*
X-78800Y116148D01*
X-78749Y116027D01*
X-78701Y115904D01*
X-78657Y115780D01*
X-78617Y115654D01*
X-78580Y115528D01*
X-78547Y115400D01*
X-78518Y115272D01*
X-78493Y115142D01*
X-78472Y115012D01*
X-78454Y114882D01*
X-78441Y114751D01*
X-78431Y114619D01*
X-78425Y114488D01*
X-78423Y114356D01*
X-78422Y114356D02*
X-78424Y114206D01*
X-78430Y114057D01*
X-78440Y113908D01*
X-78453Y113759D01*
X-78471Y113610D01*
X-78492Y113462D01*
X-78518Y113314D01*
X-78547Y113168D01*
X-78580Y113022D01*
X-78617Y112877D01*
X-78658Y112733D01*
X-78702Y112590D01*
X-78750Y112448D01*
X-78802Y112308D01*
X-78857Y112169D01*
X-78916Y112031D01*
X-78979Y111896D01*
X-79045Y111761D01*
X-79115Y111629D01*
X-79188Y111499D01*
X-79265Y111370D01*
X-79345Y111243D01*
X-79428Y111119D01*
X-79514Y110997D01*
X-79604Y110877D01*
X-79697Y110760D01*
X-79792Y110645D01*
X-79891Y110532D01*
X-79993Y110422D01*
X-80097Y110315D01*
X-80204Y110211D01*
X-80314Y110109D01*
X-80427Y110011D01*
X-80542Y109915D01*
X-80660Y109823D01*
X-80780Y109733D01*
X-80902Y109647D01*
X-81026Y109564D01*
X-81153Y109484D01*
X-81281Y109408D01*
X-81412Y109335D01*
X-81545Y109265D01*
X-81679Y109199D01*
X-81815Y109137D01*
X-81952Y109078D01*
X-82091Y109022D01*
X-82232Y108971D01*
X-82373Y108923D01*
X-86325Y117319D02*
X-86232Y117415D01*
X-86136Y117507D01*
X-86037Y117597D01*
X-85936Y117684D01*
X-85833Y117769D01*
X-85728Y117850D01*
X-85620Y117928D01*
X-85510Y118003D01*
X-85398Y118076D01*
X-85284Y118145D01*
X-85168Y118211D01*
X-85050Y118273D01*
X-84931Y118332D01*
X-84810Y118388D01*
X-84687Y118441D01*
X-84563Y118490D01*
X-84438Y118535D01*
X-84311Y118578D01*
X-84184Y118616D01*
X-84055Y118651D01*
X-83926Y118682D01*
X-83795Y118710D01*
X-83664Y118734D01*
X-83532Y118755D01*
X-83400Y118771D01*
X-83267Y118784D01*
X-83134Y118794D01*
X-83001Y118799D01*
X-82868Y118801D01*
X-86325Y117320D02*
X-96203Y108923D01*
X-96203Y118801D01*
X-96203Y126318D02*
X-78423Y126318D01*
X-78423Y131257D01*
X-78422Y131257D02*
X-78424Y131397D01*
X-78430Y131536D01*
X-78440Y131676D01*
X-78454Y131815D01*
X-78471Y131954D01*
X-78493Y132092D01*
X-78519Y132229D01*
X-78548Y132366D01*
X-78581Y132502D01*
X-78618Y132636D01*
X-78659Y132770D01*
X-78704Y132902D01*
X-78753Y133034D01*
X-78805Y133163D01*
X-78860Y133291D01*
X-78920Y133418D01*
X-78983Y133543D01*
X-79049Y133666D01*
X-79119Y133787D01*
X-79192Y133906D01*
X-79269Y134023D01*
X-79349Y134137D01*
X-79432Y134250D01*
X-79518Y134360D01*
X-79608Y134467D01*
X-79700Y134572D01*
X-79795Y134674D01*
X-79893Y134774D01*
X-79994Y134871D01*
X-80098Y134965D01*
X-80204Y135055D01*
X-80313Y135143D01*
X-80424Y135228D01*
X-80538Y135309D01*
X-80653Y135388D01*
X-80771Y135463D01*
X-80892Y135534D01*
X-81014Y135602D01*
X-81137Y135667D01*
X-81263Y135728D01*
X-81391Y135786D01*
X-81519Y135840D01*
X-81650Y135890D01*
X-81782Y135937D01*
X-81915Y135980D01*
X-82049Y136019D01*
X-82184Y136054D01*
X-82320Y136085D01*
X-82458Y136113D01*
X-82595Y136136D01*
X-82734Y136156D01*
X-82873Y136172D01*
X-83012Y136184D01*
X-83151Y136192D01*
X-83291Y136196D01*
X-83431Y136196D01*
X-83571Y136192D01*
X-83710Y136184D01*
X-83849Y136172D01*
X-83988Y136156D01*
X-84127Y136136D01*
X-84264Y136113D01*
X-84402Y136085D01*
X-84538Y136054D01*
X-84673Y136019D01*
X-84807Y135980D01*
X-84940Y135937D01*
X-85072Y135890D01*
X-85203Y135840D01*
X-85331Y135786D01*
X-85459Y135728D01*
X-85585Y135667D01*
X-85708Y135602D01*
X-85831Y135534D01*
X-85951Y135463D01*
X-86069Y135388D01*
X-86184Y135309D01*
X-86298Y135228D01*
X-86409Y135143D01*
X-86518Y135055D01*
X-86624Y134965D01*
X-86728Y134871D01*
X-86829Y134774D01*
X-86927Y134674D01*
X-87022Y134572D01*
X-87114Y134467D01*
X-87204Y134360D01*
X-87290Y134250D01*
X-87373Y134137D01*
X-87453Y134023D01*
X-87530Y133906D01*
X-87603Y133787D01*
X-87673Y133666D01*
X-87739Y133543D01*
X-87802Y133418D01*
X-87862Y133291D01*
X-87917Y133163D01*
X-87969Y133034D01*
X-88018Y132902D01*
X-88063Y132770D01*
X-88104Y132636D01*
X-88141Y132502D01*
X-88174Y132366D01*
X-88203Y132229D01*
X-88229Y132092D01*
X-88251Y131954D01*
X-88268Y131815D01*
X-88282Y131676D01*
X-88292Y131536D01*
X-88298Y131397D01*
X-88300Y131257D01*
X-88300Y126318D01*
X-88300Y132244D02*
X-96203Y136195D01*
X-82374Y142983D02*
X-78423Y147922D01*
X-96203Y147922D01*
X-96203Y152860D02*
X-96203Y142983D01*
X-87313Y159733D02*
X-86963Y159737D01*
X-86614Y159750D01*
X-86265Y159771D01*
X-85916Y159800D01*
X-85568Y159837D01*
X-85221Y159883D01*
X-84876Y159937D01*
X-84532Y159999D01*
X-84189Y160070D01*
X-83848Y160149D01*
X-83509Y160235D01*
X-83173Y160330D01*
X-82838Y160433D01*
X-82507Y160544D01*
X-82178Y160662D01*
X-81851Y160789D01*
X-81528Y160923D01*
X-81209Y161065D01*
X-80892Y161215D01*
X-80779Y161255D01*
X-80669Y161299D01*
X-80559Y161347D01*
X-80452Y161398D01*
X-80346Y161453D01*
X-80241Y161511D01*
X-80139Y161573D01*
X-80039Y161638D01*
X-79941Y161706D01*
X-79845Y161777D01*
X-79752Y161852D01*
X-79661Y161929D01*
X-79573Y162009D01*
X-79488Y162092D01*
X-79405Y162178D01*
X-79325Y162267D01*
X-79248Y162358D01*
X-79174Y162452D01*
X-79103Y162548D01*
X-79035Y162646D01*
X-78971Y162746D01*
X-78909Y162849D01*
X-78852Y162953D01*
X-78797Y163059D01*
X-78746Y163167D01*
X-78699Y163277D01*
X-78655Y163388D01*
X-78615Y163500D01*
X-78579Y163614D01*
X-78546Y163728D01*
X-78517Y163844D01*
X-78492Y163961D01*
X-78471Y164078D01*
X-78453Y164196D01*
X-78440Y164315D01*
X-78430Y164434D01*
X-78424Y164553D01*
X-78422Y164672D01*
X-78424Y164791D01*
X-78430Y164910D01*
X-78440Y165029D01*
X-78453Y165148D01*
X-78471Y165266D01*
X-78492Y165383D01*
X-78517Y165500D01*
X-78546Y165616D01*
X-78579Y165730D01*
X-78615Y165844D01*
X-78655Y165956D01*
X-78699Y166067D01*
X-78746Y166177D01*
X-78797Y166285D01*
X-78852Y166391D01*
X-78909Y166495D01*
X-78971Y166598D01*
X-79035Y166698D01*
X-79103Y166796D01*
X-79174Y166892D01*
X-79248Y166986D01*
X-79325Y167077D01*
X-79405Y167166D01*
X-79488Y167252D01*
X-79573Y167335D01*
X-79661Y167415D01*
X-79752Y167492D01*
X-79846Y167567D01*
X-79941Y167638D01*
X-80039Y167706D01*
X-80139Y167771D01*
X-80241Y167833D01*
X-80346Y167891D01*
X-80452Y167946D01*
X-80559Y167997D01*
X-80669Y168045D01*
X-80779Y168089D01*
X-80892Y168129D01*
X-80893Y168129D02*
X-81209Y168279D01*
X-81528Y168421D01*
X-81851Y168555D01*
X-82178Y168682D01*
X-82507Y168800D01*
X-82838Y168911D01*
X-83173Y169014D01*
X-83509Y169109D01*
X-83848Y169195D01*
X-84189Y169274D01*
X-84532Y169345D01*
X-84876Y169407D01*
X-85221Y169461D01*
X-85568Y169507D01*
X-85916Y169544D01*
X-86265Y169573D01*
X-86614Y169594D01*
X-86963Y169607D01*
X-87313Y169611D01*
X-87313Y159733D02*
X-87663Y159737D01*
X-88012Y159750D01*
X-88361Y159771D01*
X-88710Y159800D01*
X-89058Y159837D01*
X-89405Y159883D01*
X-89750Y159937D01*
X-90094Y159999D01*
X-90437Y160070D01*
X-90778Y160149D01*
X-91117Y160235D01*
X-91453Y160330D01*
X-91788Y160433D01*
X-92119Y160544D01*
X-92448Y160662D01*
X-92775Y160789D01*
X-93098Y160923D01*
X-93417Y161065D01*
X-93733Y161215D01*
X-93846Y161255D01*
X-93956Y161299D01*
X-94066Y161347D01*
X-94174Y161398D01*
X-94280Y161453D01*
X-94384Y161511D01*
X-94486Y161573D01*
X-94586Y161638D01*
X-94684Y161706D01*
X-94780Y161777D01*
X-94873Y161852D01*
X-94964Y161929D01*
X-95052Y162009D01*
X-95137Y162093D01*
X-95220Y162178D01*
X-95300Y162267D01*
X-95377Y162358D01*
X-95451Y162452D01*
X-95522Y162548D01*
X-95590Y162646D01*
X-95654Y162746D01*
X-95716Y162849D01*
X-95774Y162953D01*
X-95828Y163059D01*
X-95879Y163167D01*
X-95926Y163277D01*
X-95970Y163388D01*
X-96010Y163500D01*
X-96046Y163614D01*
X-96079Y163728D01*
X-96108Y163844D01*
X-96133Y163961D01*
X-96154Y164078D01*
X-96172Y164196D01*
X-96185Y164315D01*
X-96195Y164434D01*
X-96201Y164553D01*
X-96203Y164672D01*
X-93733Y168129D02*
X-93417Y168279D01*
X-93098Y168421D01*
X-92775Y168555D01*
X-92448Y168682D01*
X-92119Y168800D01*
X-91788Y168911D01*
X-91453Y169014D01*
X-91117Y169109D01*
X-90778Y169195D01*
X-90437Y169274D01*
X-90094Y169345D01*
X-89750Y169407D01*
X-89405Y169461D01*
X-89058Y169507D01*
X-88710Y169544D01*
X-88361Y169573D01*
X-88012Y169594D01*
X-87663Y169607D01*
X-87313Y169611D01*
X-93733Y168129D02*
X-93846Y168089D01*
X-93956Y168045D01*
X-94066Y167997D01*
X-94173Y167946D01*
X-94279Y167891D01*
X-94384Y167833D01*
X-94486Y167771D01*
X-94586Y167706D01*
X-94684Y167638D01*
X-94780Y167567D01*
X-94873Y167492D01*
X-94964Y167415D01*
X-95052Y167335D01*
X-95137Y167252D01*
X-95220Y167166D01*
X-95300Y167077D01*
X-95377Y166986D01*
X-95451Y166892D01*
X-95522Y166796D01*
X-95590Y166698D01*
X-95654Y166598D01*
X-95716Y166495D01*
X-95773Y166391D01*
X-95828Y166285D01*
X-95879Y166177D01*
X-95926Y166067D01*
X-95970Y165956D01*
X-96010Y165844D01*
X-96046Y165730D01*
X-96079Y165616D01*
X-96108Y165500D01*
X-96133Y165383D01*
X-96154Y165266D01*
X-96172Y165148D01*
X-96185Y165029D01*
X-96195Y164910D01*
X-96201Y164791D01*
X-96203Y164672D01*
X-92251Y160721D02*
X-82374Y168623D01*
D11*
X79339Y29549D02*
X81026Y30523D01*
X79339Y29549D02*
X82585Y23928D01*
X85958Y25875D01*
X85957Y25876D02*
X86042Y25927D01*
X86125Y25982D01*
X86206Y26040D01*
X86285Y26100D01*
X86361Y26164D01*
X86435Y26231D01*
X86506Y26300D01*
X86575Y26372D01*
X86641Y26447D01*
X86703Y26524D01*
X86763Y26604D01*
X86820Y26685D01*
X86873Y26769D01*
X86924Y26855D01*
X86971Y26943D01*
X87014Y27032D01*
X87054Y27123D01*
X87091Y27215D01*
X87124Y27309D01*
X87153Y27404D01*
X87179Y27500D01*
X87201Y27597D01*
X87219Y27695D01*
X87234Y27793D01*
X87245Y27892D01*
X87252Y27991D01*
X87255Y28091D01*
X87254Y28190D01*
X87250Y28290D01*
X87241Y28389D01*
X87229Y28488D01*
X87214Y28586D01*
X87194Y28683D01*
X87171Y28780D01*
X87144Y28876D01*
X87113Y28970D01*
X87079Y29064D01*
X87041Y29156D01*
X87000Y29246D01*
X86955Y29335D01*
X86907Y29422D01*
X86908Y29422D02*
X83662Y35043D01*
X83611Y35128D01*
X83556Y35211D01*
X83499Y35292D01*
X83438Y35371D01*
X83374Y35447D01*
X83307Y35521D01*
X83238Y35592D01*
X83166Y35661D01*
X83091Y35727D01*
X83014Y35789D01*
X82935Y35849D01*
X82853Y35906D01*
X82769Y35959D01*
X82683Y36010D01*
X82596Y36057D01*
X82506Y36100D01*
X82415Y36140D01*
X82323Y36177D01*
X82229Y36210D01*
X82134Y36239D01*
X82038Y36265D01*
X81941Y36287D01*
X81843Y36305D01*
X81745Y36320D01*
X81646Y36331D01*
X81547Y36338D01*
X81447Y36341D01*
X81348Y36340D01*
X81248Y36336D01*
X81149Y36327D01*
X81051Y36315D01*
X80952Y36300D01*
X80855Y36280D01*
X80758Y36257D01*
X80662Y36230D01*
X80568Y36199D01*
X80474Y36165D01*
X80382Y36127D01*
X80292Y36086D01*
X80203Y36041D01*
X80116Y35993D01*
X80116Y35994D02*
X76743Y34047D01*
X71806Y31196D02*
X77648Y21077D01*
X72026Y17832D02*
X71806Y31196D01*
X66184Y27951D02*
X72026Y17832D01*
X67089Y14981D02*
X61247Y25100D01*
X58436Y23477D01*
X58436Y23478D02*
X58339Y23420D01*
X58244Y23358D01*
X58151Y23293D01*
X58061Y23225D01*
X57973Y23154D01*
X57887Y23079D01*
X57804Y23002D01*
X57724Y22922D01*
X57647Y22839D01*
X57572Y22753D01*
X57501Y22665D01*
X57433Y22575D01*
X57368Y22482D01*
X57306Y22387D01*
X57248Y22290D01*
X57193Y22191D01*
X57142Y22090D01*
X57094Y21987D01*
X57049Y21883D01*
X57009Y21777D01*
X56972Y21670D01*
X56939Y21562D01*
X56909Y21452D01*
X56884Y21342D01*
X56862Y21231D01*
X56845Y21119D01*
X56831Y21006D01*
X56821Y20893D01*
X56815Y20780D01*
X56813Y20667D01*
X56815Y20554D01*
X56821Y20441D01*
X56831Y20328D01*
X56845Y20215D01*
X56862Y20103D01*
X56884Y19992D01*
X56909Y19882D01*
X56939Y19772D01*
X56972Y19664D01*
X57009Y19557D01*
X57049Y19451D01*
X57094Y19347D01*
X57141Y19244D01*
X57193Y19143D01*
X57248Y19044D01*
X59845Y14547D01*
X59845Y14546D02*
X59903Y14449D01*
X59965Y14354D01*
X60030Y14261D01*
X60098Y14171D01*
X60169Y14083D01*
X60244Y13997D01*
X60321Y13914D01*
X60401Y13834D01*
X60484Y13757D01*
X60570Y13682D01*
X60658Y13611D01*
X60748Y13543D01*
X60841Y13478D01*
X60936Y13416D01*
X61033Y13358D01*
X61132Y13303D01*
X61233Y13252D01*
X61336Y13204D01*
X61440Y13159D01*
X61546Y13119D01*
X61653Y13082D01*
X61761Y13049D01*
X61871Y13019D01*
X61981Y12994D01*
X62092Y12972D01*
X62204Y12955D01*
X62317Y12941D01*
X62430Y12931D01*
X62543Y12925D01*
X62656Y12923D01*
X62769Y12925D01*
X62882Y12931D01*
X62995Y12941D01*
X63108Y12955D01*
X63220Y12972D01*
X63331Y12994D01*
X63441Y13019D01*
X63551Y13049D01*
X63659Y13082D01*
X63766Y13119D01*
X63872Y13159D01*
X63976Y13204D01*
X64079Y13252D01*
X64180Y13303D01*
X64279Y13358D01*
X64278Y13359D02*
X67089Y14981D01*
X145112Y143023D02*
X145112Y144971D01*
X138621Y144971D01*
X138621Y141076D01*
X138623Y140977D01*
X138629Y140877D01*
X138638Y140778D01*
X138651Y140680D01*
X138668Y140582D01*
X138689Y140484D01*
X138714Y140388D01*
X138742Y140293D01*
X138774Y140199D01*
X138809Y140106D01*
X138848Y140014D01*
X138891Y139924D01*
X138936Y139836D01*
X138986Y139749D01*
X139038Y139665D01*
X139094Y139582D01*
X139152Y139502D01*
X139214Y139424D01*
X139279Y139349D01*
X139347Y139276D01*
X139417Y139206D01*
X139490Y139138D01*
X139565Y139073D01*
X139643Y139011D01*
X139723Y138953D01*
X139806Y138897D01*
X139890Y138845D01*
X139977Y138795D01*
X140065Y138750D01*
X140155Y138707D01*
X140247Y138668D01*
X140340Y138633D01*
X140434Y138601D01*
X140529Y138573D01*
X140625Y138548D01*
X140723Y138527D01*
X140821Y138510D01*
X140919Y138497D01*
X141018Y138488D01*
X141118Y138482D01*
X141217Y138480D01*
X141217Y138479D02*
X147708Y138479D01*
X147708Y138480D02*
X147807Y138482D01*
X147907Y138488D01*
X148006Y138497D01*
X148104Y138510D01*
X148202Y138527D01*
X148300Y138548D01*
X148396Y138573D01*
X148491Y138601D01*
X148585Y138633D01*
X148678Y138668D01*
X148770Y138707D01*
X148860Y138750D01*
X148948Y138795D01*
X149035Y138845D01*
X149119Y138897D01*
X149202Y138953D01*
X149282Y139011D01*
X149360Y139073D01*
X149435Y139138D01*
X149508Y139206D01*
X149578Y139276D01*
X149646Y139349D01*
X149711Y139424D01*
X149773Y139502D01*
X149831Y139582D01*
X149887Y139665D01*
X149939Y139749D01*
X149989Y139836D01*
X150034Y139924D01*
X150077Y140014D01*
X150116Y140106D01*
X150151Y140198D01*
X150183Y140293D01*
X150211Y140388D01*
X150236Y140484D01*
X150257Y140582D01*
X150274Y140680D01*
X150287Y140778D01*
X150296Y140877D01*
X150302Y140977D01*
X150304Y141076D01*
X150305Y141076D02*
X150305Y144971D01*
X150305Y150671D02*
X138621Y150671D01*
X138621Y157163D02*
X150305Y150671D01*
X150305Y157163D02*
X138621Y157163D01*
X138621Y162863D02*
X150305Y162863D01*
X150305Y166109D01*
X150303Y166222D01*
X150297Y166335D01*
X150287Y166448D01*
X150273Y166561D01*
X150256Y166673D01*
X150234Y166784D01*
X150209Y166894D01*
X150179Y167004D01*
X150146Y167112D01*
X150109Y167219D01*
X150069Y167325D01*
X150024Y167429D01*
X149976Y167532D01*
X149925Y167633D01*
X149870Y167732D01*
X149812Y167829D01*
X149750Y167924D01*
X149685Y168017D01*
X149617Y168107D01*
X149546Y168195D01*
X149471Y168281D01*
X149394Y168364D01*
X149314Y168444D01*
X149231Y168521D01*
X149145Y168596D01*
X149057Y168667D01*
X148967Y168735D01*
X148874Y168800D01*
X148779Y168862D01*
X148682Y168920D01*
X148583Y168975D01*
X148482Y169026D01*
X148379Y169074D01*
X148275Y169119D01*
X148169Y169159D01*
X148062Y169196D01*
X147954Y169229D01*
X147844Y169259D01*
X147734Y169284D01*
X147623Y169306D01*
X147511Y169323D01*
X147398Y169337D01*
X147285Y169347D01*
X147172Y169353D01*
X147059Y169355D01*
X141866Y169355D01*
X141753Y169353D01*
X141640Y169347D01*
X141527Y169337D01*
X141414Y169323D01*
X141302Y169306D01*
X141191Y169284D01*
X141081Y169259D01*
X140971Y169229D01*
X140863Y169196D01*
X140756Y169159D01*
X140650Y169119D01*
X140546Y169074D01*
X140443Y169026D01*
X140342Y168975D01*
X140243Y168920D01*
X140146Y168862D01*
X140051Y168800D01*
X139958Y168735D01*
X139868Y168667D01*
X139780Y168596D01*
X139694Y168521D01*
X139611Y168444D01*
X139531Y168364D01*
X139454Y168281D01*
X139379Y168195D01*
X139308Y168107D01*
X139240Y168017D01*
X139175Y167924D01*
X139113Y167829D01*
X139055Y167732D01*
X139000Y167633D01*
X138949Y167532D01*
X138901Y167429D01*
X138856Y167325D01*
X138816Y167219D01*
X138779Y167112D01*
X138746Y167004D01*
X138716Y166894D01*
X138691Y166784D01*
X138669Y166673D01*
X138652Y166561D01*
X138638Y166448D01*
X138628Y166335D01*
X138622Y166222D01*
X138620Y166109D01*
X138621Y166109D02*
X138621Y162863D01*
X-144607Y143737D02*
X-144607Y141789D01*
X-144607Y143737D02*
X-151098Y143737D01*
X-151098Y139842D01*
X-151096Y139743D01*
X-151090Y139643D01*
X-151081Y139544D01*
X-151068Y139446D01*
X-151051Y139348D01*
X-151030Y139250D01*
X-151005Y139154D01*
X-150977Y139059D01*
X-150945Y138965D01*
X-150910Y138872D01*
X-150871Y138780D01*
X-150828Y138690D01*
X-150783Y138602D01*
X-150733Y138515D01*
X-150681Y138431D01*
X-150625Y138348D01*
X-150567Y138268D01*
X-150505Y138190D01*
X-150440Y138115D01*
X-150372Y138042D01*
X-150302Y137972D01*
X-150229Y137904D01*
X-150154Y137839D01*
X-150076Y137777D01*
X-149996Y137719D01*
X-149913Y137663D01*
X-149829Y137611D01*
X-149742Y137561D01*
X-149654Y137516D01*
X-149564Y137473D01*
X-149472Y137434D01*
X-149379Y137399D01*
X-149285Y137367D01*
X-149190Y137339D01*
X-149094Y137314D01*
X-148996Y137293D01*
X-148898Y137276D01*
X-148800Y137263D01*
X-148701Y137254D01*
X-148601Y137248D01*
X-148502Y137246D01*
X-142011Y137246D01*
X-142011Y137245D02*
X-141912Y137247D01*
X-141812Y137253D01*
X-141713Y137262D01*
X-141615Y137275D01*
X-141517Y137293D01*
X-141419Y137313D01*
X-141323Y137338D01*
X-141227Y137366D01*
X-141133Y137398D01*
X-141040Y137433D01*
X-140949Y137472D01*
X-140859Y137515D01*
X-140770Y137560D01*
X-140684Y137610D01*
X-140599Y137662D01*
X-140517Y137718D01*
X-140437Y137777D01*
X-140359Y137838D01*
X-140283Y137903D01*
X-140210Y137971D01*
X-140140Y138041D01*
X-140072Y138114D01*
X-140007Y138190D01*
X-139946Y138268D01*
X-139887Y138348D01*
X-139831Y138430D01*
X-139779Y138515D01*
X-139730Y138601D01*
X-139684Y138690D01*
X-139641Y138780D01*
X-139602Y138871D01*
X-139567Y138964D01*
X-139535Y139058D01*
X-139507Y139154D01*
X-139482Y139250D01*
X-139462Y139348D01*
X-139444Y139446D01*
X-139431Y139544D01*
X-139422Y139643D01*
X-139416Y139742D01*
X-139414Y139842D01*
X-139414Y143737D01*
X-139414Y149438D02*
X-151098Y149438D01*
X-151098Y155929D02*
X-139414Y149438D01*
X-139414Y155929D02*
X-151098Y155929D01*
X-151098Y161630D02*
X-139414Y161630D01*
X-139414Y164875D01*
X-139416Y164988D01*
X-139422Y165101D01*
X-139432Y165214D01*
X-139446Y165327D01*
X-139463Y165439D01*
X-139485Y165550D01*
X-139510Y165660D01*
X-139540Y165770D01*
X-139573Y165878D01*
X-139610Y165985D01*
X-139650Y166091D01*
X-139695Y166195D01*
X-139743Y166298D01*
X-139794Y166399D01*
X-139849Y166498D01*
X-139907Y166595D01*
X-139969Y166690D01*
X-140034Y166783D01*
X-140102Y166873D01*
X-140173Y166961D01*
X-140248Y167047D01*
X-140325Y167130D01*
X-140405Y167210D01*
X-140488Y167287D01*
X-140574Y167362D01*
X-140662Y167433D01*
X-140752Y167501D01*
X-140845Y167566D01*
X-140940Y167628D01*
X-141037Y167686D01*
X-141136Y167741D01*
X-141237Y167792D01*
X-141340Y167840D01*
X-141444Y167885D01*
X-141550Y167925D01*
X-141657Y167962D01*
X-141765Y167995D01*
X-141875Y168025D01*
X-141985Y168050D01*
X-142096Y168072D01*
X-142208Y168089D01*
X-142321Y168103D01*
X-142434Y168113D01*
X-142547Y168119D01*
X-142660Y168121D01*
X-147853Y168121D01*
X-147966Y168119D01*
X-148079Y168113D01*
X-148192Y168103D01*
X-148305Y168089D01*
X-148417Y168072D01*
X-148528Y168050D01*
X-148638Y168025D01*
X-148748Y167995D01*
X-148856Y167962D01*
X-148963Y167925D01*
X-149069Y167885D01*
X-149173Y167840D01*
X-149276Y167792D01*
X-149377Y167741D01*
X-149476Y167686D01*
X-149573Y167628D01*
X-149668Y167566D01*
X-149761Y167501D01*
X-149851Y167433D01*
X-149939Y167362D01*
X-150025Y167287D01*
X-150108Y167210D01*
X-150188Y167130D01*
X-150265Y167047D01*
X-150340Y166961D01*
X-150411Y166873D01*
X-150479Y166783D01*
X-150544Y166690D01*
X-150606Y166595D01*
X-150664Y166498D01*
X-150719Y166399D01*
X-150770Y166298D01*
X-150818Y166195D01*
X-150863Y166091D01*
X-150903Y165985D01*
X-150940Y165878D01*
X-150973Y165770D01*
X-151003Y165660D01*
X-151028Y165550D01*
X-151050Y165439D01*
X-151067Y165327D01*
X-151081Y165214D01*
X-151091Y165101D01*
X-151097Y164988D01*
X-151099Y164875D01*
X-151098Y164875D02*
X-151098Y161630D01*
X-74388Y26910D02*
X-72507Y26406D01*
X-74388Y26910D02*
X-76068Y20641D01*
X-72306Y19633D01*
X-72209Y19610D01*
X-72112Y19589D01*
X-72014Y19573D01*
X-71915Y19560D01*
X-71816Y19551D01*
X-71717Y19546D01*
X-71617Y19545D01*
X-71518Y19548D01*
X-71419Y19554D01*
X-71320Y19564D01*
X-71221Y19578D01*
X-71123Y19596D01*
X-71026Y19617D01*
X-70930Y19642D01*
X-70835Y19671D01*
X-70741Y19703D01*
X-70648Y19739D01*
X-70557Y19779D01*
X-70467Y19822D01*
X-70379Y19868D01*
X-70293Y19918D01*
X-70209Y19971D01*
X-70127Y20027D01*
X-70047Y20086D01*
X-69970Y20149D01*
X-69894Y20214D01*
X-69822Y20282D01*
X-69752Y20353D01*
X-69685Y20426D01*
X-69621Y20502D01*
X-69559Y20580D01*
X-69501Y20661D01*
X-69446Y20744D01*
X-69394Y20829D01*
X-69346Y20915D01*
X-69300Y21004D01*
X-69258Y21094D01*
X-69220Y21186D01*
X-69185Y21279D01*
X-69154Y21374D01*
X-69126Y21469D01*
X-69126Y21468D02*
X-67446Y27738D01*
X-67423Y27835D01*
X-67402Y27932D01*
X-67386Y28030D01*
X-67373Y28129D01*
X-67364Y28228D01*
X-67359Y28327D01*
X-67358Y28427D01*
X-67361Y28526D01*
X-67367Y28625D01*
X-67377Y28724D01*
X-67391Y28823D01*
X-67409Y28921D01*
X-67430Y29018D01*
X-67455Y29114D01*
X-67484Y29209D01*
X-67516Y29303D01*
X-67552Y29396D01*
X-67592Y29487D01*
X-67635Y29577D01*
X-67681Y29665D01*
X-67731Y29751D01*
X-67784Y29835D01*
X-67840Y29917D01*
X-67899Y29997D01*
X-67962Y30074D01*
X-68027Y30150D01*
X-68095Y30222D01*
X-68166Y30292D01*
X-68239Y30359D01*
X-68315Y30423D01*
X-68393Y30485D01*
X-68474Y30543D01*
X-68557Y30598D01*
X-68642Y30650D01*
X-68728Y30698D01*
X-68817Y30744D01*
X-68907Y30786D01*
X-68999Y30824D01*
X-69092Y30859D01*
X-69187Y30890D01*
X-69282Y30918D01*
X-73044Y31926D01*
X-78551Y33402D02*
X-81575Y22116D01*
X-87845Y23796D02*
X-78551Y33402D01*
X-84821Y35082D02*
X-87845Y23796D01*
X-93351Y25271D02*
X-90327Y36557D01*
X-93462Y37397D01*
X-93572Y37425D01*
X-93683Y37448D01*
X-93794Y37468D01*
X-93906Y37484D01*
X-94019Y37496D01*
X-94132Y37504D01*
X-94245Y37508D01*
X-94359Y37508D01*
X-94472Y37504D01*
X-94585Y37496D01*
X-94698Y37484D01*
X-94810Y37468D01*
X-94921Y37448D01*
X-95032Y37425D01*
X-95142Y37397D01*
X-95251Y37366D01*
X-95359Y37331D01*
X-95465Y37292D01*
X-95570Y37250D01*
X-95674Y37204D01*
X-95776Y37154D01*
X-95876Y37101D01*
X-95974Y37044D01*
X-96070Y36984D01*
X-96164Y36921D01*
X-96255Y36854D01*
X-96345Y36785D01*
X-96432Y36712D01*
X-96516Y36636D01*
X-96597Y36557D01*
X-96676Y36476D01*
X-96752Y36392D01*
X-96825Y36305D01*
X-96894Y36216D01*
X-96961Y36124D01*
X-97024Y36030D01*
X-97084Y35934D01*
X-97141Y35836D01*
X-97194Y35736D01*
X-97244Y35634D01*
X-97290Y35530D01*
X-97332Y35425D01*
X-97371Y35319D01*
X-97406Y35211D01*
X-97437Y35102D01*
X-98781Y30086D01*
X-98809Y29976D01*
X-98832Y29865D01*
X-98852Y29754D01*
X-98868Y29642D01*
X-98880Y29529D01*
X-98888Y29416D01*
X-98892Y29303D01*
X-98892Y29189D01*
X-98888Y29076D01*
X-98880Y28963D01*
X-98868Y28850D01*
X-98852Y28738D01*
X-98832Y28627D01*
X-98809Y28516D01*
X-98781Y28406D01*
X-98750Y28297D01*
X-98715Y28189D01*
X-98676Y28083D01*
X-98634Y27978D01*
X-98588Y27874D01*
X-98538Y27772D01*
X-98485Y27672D01*
X-98428Y27574D01*
X-98368Y27478D01*
X-98305Y27384D01*
X-98238Y27292D01*
X-98169Y27203D01*
X-98096Y27116D01*
X-98020Y27032D01*
X-97941Y26951D01*
X-97860Y26872D01*
X-97776Y26796D01*
X-97689Y26723D01*
X-97599Y26654D01*
X-97508Y26587D01*
X-97414Y26524D01*
X-97318Y26464D01*
X-97220Y26407D01*
X-97120Y26354D01*
X-97018Y26304D01*
X-96914Y26258D01*
X-96809Y26216D01*
X-96703Y26177D01*
X-96595Y26142D01*
X-96486Y26111D01*
X-93351Y25271D01*
X-56Y272845D02*
X-56Y274581D01*
X-5842Y274581D01*
X-5842Y271110D01*
X-5840Y271014D01*
X-5834Y270919D01*
X-5824Y270824D01*
X-5810Y270729D01*
X-5793Y270635D01*
X-5771Y270542D01*
X-5746Y270450D01*
X-5717Y270359D01*
X-5684Y270269D01*
X-5647Y270180D01*
X-5607Y270094D01*
X-5563Y270009D01*
X-5516Y269926D01*
X-5465Y269844D01*
X-5411Y269765D01*
X-5354Y269689D01*
X-5294Y269614D01*
X-5230Y269543D01*
X-5164Y269474D01*
X-5095Y269408D01*
X-5024Y269344D01*
X-4949Y269284D01*
X-4873Y269227D01*
X-4794Y269173D01*
X-4713Y269122D01*
X-4629Y269075D01*
X-4544Y269031D01*
X-4458Y268991D01*
X-4369Y268954D01*
X-4279Y268921D01*
X-4188Y268892D01*
X-4096Y268867D01*
X-4003Y268845D01*
X-3909Y268828D01*
X-3814Y268814D01*
X-3719Y268804D01*
X-3624Y268798D01*
X-3528Y268796D01*
X2258Y268796D01*
X2354Y268798D01*
X2449Y268804D01*
X2544Y268814D01*
X2639Y268828D01*
X2733Y268845D01*
X2826Y268867D01*
X2918Y268892D01*
X3009Y268921D01*
X3099Y268954D01*
X3188Y268991D01*
X3274Y269031D01*
X3359Y269075D01*
X3442Y269122D01*
X3524Y269173D01*
X3603Y269227D01*
X3679Y269284D01*
X3754Y269344D01*
X3825Y269408D01*
X3894Y269474D01*
X3960Y269543D01*
X4024Y269614D01*
X4084Y269689D01*
X4141Y269765D01*
X4195Y269844D01*
X4246Y269925D01*
X4293Y270009D01*
X4337Y270094D01*
X4377Y270180D01*
X4414Y270269D01*
X4447Y270359D01*
X4476Y270450D01*
X4501Y270542D01*
X4523Y270635D01*
X4540Y270729D01*
X4554Y270824D01*
X4564Y270919D01*
X4570Y271014D01*
X4572Y271110D01*
X4572Y274581D01*
X4572Y279768D02*
X-5842Y279768D01*
X-5842Y285554D02*
X4572Y279768D01*
X4572Y285554D02*
X-5842Y285554D01*
X-5842Y290741D02*
X4572Y290741D01*
X4572Y293634D01*
X4570Y293740D01*
X4564Y293845D01*
X4555Y293950D01*
X4541Y294055D01*
X4524Y294159D01*
X4503Y294263D01*
X4478Y294366D01*
X4449Y294467D01*
X4417Y294568D01*
X4381Y294667D01*
X4342Y294765D01*
X4298Y294862D01*
X4252Y294957D01*
X4202Y295050D01*
X4148Y295141D01*
X4092Y295230D01*
X4032Y295317D01*
X3969Y295402D01*
X3903Y295485D01*
X3834Y295565D01*
X3762Y295642D01*
X3687Y295717D01*
X3610Y295789D01*
X3530Y295858D01*
X3447Y295924D01*
X3362Y295987D01*
X3275Y296047D01*
X3186Y296103D01*
X3095Y296157D01*
X3002Y296207D01*
X2907Y296253D01*
X2810Y296297D01*
X2712Y296336D01*
X2613Y296372D01*
X2512Y296404D01*
X2411Y296433D01*
X2308Y296458D01*
X2204Y296479D01*
X2100Y296496D01*
X1995Y296510D01*
X1890Y296519D01*
X1785Y296525D01*
X1679Y296527D01*
X-2949Y296527D01*
X-3055Y296525D01*
X-3160Y296519D01*
X-3265Y296510D01*
X-3370Y296496D01*
X-3474Y296479D01*
X-3578Y296458D01*
X-3681Y296433D01*
X-3782Y296404D01*
X-3883Y296372D01*
X-3982Y296336D01*
X-4080Y296297D01*
X-4177Y296253D01*
X-4272Y296207D01*
X-4365Y296157D01*
X-4456Y296103D01*
X-4545Y296047D01*
X-4632Y295987D01*
X-4717Y295924D01*
X-4800Y295858D01*
X-4880Y295789D01*
X-4957Y295717D01*
X-5032Y295642D01*
X-5104Y295565D01*
X-5173Y295485D01*
X-5239Y295402D01*
X-5302Y295317D01*
X-5362Y295230D01*
X-5418Y295141D01*
X-5472Y295050D01*
X-5522Y294957D01*
X-5568Y294862D01*
X-5612Y294765D01*
X-5651Y294667D01*
X-5687Y294568D01*
X-5719Y294467D01*
X-5748Y294366D01*
X-5773Y294263D01*
X-5794Y294159D01*
X-5811Y294055D01*
X-5825Y293950D01*
X-5834Y293845D01*
X-5840Y293740D01*
X-5842Y293634D01*
X-5842Y290741D01*
X-21442Y283972D02*
X-17971Y273558D01*
X-24913Y273558D02*
X-21442Y283972D01*
X-24045Y276162D02*
X-18838Y276162D01*
X-29671Y273558D02*
X-29671Y283972D01*
X-28514Y273558D02*
X-30829Y273558D01*
X-30829Y283972D02*
X-28514Y283972D01*
X-35351Y283972D02*
X-35351Y273558D01*
X-41137Y273558D02*
X-35351Y283972D01*
X-41137Y283972D02*
X-41137Y273558D01*
X-46088Y277608D02*
X-53031Y277608D01*
X-49560Y274137D02*
X-49560Y281079D01*
X46821Y283972D02*
X50292Y273558D01*
X43349Y273558D02*
X46821Y283972D01*
X44217Y276162D02*
X49424Y276162D01*
X38591Y273558D02*
X38591Y283972D01*
X39748Y273558D02*
X37434Y273558D01*
X37434Y283972D02*
X39748Y283972D01*
X32911Y283972D02*
X32911Y273558D01*
X27126Y273558D02*
X32911Y283972D01*
X27126Y283972D02*
X27126Y273558D01*
X22174Y277608D02*
X15232Y277608D01*
X66866Y272309D02*
X77280Y268838D01*
X77280Y275781D02*
X66866Y272309D01*
X66866Y282832D02*
X66868Y282928D01*
X66874Y283023D01*
X66884Y283118D01*
X66898Y283213D01*
X66915Y283307D01*
X66937Y283400D01*
X66962Y283492D01*
X66991Y283583D01*
X67024Y283673D01*
X67061Y283762D01*
X67101Y283848D01*
X67145Y283933D01*
X67192Y284017D01*
X67243Y284098D01*
X67297Y284177D01*
X67354Y284253D01*
X67414Y284328D01*
X67478Y284399D01*
X67544Y284468D01*
X67613Y284534D01*
X67684Y284598D01*
X67759Y284658D01*
X67835Y284715D01*
X67914Y284769D01*
X67996Y284820D01*
X68079Y284867D01*
X68164Y284911D01*
X68250Y284951D01*
X68339Y284988D01*
X68429Y285021D01*
X68520Y285050D01*
X68612Y285075D01*
X68705Y285097D01*
X68799Y285114D01*
X68894Y285128D01*
X68989Y285138D01*
X69084Y285144D01*
X69180Y285146D01*
X66865Y282832D02*
X66867Y282694D01*
X66873Y282556D01*
X66882Y282419D01*
X66896Y282282D01*
X66914Y282145D01*
X66935Y282009D01*
X66960Y281873D01*
X66989Y281738D01*
X67022Y281605D01*
X67058Y281472D01*
X67098Y281340D01*
X67142Y281209D01*
X67190Y281080D01*
X67241Y280952D01*
X67296Y280825D01*
X67354Y280700D01*
X67416Y280577D01*
X67481Y280456D01*
X67550Y280336D01*
X67622Y280219D01*
X67698Y280103D01*
X67776Y279990D01*
X67858Y279879D01*
X67943Y279770D01*
X68030Y279664D01*
X68121Y279560D01*
X68215Y279459D01*
X68311Y279360D01*
X74965Y279650D02*
X75058Y279652D01*
X75151Y279658D01*
X75244Y279667D01*
X75336Y279680D01*
X75428Y279697D01*
X75519Y279717D01*
X75609Y279741D01*
X75698Y279769D01*
X75786Y279800D01*
X75872Y279835D01*
X75957Y279873D01*
X76040Y279915D01*
X76122Y279960D01*
X76202Y280008D01*
X76280Y280060D01*
X76355Y280114D01*
X76428Y280172D01*
X76499Y280232D01*
X76568Y280295D01*
X76634Y280361D01*
X76697Y280430D01*
X76757Y280501D01*
X76815Y280574D01*
X76869Y280649D01*
X76921Y280727D01*
X76969Y280807D01*
X77014Y280889D01*
X77056Y280972D01*
X77094Y281057D01*
X77129Y281143D01*
X77160Y281231D01*
X77188Y281320D01*
X77212Y281410D01*
X77232Y281501D01*
X77249Y281593D01*
X77262Y281685D01*
X77271Y281778D01*
X77277Y281871D01*
X77279Y281964D01*
X77277Y282091D01*
X77272Y282218D01*
X77262Y282344D01*
X77249Y282471D01*
X77233Y282596D01*
X77212Y282722D01*
X77188Y282846D01*
X77161Y282970D01*
X77130Y283093D01*
X77095Y283215D01*
X77056Y283336D01*
X77014Y283456D01*
X76969Y283574D01*
X76920Y283692D01*
X76868Y283807D01*
X76812Y283921D01*
X76754Y284034D01*
X76691Y284144D01*
X76626Y284253D01*
X76557Y284360D01*
X76486Y284465D01*
X76411Y284567D01*
X72940Y280807D02*
X72990Y280727D01*
X73042Y280649D01*
X73097Y280574D01*
X73156Y280500D01*
X73217Y280429D01*
X73281Y280361D01*
X73348Y280295D01*
X73418Y280231D01*
X73489Y280171D01*
X73564Y280114D01*
X73640Y280059D01*
X73719Y280008D01*
X73799Y279960D01*
X73881Y279915D01*
X73966Y279873D01*
X74051Y279835D01*
X74138Y279800D01*
X74227Y279769D01*
X74317Y279741D01*
X74407Y279717D01*
X74499Y279697D01*
X74591Y279680D01*
X74684Y279667D01*
X74778Y279657D01*
X74871Y279652D01*
X74965Y279650D01*
X71205Y283989D02*
X71155Y284069D01*
X71103Y284147D01*
X71047Y284223D01*
X70989Y284296D01*
X70928Y284367D01*
X70864Y284435D01*
X70797Y284501D01*
X70727Y284565D01*
X70656Y284625D01*
X70581Y284682D01*
X70505Y284737D01*
X70426Y284788D01*
X70346Y284836D01*
X70264Y284881D01*
X70179Y284923D01*
X70094Y284961D01*
X70007Y284996D01*
X69918Y285027D01*
X69828Y285055D01*
X69738Y285079D01*
X69646Y285099D01*
X69554Y285116D01*
X69461Y285129D01*
X69367Y285139D01*
X69274Y285144D01*
X69180Y285146D01*
X71205Y283989D02*
X72940Y280807D01*
X70915Y289412D02*
X70915Y296355D01*
X-65596Y268838D02*
X-76010Y272309D01*
X-65596Y275781D01*
X-73695Y285146D02*
X-73788Y285144D01*
X-73881Y285138D01*
X-73974Y285129D01*
X-74066Y285116D01*
X-74158Y285099D01*
X-74249Y285079D01*
X-74339Y285055D01*
X-74428Y285027D01*
X-74516Y284996D01*
X-74602Y284961D01*
X-74687Y284923D01*
X-74770Y284881D01*
X-74852Y284836D01*
X-74932Y284788D01*
X-75010Y284736D01*
X-75085Y284682D01*
X-75158Y284624D01*
X-75229Y284564D01*
X-75298Y284501D01*
X-75364Y284435D01*
X-75427Y284366D01*
X-75487Y284295D01*
X-75545Y284222D01*
X-75599Y284147D01*
X-75651Y284069D01*
X-75699Y283989D01*
X-75744Y283907D01*
X-75786Y283824D01*
X-75824Y283739D01*
X-75859Y283653D01*
X-75890Y283565D01*
X-75918Y283476D01*
X-75942Y283386D01*
X-75962Y283295D01*
X-75979Y283203D01*
X-75992Y283111D01*
X-76001Y283018D01*
X-76007Y282925D01*
X-76009Y282832D01*
X-76010Y282832D02*
X-76008Y282694D01*
X-76002Y282556D01*
X-75993Y282419D01*
X-75979Y282282D01*
X-75961Y282145D01*
X-75940Y282009D01*
X-75915Y281873D01*
X-75886Y281738D01*
X-75853Y281604D01*
X-75817Y281472D01*
X-75777Y281340D01*
X-75733Y281209D01*
X-75685Y281080D01*
X-75634Y280952D01*
X-75579Y280825D01*
X-75521Y280700D01*
X-75459Y280577D01*
X-75394Y280456D01*
X-75325Y280336D01*
X-75253Y280219D01*
X-75178Y280103D01*
X-75099Y279990D01*
X-75017Y279879D01*
X-74932Y279770D01*
X-74845Y279664D01*
X-74754Y279560D01*
X-74660Y279459D01*
X-74564Y279361D01*
X-67910Y279650D02*
X-67817Y279652D01*
X-67724Y279658D01*
X-67631Y279667D01*
X-67539Y279680D01*
X-67447Y279697D01*
X-67356Y279717D01*
X-67266Y279741D01*
X-67177Y279769D01*
X-67089Y279800D01*
X-67003Y279835D01*
X-66918Y279873D01*
X-66835Y279915D01*
X-66753Y279960D01*
X-66673Y280008D01*
X-66595Y280060D01*
X-66520Y280114D01*
X-66447Y280172D01*
X-66376Y280232D01*
X-66307Y280295D01*
X-66241Y280361D01*
X-66178Y280430D01*
X-66118Y280501D01*
X-66060Y280574D01*
X-66006Y280649D01*
X-65954Y280727D01*
X-65906Y280807D01*
X-65861Y280889D01*
X-65819Y280972D01*
X-65781Y281057D01*
X-65746Y281143D01*
X-65715Y281231D01*
X-65687Y281320D01*
X-65663Y281410D01*
X-65643Y281501D01*
X-65626Y281593D01*
X-65613Y281685D01*
X-65604Y281778D01*
X-65598Y281871D01*
X-65596Y281964D01*
X-65598Y282091D01*
X-65603Y282218D01*
X-65613Y282344D01*
X-65626Y282471D01*
X-65642Y282596D01*
X-65663Y282722D01*
X-65687Y282846D01*
X-65714Y282970D01*
X-65745Y283093D01*
X-65780Y283215D01*
X-65819Y283336D01*
X-65861Y283456D01*
X-65906Y283574D01*
X-65955Y283692D01*
X-66007Y283807D01*
X-66063Y283921D01*
X-66121Y284034D01*
X-66184Y284144D01*
X-66249Y284253D01*
X-66318Y284360D01*
X-66389Y284465D01*
X-66464Y284567D01*
X-69935Y280807D02*
X-69885Y280727D01*
X-69833Y280649D01*
X-69778Y280574D01*
X-69719Y280500D01*
X-69658Y280429D01*
X-69594Y280361D01*
X-69527Y280295D01*
X-69457Y280231D01*
X-69386Y280171D01*
X-69311Y280114D01*
X-69235Y280059D01*
X-69156Y280008D01*
X-69076Y279960D01*
X-68994Y279915D01*
X-68909Y279873D01*
X-68824Y279835D01*
X-68737Y279800D01*
X-68648Y279769D01*
X-68558Y279741D01*
X-68468Y279717D01*
X-68376Y279697D01*
X-68284Y279680D01*
X-68191Y279667D01*
X-68097Y279657D01*
X-68004Y279652D01*
X-67910Y279650D01*
X-71670Y283989D02*
X-71720Y284069D01*
X-71772Y284147D01*
X-71828Y284223D01*
X-71886Y284296D01*
X-71947Y284367D01*
X-72011Y284435D01*
X-72078Y284501D01*
X-72148Y284565D01*
X-72219Y284625D01*
X-72294Y284682D01*
X-72370Y284737D01*
X-72449Y284788D01*
X-72529Y284836D01*
X-72611Y284881D01*
X-72696Y284923D01*
X-72781Y284961D01*
X-72868Y284996D01*
X-72957Y285027D01*
X-73047Y285055D01*
X-73137Y285079D01*
X-73229Y285099D01*
X-73321Y285116D01*
X-73414Y285129D01*
X-73508Y285139D01*
X-73601Y285144D01*
X-73695Y285146D01*
X-71670Y283989D02*
X-69935Y280807D01*
X-71960Y289412D02*
X-71960Y296355D01*
X-75431Y292883D02*
X-68488Y292883D01*
X48705Y223647D02*
X45233Y213233D01*
X41762Y223647D01*
X32397Y215547D02*
X32399Y215454D01*
X32405Y215361D01*
X32414Y215268D01*
X32427Y215176D01*
X32444Y215084D01*
X32464Y214993D01*
X32488Y214903D01*
X32516Y214814D01*
X32547Y214726D01*
X32582Y214640D01*
X32620Y214555D01*
X32662Y214472D01*
X32707Y214390D01*
X32755Y214310D01*
X32807Y214232D01*
X32861Y214157D01*
X32919Y214084D01*
X32979Y214013D01*
X33042Y213944D01*
X33108Y213878D01*
X33177Y213815D01*
X33248Y213755D01*
X33321Y213697D01*
X33396Y213643D01*
X33474Y213591D01*
X33554Y213543D01*
X33636Y213498D01*
X33719Y213456D01*
X33804Y213418D01*
X33890Y213383D01*
X33978Y213352D01*
X34067Y213324D01*
X34157Y213300D01*
X34248Y213280D01*
X34340Y213263D01*
X34432Y213250D01*
X34525Y213241D01*
X34618Y213235D01*
X34711Y213233D01*
X34849Y213235D01*
X34987Y213241D01*
X35124Y213250D01*
X35261Y213264D01*
X35398Y213282D01*
X35534Y213303D01*
X35670Y213328D01*
X35805Y213357D01*
X35939Y213390D01*
X36071Y213426D01*
X36203Y213466D01*
X36334Y213510D01*
X36463Y213558D01*
X36591Y213609D01*
X36718Y213664D01*
X36843Y213722D01*
X36966Y213784D01*
X37087Y213849D01*
X37207Y213918D01*
X37324Y213990D01*
X37440Y214065D01*
X37553Y214144D01*
X37664Y214226D01*
X37773Y214311D01*
X37879Y214398D01*
X37983Y214489D01*
X38084Y214583D01*
X38182Y214679D01*
X37892Y221333D02*
X37890Y221426D01*
X37884Y221519D01*
X37875Y221612D01*
X37862Y221704D01*
X37845Y221796D01*
X37825Y221887D01*
X37801Y221977D01*
X37773Y222066D01*
X37742Y222154D01*
X37707Y222240D01*
X37669Y222325D01*
X37627Y222408D01*
X37582Y222490D01*
X37534Y222570D01*
X37482Y222648D01*
X37428Y222723D01*
X37370Y222796D01*
X37310Y222867D01*
X37247Y222936D01*
X37181Y223002D01*
X37112Y223065D01*
X37041Y223125D01*
X36968Y223183D01*
X36893Y223237D01*
X36815Y223289D01*
X36735Y223337D01*
X36653Y223382D01*
X36570Y223424D01*
X36485Y223462D01*
X36399Y223497D01*
X36311Y223528D01*
X36222Y223556D01*
X36132Y223580D01*
X36041Y223600D01*
X35949Y223617D01*
X35857Y223630D01*
X35764Y223639D01*
X35671Y223645D01*
X35578Y223647D01*
X35451Y223645D01*
X35324Y223640D01*
X35198Y223630D01*
X35071Y223617D01*
X34946Y223601D01*
X34820Y223580D01*
X34696Y223556D01*
X34572Y223529D01*
X34449Y223498D01*
X34327Y223463D01*
X34206Y223424D01*
X34086Y223382D01*
X33968Y223337D01*
X33850Y223288D01*
X33735Y223236D01*
X33621Y223180D01*
X33508Y223122D01*
X33398Y223059D01*
X33289Y222994D01*
X33182Y222925D01*
X33077Y222854D01*
X32975Y222779D01*
X36735Y219308D02*
X36815Y219358D01*
X36893Y219410D01*
X36968Y219465D01*
X37042Y219524D01*
X37113Y219585D01*
X37181Y219649D01*
X37247Y219716D01*
X37311Y219786D01*
X37371Y219857D01*
X37428Y219932D01*
X37483Y220008D01*
X37534Y220087D01*
X37582Y220167D01*
X37627Y220249D01*
X37669Y220334D01*
X37707Y220419D01*
X37742Y220506D01*
X37773Y220595D01*
X37801Y220685D01*
X37825Y220775D01*
X37845Y220867D01*
X37862Y220959D01*
X37875Y221052D01*
X37885Y221146D01*
X37890Y221239D01*
X37892Y221333D01*
X33554Y217572D02*
X33474Y217522D01*
X33396Y217470D01*
X33320Y217415D01*
X33247Y217356D01*
X33176Y217295D01*
X33108Y217231D01*
X33042Y217164D01*
X32978Y217094D01*
X32918Y217023D01*
X32861Y216948D01*
X32806Y216872D01*
X32755Y216793D01*
X32707Y216713D01*
X32662Y216631D01*
X32620Y216546D01*
X32582Y216461D01*
X32547Y216374D01*
X32516Y216285D01*
X32488Y216195D01*
X32464Y216105D01*
X32444Y216013D01*
X32427Y215921D01*
X32414Y215828D01*
X32404Y215734D01*
X32399Y215641D01*
X32397Y215547D01*
X33553Y217572D02*
X36736Y219308D01*
X28688Y212076D02*
X24060Y212076D01*
X19558Y213233D02*
X19558Y223647D01*
X16087Y217861D01*
X12615Y223647D01*
X12615Y213233D01*
X8242Y213233D02*
X4771Y223647D01*
X1300Y213233D01*
X2168Y215837D02*
X7375Y215837D01*
X-2045Y213233D02*
X-8987Y223647D01*
X-2045Y223647D02*
X-8987Y213233D01*
X-13017Y215547D02*
X-19960Y215547D01*
X-19960Y219019D02*
X-13017Y219019D01*
X-24676Y218729D02*
X-31619Y218729D01*
X-28147Y215258D02*
X-28147Y222201D01*
X-24676Y213233D02*
X-31619Y213233D01*
X-36227Y221333D02*
X-39120Y223647D01*
X-39120Y213233D01*
X-36227Y213233D02*
X-42013Y213233D01*
X-46514Y213233D02*
X-49986Y213233D01*
X-50079Y213235D01*
X-50172Y213241D01*
X-50265Y213250D01*
X-50357Y213263D01*
X-50449Y213280D01*
X-50540Y213300D01*
X-50630Y213324D01*
X-50719Y213352D01*
X-50807Y213383D01*
X-50893Y213418D01*
X-50978Y213456D01*
X-51061Y213498D01*
X-51143Y213543D01*
X-51223Y213591D01*
X-51301Y213643D01*
X-51376Y213697D01*
X-51449Y213755D01*
X-51520Y213815D01*
X-51589Y213878D01*
X-51655Y213944D01*
X-51718Y214013D01*
X-51778Y214084D01*
X-51836Y214157D01*
X-51890Y214233D01*
X-51942Y214310D01*
X-51990Y214390D01*
X-52035Y214472D01*
X-52077Y214555D01*
X-52115Y214640D01*
X-52150Y214726D01*
X-52181Y214814D01*
X-52209Y214903D01*
X-52233Y214993D01*
X-52253Y215084D01*
X-52270Y215176D01*
X-52283Y215268D01*
X-52292Y215361D01*
X-52298Y215454D01*
X-52300Y215547D01*
X-52300Y216704D01*
X-52298Y216797D01*
X-52292Y216890D01*
X-52283Y216983D01*
X-52270Y217075D01*
X-52253Y217167D01*
X-52233Y217258D01*
X-52209Y217348D01*
X-52181Y217437D01*
X-52150Y217525D01*
X-52115Y217611D01*
X-52077Y217696D01*
X-52035Y217779D01*
X-51990Y217861D01*
X-51942Y217941D01*
X-51890Y218019D01*
X-51836Y218094D01*
X-51778Y218167D01*
X-51718Y218238D01*
X-51655Y218307D01*
X-51589Y218373D01*
X-51520Y218436D01*
X-51449Y218496D01*
X-51376Y218554D01*
X-51301Y218608D01*
X-51223Y218660D01*
X-51143Y218708D01*
X-51061Y218753D01*
X-50978Y218795D01*
X-50893Y218833D01*
X-50807Y218868D01*
X-50719Y218899D01*
X-50630Y218927D01*
X-50540Y218951D01*
X-50449Y218971D01*
X-50357Y218988D01*
X-50265Y219001D01*
X-50172Y219010D01*
X-50079Y219016D01*
X-49986Y219018D01*
X-49986Y219019D02*
X-46514Y219019D01*
X-46514Y223647D01*
X-52300Y223647D01*
X-56223Y223647D02*
X-59694Y213233D01*
X-63165Y223647D01*
X53171Y241110D02*
X56642Y230696D01*
X49699Y230696D02*
X53171Y241110D01*
X50567Y233299D02*
X55774Y233299D01*
X44941Y230696D02*
X44941Y241110D01*
X46098Y230696D02*
X43784Y230696D01*
X43784Y241110D02*
X46098Y241110D01*
X39261Y241110D02*
X39261Y230696D01*
X33476Y230696D02*
X39261Y241110D01*
X33476Y241110D02*
X33476Y230696D01*
X29082Y229538D02*
X24453Y229538D01*
X19952Y230696D02*
X19952Y241110D01*
X16481Y235324D01*
X13009Y241110D01*
X13009Y230696D01*
X8636Y230696D02*
X5165Y241110D01*
X1694Y230696D01*
X2561Y233299D02*
X7768Y233299D01*
X-1651Y230696D02*
X-8593Y241110D01*
X-1651Y241110D02*
X-8593Y230696D01*
X-12624Y233010D02*
X-19566Y233010D01*
X-19566Y236481D02*
X-12624Y236481D01*
X-27357Y241110D02*
X-27457Y241108D01*
X-27556Y241102D01*
X-27656Y241093D01*
X-27754Y241079D01*
X-27853Y241062D01*
X-27950Y241042D01*
X-28047Y241017D01*
X-28143Y240989D01*
X-28237Y240957D01*
X-28330Y240921D01*
X-28422Y240882D01*
X-28512Y240840D01*
X-28601Y240794D01*
X-28688Y240744D01*
X-28772Y240692D01*
X-28855Y240636D01*
X-28936Y240577D01*
X-29014Y240515D01*
X-29090Y240450D01*
X-29163Y240382D01*
X-29233Y240312D01*
X-29301Y240239D01*
X-29366Y240163D01*
X-29428Y240085D01*
X-29487Y240004D01*
X-29543Y239921D01*
X-29595Y239837D01*
X-29645Y239750D01*
X-29691Y239661D01*
X-29733Y239571D01*
X-29772Y239479D01*
X-29808Y239386D01*
X-29840Y239292D01*
X-29868Y239196D01*
X-29893Y239099D01*
X-29913Y239002D01*
X-29930Y238903D01*
X-29944Y238805D01*
X-29953Y238705D01*
X-29959Y238606D01*
X-29961Y238506D01*
X-27357Y241110D02*
X-27243Y241108D01*
X-27130Y241102D01*
X-27017Y241093D01*
X-26904Y241079D01*
X-26791Y241062D01*
X-26680Y241041D01*
X-26569Y241016D01*
X-26459Y240987D01*
X-26350Y240955D01*
X-26242Y240919D01*
X-26135Y240879D01*
X-26030Y240836D01*
X-25927Y240789D01*
X-25825Y240738D01*
X-25725Y240685D01*
X-25626Y240627D01*
X-25530Y240567D01*
X-25436Y240503D01*
X-25344Y240436D01*
X-25254Y240366D01*
X-25167Y240293D01*
X-25082Y240218D01*
X-25000Y240139D01*
X-24921Y240057D01*
X-24845Y239973D01*
X-24771Y239887D01*
X-24700Y239798D01*
X-24633Y239706D01*
X-24568Y239612D01*
X-24507Y239517D01*
X-24449Y239419D01*
X-24395Y239319D01*
X-24344Y239217D01*
X-24296Y239114D01*
X-24252Y239009D01*
X-24212Y238903D01*
X-24175Y238796D01*
X-29093Y236481D02*
X-29166Y236553D01*
X-29237Y236628D01*
X-29304Y236706D01*
X-29369Y236786D01*
X-29431Y236868D01*
X-29490Y236952D01*
X-29545Y237039D01*
X-29598Y237128D01*
X-29647Y237218D01*
X-29693Y237310D01*
X-29735Y237404D01*
X-29774Y237500D01*
X-29809Y237596D01*
X-29841Y237694D01*
X-29869Y237793D01*
X-29893Y237893D01*
X-29914Y237994D01*
X-29931Y238096D01*
X-29944Y238198D01*
X-29953Y238300D01*
X-29959Y238403D01*
X-29961Y238506D01*
X-29093Y236481D02*
X-24175Y230696D01*
X-29960Y230696D01*
X-34462Y235903D02*
X-34464Y236108D01*
X-34472Y236313D01*
X-34484Y236517D01*
X-34501Y236721D01*
X-34523Y236925D01*
X-34550Y237128D01*
X-34582Y237331D01*
X-34618Y237532D01*
X-34659Y237733D01*
X-34705Y237932D01*
X-34756Y238131D01*
X-34812Y238328D01*
X-34872Y238524D01*
X-34937Y238718D01*
X-35006Y238911D01*
X-35080Y239102D01*
X-35159Y239291D01*
X-35242Y239478D01*
X-35330Y239664D01*
X-35330Y239663D02*
X-35361Y239749D01*
X-35396Y239834D01*
X-35435Y239917D01*
X-35478Y239998D01*
X-35523Y240077D01*
X-35572Y240155D01*
X-35625Y240230D01*
X-35680Y240303D01*
X-35739Y240373D01*
X-35800Y240441D01*
X-35865Y240506D01*
X-35932Y240568D01*
X-36001Y240628D01*
X-36074Y240684D01*
X-36148Y240737D01*
X-36225Y240787D01*
X-36304Y240834D01*
X-36384Y240877D01*
X-36467Y240917D01*
X-36551Y240953D01*
X-36637Y240986D01*
X-36723Y241015D01*
X-36812Y241040D01*
X-36901Y241061D01*
X-36990Y241079D01*
X-37081Y241092D01*
X-37172Y241102D01*
X-37263Y241108D01*
X-37355Y241110D01*
X-37447Y241108D01*
X-37538Y241102D01*
X-37629Y241092D01*
X-37720Y241079D01*
X-37809Y241061D01*
X-37898Y241040D01*
X-37987Y241015D01*
X-38073Y240986D01*
X-38159Y240953D01*
X-38243Y240917D01*
X-38326Y240877D01*
X-38406Y240834D01*
X-38485Y240787D01*
X-38562Y240737D01*
X-38636Y240684D01*
X-38709Y240628D01*
X-38778Y240568D01*
X-38845Y240506D01*
X-38910Y240441D01*
X-38971Y240373D01*
X-39030Y240303D01*
X-39085Y240230D01*
X-39138Y240155D01*
X-39187Y240077D01*
X-39232Y239998D01*
X-39275Y239917D01*
X-39314Y239834D01*
X-39349Y239749D01*
X-39380Y239663D01*
X-39379Y239664D02*
X-39467Y239478D01*
X-39550Y239291D01*
X-39629Y239102D01*
X-39703Y238911D01*
X-39772Y238718D01*
X-39837Y238524D01*
X-39897Y238328D01*
X-39953Y238131D01*
X-40004Y237932D01*
X-40050Y237733D01*
X-40091Y237532D01*
X-40127Y237331D01*
X-40159Y237128D01*
X-40186Y236925D01*
X-40208Y236721D01*
X-40225Y236517D01*
X-40237Y236313D01*
X-40245Y236108D01*
X-40247Y235903D01*
X-34462Y235903D02*
X-34464Y235698D01*
X-34472Y235493D01*
X-34484Y235289D01*
X-34501Y235085D01*
X-34523Y234881D01*
X-34550Y234678D01*
X-34582Y234476D01*
X-34618Y234274D01*
X-34659Y234073D01*
X-34705Y233874D01*
X-34756Y233675D01*
X-34812Y233478D01*
X-34872Y233282D01*
X-34937Y233088D01*
X-35006Y232895D01*
X-35080Y232704D01*
X-35159Y232515D01*
X-35242Y232328D01*
X-35330Y232142D01*
X-35361Y232056D01*
X-35396Y231971D01*
X-35435Y231888D01*
X-35478Y231807D01*
X-35523Y231728D01*
X-35572Y231650D01*
X-35625Y231575D01*
X-35680Y231502D01*
X-35739Y231432D01*
X-35800Y231364D01*
X-35865Y231299D01*
X-35932Y231237D01*
X-36001Y231177D01*
X-36074Y231121D01*
X-36148Y231068D01*
X-36225Y231018D01*
X-36304Y230971D01*
X-36384Y230928D01*
X-36467Y230888D01*
X-36551Y230852D01*
X-36637Y230819D01*
X-36723Y230790D01*
X-36812Y230765D01*
X-36901Y230744D01*
X-36990Y230726D01*
X-37081Y230713D01*
X-37172Y230703D01*
X-37263Y230697D01*
X-37355Y230695D01*
X-39379Y232142D02*
X-39467Y232328D01*
X-39550Y232515D01*
X-39629Y232704D01*
X-39703Y232895D01*
X-39772Y233088D01*
X-39837Y233282D01*
X-39897Y233478D01*
X-39953Y233675D01*
X-40004Y233874D01*
X-40050Y234073D01*
X-40091Y234274D01*
X-40127Y234476D01*
X-40159Y234678D01*
X-40186Y234881D01*
X-40208Y235085D01*
X-40225Y235289D01*
X-40237Y235493D01*
X-40245Y235698D01*
X-40247Y235903D01*
X-39380Y232142D02*
X-39349Y232056D01*
X-39314Y231971D01*
X-39275Y231888D01*
X-39232Y231807D01*
X-39187Y231728D01*
X-39138Y231650D01*
X-39085Y231575D01*
X-39030Y231502D01*
X-38971Y231432D01*
X-38910Y231364D01*
X-38845Y231299D01*
X-38778Y231237D01*
X-38709Y231177D01*
X-38636Y231121D01*
X-38562Y231068D01*
X-38485Y231018D01*
X-38406Y230971D01*
X-38326Y230928D01*
X-38243Y230888D01*
X-38159Y230852D01*
X-38073Y230819D01*
X-37987Y230790D01*
X-37898Y230765D01*
X-37809Y230744D01*
X-37720Y230726D01*
X-37629Y230713D01*
X-37538Y230703D01*
X-37447Y230697D01*
X-37355Y230695D01*
X-35040Y233010D02*
X-39669Y238795D01*
X-50685Y237638D02*
X-50685Y230696D01*
X-50685Y237638D02*
X-55892Y237638D01*
X-55892Y237639D02*
X-55975Y237637D01*
X-56057Y237631D01*
X-56139Y237621D01*
X-56221Y237608D01*
X-56301Y237590D01*
X-56381Y237569D01*
X-56460Y237544D01*
X-56537Y237515D01*
X-56613Y237482D01*
X-56687Y237446D01*
X-56760Y237406D01*
X-56831Y237363D01*
X-56899Y237317D01*
X-56965Y237268D01*
X-57029Y237215D01*
X-57090Y237159D01*
X-57148Y237101D01*
X-57204Y237040D01*
X-57257Y236976D01*
X-57306Y236910D01*
X-57352Y236842D01*
X-57395Y236771D01*
X-57435Y236698D01*
X-57471Y236624D01*
X-57504Y236548D01*
X-57533Y236471D01*
X-57558Y236392D01*
X-57579Y236312D01*
X-57597Y236232D01*
X-57610Y236150D01*
X-57620Y236068D01*
X-57626Y235986D01*
X-57628Y235903D01*
X-57628Y230696D01*
X-54157Y230696D02*
X-54157Y237638D01*
X-62001Y230696D02*
X-65472Y241110D01*
X-68944Y230696D01*
X-68076Y233299D02*
X-62869Y233299D01*
D10*
X-19812Y21717D02*
X-19812Y3937D01*
X-19812Y21717D02*
X-24751Y21717D01*
X-24891Y21715D01*
X-25030Y21709D01*
X-25170Y21699D01*
X-25309Y21685D01*
X-25448Y21668D01*
X-25586Y21646D01*
X-25723Y21620D01*
X-25860Y21591D01*
X-25996Y21558D01*
X-26130Y21521D01*
X-26264Y21480D01*
X-26396Y21435D01*
X-26528Y21386D01*
X-26657Y21334D01*
X-26785Y21279D01*
X-26912Y21219D01*
X-27037Y21156D01*
X-27160Y21090D01*
X-27281Y21020D01*
X-27400Y20947D01*
X-27517Y20870D01*
X-27631Y20790D01*
X-27744Y20707D01*
X-27854Y20621D01*
X-27961Y20531D01*
X-28066Y20439D01*
X-28168Y20344D01*
X-28268Y20246D01*
X-28365Y20145D01*
X-28459Y20041D01*
X-28549Y19935D01*
X-28637Y19826D01*
X-28722Y19715D01*
X-28803Y19601D01*
X-28882Y19486D01*
X-28957Y19368D01*
X-29028Y19247D01*
X-29096Y19125D01*
X-29161Y19002D01*
X-29222Y18876D01*
X-29280Y18748D01*
X-29334Y18620D01*
X-29384Y18489D01*
X-29431Y18357D01*
X-29474Y18224D01*
X-29513Y18090D01*
X-29548Y17955D01*
X-29579Y17819D01*
X-29607Y17681D01*
X-29630Y17544D01*
X-29650Y17405D01*
X-29666Y17266D01*
X-29678Y17127D01*
X-29686Y16988D01*
X-29690Y16848D01*
X-29690Y16708D01*
X-29686Y16568D01*
X-29678Y16429D01*
X-29666Y16290D01*
X-29650Y16151D01*
X-29630Y16012D01*
X-29607Y15875D01*
X-29579Y15737D01*
X-29548Y15601D01*
X-29513Y15466D01*
X-29474Y15332D01*
X-29431Y15199D01*
X-29384Y15067D01*
X-29334Y14936D01*
X-29280Y14808D01*
X-29222Y14680D01*
X-29161Y14554D01*
X-29096Y14431D01*
X-29028Y14308D01*
X-28957Y14188D01*
X-28882Y14070D01*
X-28803Y13955D01*
X-28722Y13841D01*
X-28637Y13730D01*
X-28549Y13621D01*
X-28459Y13515D01*
X-28365Y13411D01*
X-28268Y13310D01*
X-28168Y13212D01*
X-28066Y13117D01*
X-27961Y13025D01*
X-27854Y12935D01*
X-27744Y12849D01*
X-27631Y12766D01*
X-27517Y12686D01*
X-27400Y12609D01*
X-27281Y12536D01*
X-27160Y12466D01*
X-27037Y12400D01*
X-26912Y12337D01*
X-26785Y12277D01*
X-26657Y12222D01*
X-26528Y12170D01*
X-26396Y12121D01*
X-26264Y12076D01*
X-26130Y12035D01*
X-25996Y11998D01*
X-25860Y11965D01*
X-25723Y11936D01*
X-25586Y11910D01*
X-25448Y11888D01*
X-25309Y11871D01*
X-25170Y11857D01*
X-25030Y11847D01*
X-24891Y11841D01*
X-24751Y11839D01*
X-19812Y11839D01*
X-35807Y3937D02*
X-40746Y3937D01*
X-40886Y3939D01*
X-41025Y3945D01*
X-41165Y3955D01*
X-41304Y3969D01*
X-41443Y3986D01*
X-41581Y4008D01*
X-41718Y4034D01*
X-41855Y4063D01*
X-41991Y4096D01*
X-42125Y4133D01*
X-42259Y4174D01*
X-42391Y4219D01*
X-42523Y4268D01*
X-42652Y4320D01*
X-42780Y4375D01*
X-42907Y4435D01*
X-43032Y4498D01*
X-43155Y4564D01*
X-43276Y4634D01*
X-43395Y4707D01*
X-43512Y4784D01*
X-43626Y4864D01*
X-43739Y4947D01*
X-43849Y5033D01*
X-43956Y5123D01*
X-44061Y5215D01*
X-44163Y5310D01*
X-44263Y5408D01*
X-44360Y5509D01*
X-44454Y5613D01*
X-44544Y5719D01*
X-44632Y5828D01*
X-44717Y5939D01*
X-44798Y6053D01*
X-44877Y6168D01*
X-44952Y6286D01*
X-45023Y6406D01*
X-45091Y6529D01*
X-45156Y6652D01*
X-45217Y6778D01*
X-45275Y6906D01*
X-45329Y7034D01*
X-45379Y7165D01*
X-45426Y7297D01*
X-45469Y7430D01*
X-45508Y7564D01*
X-45543Y7699D01*
X-45574Y7835D01*
X-45602Y7973D01*
X-45625Y8110D01*
X-45645Y8249D01*
X-45661Y8388D01*
X-45673Y8527D01*
X-45681Y8666D01*
X-45685Y8806D01*
X-45685Y8946D01*
X-45681Y9086D01*
X-45673Y9225D01*
X-45661Y9364D01*
X-45645Y9503D01*
X-45625Y9642D01*
X-45602Y9779D01*
X-45574Y9917D01*
X-45543Y10053D01*
X-45508Y10188D01*
X-45469Y10322D01*
X-45426Y10455D01*
X-45379Y10587D01*
X-45329Y10718D01*
X-45275Y10846D01*
X-45217Y10974D01*
X-45156Y11100D01*
X-45091Y11223D01*
X-45023Y11345D01*
X-44952Y11466D01*
X-44877Y11584D01*
X-44798Y11699D01*
X-44717Y11813D01*
X-44632Y11924D01*
X-44544Y12033D01*
X-44454Y12139D01*
X-44360Y12243D01*
X-44263Y12344D01*
X-44163Y12442D01*
X-44061Y12537D01*
X-43956Y12629D01*
X-43849Y12719D01*
X-43739Y12805D01*
X-43626Y12888D01*
X-43512Y12968D01*
X-43395Y13045D01*
X-43276Y13118D01*
X-43155Y13188D01*
X-43032Y13254D01*
X-42907Y13317D01*
X-42780Y13377D01*
X-42652Y13432D01*
X-42523Y13484D01*
X-42391Y13533D01*
X-42259Y13578D01*
X-42125Y13619D01*
X-41991Y13656D01*
X-41855Y13689D01*
X-41718Y13718D01*
X-41581Y13744D01*
X-41443Y13766D01*
X-41304Y13783D01*
X-41165Y13797D01*
X-41025Y13807D01*
X-40886Y13813D01*
X-40746Y13815D01*
X-41734Y21717D02*
X-35807Y21717D01*
X-41734Y21717D02*
X-41858Y21715D01*
X-41982Y21709D01*
X-42106Y21699D01*
X-42229Y21686D01*
X-42352Y21668D01*
X-42474Y21647D01*
X-42596Y21622D01*
X-42717Y21593D01*
X-42836Y21560D01*
X-42955Y21524D01*
X-43072Y21483D01*
X-43188Y21440D01*
X-43303Y21392D01*
X-43416Y21341D01*
X-43528Y21286D01*
X-43637Y21228D01*
X-43745Y21167D01*
X-43851Y21102D01*
X-43955Y21034D01*
X-44056Y20962D01*
X-44156Y20888D01*
X-44252Y20810D01*
X-44347Y20730D01*
X-44439Y20646D01*
X-44528Y20560D01*
X-44614Y20471D01*
X-44698Y20379D01*
X-44778Y20284D01*
X-44856Y20188D01*
X-44930Y20088D01*
X-45002Y19987D01*
X-45070Y19883D01*
X-45135Y19777D01*
X-45196Y19669D01*
X-45254Y19560D01*
X-45309Y19448D01*
X-45360Y19335D01*
X-45408Y19220D01*
X-45451Y19104D01*
X-45492Y18987D01*
X-45528Y18868D01*
X-45561Y18749D01*
X-45590Y18628D01*
X-45615Y18506D01*
X-45636Y18384D01*
X-45654Y18261D01*
X-45667Y18138D01*
X-45677Y18014D01*
X-45683Y17890D01*
X-45685Y17766D01*
X-45683Y17642D01*
X-45677Y17518D01*
X-45667Y17394D01*
X-45654Y17271D01*
X-45636Y17148D01*
X-45615Y17026D01*
X-45590Y16904D01*
X-45561Y16783D01*
X-45528Y16664D01*
X-45492Y16545D01*
X-45451Y16428D01*
X-45408Y16312D01*
X-45360Y16197D01*
X-45309Y16084D01*
X-45254Y15972D01*
X-45196Y15863D01*
X-45135Y15755D01*
X-45070Y15649D01*
X-45002Y15545D01*
X-44930Y15444D01*
X-44856Y15344D01*
X-44778Y15248D01*
X-44698Y15153D01*
X-44614Y15061D01*
X-44528Y14972D01*
X-44439Y14886D01*
X-44347Y14802D01*
X-44252Y14722D01*
X-44156Y14644D01*
X-44056Y14570D01*
X-43955Y14498D01*
X-43851Y14430D01*
X-43745Y14365D01*
X-43637Y14304D01*
X-43528Y14246D01*
X-43416Y14191D01*
X-43303Y14140D01*
X-43188Y14092D01*
X-43072Y14049D01*
X-42955Y14008D01*
X-42836Y13972D01*
X-42717Y13939D01*
X-42596Y13910D01*
X-42474Y13885D01*
X-42352Y13864D01*
X-42229Y13846D01*
X-42106Y13833D01*
X-41982Y13823D01*
X-41858Y13817D01*
X-41734Y13815D01*
X-37783Y13815D01*
D12*
X17240Y174212D02*
X12330Y181578D01*
X17240Y181578D02*
X12330Y174212D01*
X9516Y179941D02*
X7470Y181578D01*
X7470Y174212D01*
X9516Y174212D02*
X5424Y174212D01*
D13*
X57150Y76073D02*
X57150Y69723D01*
D12*
X65278Y67638D02*
X72644Y67638D01*
X72644Y69684D01*
X72642Y69773D01*
X72636Y69862D01*
X72626Y69951D01*
X72613Y70039D01*
X72596Y70127D01*
X72574Y70214D01*
X72549Y70299D01*
X72521Y70384D01*
X72488Y70467D01*
X72452Y70549D01*
X72413Y70629D01*
X72370Y70707D01*
X72324Y70783D01*
X72274Y70858D01*
X72221Y70930D01*
X72165Y70999D01*
X72106Y71066D01*
X72045Y71131D01*
X71980Y71192D01*
X71913Y71251D01*
X71844Y71307D01*
X71772Y71360D01*
X71697Y71410D01*
X71621Y71456D01*
X71543Y71499D01*
X71463Y71538D01*
X71381Y71574D01*
X71298Y71607D01*
X71213Y71635D01*
X71128Y71660D01*
X71041Y71682D01*
X70953Y71699D01*
X70865Y71712D01*
X70776Y71722D01*
X70687Y71728D01*
X70598Y71730D01*
X70509Y71728D01*
X70420Y71722D01*
X70331Y71712D01*
X70243Y71699D01*
X70155Y71682D01*
X70068Y71660D01*
X69983Y71635D01*
X69898Y71607D01*
X69815Y71574D01*
X69733Y71538D01*
X69653Y71499D01*
X69575Y71456D01*
X69499Y71410D01*
X69424Y71360D01*
X69352Y71307D01*
X69283Y71251D01*
X69216Y71192D01*
X69151Y71131D01*
X69090Y71066D01*
X69031Y70999D01*
X68975Y70930D01*
X68922Y70858D01*
X68872Y70783D01*
X68826Y70707D01*
X68783Y70629D01*
X68744Y70549D01*
X68708Y70467D01*
X68675Y70384D01*
X68647Y70299D01*
X68622Y70214D01*
X68600Y70127D01*
X68583Y70039D01*
X68570Y69951D01*
X68560Y69862D01*
X68554Y69773D01*
X68552Y69684D01*
X68552Y67638D01*
X68552Y70093D02*
X65278Y71730D01*
X70803Y78995D02*
X70888Y78993D01*
X70973Y78987D01*
X71057Y78977D01*
X71141Y78964D01*
X71225Y78946D01*
X71307Y78925D01*
X71388Y78900D01*
X71468Y78871D01*
X71547Y78838D01*
X71624Y78802D01*
X71699Y78762D01*
X71773Y78719D01*
X71844Y78673D01*
X71913Y78623D01*
X71980Y78570D01*
X72044Y78514D01*
X72105Y78455D01*
X72164Y78394D01*
X72220Y78330D01*
X72273Y78263D01*
X72323Y78194D01*
X72369Y78123D01*
X72412Y78049D01*
X72452Y77974D01*
X72488Y77897D01*
X72521Y77818D01*
X72550Y77738D01*
X72575Y77657D01*
X72596Y77575D01*
X72614Y77491D01*
X72627Y77407D01*
X72637Y77323D01*
X72643Y77238D01*
X72645Y77153D01*
X72644Y77153D02*
X72642Y77057D01*
X72636Y76961D01*
X72626Y76866D01*
X72613Y76771D01*
X72595Y76676D01*
X72574Y76583D01*
X72549Y76490D01*
X72520Y76399D01*
X72488Y76308D01*
X72452Y76219D01*
X72412Y76132D01*
X72369Y76046D01*
X72323Y75962D01*
X72273Y75880D01*
X72219Y75800D01*
X72163Y75723D01*
X72103Y75648D01*
X72041Y75575D01*
X71975Y75505D01*
X71907Y75437D01*
X71836Y75372D01*
X71763Y75311D01*
X71687Y75252D01*
X71608Y75196D01*
X71528Y75144D01*
X71445Y75095D01*
X71361Y75049D01*
X71275Y75007D01*
X71187Y74969D01*
X71098Y74934D01*
X71007Y74902D01*
X69371Y78380D02*
X69430Y78440D01*
X69492Y78497D01*
X69556Y78552D01*
X69623Y78603D01*
X69692Y78652D01*
X69762Y78698D01*
X69835Y78741D01*
X69909Y78781D01*
X69985Y78817D01*
X70063Y78850D01*
X70142Y78880D01*
X70222Y78907D01*
X70303Y78930D01*
X70385Y78949D01*
X70467Y78965D01*
X70551Y78978D01*
X70635Y78987D01*
X70719Y78992D01*
X70803Y78994D01*
X69370Y78380D02*
X65278Y74902D01*
X65278Y78994D01*
D13*
X49213Y160211D02*
X49213Y166561D01*
D12*
X59119Y157544D02*
X66485Y157544D01*
X66485Y159590D01*
X66484Y159590D02*
X66482Y159679D01*
X66476Y159768D01*
X66466Y159857D01*
X66453Y159945D01*
X66436Y160033D01*
X66414Y160120D01*
X66389Y160205D01*
X66361Y160290D01*
X66328Y160373D01*
X66292Y160455D01*
X66253Y160535D01*
X66210Y160613D01*
X66164Y160689D01*
X66114Y160764D01*
X66061Y160836D01*
X66005Y160905D01*
X65946Y160972D01*
X65885Y161037D01*
X65820Y161098D01*
X65753Y161157D01*
X65684Y161213D01*
X65612Y161266D01*
X65537Y161316D01*
X65461Y161362D01*
X65383Y161405D01*
X65303Y161444D01*
X65221Y161480D01*
X65138Y161513D01*
X65053Y161541D01*
X64968Y161566D01*
X64881Y161588D01*
X64793Y161605D01*
X64705Y161618D01*
X64616Y161628D01*
X64527Y161634D01*
X64438Y161636D01*
X64349Y161634D01*
X64260Y161628D01*
X64171Y161618D01*
X64083Y161605D01*
X63995Y161588D01*
X63908Y161566D01*
X63823Y161541D01*
X63738Y161513D01*
X63655Y161480D01*
X63573Y161444D01*
X63493Y161405D01*
X63415Y161362D01*
X63339Y161316D01*
X63264Y161266D01*
X63192Y161213D01*
X63123Y161157D01*
X63056Y161098D01*
X62991Y161037D01*
X62930Y160972D01*
X62871Y160905D01*
X62815Y160836D01*
X62762Y160764D01*
X62712Y160689D01*
X62666Y160613D01*
X62623Y160535D01*
X62584Y160455D01*
X62548Y160373D01*
X62515Y160290D01*
X62487Y160205D01*
X62462Y160120D01*
X62440Y160033D01*
X62423Y159945D01*
X62410Y159857D01*
X62400Y159768D01*
X62394Y159679D01*
X62392Y159590D01*
X62392Y157544D01*
X62392Y159999D02*
X59119Y161636D01*
X64848Y164808D02*
X66485Y166854D01*
X59119Y166854D01*
X59119Y164808D02*
X59119Y168900D01*
D13*
X-15875Y168402D02*
X-15875Y161798D01*
D12*
X-46450Y162355D02*
X-46450Y163992D01*
X-46450Y162355D02*
X-46448Y162277D01*
X-46443Y162199D01*
X-46433Y162122D01*
X-46420Y162045D01*
X-46404Y161969D01*
X-46384Y161894D01*
X-46360Y161820D01*
X-46333Y161747D01*
X-46302Y161675D01*
X-46268Y161605D01*
X-46231Y161537D01*
X-46190Y161470D01*
X-46146Y161405D01*
X-46100Y161343D01*
X-46050Y161283D01*
X-45998Y161225D01*
X-45943Y161170D01*
X-45885Y161118D01*
X-45825Y161068D01*
X-45763Y161022D01*
X-45698Y160978D01*
X-45632Y160937D01*
X-45563Y160900D01*
X-45493Y160866D01*
X-45421Y160835D01*
X-45348Y160808D01*
X-45274Y160784D01*
X-45199Y160764D01*
X-45123Y160748D01*
X-45046Y160735D01*
X-44969Y160725D01*
X-44891Y160720D01*
X-44813Y160718D01*
X-44813Y160719D02*
X-40721Y160719D01*
X-40721Y160718D02*
X-40641Y160720D01*
X-40561Y160726D01*
X-40481Y160736D01*
X-40402Y160749D01*
X-40323Y160767D01*
X-40246Y160788D01*
X-40170Y160814D01*
X-40095Y160843D01*
X-40021Y160875D01*
X-39949Y160911D01*
X-39879Y160951D01*
X-39812Y160994D01*
X-39746Y161040D01*
X-39683Y161090D01*
X-39622Y161142D01*
X-39563Y161197D01*
X-39508Y161256D01*
X-39456Y161316D01*
X-39406Y161380D01*
X-39360Y161445D01*
X-39317Y161513D01*
X-39277Y161583D01*
X-39241Y161655D01*
X-39209Y161729D01*
X-39180Y161803D01*
X-39155Y161880D01*
X-39133Y161957D01*
X-39115Y162036D01*
X-39102Y162115D01*
X-39092Y162194D01*
X-39086Y162275D01*
X-39084Y162355D01*
X-39084Y163992D01*
X-39084Y169088D02*
X-39086Y169173D01*
X-39092Y169258D01*
X-39102Y169342D01*
X-39115Y169426D01*
X-39133Y169510D01*
X-39154Y169592D01*
X-39179Y169673D01*
X-39208Y169753D01*
X-39241Y169832D01*
X-39277Y169909D01*
X-39317Y169984D01*
X-39360Y170058D01*
X-39406Y170129D01*
X-39456Y170198D01*
X-39509Y170265D01*
X-39565Y170329D01*
X-39624Y170390D01*
X-39685Y170449D01*
X-39749Y170505D01*
X-39816Y170558D01*
X-39885Y170608D01*
X-39956Y170654D01*
X-40030Y170697D01*
X-40105Y170737D01*
X-40182Y170773D01*
X-40261Y170806D01*
X-40341Y170835D01*
X-40422Y170860D01*
X-40504Y170881D01*
X-40588Y170899D01*
X-40672Y170912D01*
X-40756Y170922D01*
X-40841Y170928D01*
X-40926Y170930D01*
X-39084Y169088D02*
X-39086Y168992D01*
X-39092Y168896D01*
X-39102Y168801D01*
X-39115Y168706D01*
X-39133Y168611D01*
X-39154Y168518D01*
X-39179Y168425D01*
X-39208Y168334D01*
X-39240Y168243D01*
X-39276Y168154D01*
X-39316Y168067D01*
X-39359Y167981D01*
X-39405Y167897D01*
X-39455Y167815D01*
X-39509Y167735D01*
X-39565Y167658D01*
X-39625Y167583D01*
X-39687Y167510D01*
X-39753Y167440D01*
X-39821Y167372D01*
X-39892Y167307D01*
X-39965Y167246D01*
X-40041Y167187D01*
X-40120Y167131D01*
X-40200Y167079D01*
X-40283Y167030D01*
X-40367Y166984D01*
X-40453Y166942D01*
X-40541Y166904D01*
X-40630Y166869D01*
X-40721Y166837D01*
X-42358Y170316D02*
X-42299Y170376D01*
X-42237Y170433D01*
X-42173Y170488D01*
X-42106Y170539D01*
X-42037Y170588D01*
X-41967Y170634D01*
X-41894Y170677D01*
X-41820Y170717D01*
X-41744Y170753D01*
X-41666Y170786D01*
X-41587Y170816D01*
X-41507Y170843D01*
X-41426Y170866D01*
X-41344Y170885D01*
X-41262Y170901D01*
X-41178Y170914D01*
X-41094Y170923D01*
X-41010Y170928D01*
X-40926Y170930D01*
X-42358Y170316D02*
X-46450Y166838D01*
X-46450Y170930D01*
D13*
X-44450Y138240D02*
X-44450Y131636D01*
D12*
X-48832Y108430D02*
X-48832Y106793D01*
X-48830Y106715D01*
X-48825Y106637D01*
X-48815Y106560D01*
X-48802Y106483D01*
X-48786Y106407D01*
X-48766Y106332D01*
X-48742Y106258D01*
X-48715Y106185D01*
X-48684Y106113D01*
X-48650Y106043D01*
X-48613Y105975D01*
X-48572Y105908D01*
X-48528Y105843D01*
X-48482Y105781D01*
X-48432Y105721D01*
X-48380Y105663D01*
X-48325Y105608D01*
X-48267Y105556D01*
X-48207Y105506D01*
X-48145Y105460D01*
X-48080Y105416D01*
X-48014Y105375D01*
X-47945Y105338D01*
X-47875Y105304D01*
X-47803Y105273D01*
X-47730Y105246D01*
X-47656Y105222D01*
X-47581Y105202D01*
X-47505Y105186D01*
X-47428Y105173D01*
X-47351Y105163D01*
X-47273Y105158D01*
X-47195Y105156D01*
X-43102Y105156D01*
X-43022Y105158D01*
X-42942Y105164D01*
X-42862Y105174D01*
X-42783Y105187D01*
X-42704Y105205D01*
X-42627Y105226D01*
X-42551Y105252D01*
X-42476Y105281D01*
X-42402Y105313D01*
X-42330Y105349D01*
X-42260Y105389D01*
X-42193Y105432D01*
X-42127Y105478D01*
X-42064Y105528D01*
X-42003Y105580D01*
X-41944Y105635D01*
X-41889Y105694D01*
X-41837Y105754D01*
X-41787Y105818D01*
X-41741Y105883D01*
X-41698Y105951D01*
X-41658Y106021D01*
X-41622Y106093D01*
X-41590Y106167D01*
X-41561Y106241D01*
X-41536Y106318D01*
X-41514Y106395D01*
X-41496Y106474D01*
X-41483Y106553D01*
X-41473Y106632D01*
X-41467Y106713D01*
X-41465Y106793D01*
X-41466Y106793D02*
X-41466Y108430D01*
X-41466Y112912D02*
X-47195Y111275D01*
X-47195Y115367D01*
X-45558Y114140D02*
X-48832Y114140D01*
D13*
X-127Y52388D02*
X6477Y52388D01*
D12*
X30477Y48800D02*
X32113Y48800D01*
X32191Y48802D01*
X32269Y48807D01*
X32346Y48817D01*
X32423Y48830D01*
X32499Y48846D01*
X32574Y48866D01*
X32648Y48890D01*
X32721Y48917D01*
X32793Y48948D01*
X32863Y48982D01*
X32932Y49019D01*
X32998Y49060D01*
X33063Y49104D01*
X33125Y49150D01*
X33185Y49200D01*
X33243Y49252D01*
X33298Y49307D01*
X33350Y49365D01*
X33400Y49425D01*
X33446Y49487D01*
X33490Y49552D01*
X33531Y49619D01*
X33568Y49687D01*
X33602Y49757D01*
X33633Y49829D01*
X33660Y49902D01*
X33684Y49976D01*
X33704Y50051D01*
X33720Y50127D01*
X33733Y50204D01*
X33743Y50281D01*
X33748Y50359D01*
X33750Y50437D01*
X33750Y54529D01*
X33748Y54609D01*
X33742Y54689D01*
X33732Y54769D01*
X33719Y54848D01*
X33701Y54927D01*
X33680Y55004D01*
X33654Y55080D01*
X33625Y55155D01*
X33593Y55229D01*
X33557Y55301D01*
X33517Y55371D01*
X33474Y55438D01*
X33428Y55504D01*
X33378Y55567D01*
X33326Y55628D01*
X33271Y55687D01*
X33212Y55742D01*
X33152Y55794D01*
X33088Y55844D01*
X33022Y55890D01*
X32955Y55933D01*
X32885Y55973D01*
X32813Y56009D01*
X32739Y56041D01*
X32665Y56070D01*
X32588Y56096D01*
X32511Y56117D01*
X32432Y56135D01*
X32353Y56148D01*
X32273Y56158D01*
X32193Y56164D01*
X32113Y56166D01*
X30477Y56166D01*
X27631Y52892D02*
X25176Y52892D01*
X25096Y52890D01*
X25016Y52884D01*
X24936Y52874D01*
X24857Y52861D01*
X24778Y52843D01*
X24701Y52822D01*
X24625Y52796D01*
X24550Y52767D01*
X24476Y52735D01*
X24404Y52699D01*
X24334Y52659D01*
X24267Y52616D01*
X24201Y52570D01*
X24138Y52520D01*
X24077Y52468D01*
X24018Y52413D01*
X23963Y52354D01*
X23911Y52294D01*
X23861Y52230D01*
X23815Y52164D01*
X23772Y52097D01*
X23732Y52027D01*
X23696Y51955D01*
X23664Y51881D01*
X23635Y51807D01*
X23609Y51730D01*
X23588Y51653D01*
X23570Y51574D01*
X23557Y51495D01*
X23547Y51415D01*
X23541Y51335D01*
X23539Y51255D01*
X23539Y50846D01*
X23541Y50757D01*
X23547Y50668D01*
X23557Y50579D01*
X23570Y50491D01*
X23587Y50403D01*
X23609Y50316D01*
X23634Y50231D01*
X23662Y50146D01*
X23695Y50063D01*
X23731Y49981D01*
X23770Y49901D01*
X23813Y49823D01*
X23859Y49747D01*
X23909Y49672D01*
X23962Y49600D01*
X24018Y49531D01*
X24077Y49464D01*
X24138Y49399D01*
X24203Y49338D01*
X24270Y49279D01*
X24339Y49223D01*
X24411Y49170D01*
X24486Y49120D01*
X24562Y49074D01*
X24640Y49031D01*
X24720Y48992D01*
X24802Y48956D01*
X24885Y48923D01*
X24970Y48895D01*
X25055Y48870D01*
X25142Y48848D01*
X25230Y48831D01*
X25318Y48818D01*
X25407Y48808D01*
X25496Y48802D01*
X25585Y48800D01*
X25674Y48802D01*
X25763Y48808D01*
X25852Y48818D01*
X25940Y48831D01*
X26028Y48848D01*
X26115Y48870D01*
X26200Y48895D01*
X26285Y48923D01*
X26368Y48956D01*
X26450Y48992D01*
X26530Y49031D01*
X26608Y49074D01*
X26684Y49120D01*
X26759Y49170D01*
X26831Y49223D01*
X26900Y49279D01*
X26967Y49338D01*
X27032Y49399D01*
X27093Y49464D01*
X27152Y49531D01*
X27208Y49600D01*
X27261Y49672D01*
X27311Y49747D01*
X27357Y49823D01*
X27400Y49901D01*
X27439Y49981D01*
X27475Y50063D01*
X27508Y50146D01*
X27536Y50231D01*
X27561Y50316D01*
X27583Y50403D01*
X27600Y50491D01*
X27613Y50579D01*
X27623Y50668D01*
X27629Y50757D01*
X27631Y50846D01*
X27631Y52892D01*
X27629Y53004D01*
X27623Y53115D01*
X27614Y53227D01*
X27601Y53338D01*
X27583Y53448D01*
X27563Y53558D01*
X27538Y53667D01*
X27510Y53775D01*
X27478Y53882D01*
X27442Y53988D01*
X27403Y54093D01*
X27360Y54196D01*
X27314Y54298D01*
X27264Y54398D01*
X27211Y54497D01*
X27154Y54593D01*
X27095Y54688D01*
X27032Y54780D01*
X26966Y54870D01*
X26897Y54958D01*
X26825Y55044D01*
X26750Y55127D01*
X26672Y55207D01*
X26592Y55285D01*
X26509Y55360D01*
X26423Y55432D01*
X26335Y55501D01*
X26245Y55567D01*
X26153Y55630D01*
X26058Y55689D01*
X25962Y55746D01*
X25863Y55799D01*
X25763Y55849D01*
X25661Y55895D01*
X25558Y55938D01*
X25453Y55977D01*
X25347Y56013D01*
X25240Y56045D01*
X25132Y56073D01*
X25023Y56098D01*
X24913Y56118D01*
X24803Y56136D01*
X24692Y56149D01*
X24580Y56158D01*
X24469Y56164D01*
X24357Y56166D01*
D10*
X-17031Y144945D02*
X-37160Y144945D01*
D13*
X-26988Y161798D02*
X-26988Y168402D01*
D12*
X-57563Y163199D02*
X-57563Y161562D01*
X-57561Y161484D01*
X-57556Y161406D01*
X-57546Y161329D01*
X-57533Y161252D01*
X-57517Y161176D01*
X-57497Y161101D01*
X-57473Y161027D01*
X-57446Y160954D01*
X-57415Y160882D01*
X-57381Y160812D01*
X-57344Y160744D01*
X-57303Y160677D01*
X-57259Y160612D01*
X-57213Y160550D01*
X-57163Y160490D01*
X-57111Y160432D01*
X-57056Y160377D01*
X-56998Y160325D01*
X-56938Y160275D01*
X-56876Y160229D01*
X-56811Y160185D01*
X-56745Y160144D01*
X-56676Y160107D01*
X-56606Y160073D01*
X-56534Y160042D01*
X-56461Y160015D01*
X-56387Y159991D01*
X-56312Y159971D01*
X-56236Y159955D01*
X-56159Y159942D01*
X-56082Y159932D01*
X-56004Y159927D01*
X-55926Y159925D01*
X-51834Y159925D01*
X-51754Y159927D01*
X-51674Y159933D01*
X-51594Y159943D01*
X-51515Y159956D01*
X-51436Y159974D01*
X-51359Y159995D01*
X-51283Y160021D01*
X-51208Y160050D01*
X-51134Y160082D01*
X-51062Y160118D01*
X-50992Y160158D01*
X-50925Y160201D01*
X-50859Y160247D01*
X-50796Y160297D01*
X-50735Y160349D01*
X-50676Y160404D01*
X-50621Y160463D01*
X-50569Y160523D01*
X-50519Y160587D01*
X-50473Y160652D01*
X-50430Y160720D01*
X-50390Y160790D01*
X-50354Y160862D01*
X-50322Y160936D01*
X-50293Y161010D01*
X-50268Y161087D01*
X-50246Y161164D01*
X-50228Y161243D01*
X-50215Y161322D01*
X-50205Y161401D01*
X-50199Y161482D01*
X-50197Y161562D01*
X-50197Y163199D01*
X-57563Y166044D02*
X-57563Y168090D01*
X-57561Y168179D01*
X-57555Y168268D01*
X-57545Y168357D01*
X-57532Y168445D01*
X-57515Y168533D01*
X-57493Y168620D01*
X-57468Y168705D01*
X-57440Y168790D01*
X-57407Y168873D01*
X-57371Y168955D01*
X-57332Y169035D01*
X-57289Y169113D01*
X-57243Y169189D01*
X-57193Y169264D01*
X-57140Y169336D01*
X-57084Y169405D01*
X-57025Y169472D01*
X-56964Y169537D01*
X-56899Y169598D01*
X-56832Y169657D01*
X-56763Y169713D01*
X-56691Y169766D01*
X-56616Y169816D01*
X-56540Y169862D01*
X-56462Y169905D01*
X-56382Y169944D01*
X-56300Y169980D01*
X-56217Y170013D01*
X-56132Y170041D01*
X-56047Y170066D01*
X-55960Y170088D01*
X-55872Y170105D01*
X-55784Y170118D01*
X-55695Y170128D01*
X-55606Y170134D01*
X-55517Y170136D01*
X-55428Y170134D01*
X-55339Y170128D01*
X-55250Y170118D01*
X-55162Y170105D01*
X-55074Y170088D01*
X-54987Y170066D01*
X-54902Y170041D01*
X-54817Y170013D01*
X-54734Y169980D01*
X-54652Y169944D01*
X-54572Y169905D01*
X-54494Y169862D01*
X-54418Y169816D01*
X-54343Y169766D01*
X-54271Y169713D01*
X-54202Y169657D01*
X-54135Y169598D01*
X-54070Y169537D01*
X-54009Y169472D01*
X-53950Y169405D01*
X-53894Y169336D01*
X-53841Y169264D01*
X-53791Y169189D01*
X-53745Y169113D01*
X-53702Y169035D01*
X-53663Y168955D01*
X-53627Y168873D01*
X-53594Y168790D01*
X-53566Y168705D01*
X-53541Y168620D01*
X-53519Y168533D01*
X-53502Y168445D01*
X-53489Y168357D01*
X-53479Y168268D01*
X-53473Y168179D01*
X-53471Y168090D01*
X-50197Y168499D02*
X-50197Y166044D01*
X-50197Y168499D02*
X-50199Y168578D01*
X-50205Y168657D01*
X-50214Y168736D01*
X-50227Y168814D01*
X-50245Y168891D01*
X-50265Y168967D01*
X-50290Y169042D01*
X-50318Y169116D01*
X-50349Y169189D01*
X-50385Y169260D01*
X-50423Y169329D01*
X-50465Y169396D01*
X-50510Y169461D01*
X-50558Y169524D01*
X-50609Y169585D01*
X-50663Y169642D01*
X-50719Y169698D01*
X-50778Y169750D01*
X-50840Y169800D01*
X-50904Y169846D01*
X-50970Y169890D01*
X-51038Y169930D01*
X-51108Y169966D01*
X-51180Y170000D01*
X-51254Y170030D01*
X-51328Y170056D01*
X-51404Y170079D01*
X-51481Y170097D01*
X-51558Y170113D01*
X-51637Y170124D01*
X-51715Y170132D01*
X-51794Y170136D01*
X-51874Y170136D01*
X-51953Y170132D01*
X-52031Y170124D01*
X-52110Y170113D01*
X-52187Y170097D01*
X-52264Y170079D01*
X-52340Y170056D01*
X-52414Y170030D01*
X-52488Y170000D01*
X-52560Y169966D01*
X-52630Y169930D01*
X-52698Y169890D01*
X-52764Y169846D01*
X-52828Y169800D01*
X-52890Y169750D01*
X-52949Y169698D01*
X-53005Y169642D01*
X-53059Y169585D01*
X-53110Y169524D01*
X-53158Y169461D01*
X-53203Y169396D01*
X-53245Y169329D01*
X-53283Y169260D01*
X-53319Y169189D01*
X-53350Y169116D01*
X-53378Y169042D01*
X-53403Y168967D01*
X-53423Y168891D01*
X-53441Y168814D01*
X-53454Y168736D01*
X-53463Y168657D01*
X-53469Y168578D01*
X-53471Y168499D01*
X-53471Y166862D01*
D10*
X-45390Y155092D02*
X-65519Y155092D01*
D13*
X-55563Y138240D02*
X-55563Y131636D01*
D12*
X-58357Y107636D02*
X-58357Y105999D01*
X-58355Y105921D01*
X-58350Y105843D01*
X-58340Y105766D01*
X-58327Y105689D01*
X-58311Y105613D01*
X-58291Y105538D01*
X-58267Y105464D01*
X-58240Y105391D01*
X-58209Y105319D01*
X-58175Y105249D01*
X-58138Y105181D01*
X-58097Y105114D01*
X-58053Y105049D01*
X-58007Y104987D01*
X-57957Y104927D01*
X-57905Y104869D01*
X-57850Y104814D01*
X-57792Y104762D01*
X-57732Y104712D01*
X-57670Y104666D01*
X-57605Y104622D01*
X-57539Y104581D01*
X-57470Y104544D01*
X-57400Y104510D01*
X-57328Y104479D01*
X-57255Y104452D01*
X-57181Y104428D01*
X-57106Y104408D01*
X-57030Y104392D01*
X-56953Y104379D01*
X-56876Y104369D01*
X-56798Y104364D01*
X-56720Y104362D01*
X-52627Y104362D01*
X-52547Y104364D01*
X-52467Y104370D01*
X-52387Y104380D01*
X-52308Y104393D01*
X-52229Y104411D01*
X-52152Y104432D01*
X-52076Y104458D01*
X-52001Y104487D01*
X-51927Y104519D01*
X-51855Y104555D01*
X-51785Y104595D01*
X-51718Y104638D01*
X-51652Y104684D01*
X-51589Y104734D01*
X-51528Y104786D01*
X-51469Y104841D01*
X-51414Y104900D01*
X-51362Y104960D01*
X-51312Y105024D01*
X-51266Y105089D01*
X-51223Y105157D01*
X-51183Y105227D01*
X-51147Y105299D01*
X-51115Y105373D01*
X-51086Y105447D01*
X-51061Y105524D01*
X-51039Y105601D01*
X-51021Y105680D01*
X-51008Y105759D01*
X-50998Y105838D01*
X-50992Y105919D01*
X-50990Y105999D01*
X-50991Y105999D02*
X-50991Y107636D01*
X-58357Y110481D02*
X-58357Y112937D01*
X-58355Y113015D01*
X-58350Y113093D01*
X-58340Y113170D01*
X-58327Y113247D01*
X-58311Y113323D01*
X-58291Y113398D01*
X-58267Y113472D01*
X-58240Y113545D01*
X-58209Y113617D01*
X-58175Y113687D01*
X-58138Y113756D01*
X-58097Y113822D01*
X-58053Y113887D01*
X-58007Y113949D01*
X-57957Y114009D01*
X-57905Y114067D01*
X-57850Y114122D01*
X-57792Y114174D01*
X-57732Y114224D01*
X-57670Y114270D01*
X-57605Y114314D01*
X-57539Y114355D01*
X-57470Y114392D01*
X-57400Y114426D01*
X-57328Y114457D01*
X-57255Y114484D01*
X-57181Y114508D01*
X-57106Y114528D01*
X-57030Y114544D01*
X-56953Y114557D01*
X-56876Y114567D01*
X-56798Y114572D01*
X-56720Y114574D01*
X-55901Y114574D01*
X-55821Y114572D01*
X-55741Y114566D01*
X-55661Y114556D01*
X-55582Y114543D01*
X-55503Y114525D01*
X-55426Y114504D01*
X-55350Y114478D01*
X-55275Y114449D01*
X-55201Y114417D01*
X-55129Y114381D01*
X-55059Y114341D01*
X-54992Y114298D01*
X-54926Y114252D01*
X-54863Y114202D01*
X-54802Y114150D01*
X-54743Y114095D01*
X-54688Y114036D01*
X-54636Y113976D01*
X-54586Y113912D01*
X-54540Y113846D01*
X-54497Y113779D01*
X-54457Y113709D01*
X-54421Y113637D01*
X-54389Y113563D01*
X-54360Y113489D01*
X-54334Y113412D01*
X-54313Y113335D01*
X-54295Y113256D01*
X-54282Y113177D01*
X-54272Y113097D01*
X-54266Y113017D01*
X-54264Y112937D01*
X-54264Y110481D01*
X-50991Y110481D01*
X-50991Y114574D01*
D10*
X-16980Y51448D02*
X-16980Y31318D01*
D13*
X-127Y41275D02*
X6477Y41275D01*
D12*
X31270Y37687D02*
X32907Y37687D01*
X32985Y37689D01*
X33063Y37694D01*
X33140Y37704D01*
X33217Y37717D01*
X33293Y37733D01*
X33368Y37753D01*
X33442Y37777D01*
X33515Y37804D01*
X33587Y37835D01*
X33657Y37869D01*
X33726Y37906D01*
X33792Y37947D01*
X33857Y37991D01*
X33919Y38037D01*
X33979Y38087D01*
X34037Y38139D01*
X34092Y38194D01*
X34144Y38252D01*
X34194Y38312D01*
X34240Y38374D01*
X34284Y38439D01*
X34325Y38506D01*
X34362Y38574D01*
X34396Y38644D01*
X34427Y38716D01*
X34454Y38789D01*
X34478Y38863D01*
X34498Y38938D01*
X34514Y39014D01*
X34527Y39091D01*
X34537Y39168D01*
X34542Y39246D01*
X34544Y39324D01*
X34544Y43416D01*
X34542Y43494D01*
X34537Y43572D01*
X34527Y43649D01*
X34514Y43726D01*
X34498Y43802D01*
X34478Y43877D01*
X34454Y43951D01*
X34427Y44024D01*
X34396Y44096D01*
X34362Y44166D01*
X34325Y44235D01*
X34284Y44301D01*
X34240Y44366D01*
X34194Y44428D01*
X34144Y44488D01*
X34092Y44546D01*
X34037Y44601D01*
X33979Y44653D01*
X33919Y44703D01*
X33857Y44749D01*
X33792Y44793D01*
X33726Y44834D01*
X33657Y44871D01*
X33587Y44905D01*
X33515Y44936D01*
X33442Y44963D01*
X33368Y44987D01*
X33293Y45007D01*
X33217Y45023D01*
X33140Y45036D01*
X33063Y45046D01*
X32985Y45051D01*
X32907Y45053D01*
X31270Y45053D01*
X28425Y45053D02*
X28425Y44235D01*
X28425Y45053D02*
X24333Y45053D01*
X26379Y37687D01*
D10*
X39805Y132325D02*
X39805Y137305D01*
X39805Y63645D02*
X34825Y63645D01*
X-33855Y63645D02*
X-33855Y68625D01*
X-33855Y137305D02*
X-28875Y137305D01*
X34825Y137305D02*
X39805Y137305D01*
X39805Y68625D02*
X39805Y63645D01*
X-28875Y63645D02*
X-33855Y63645D01*
X-33855Y132325D02*
X-33855Y137305D01*
D14*
X-33213Y133495D02*
X-33211Y133591D01*
X-33205Y133687D01*
X-33195Y133783D01*
X-33181Y133878D01*
X-33164Y133973D01*
X-33142Y134066D01*
X-33117Y134159D01*
X-33088Y134251D01*
X-33055Y134341D01*
X-33018Y134430D01*
X-32978Y134517D01*
X-32934Y134603D01*
X-32887Y134687D01*
X-32836Y134769D01*
X-32783Y134848D01*
X-32725Y134925D01*
X-32665Y135000D01*
X-32602Y135073D01*
X-32536Y135143D01*
X-32466Y135209D01*
X-32395Y135274D01*
X-32320Y135335D01*
X-32244Y135393D01*
X-32165Y135447D01*
X-32083Y135499D01*
X-32000Y135547D01*
X-31915Y135591D01*
X-31828Y135633D01*
X-31739Y135670D01*
X-31649Y135704D01*
X-31558Y135734D01*
X-31466Y135760D01*
X-31372Y135783D01*
X-31278Y135801D01*
X-31183Y135816D01*
X-31087Y135827D01*
X-30991Y135834D01*
X-30895Y135837D01*
X-30799Y135836D01*
X-30703Y135831D01*
X-30607Y135822D01*
X-30512Y135809D01*
X-30417Y135793D01*
X-30323Y135772D01*
X-30230Y135748D01*
X-30138Y135719D01*
X-30047Y135687D01*
X-29958Y135652D01*
X-29870Y135612D01*
X-29784Y135570D01*
X-29700Y135523D01*
X-29618Y135473D01*
X-29538Y135420D01*
X-29460Y135364D01*
X-29384Y135304D01*
X-29311Y135242D01*
X-29241Y135176D01*
X-29173Y135108D01*
X-29108Y135037D01*
X-29046Y134963D01*
X-28988Y134887D01*
X-28932Y134809D01*
X-28880Y134728D01*
X-28831Y134645D01*
X-28785Y134560D01*
X-28743Y134474D01*
X-28705Y134386D01*
X-28670Y134296D01*
X-28639Y134205D01*
X-28612Y134113D01*
X-28588Y134019D01*
X-28569Y133925D01*
X-28553Y133830D01*
X-28541Y133735D01*
X-28533Y133639D01*
X-28529Y133543D01*
X-28529Y133447D01*
X-28533Y133351D01*
X-28541Y133255D01*
X-28553Y133160D01*
X-28569Y133065D01*
X-28588Y132971D01*
X-28612Y132877D01*
X-28639Y132785D01*
X-28670Y132694D01*
X-28705Y132604D01*
X-28743Y132516D01*
X-28785Y132430D01*
X-28831Y132345D01*
X-28880Y132262D01*
X-28932Y132181D01*
X-28988Y132103D01*
X-29046Y132027D01*
X-29108Y131953D01*
X-29173Y131882D01*
X-29241Y131814D01*
X-29311Y131748D01*
X-29384Y131686D01*
X-29460Y131626D01*
X-29538Y131570D01*
X-29618Y131517D01*
X-29700Y131467D01*
X-29784Y131420D01*
X-29870Y131378D01*
X-29958Y131338D01*
X-30047Y131303D01*
X-30138Y131271D01*
X-30230Y131242D01*
X-30323Y131218D01*
X-30417Y131197D01*
X-30512Y131181D01*
X-30607Y131168D01*
X-30703Y131159D01*
X-30799Y131154D01*
X-30895Y131153D01*
X-30991Y131156D01*
X-31087Y131163D01*
X-31183Y131174D01*
X-31278Y131189D01*
X-31372Y131207D01*
X-31466Y131230D01*
X-31558Y131256D01*
X-31649Y131286D01*
X-31739Y131320D01*
X-31828Y131357D01*
X-31915Y131399D01*
X-32000Y131443D01*
X-32083Y131491D01*
X-32165Y131543D01*
X-32244Y131597D01*
X-32320Y131655D01*
X-32395Y131716D01*
X-32466Y131781D01*
X-32536Y131847D01*
X-32602Y131917D01*
X-32665Y131990D01*
X-32725Y132065D01*
X-32783Y132142D01*
X-32836Y132221D01*
X-32887Y132303D01*
X-32934Y132387D01*
X-32978Y132473D01*
X-33018Y132560D01*
X-33055Y132649D01*
X-33088Y132739D01*
X-33117Y132831D01*
X-33142Y132924D01*
X-33164Y133017D01*
X-33181Y133112D01*
X-33195Y133207D01*
X-33205Y133303D01*
X-33211Y133399D01*
X-33213Y133495D01*
D15*
X46621Y125776D02*
X52124Y125776D01*
X46621Y125776D02*
X46530Y125778D01*
X46439Y125784D01*
X46348Y125794D01*
X46258Y125807D01*
X46169Y125825D01*
X46080Y125846D01*
X45993Y125871D01*
X45906Y125900D01*
X45821Y125933D01*
X45738Y125969D01*
X45656Y126009D01*
X45576Y126052D01*
X45497Y126099D01*
X45421Y126149D01*
X45347Y126202D01*
X45276Y126258D01*
X45207Y126318D01*
X45140Y126380D01*
X45077Y126445D01*
X45016Y126513D01*
X44958Y126583D01*
X44903Y126656D01*
X44851Y126731D01*
X44803Y126808D01*
X44758Y126888D01*
X44716Y126969D01*
X44678Y127051D01*
X44644Y127136D01*
X44613Y127222D01*
X44586Y127309D01*
X44563Y127397D01*
X44544Y127486D01*
X44528Y127575D01*
X44516Y127666D01*
X44508Y127756D01*
X44504Y127847D01*
X44504Y127939D01*
X44508Y128030D01*
X44516Y128120D01*
X44528Y128211D01*
X44544Y128300D01*
X44563Y128389D01*
X44586Y128477D01*
X44613Y128564D01*
X44644Y128650D01*
X44678Y128735D01*
X44716Y128817D01*
X44758Y128898D01*
X44803Y128978D01*
X44851Y129055D01*
X44903Y129130D01*
X44958Y129203D01*
X45016Y129273D01*
X45077Y129341D01*
X45140Y129406D01*
X45207Y129468D01*
X45276Y129528D01*
X45347Y129584D01*
X45421Y129637D01*
X45497Y129687D01*
X45576Y129734D01*
X45656Y129777D01*
X45738Y129817D01*
X45821Y129853D01*
X45906Y129886D01*
X45993Y129915D01*
X46080Y129940D01*
X46169Y129961D01*
X46258Y129979D01*
X46348Y129992D01*
X46439Y130002D01*
X46530Y130008D01*
X46621Y130010D01*
X46621Y130009D02*
X52124Y130009D01*
X50431Y133335D02*
X52124Y135452D01*
X44504Y135452D01*
X44504Y133335D02*
X44504Y137569D01*
D12*
X44610Y192541D02*
X44610Y199907D01*
X42564Y199907D02*
X46657Y199907D01*
X40238Y199907D02*
X37783Y192541D01*
X35328Y199907D01*
X28665Y194178D02*
X28667Y194100D01*
X28672Y194022D01*
X28682Y193945D01*
X28695Y193868D01*
X28711Y193792D01*
X28731Y193717D01*
X28755Y193643D01*
X28782Y193570D01*
X28813Y193498D01*
X28847Y193428D01*
X28884Y193359D01*
X28925Y193293D01*
X28969Y193228D01*
X29015Y193166D01*
X29065Y193106D01*
X29117Y193048D01*
X29172Y192993D01*
X29230Y192941D01*
X29290Y192891D01*
X29352Y192845D01*
X29417Y192801D01*
X29484Y192760D01*
X29552Y192723D01*
X29622Y192689D01*
X29694Y192658D01*
X29767Y192631D01*
X29841Y192607D01*
X29916Y192587D01*
X29992Y192571D01*
X30069Y192558D01*
X30146Y192548D01*
X30224Y192543D01*
X30302Y192541D01*
X30416Y192543D01*
X30529Y192548D01*
X30643Y192558D01*
X30756Y192571D01*
X30868Y192588D01*
X30980Y192608D01*
X31091Y192632D01*
X31202Y192660D01*
X31311Y192691D01*
X31419Y192726D01*
X31526Y192765D01*
X31632Y192807D01*
X31736Y192852D01*
X31839Y192901D01*
X31940Y192954D01*
X32039Y193009D01*
X32137Y193068D01*
X32232Y193130D01*
X32325Y193195D01*
X32417Y193263D01*
X32505Y193334D01*
X32592Y193408D01*
X32676Y193485D01*
X32757Y193564D01*
X32553Y198270D02*
X32551Y198348D01*
X32546Y198426D01*
X32536Y198503D01*
X32523Y198580D01*
X32507Y198656D01*
X32487Y198731D01*
X32463Y198805D01*
X32436Y198878D01*
X32405Y198950D01*
X32371Y199020D01*
X32334Y199089D01*
X32293Y199155D01*
X32249Y199220D01*
X32203Y199282D01*
X32153Y199342D01*
X32101Y199400D01*
X32046Y199455D01*
X31988Y199507D01*
X31928Y199557D01*
X31866Y199603D01*
X31801Y199647D01*
X31735Y199688D01*
X31666Y199725D01*
X31596Y199759D01*
X31524Y199790D01*
X31451Y199817D01*
X31377Y199841D01*
X31302Y199861D01*
X31226Y199877D01*
X31149Y199890D01*
X31072Y199900D01*
X30994Y199905D01*
X30916Y199907D01*
X30806Y199905D01*
X30697Y199899D01*
X30587Y199889D01*
X30479Y199876D01*
X30370Y199858D01*
X30263Y199837D01*
X30156Y199811D01*
X30050Y199782D01*
X29945Y199750D01*
X29842Y199713D01*
X29740Y199673D01*
X29639Y199629D01*
X29540Y199581D01*
X29443Y199531D01*
X29348Y199476D01*
X29255Y199418D01*
X29164Y199357D01*
X29075Y199293D01*
X31735Y196837D02*
X31802Y196879D01*
X31867Y196923D01*
X31929Y196971D01*
X31989Y197021D01*
X32047Y197074D01*
X32102Y197130D01*
X32154Y197189D01*
X32204Y197249D01*
X32251Y197313D01*
X32294Y197378D01*
X32335Y197445D01*
X32372Y197514D01*
X32406Y197585D01*
X32437Y197657D01*
X32464Y197731D01*
X32488Y197805D01*
X32508Y197881D01*
X32524Y197958D01*
X32537Y198035D01*
X32547Y198113D01*
X32552Y198192D01*
X32554Y198270D01*
X29484Y195610D02*
X29418Y195569D01*
X29353Y195524D01*
X29291Y195477D01*
X29231Y195426D01*
X29173Y195373D01*
X29118Y195317D01*
X29065Y195259D01*
X29016Y195198D01*
X28969Y195135D01*
X28926Y195070D01*
X28885Y195003D01*
X28848Y194934D01*
X28814Y194863D01*
X28783Y194791D01*
X28756Y194717D01*
X28732Y194642D01*
X28712Y194567D01*
X28696Y194490D01*
X28683Y194413D01*
X28673Y194335D01*
X28668Y194256D01*
X28666Y194178D01*
X29484Y195610D02*
X31735Y196838D01*
X25686Y198270D02*
X23640Y199907D01*
X23640Y192541D01*
X25686Y192541D02*
X21594Y192541D01*
X-23652Y192541D02*
X-23652Y199907D01*
X-21606Y199907D02*
X-25698Y199907D01*
X-28024Y199907D02*
X-30480Y192541D01*
X-32935Y199907D01*
X-39597Y194178D02*
X-39595Y194100D01*
X-39590Y194022D01*
X-39580Y193945D01*
X-39567Y193868D01*
X-39551Y193792D01*
X-39531Y193717D01*
X-39507Y193643D01*
X-39480Y193570D01*
X-39449Y193498D01*
X-39415Y193428D01*
X-39378Y193360D01*
X-39337Y193293D01*
X-39293Y193228D01*
X-39247Y193166D01*
X-39197Y193106D01*
X-39145Y193048D01*
X-39090Y192993D01*
X-39032Y192941D01*
X-38972Y192891D01*
X-38910Y192845D01*
X-38845Y192801D01*
X-38779Y192760D01*
X-38710Y192723D01*
X-38640Y192689D01*
X-38568Y192658D01*
X-38495Y192631D01*
X-38421Y192607D01*
X-38346Y192587D01*
X-38270Y192571D01*
X-38193Y192558D01*
X-38116Y192548D01*
X-38038Y192543D01*
X-37960Y192541D01*
X-37846Y192543D01*
X-37733Y192548D01*
X-37619Y192558D01*
X-37506Y192571D01*
X-37394Y192588D01*
X-37282Y192608D01*
X-37171Y192632D01*
X-37060Y192660D01*
X-36951Y192691D01*
X-36843Y192726D01*
X-36736Y192765D01*
X-36630Y192807D01*
X-36526Y192852D01*
X-36423Y192901D01*
X-36322Y192954D01*
X-36223Y193009D01*
X-36125Y193068D01*
X-36030Y193130D01*
X-35937Y193195D01*
X-35845Y193263D01*
X-35757Y193334D01*
X-35670Y193408D01*
X-35586Y193485D01*
X-35505Y193564D01*
X-35709Y198270D02*
X-35711Y198348D01*
X-35716Y198426D01*
X-35726Y198503D01*
X-35739Y198580D01*
X-35755Y198656D01*
X-35775Y198731D01*
X-35799Y198805D01*
X-35826Y198878D01*
X-35857Y198950D01*
X-35891Y199020D01*
X-35928Y199089D01*
X-35969Y199155D01*
X-36013Y199220D01*
X-36059Y199282D01*
X-36109Y199342D01*
X-36161Y199400D01*
X-36216Y199455D01*
X-36274Y199507D01*
X-36334Y199557D01*
X-36396Y199603D01*
X-36461Y199647D01*
X-36528Y199688D01*
X-36596Y199725D01*
X-36666Y199759D01*
X-36738Y199790D01*
X-36811Y199817D01*
X-36885Y199841D01*
X-36960Y199861D01*
X-37036Y199877D01*
X-37113Y199890D01*
X-37190Y199900D01*
X-37268Y199905D01*
X-37346Y199907D01*
X-37456Y199905D01*
X-37565Y199899D01*
X-37675Y199889D01*
X-37783Y199876D01*
X-37892Y199858D01*
X-37999Y199837D01*
X-38106Y199811D01*
X-38212Y199782D01*
X-38317Y199750D01*
X-38420Y199713D01*
X-38522Y199673D01*
X-38623Y199629D01*
X-38722Y199581D01*
X-38819Y199531D01*
X-38914Y199476D01*
X-39007Y199418D01*
X-39098Y199357D01*
X-39187Y199293D01*
X-36528Y196837D02*
X-36461Y196879D01*
X-36396Y196923D01*
X-36334Y196971D01*
X-36274Y197021D01*
X-36216Y197074D01*
X-36161Y197130D01*
X-36109Y197189D01*
X-36059Y197249D01*
X-36012Y197313D01*
X-35969Y197378D01*
X-35928Y197445D01*
X-35891Y197514D01*
X-35857Y197585D01*
X-35826Y197657D01*
X-35799Y197731D01*
X-35775Y197805D01*
X-35755Y197881D01*
X-35739Y197958D01*
X-35726Y198035D01*
X-35716Y198113D01*
X-35711Y198192D01*
X-35709Y198270D01*
X-38779Y195610D02*
X-38845Y195568D01*
X-38910Y195524D01*
X-38972Y195477D01*
X-39032Y195426D01*
X-39090Y195373D01*
X-39145Y195317D01*
X-39198Y195259D01*
X-39247Y195198D01*
X-39294Y195135D01*
X-39337Y195070D01*
X-39378Y195003D01*
X-39415Y194934D01*
X-39449Y194863D01*
X-39480Y194791D01*
X-39507Y194717D01*
X-39531Y194642D01*
X-39551Y194567D01*
X-39567Y194490D01*
X-39580Y194413D01*
X-39590Y194335D01*
X-39595Y194256D01*
X-39597Y194178D01*
X-38779Y195610D02*
X-36528Y196838D01*
X-44827Y199908D02*
X-44912Y199906D01*
X-44997Y199900D01*
X-45081Y199890D01*
X-45165Y199877D01*
X-45249Y199859D01*
X-45331Y199838D01*
X-45412Y199813D01*
X-45492Y199784D01*
X-45571Y199751D01*
X-45648Y199715D01*
X-45723Y199675D01*
X-45797Y199632D01*
X-45868Y199586D01*
X-45937Y199536D01*
X-46004Y199483D01*
X-46068Y199427D01*
X-46129Y199368D01*
X-46188Y199307D01*
X-46244Y199243D01*
X-46297Y199176D01*
X-46347Y199107D01*
X-46393Y199036D01*
X-46436Y198962D01*
X-46476Y198887D01*
X-46512Y198810D01*
X-46545Y198731D01*
X-46574Y198651D01*
X-46599Y198570D01*
X-46620Y198488D01*
X-46638Y198404D01*
X-46651Y198320D01*
X-46661Y198236D01*
X-46667Y198151D01*
X-46669Y198066D01*
X-44827Y199907D02*
X-44731Y199905D01*
X-44635Y199899D01*
X-44540Y199889D01*
X-44445Y199876D01*
X-44350Y199858D01*
X-44257Y199837D01*
X-44164Y199812D01*
X-44073Y199783D01*
X-43982Y199751D01*
X-43893Y199715D01*
X-43806Y199675D01*
X-43720Y199632D01*
X-43636Y199586D01*
X-43554Y199536D01*
X-43474Y199482D01*
X-43397Y199426D01*
X-43322Y199366D01*
X-43249Y199304D01*
X-43179Y199238D01*
X-43111Y199170D01*
X-43046Y199099D01*
X-42985Y199026D01*
X-42926Y198950D01*
X-42870Y198871D01*
X-42818Y198791D01*
X-42769Y198708D01*
X-42723Y198624D01*
X-42681Y198538D01*
X-42643Y198450D01*
X-42608Y198361D01*
X-42576Y198270D01*
X-46055Y196634D02*
X-46115Y196693D01*
X-46172Y196755D01*
X-46227Y196819D01*
X-46278Y196886D01*
X-46327Y196955D01*
X-46373Y197025D01*
X-46416Y197098D01*
X-46456Y197172D01*
X-46492Y197248D01*
X-46525Y197326D01*
X-46555Y197405D01*
X-46582Y197485D01*
X-46605Y197566D01*
X-46624Y197648D01*
X-46640Y197730D01*
X-46653Y197814D01*
X-46662Y197898D01*
X-46667Y197982D01*
X-46669Y198066D01*
X-46055Y196633D02*
X-42576Y192541D01*
X-46668Y192541D01*
D11*
X78469Y209819D02*
X83469Y219819D01*
X73469Y219819D01*
X78469Y209819D01*
X83469Y209819D01*
X78469Y209819D02*
X73469Y209819D01*
D12*
X88084Y209637D02*
X95450Y209637D01*
X95450Y211683D01*
X95448Y211772D01*
X95442Y211861D01*
X95432Y211950D01*
X95419Y212038D01*
X95402Y212126D01*
X95380Y212213D01*
X95355Y212298D01*
X95327Y212383D01*
X95294Y212466D01*
X95258Y212548D01*
X95219Y212628D01*
X95176Y212706D01*
X95130Y212782D01*
X95080Y212857D01*
X95027Y212929D01*
X94971Y212998D01*
X94912Y213065D01*
X94851Y213130D01*
X94786Y213191D01*
X94719Y213250D01*
X94650Y213306D01*
X94578Y213359D01*
X94503Y213409D01*
X94427Y213455D01*
X94349Y213498D01*
X94269Y213537D01*
X94187Y213573D01*
X94104Y213606D01*
X94019Y213634D01*
X93934Y213659D01*
X93847Y213681D01*
X93759Y213698D01*
X93671Y213711D01*
X93582Y213721D01*
X93493Y213727D01*
X93404Y213729D01*
X90130Y213729D01*
X90041Y213727D01*
X89952Y213721D01*
X89863Y213711D01*
X89775Y213698D01*
X89687Y213681D01*
X89600Y213659D01*
X89515Y213634D01*
X89430Y213606D01*
X89347Y213573D01*
X89265Y213537D01*
X89185Y213498D01*
X89107Y213455D01*
X89031Y213409D01*
X88956Y213359D01*
X88884Y213306D01*
X88815Y213250D01*
X88748Y213191D01*
X88683Y213130D01*
X88622Y213065D01*
X88563Y212998D01*
X88507Y212929D01*
X88454Y212857D01*
X88404Y212782D01*
X88358Y212706D01*
X88315Y212628D01*
X88276Y212548D01*
X88240Y212466D01*
X88207Y212383D01*
X88179Y212298D01*
X88154Y212213D01*
X88132Y212126D01*
X88115Y212038D01*
X88102Y211950D01*
X88092Y211861D01*
X88086Y211772D01*
X88084Y211683D01*
X88084Y209637D01*
X95451Y219446D02*
X95449Y219531D01*
X95443Y219616D01*
X95433Y219700D01*
X95420Y219784D01*
X95402Y219868D01*
X95381Y219950D01*
X95356Y220031D01*
X95327Y220111D01*
X95294Y220190D01*
X95258Y220267D01*
X95218Y220342D01*
X95175Y220416D01*
X95129Y220487D01*
X95079Y220556D01*
X95026Y220623D01*
X94970Y220687D01*
X94911Y220748D01*
X94850Y220807D01*
X94786Y220863D01*
X94719Y220916D01*
X94650Y220966D01*
X94579Y221012D01*
X94505Y221055D01*
X94430Y221095D01*
X94353Y221131D01*
X94274Y221164D01*
X94194Y221193D01*
X94113Y221218D01*
X94031Y221239D01*
X93947Y221257D01*
X93863Y221270D01*
X93779Y221280D01*
X93694Y221286D01*
X93609Y221288D01*
X95450Y219446D02*
X95448Y219350D01*
X95442Y219254D01*
X95432Y219159D01*
X95419Y219064D01*
X95401Y218969D01*
X95380Y218876D01*
X95355Y218783D01*
X95326Y218692D01*
X95294Y218601D01*
X95258Y218512D01*
X95218Y218425D01*
X95175Y218339D01*
X95129Y218255D01*
X95079Y218173D01*
X95025Y218093D01*
X94969Y218016D01*
X94909Y217941D01*
X94847Y217868D01*
X94781Y217798D01*
X94713Y217730D01*
X94642Y217665D01*
X94569Y217604D01*
X94493Y217545D01*
X94414Y217489D01*
X94334Y217437D01*
X94251Y217388D01*
X94167Y217342D01*
X94081Y217300D01*
X93993Y217262D01*
X93904Y217227D01*
X93813Y217195D01*
X92177Y220674D02*
X92236Y220734D01*
X92298Y220791D01*
X92362Y220846D01*
X92429Y220897D01*
X92498Y220946D01*
X92568Y220992D01*
X92641Y221035D01*
X92715Y221075D01*
X92791Y221111D01*
X92869Y221144D01*
X92948Y221174D01*
X93028Y221201D01*
X93109Y221224D01*
X93191Y221243D01*
X93273Y221259D01*
X93357Y221272D01*
X93441Y221281D01*
X93525Y221286D01*
X93609Y221288D01*
X92176Y220674D02*
X88084Y217196D01*
X88084Y221288D01*
D11*
X-76444Y219394D02*
X-81444Y209394D01*
X-76444Y219394D02*
X-86444Y219394D01*
X-81444Y209394D01*
X-76444Y209394D01*
X-81444Y209394D02*
X-86444Y209394D01*
D12*
X-91450Y209211D02*
X-98816Y209211D01*
X-91450Y209211D02*
X-91450Y211257D01*
X-91452Y211346D01*
X-91458Y211435D01*
X-91468Y211524D01*
X-91481Y211612D01*
X-91498Y211700D01*
X-91520Y211787D01*
X-91545Y211872D01*
X-91573Y211957D01*
X-91606Y212040D01*
X-91642Y212122D01*
X-91681Y212202D01*
X-91724Y212280D01*
X-91770Y212356D01*
X-91820Y212431D01*
X-91873Y212503D01*
X-91929Y212572D01*
X-91988Y212639D01*
X-92049Y212704D01*
X-92114Y212765D01*
X-92181Y212824D01*
X-92250Y212880D01*
X-92322Y212933D01*
X-92397Y212983D01*
X-92473Y213029D01*
X-92551Y213072D01*
X-92631Y213111D01*
X-92713Y213147D01*
X-92796Y213180D01*
X-92881Y213208D01*
X-92966Y213233D01*
X-93053Y213255D01*
X-93141Y213272D01*
X-93229Y213285D01*
X-93318Y213295D01*
X-93407Y213301D01*
X-93496Y213303D01*
X-93496Y213304D02*
X-96769Y213304D01*
X-96769Y213303D02*
X-96858Y213301D01*
X-96947Y213295D01*
X-97036Y213285D01*
X-97124Y213272D01*
X-97212Y213255D01*
X-97299Y213233D01*
X-97384Y213208D01*
X-97469Y213180D01*
X-97552Y213147D01*
X-97634Y213111D01*
X-97714Y213072D01*
X-97792Y213029D01*
X-97868Y212983D01*
X-97943Y212933D01*
X-98015Y212880D01*
X-98084Y212824D01*
X-98151Y212765D01*
X-98216Y212704D01*
X-98277Y212639D01*
X-98336Y212572D01*
X-98392Y212503D01*
X-98445Y212431D01*
X-98495Y212356D01*
X-98541Y212280D01*
X-98584Y212202D01*
X-98623Y212122D01*
X-98659Y212040D01*
X-98692Y211957D01*
X-98720Y211872D01*
X-98745Y211787D01*
X-98767Y211700D01*
X-98784Y211612D01*
X-98797Y211524D01*
X-98807Y211435D01*
X-98813Y211346D01*
X-98815Y211257D01*
X-98816Y211257D02*
X-98816Y209211D01*
X-98816Y216770D02*
X-98816Y218816D01*
X-98815Y218816D02*
X-98813Y218905D01*
X-98807Y218994D01*
X-98797Y219083D01*
X-98784Y219171D01*
X-98767Y219259D01*
X-98745Y219346D01*
X-98720Y219431D01*
X-98692Y219516D01*
X-98659Y219599D01*
X-98623Y219681D01*
X-98584Y219761D01*
X-98541Y219839D01*
X-98495Y219915D01*
X-98445Y219990D01*
X-98392Y220062D01*
X-98336Y220131D01*
X-98277Y220198D01*
X-98216Y220263D01*
X-98151Y220324D01*
X-98084Y220383D01*
X-98015Y220439D01*
X-97943Y220492D01*
X-97868Y220542D01*
X-97792Y220588D01*
X-97714Y220631D01*
X-97634Y220670D01*
X-97552Y220706D01*
X-97469Y220739D01*
X-97384Y220767D01*
X-97299Y220792D01*
X-97212Y220814D01*
X-97124Y220831D01*
X-97036Y220844D01*
X-96947Y220854D01*
X-96858Y220860D01*
X-96769Y220862D01*
X-96680Y220860D01*
X-96591Y220854D01*
X-96502Y220844D01*
X-96414Y220831D01*
X-96326Y220814D01*
X-96239Y220792D01*
X-96154Y220767D01*
X-96069Y220739D01*
X-95986Y220706D01*
X-95904Y220670D01*
X-95824Y220631D01*
X-95746Y220588D01*
X-95670Y220542D01*
X-95595Y220492D01*
X-95523Y220439D01*
X-95454Y220383D01*
X-95387Y220324D01*
X-95322Y220263D01*
X-95261Y220198D01*
X-95202Y220131D01*
X-95146Y220062D01*
X-95093Y219990D01*
X-95043Y219915D01*
X-94997Y219839D01*
X-94954Y219761D01*
X-94915Y219681D01*
X-94879Y219599D01*
X-94846Y219516D01*
X-94818Y219431D01*
X-94793Y219346D01*
X-94771Y219259D01*
X-94754Y219171D01*
X-94741Y219083D01*
X-94731Y218994D01*
X-94725Y218905D01*
X-94723Y218816D01*
X-91450Y219226D02*
X-91450Y216770D01*
X-91449Y219226D02*
X-91451Y219305D01*
X-91457Y219384D01*
X-91466Y219463D01*
X-91479Y219541D01*
X-91497Y219618D01*
X-91517Y219694D01*
X-91542Y219769D01*
X-91570Y219843D01*
X-91601Y219916D01*
X-91637Y219987D01*
X-91675Y220056D01*
X-91717Y220123D01*
X-91762Y220188D01*
X-91810Y220251D01*
X-91861Y220312D01*
X-91915Y220369D01*
X-91971Y220425D01*
X-92030Y220477D01*
X-92092Y220527D01*
X-92156Y220573D01*
X-92222Y220617D01*
X-92290Y220657D01*
X-92360Y220693D01*
X-92432Y220727D01*
X-92506Y220757D01*
X-92580Y220783D01*
X-92656Y220806D01*
X-92733Y220824D01*
X-92810Y220840D01*
X-92889Y220851D01*
X-92967Y220859D01*
X-93046Y220863D01*
X-93126Y220863D01*
X-93205Y220859D01*
X-93283Y220851D01*
X-93362Y220840D01*
X-93439Y220824D01*
X-93516Y220806D01*
X-93592Y220783D01*
X-93666Y220757D01*
X-93740Y220727D01*
X-93812Y220693D01*
X-93882Y220657D01*
X-93950Y220617D01*
X-94016Y220573D01*
X-94080Y220527D01*
X-94142Y220477D01*
X-94201Y220425D01*
X-94257Y220369D01*
X-94311Y220312D01*
X-94362Y220251D01*
X-94410Y220188D01*
X-94455Y220123D01*
X-94497Y220056D01*
X-94535Y219987D01*
X-94571Y219916D01*
X-94602Y219843D01*
X-94630Y219769D01*
X-94655Y219694D01*
X-94675Y219618D01*
X-94693Y219541D01*
X-94706Y219463D01*
X-94715Y219384D01*
X-94721Y219305D01*
X-94723Y219226D01*
X-94723Y217589D01*
M02*
