G04 EAGLE Gerber RS-274X export*
G75*
%MOMM*%
%FSLAX34Y34*%
%LPD*%
%INSolderpaste Bottom*%
%IPPOS*%
%AMOC8*
5,1,8,0,0,1.08239X$1,22.5*%
G01*
%ADD10R,0.400000X1.399997*%
%ADD11R,1.100000X1.000000*%
%ADD12R,1.000000X1.100000*%
%ADD13R,1.500000X1.300000*%
%ADD14R,1.300000X1.500000*%
%ADD15R,0.297181X0.550000*%
%ADD16R,0.550000X0.297181*%
%ADD17R,1.800000X2.200000*%
%ADD18R,0.800000X1.600000*%

G36*
X30425Y115574D02*
X30425Y115574D01*
X30427Y115573D01*
X30470Y115593D01*
X30514Y115611D01*
X30514Y115613D01*
X30516Y115614D01*
X30549Y115699D01*
X30549Y127923D01*
X30548Y127925D01*
X30549Y127927D01*
X30529Y127970D01*
X30511Y128014D01*
X30509Y128014D01*
X30508Y128016D01*
X30423Y128049D01*
X18199Y128049D01*
X18197Y128048D01*
X18195Y128049D01*
X18152Y128029D01*
X18108Y128011D01*
X18108Y128009D01*
X18106Y128008D01*
X18073Y127923D01*
X18073Y115699D01*
X18074Y115697D01*
X18073Y115695D01*
X18093Y115652D01*
X18111Y115608D01*
X18113Y115608D01*
X18114Y115606D01*
X18199Y115573D01*
X30423Y115573D01*
X30425Y115574D01*
G37*
G36*
X16201Y115574D02*
X16201Y115574D01*
X16203Y115573D01*
X16246Y115593D01*
X16290Y115611D01*
X16290Y115613D01*
X16292Y115614D01*
X16325Y115699D01*
X16325Y127923D01*
X16324Y127925D01*
X16325Y127927D01*
X16305Y127970D01*
X16287Y128014D01*
X16285Y128014D01*
X16284Y128016D01*
X16199Y128049D01*
X3975Y128049D01*
X3973Y128048D01*
X3971Y128049D01*
X3928Y128029D01*
X3884Y128011D01*
X3884Y128009D01*
X3882Y128008D01*
X3849Y127923D01*
X3849Y115699D01*
X3850Y115697D01*
X3849Y115695D01*
X3869Y115652D01*
X3887Y115608D01*
X3889Y115608D01*
X3890Y115606D01*
X3975Y115573D01*
X16199Y115573D01*
X16201Y115574D01*
G37*
G36*
X1977Y115574D02*
X1977Y115574D01*
X1979Y115573D01*
X2022Y115593D01*
X2066Y115611D01*
X2066Y115613D01*
X2068Y115614D01*
X2101Y115699D01*
X2101Y127923D01*
X2100Y127925D01*
X2101Y127927D01*
X2081Y127970D01*
X2063Y128014D01*
X2061Y128014D01*
X2060Y128016D01*
X1975Y128049D01*
X-10249Y128049D01*
X-10251Y128048D01*
X-10253Y128049D01*
X-10296Y128029D01*
X-10340Y128011D01*
X-10340Y128009D01*
X-10342Y128008D01*
X-10375Y127923D01*
X-10375Y115699D01*
X-10374Y115697D01*
X-10375Y115695D01*
X-10355Y115652D01*
X-10337Y115608D01*
X-10335Y115608D01*
X-10334Y115606D01*
X-10249Y115573D01*
X1975Y115573D01*
X1977Y115574D01*
G37*
G36*
X-12247Y115574D02*
X-12247Y115574D01*
X-12245Y115573D01*
X-12202Y115593D01*
X-12158Y115611D01*
X-12158Y115613D01*
X-12156Y115614D01*
X-12123Y115699D01*
X-12123Y127923D01*
X-12124Y127925D01*
X-12123Y127927D01*
X-12143Y127970D01*
X-12161Y128014D01*
X-12163Y128014D01*
X-12164Y128016D01*
X-12249Y128049D01*
X-24473Y128049D01*
X-24475Y128048D01*
X-24477Y128049D01*
X-24520Y128029D01*
X-24564Y128011D01*
X-24564Y128009D01*
X-24566Y128008D01*
X-24599Y127923D01*
X-24599Y115699D01*
X-24598Y115697D01*
X-24599Y115695D01*
X-24579Y115652D01*
X-24561Y115608D01*
X-24559Y115608D01*
X-24558Y115606D01*
X-24473Y115573D01*
X-12249Y115573D01*
X-12247Y115574D01*
G37*
G36*
X30425Y101350D02*
X30425Y101350D01*
X30427Y101349D01*
X30470Y101369D01*
X30514Y101387D01*
X30514Y101389D01*
X30516Y101390D01*
X30549Y101475D01*
X30549Y113699D01*
X30548Y113701D01*
X30549Y113703D01*
X30529Y113746D01*
X30511Y113790D01*
X30509Y113790D01*
X30508Y113792D01*
X30423Y113825D01*
X18199Y113825D01*
X18197Y113824D01*
X18195Y113825D01*
X18152Y113805D01*
X18108Y113787D01*
X18108Y113785D01*
X18106Y113784D01*
X18073Y113699D01*
X18073Y101475D01*
X18074Y101473D01*
X18073Y101471D01*
X18093Y101428D01*
X18111Y101384D01*
X18113Y101384D01*
X18114Y101382D01*
X18199Y101349D01*
X30423Y101349D01*
X30425Y101350D01*
G37*
G36*
X-12247Y101350D02*
X-12247Y101350D01*
X-12245Y101349D01*
X-12202Y101369D01*
X-12158Y101387D01*
X-12158Y101389D01*
X-12156Y101390D01*
X-12123Y101475D01*
X-12123Y113699D01*
X-12124Y113701D01*
X-12123Y113703D01*
X-12143Y113746D01*
X-12161Y113790D01*
X-12163Y113790D01*
X-12164Y113792D01*
X-12249Y113825D01*
X-24473Y113825D01*
X-24475Y113824D01*
X-24477Y113825D01*
X-24520Y113805D01*
X-24564Y113787D01*
X-24564Y113785D01*
X-24566Y113784D01*
X-24599Y113699D01*
X-24599Y101475D01*
X-24598Y101473D01*
X-24599Y101471D01*
X-24579Y101428D01*
X-24561Y101384D01*
X-24559Y101384D01*
X-24558Y101382D01*
X-24473Y101349D01*
X-12249Y101349D01*
X-12247Y101350D01*
G37*
G36*
X1977Y101350D02*
X1977Y101350D01*
X1979Y101349D01*
X2022Y101369D01*
X2066Y101387D01*
X2066Y101389D01*
X2068Y101390D01*
X2101Y101475D01*
X2101Y113699D01*
X2100Y113701D01*
X2101Y113703D01*
X2081Y113746D01*
X2063Y113790D01*
X2061Y113790D01*
X2060Y113792D01*
X1975Y113825D01*
X-10249Y113825D01*
X-10251Y113824D01*
X-10253Y113825D01*
X-10296Y113805D01*
X-10340Y113787D01*
X-10340Y113785D01*
X-10342Y113784D01*
X-10375Y113699D01*
X-10375Y101475D01*
X-10374Y101473D01*
X-10375Y101471D01*
X-10355Y101428D01*
X-10337Y101384D01*
X-10335Y101384D01*
X-10334Y101382D01*
X-10249Y101349D01*
X1975Y101349D01*
X1977Y101350D01*
G37*
G36*
X16201Y101350D02*
X16201Y101350D01*
X16203Y101349D01*
X16246Y101369D01*
X16290Y101387D01*
X16290Y101389D01*
X16292Y101390D01*
X16325Y101475D01*
X16325Y113699D01*
X16324Y113701D01*
X16325Y113703D01*
X16305Y113746D01*
X16287Y113790D01*
X16285Y113790D01*
X16284Y113792D01*
X16199Y113825D01*
X3975Y113825D01*
X3973Y113824D01*
X3971Y113825D01*
X3928Y113805D01*
X3884Y113787D01*
X3884Y113785D01*
X3882Y113784D01*
X3849Y113699D01*
X3849Y101475D01*
X3850Y101473D01*
X3849Y101471D01*
X3869Y101428D01*
X3887Y101384D01*
X3889Y101384D01*
X3890Y101382D01*
X3975Y101349D01*
X16199Y101349D01*
X16201Y101350D01*
G37*
G36*
X1977Y87126D02*
X1977Y87126D01*
X1979Y87125D01*
X2022Y87145D01*
X2066Y87163D01*
X2066Y87165D01*
X2068Y87166D01*
X2101Y87251D01*
X2101Y99475D01*
X2100Y99477D01*
X2101Y99479D01*
X2081Y99522D01*
X2063Y99566D01*
X2061Y99566D01*
X2060Y99568D01*
X1975Y99601D01*
X-10249Y99601D01*
X-10251Y99600D01*
X-10253Y99601D01*
X-10296Y99581D01*
X-10340Y99563D01*
X-10340Y99561D01*
X-10342Y99560D01*
X-10375Y99475D01*
X-10375Y87251D01*
X-10374Y87249D01*
X-10375Y87247D01*
X-10355Y87204D01*
X-10337Y87160D01*
X-10335Y87160D01*
X-10334Y87158D01*
X-10249Y87125D01*
X1975Y87125D01*
X1977Y87126D01*
G37*
G36*
X30425Y87126D02*
X30425Y87126D01*
X30427Y87125D01*
X30470Y87145D01*
X30514Y87163D01*
X30514Y87165D01*
X30516Y87166D01*
X30549Y87251D01*
X30549Y99475D01*
X30548Y99477D01*
X30549Y99479D01*
X30529Y99522D01*
X30511Y99566D01*
X30509Y99566D01*
X30508Y99568D01*
X30423Y99601D01*
X18199Y99601D01*
X18197Y99600D01*
X18195Y99601D01*
X18152Y99581D01*
X18108Y99563D01*
X18108Y99561D01*
X18106Y99560D01*
X18073Y99475D01*
X18073Y87251D01*
X18074Y87249D01*
X18073Y87247D01*
X18093Y87204D01*
X18111Y87160D01*
X18113Y87160D01*
X18114Y87158D01*
X18199Y87125D01*
X30423Y87125D01*
X30425Y87126D01*
G37*
G36*
X16201Y87126D02*
X16201Y87126D01*
X16203Y87125D01*
X16246Y87145D01*
X16290Y87163D01*
X16290Y87165D01*
X16292Y87166D01*
X16325Y87251D01*
X16325Y99475D01*
X16324Y99477D01*
X16325Y99479D01*
X16305Y99522D01*
X16287Y99566D01*
X16285Y99566D01*
X16284Y99568D01*
X16199Y99601D01*
X3975Y99601D01*
X3973Y99600D01*
X3971Y99601D01*
X3928Y99581D01*
X3884Y99563D01*
X3884Y99561D01*
X3882Y99560D01*
X3849Y99475D01*
X3849Y87251D01*
X3850Y87249D01*
X3849Y87247D01*
X3869Y87204D01*
X3887Y87160D01*
X3889Y87160D01*
X3890Y87158D01*
X3975Y87125D01*
X16199Y87125D01*
X16201Y87126D01*
G37*
G36*
X-12247Y87126D02*
X-12247Y87126D01*
X-12245Y87125D01*
X-12202Y87145D01*
X-12158Y87163D01*
X-12158Y87165D01*
X-12156Y87166D01*
X-12123Y87251D01*
X-12123Y99475D01*
X-12124Y99477D01*
X-12123Y99479D01*
X-12143Y99522D01*
X-12161Y99566D01*
X-12163Y99566D01*
X-12164Y99568D01*
X-12249Y99601D01*
X-24473Y99601D01*
X-24475Y99600D01*
X-24477Y99601D01*
X-24520Y99581D01*
X-24564Y99563D01*
X-24564Y99561D01*
X-24566Y99560D01*
X-24599Y99475D01*
X-24599Y87251D01*
X-24598Y87249D01*
X-24599Y87247D01*
X-24579Y87204D01*
X-24561Y87160D01*
X-24559Y87160D01*
X-24558Y87158D01*
X-24473Y87125D01*
X-12249Y87125D01*
X-12247Y87126D01*
G37*
G36*
X16201Y72902D02*
X16201Y72902D01*
X16203Y72901D01*
X16246Y72921D01*
X16290Y72939D01*
X16290Y72941D01*
X16292Y72942D01*
X16325Y73027D01*
X16325Y85251D01*
X16324Y85253D01*
X16325Y85255D01*
X16305Y85298D01*
X16287Y85342D01*
X16285Y85342D01*
X16284Y85344D01*
X16199Y85377D01*
X3975Y85377D01*
X3973Y85376D01*
X3971Y85377D01*
X3928Y85357D01*
X3884Y85339D01*
X3884Y85337D01*
X3882Y85336D01*
X3849Y85251D01*
X3849Y73027D01*
X3850Y73025D01*
X3849Y73023D01*
X3869Y72980D01*
X3887Y72936D01*
X3889Y72936D01*
X3890Y72934D01*
X3975Y72901D01*
X16199Y72901D01*
X16201Y72902D01*
G37*
G36*
X1977Y72902D02*
X1977Y72902D01*
X1979Y72901D01*
X2022Y72921D01*
X2066Y72939D01*
X2066Y72941D01*
X2068Y72942D01*
X2101Y73027D01*
X2101Y85251D01*
X2100Y85253D01*
X2101Y85255D01*
X2081Y85298D01*
X2063Y85342D01*
X2061Y85342D01*
X2060Y85344D01*
X1975Y85377D01*
X-10249Y85377D01*
X-10251Y85376D01*
X-10253Y85377D01*
X-10296Y85357D01*
X-10340Y85339D01*
X-10340Y85337D01*
X-10342Y85336D01*
X-10375Y85251D01*
X-10375Y73027D01*
X-10374Y73025D01*
X-10375Y73023D01*
X-10355Y72980D01*
X-10337Y72936D01*
X-10335Y72936D01*
X-10334Y72934D01*
X-10249Y72901D01*
X1975Y72901D01*
X1977Y72902D01*
G37*
G36*
X-12247Y72902D02*
X-12247Y72902D01*
X-12245Y72901D01*
X-12202Y72921D01*
X-12158Y72939D01*
X-12158Y72941D01*
X-12156Y72942D01*
X-12123Y73027D01*
X-12123Y85251D01*
X-12124Y85253D01*
X-12123Y85255D01*
X-12143Y85298D01*
X-12161Y85342D01*
X-12163Y85342D01*
X-12164Y85344D01*
X-12249Y85377D01*
X-24473Y85377D01*
X-24475Y85376D01*
X-24477Y85377D01*
X-24520Y85357D01*
X-24564Y85339D01*
X-24564Y85337D01*
X-24566Y85336D01*
X-24599Y85251D01*
X-24599Y73027D01*
X-24598Y73025D01*
X-24599Y73023D01*
X-24579Y72980D01*
X-24561Y72936D01*
X-24559Y72936D01*
X-24558Y72934D01*
X-24473Y72901D01*
X-12249Y72901D01*
X-12247Y72902D01*
G37*
G36*
X30425Y72902D02*
X30425Y72902D01*
X30427Y72901D01*
X30470Y72921D01*
X30514Y72939D01*
X30514Y72941D01*
X30516Y72942D01*
X30549Y73027D01*
X30549Y85251D01*
X30548Y85253D01*
X30549Y85255D01*
X30529Y85298D01*
X30511Y85342D01*
X30509Y85342D01*
X30508Y85344D01*
X30423Y85377D01*
X18199Y85377D01*
X18197Y85376D01*
X18195Y85377D01*
X18152Y85357D01*
X18108Y85339D01*
X18108Y85337D01*
X18106Y85336D01*
X18073Y85251D01*
X18073Y73027D01*
X18074Y73025D01*
X18073Y73023D01*
X18093Y72980D01*
X18111Y72936D01*
X18113Y72936D01*
X18114Y72934D01*
X18199Y72901D01*
X30423Y72901D01*
X30425Y72902D01*
G37*
D10*
X24700Y161925D03*
X12700Y161925D03*
X700Y161925D03*
D11*
X57150Y81525D03*
X57150Y64525D03*
X49213Y172013D03*
X49213Y155013D03*
D12*
X-15875Y156600D03*
X-15875Y173600D03*
X-44450Y143438D03*
X-44450Y126438D03*
D11*
X-5325Y52388D03*
X11675Y52388D03*
D13*
X-26988Y155600D03*
X-26988Y174600D03*
X-55563Y144438D03*
X-55563Y125438D03*
D14*
X-6325Y41275D03*
X12675Y41275D03*
D15*
X-24532Y134275D03*
X-19531Y134275D03*
X-14529Y134275D03*
X-9528Y134275D03*
X-4527Y134275D03*
X474Y134275D03*
X5476Y134275D03*
X10477Y134275D03*
X15478Y134275D03*
X20479Y134275D03*
X25481Y134275D03*
X30482Y134275D03*
D16*
X36775Y127982D03*
X36775Y122981D03*
X36775Y117979D03*
X36775Y112978D03*
X36775Y107977D03*
X36775Y102976D03*
X36775Y97974D03*
X36775Y92973D03*
X36775Y87972D03*
X36775Y82971D03*
X36775Y77969D03*
X36775Y72968D03*
D15*
X30482Y66675D03*
X25481Y66675D03*
X20479Y66675D03*
X15478Y66675D03*
X10477Y66675D03*
X5476Y66675D03*
X474Y66675D03*
X-4527Y66675D03*
X-9528Y66675D03*
X-14529Y66675D03*
X-19531Y66675D03*
X-24532Y66675D03*
D16*
X-30825Y72968D03*
X-30825Y77969D03*
X-30825Y82971D03*
X-30825Y87972D03*
X-30825Y92973D03*
X-30825Y97974D03*
X-30825Y102976D03*
X-30825Y107977D03*
X-30825Y112978D03*
X-30825Y117979D03*
X-30825Y122981D03*
X-30825Y127982D03*
D17*
X58838Y196850D03*
X7838Y196850D03*
X-11013Y196850D03*
X-62013Y196850D03*
D18*
X78369Y232319D03*
X78369Y198319D03*
X-81544Y231894D03*
X-81544Y197894D03*
M02*
