M48
;GenerationSoftware,Autodesk,EAGLE,9.6.2*%
;CreationDate,2023-11-05T06:11:03Z*%
FMAT,2
ICI,OFF
METRIC,TZ,000.000
T4C0.300
T3C0.350
T2C1.016
T1C1.200
%
G90
M71
T1
X-7015Y25559
X6985Y25559
X3485Y25559
X-15Y25559
X-3515Y25559
T2
X-5080Y8573
X5239Y9843
X-5080Y6032
X-5080Y3492
T3
X11589Y10954
X9366Y8255
X8096Y9525
X3651Y4286
X3651Y3175
X-2064Y4286
X-2064Y3175
X-9684Y4763
X-9366Y7779
X1111Y4445
X-8890Y14446
X7779Y29369
X3492Y29369
X-2540Y29369
X-5715Y29527
X9208Y26352
X-6509Y22860
X6032Y23177
X2381Y20955
X0Y18891
X10478Y11747
X6509Y17780
X8573Y17621
X6350Y22066
X9208Y23177
X-7620Y12224
X14129Y18098
X-5874Y13970
X-4604Y18733
X4286Y20161
X3492Y18098
X-7461Y17304
X-9843Y8890
X-12700Y11112
X-1270Y5398
X10478Y15081
X12859Y14922
X-4604Y20161
T4
X5239Y11589
X2749Y2147
X635Y11430
X-11112Y19745
X2064Y7779
X10160Y20638
X5357Y6347
X5239Y4921
X2428Y14684
X10526Y9814
X-9678Y6589
M30